<svg width="502" height="748" viewBox="0 0 502 748" fill="none" xmlns="http://www.w3.org/2000/svg">
<path d="M407.373 486.686C392.562 468.26 387.401 462.206 369.437 442.182L359.886 431.589L365.317 431.851L370.831 432.171L376.753 438.881C381.512 444.289 384.642 446.968 391.941 451.712C397.053 455.046 407.677 462.363 415.624 467.926C423.652 473.547 430.123 478.077 430.074 477.799C430.05 477.66 425.339 472.531 419.572 466.296C407.957 453.769 394.801 443.094 383.209 436.809C379.4 434.753 376.36 432.991 376.475 432.827C376.532 432.745 377.95 432.639 379.613 432.705C381.997 432.787 385.781 434.704 395.161 440.66C408.727 449.181 408.424 449.091 427.569 451.387C432.55 451.944 435.991 453.132 440.455 455.648C448.262 460.015 446.247 457.139 436.802 450.404C428.422 444.415 420.574 440.63 409.826 437.499C405.115 436.033 401.232 434.779 401.208 434.64C401.183 434.5 405.787 433.329 411.505 431.961C420.992 429.57 460.677 415.605 460.587 414.687C460.521 413.909 427.465 415.791 418.364 417.109C409.598 418.296 398.489 422.482 388.985 428.036C383.979 431.001 376.811 432.696 374.927 431.377C374.435 431.033 376.262 429.993 379.031 429.002C387.986 425.627 395.695 420.892 403.904 413.7C412.171 406.426 423.838 394.818 425.845 391.951C427.082 390.01 395.516 409.292 386.684 415.804C383.382 418.254 378.098 422.489 374.952 425.413L369.119 430.607L361.074 429.369C356.568 428.656 353.062 427.91 353.234 427.664C353.406 427.419 360.648 423.7 369.373 419.432C378.098 415.165 387.872 409.922 391.084 407.776C396.974 403.721 431.319 374.543 431.089 373.65C431.016 373.232 406.724 387.354 385.456 400.296C380.786 403.13 370.251 410.159 361.96 416.073C347.016 426.607 344.157 427.901 340.52 425.599C339.946 425.197 344.739 421.839 351.039 418.071C367.465 408.209 371.226 405.104 384.417 391.145C397.492 377.35 404.637 371.854 423.947 360.837C430.017 357.396 435.081 354.349 435.253 354.103C435.425 353.858 431.877 354.914 427.404 356.421C416.918 360.066 406.415 365.652 395.723 373.426C391.07 376.76 382.713 381.896 377.265 384.796C363.198 392.16 347.452 405.061 335.457 418.881L331.156 423.804L325.937 422.714C322.955 422.091 320.588 421.288 320.457 420.952C320.465 420.592 328.912 413.932 339.407 406.265C360.88 390.414 369.294 382.755 381.731 367.781C386.467 362.063 394.791 352.265 400.149 346.007C410.726 333.514 411.267 332.916 410.431 333.064C410.153 333.113 402.067 339.781 392.587 347.915C383.108 356.049 371.622 365.83 366.985 369.664C353.975 380.575 339.293 394.222 326.594 407.304C320.146 413.899 314.223 419.395 313.305 419.485C311.495 419.805 294.496 415.838 294.373 415.142C294.324 414.864 304.032 408.843 315.985 401.708C327.881 394.656 341.62 385.842 346.503 382.18C354.18 376.446 404.664 329.27 404.386 328.099C404.263 327.402 357.155 360.34 334.584 376.887C323.327 385.119 308.162 396.841 300.92 403.002C288.983 413.077 287.377 414.15 285.034 413.487C283.6 413.093 279.324 412.053 275.49 411.077L268.568 409.283L273.967 406.104C276.973 404.425 286.837 398.88 295.882 393.981C323.778 378.721 329.193 374.822 353.223 352.705C362.547 344.095 374.049 333.593 378.809 329.236C383.512 324.959 387.453 321.249 387.404 320.97C387.355 320.692 383.389 323.042 378.572 326.262C373.812 329.399 360.409 338.082 348.923 345.421C316.152 366.424 303.748 375.074 281.947 391.916L261.588 407.57L252.101 405.079C246.891 403.628 242.484 402.252 242.492 401.891C242.361 401.555 256.133 392.52 272.993 381.863C302.495 363.089 303.823 362.065 313.9 352.03C324.805 340.987 330.22 337.088 359.247 319.69C378.008 308.411 380.343 306.993 380.015 306.764C379.851 306.649 376.239 308.148 372.06 310.106C367.858 311.924 360.853 314.955 356.544 316.577C345.852 320.688 335.243 326.078 323.626 333.082C318.251 336.399 312.271 339.537 310.231 340.184C302.825 342.567 291.773 347.891 283.416 353.027C273.397 359.318 264.229 367.182 246.598 384.868C239.445 391.946 233.063 398.098 232.276 398.523C231.547 398.868 227.345 398.245 222.904 397.089C214.909 394.909 214.909 394.909 216.744 393.509C217.678 392.698 232.138 382.68 248.77 371.13C279.214 349.963 282.491 347.374 301.777 327.673C305.497 323.93 315.68 314.091 324.496 305.859C333.23 297.569 340.407 290.63 340.276 290.295C340.226 290.016 338.703 291.146 336.695 292.793C330.469 298.199 306.849 315.721 298.034 321.512C293.274 324.65 284.262 329.327 277.962 331.874C254.81 341.056 244.782 348.928 205.111 389.027C203.039 391.115 202.318 391.099 195.125 388.993C190.881 387.731 187.301 386.568 187.334 386.346C187.285 386.068 190.734 383.234 195.027 379.891C207.677 370.193 222.359 357.766 229.028 351.204C232.378 347.813 241.907 336.295 250.141 325.58C262.324 309.574 266.142 305.166 270.747 301.554C278.825 295.246 292.334 287.981 304.648 283.296C310.579 281.101 315.372 278.963 315.241 278.627C314.848 276.398 288.435 283.786 276.99 289.323C265.684 294.836 259.687 299.915 248.2 313.357C235.288 328.488 228.865 334.001 217.928 339.161C210.301 342.732 204.533 348.704 191.08 366.874L178.429 383.896L166.969 380.389C160.661 378.414 155.295 376.489 155 376.038C154.599 375.391 160.465 371.197 201.166 343.051C223.491 327.553 231.438 319.689 258.525 286.405C269.774 272.43 278.999 260.822 279.032 260.601C278.991 259.962 278.794 260.069 265.006 272.266C250.849 284.815 236.339 295.776 214.899 310.184C183.488 331.163 180.686 333.596 158.36 358.859C151.552 366.666 145.497 373.047 145.079 373.121C143.801 373.203 128.801 367.95 128.621 367.336C128.572 367.057 143.852 356.392 162.425 343.638C200.439 317.761 200.242 317.868 217.644 300.509C224.542 293.62 238.782 279.907 249.211 270.241C259.698 260.493 268.628 252.097 268.915 251.687C269.177 251.138 264.606 254.529 258.732 259.084C231.671 280.3 213.196 292.391 199.76 297.633C173.282 307.904 162.451 315.702 129.245 348.485L114.514 363.075L105.429 360.01C100.391 358.314 96.459 356.782 96.5738 356.618C96.6885 356.454 102.595 352.899 109.657 348.566C129.205 336.86 134.85 332.634 148.803 319.33C172.791 296.574 173.734 295.402 199.583 259.178C214.683 238.133 222.434 226.713 220.681 228.172C219.181 229.441 214.708 234.61 210.849 239.599C197.961 256.089 184.189 267.566 159.463 282.482C138.621 294.99 123.063 309.367 91.3479 344.903C83.7203 353.356 83.8595 353.332 76.4457 349.972L73.1771 348.539L79.8379 342.337C83.4919 339.036 92.8072 330.787 100.451 324.054C121.286 305.803 125.751 300.994 142.686 278.549C151.125 267.367 163.029 252.63 169.231 245.863C180.104 233.821 200.111 212.916 204.158 209.402C205.207 208.427 205.78 207.608 205.362 207.681C204.109 207.903 175.631 230.446 170.584 235.213C164.628 240.931 151.937 251.211 140.09 259.763C112.98 279.48 101.871 290.99 75.1366 327.083C67.8693 336.766 61.8064 344.728 61.5279 344.777C61.192 344.908 44.2098 339.001 43.6363 338.599C43.5544 338.542 46.3727 336.609 49.9201 334.331C53.5495 332.112 59.9235 327.541 64.2984 324.256L72.1471 318.276L88.6646 294.683C106.1 269.78 115.555 254.183 131.876 223.372C145.387 197.797 145.502 196.413 132.975 214.132C123.028 228.164 118.383 233.579 101.849 250.569C95.0327 257.515 59.2781 303.529 46.89 321.223C36.2798 336.378 36.3371 336.297 29.4312 333.781C24.9747 332.126 23.8524 331.462 24.4259 330.643C24.8274 330.07 30.8328 324.63 37.8786 318.577C50.3891 307.682 50.7578 307.33 58.6315 295.386C67.7424 281.5 68.7502 278.666 69.7836 262.544C70.4152 253.098 69.9419 227.62 69.0004 219.026L68.5092 215.02L68.1402 219.034C67.9516 221.221 67.1153 231.134 66.3363 240.965C64.4175 265.501 63.6308 268.368 56.175 279.017C51.5868 285.571 48.4571 288.995 42.9433 293.558C36.6348 298.907 34.6685 301.192 25.6068 314.136L15.3981 328.717L11.5479 327.242C9.40152 326.472 6.15746 325.177 4.25688 324.579C2.41366 323.899 0.627794 323.137 0.382035 322.965C0.136275 322.793 2.38937 320.098 5.3716 317.059C13.9496 308.294 25.2317 291.656 29.2548 281.899C33.6876 271.208 33.9418 268.579 31.5503 259.092C28.9296 248.712 28.43 246.287 28.2829 241.789L28.1193 238.013L27.4308 242.658C25.2097 256.117 20.5802 268.135 13.5832 278.129C10.6009 282.389 5.93058 291.327 1.02258 302.173C-3.24633 311.758 -7.25295 319.573 -7.81004 319.671C-9.00613 319.81 -44.2321 306.135 -56.5939 300.776C-60.7145 298.99 -64.2617 297.605 -64.5402 297.654C-65.3758 297.801 -60.2402 309.82 -58.9294 310.738C-57.9464 311.426 -0.47058 331.157 4.65771 332.55C5.87014 332.911 4.28885 335.344 -5.52652 348.492C-14.2522 360.083 -18.6765 366.752 -22.9371 374.755C-34.4162 396.382 -34.8341 397.676 -39.3256 426.759C-41.5468 441.439 -43.1289 453.637 -42.8012 453.867C-42.5554 454.039 -42.0966 453.384 -41.9081 452.417C-39.6791 443.479 -26.4702 404.386 -24.1187 399.807C-22.4636 396.571 -16.2531 387.003 -10.2311 378.402C-0.423877 364.393 1.22299 361.518 6.52433 349.238C9.80182 341.767 12.4402 335.557 12.4976 335.476C12.727 335.148 22.8278 338.679 23.9747 339.482C24.5481 339.884 22.843 355.048 20.1546 373.185C17.5235 391.241 15.2037 410.247 15.0886 415.293C14.9407 420.561 16.4224 435.881 18.6332 450.857C20.8277 465.333 23.759 486.428 25.1099 497.75C28.8679 528.824 29.2365 529.692 27.8537 506.385C27.0274 491.524 28.5522 476.966 33.453 453.053C37.7227 432.483 37.8956 421.251 34.4913 371.015L32.5191 341.924L39.6217 344.333C43.5866 345.644 48.0186 347.16 49.6734 347.587C51.2709 348.095 52.6471 348.57 52.811 348.685C53.0567 348.857 51.3176 380.11 50.1039 396.839C48.2588 421.792 49.2896 441.069 52.967 453.776C56.5216 465.786 71.2318 509.288 71.9691 509.804C72.2967 510.034 70.1677 496.336 67.1706 479.345L61.8561 448.402L65.8312 423.719C70.3555 395.636 70.2577 387.755 65.5406 365.898C63.9846 358.705 62.9855 352.634 63.4034 352.56C64.5175 352.364 85.1944 359.271 86.8082 360.279C88.2009 361.254 85.5781 377.729 80.2103 402.658C77.4485 415.495 75.0961 432.281 74.8825 440.432C74.7512 443.758 75.7989 456.21 77.0514 468.196C78.3858 480.239 80.2195 499.589 81.1198 511.206C83.346 540.108 83.8045 543.115 83.6828 526.55C83.4874 510.788 85.7414 495.887 91.4777 473.047C97.0255 451.174 97.9031 438.238 96.6941 390.272C96.3839 375.894 96.5159 364.024 96.991 363.868C97.9168 363.418 106.756 366.31 106.74 367.031C106.756 368.752 104.845 400.251 104.008 411.384C102.606 430.3 102.351 447.578 103.382 455.868C103.849 459.735 105.774 469.017 107.739 476.497C112.801 496.642 118.615 521.465 123.201 542.987C125.486 553.498 127.403 561.92 127.575 561.674C127.804 561.346 126.912 554.252 125.552 545.732C122.605 526.578 122.942 511.799 126.983 481.791C129.327 464.145 128.197 449.193 120.508 400.719L115.587 369.563L123.82 372.275C128.391 373.767 132.987 375.397 134.028 376.004C135.453 376.758 135.797 381.149 135.509 398.647C135.138 424.633 135.236 425.191 138.929 456.707C140.558 470.421 141.917 485.044 141.876 489.288C141.908 498.832 139.972 526.53 137.841 547.01C137.013 555.342 136.471 562.043 136.693 562.076C138.225 561.806 154.56 454.955 154.88 443.338C155.209 431.361 148.289 400.27 141.359 382.968C140.442 380.616 139.852 378.495 140.082 378.167C140.426 377.675 161.848 384.739 163.568 385.943C164.06 386.287 164.649 394.512 164.706 404.196C165.561 466.441 167.928 478.23 187.652 520.848C201.134 550.063 214.314 575.525 215.232 574.215C215.346 574.051 212.357 565.244 208.548 554.643C203.388 540.044 200.653 529.828 197.27 512.689C194.863 500.261 190.874 481.722 188.278 471.481C184.085 454.629 172.694 390.867 173.669 389.475C174.071 388.901 191.323 393.9 191.307 394.621C191.413 397.259 195.57 458.276 196.332 467.476C197.674 482.82 201.744 501.417 206.11 511.92C207.896 516.344 214.252 532.024 220.1 546.861C226.005 561.616 231.649 575.699 232.648 578.107L234.491 582.449L234.229 579.336C234.156 577.698 232.264 565.753 230.201 552.834C228.08 539.996 224.075 514.854 221.291 497.035C216.067 463.348 212.832 448.266 204.036 416.717C201.161 406.525 198.893 397.735 199.016 397.21C199.081 396.768 203.03 397.579 207.658 398.989L216.088 401.594L224.319 432.382C238.971 486.952 240.495 490.704 258.376 520.435C264.577 530.758 273.661 546.029 278.576 554.353C292.575 577.948 292.354 577.915 284.884 557.548C282.115 549.995 274.474 528.653 267.905 510.138C254.013 470.871 247.895 455.723 235.24 429.163C230.129 418.504 225.394 408.354 224.682 406.756L223.281 403.7L235.938 407.068L248.513 410.379L257.145 439.372C269.75 481.523 269.619 481.187 294.693 521.569C303.63 536.004 311.174 548.244 311.411 548.776C311.567 549.252 311.895 549.481 312.067 549.235C312.525 548.58 281.474 468.612 276.199 456.618C273.586 450.761 267.763 438.505 263.143 429.411C258.523 420.317 255.255 412.78 255.951 412.657C257.205 412.436 272.934 416.124 273.999 416.869C274.408 417.156 280.158 431.436 286.924 448.624C293.55 465.836 300.152 481.689 301.569 484.024C302.986 486.359 308.581 494.06 313.938 501.228C319.295 508.397 329.035 521.686 335.539 530.878C341.961 540.013 347.556 547.714 347.965 548.001C348.293 548.23 345.524 543.118 341.707 536.539C331.698 519.277 325.268 505.62 316.536 483.394C308.124 461.757 301.064 447.781 290.259 431.305C286.401 425.308 283.108 420.073 283.01 419.516C282.723 418.705 300.377 421.909 301.852 422.942C302.18 423.171 308.028 434.346 314.876 447.929C325.524 468.812 328.49 473.818 334.969 481.65C339.155 486.656 348.764 498.388 356.349 507.605C363.877 516.904 370.365 524.376 370.644 524.327C370.922 524.278 369.341 521.828 367.302 518.813C359.479 507.843 352.188 495.415 339.762 472.189C328.139 450.257 325.379 446.005 309.79 425.203C308.955 424.13 321.513 425.72 323.316 426.982C323.643 427.212 330.122 439.927 337.625 455.189C346.48 473.23 352.312 483.905 354.376 485.838C356.031 487.485 364.133 497.185 372.193 507.467C380.311 517.667 386.815 525.639 386.717 525.082C385.931 521.846 356.122 471.313 344.22 453.093C336.553 441.377 329.582 430.759 328.78 429.465C327.444 427.187 327.584 427.163 334.801 428.187L342.1 429.269L354.838 451.004C363.619 466.185 369.222 474.747 373.309 479.195C376.586 482.71 383.885 491.116 389.643 497.711C395.345 504.389 400.104 509.796 400.325 509.829C401.218 509.599 368.633 461.639 358.131 447.695C351.562 438.945 346.106 431.219 345.869 430.687C345.77 430.13 348.13 430.072 351.087 430.556L356.502 431.54L363.367 443.181C375.285 463.122 380.11 469.308 390.735 477.845C395.854 482.04 404.857 489.93 410.559 495.386C416.342 500.9 421.372 505.398 421.708 505.267C421.986 505.218 415.572 496.943 407.373 486.686Z" fill="#145EB4" fill-opacity="0.58"/>
<path d="M141.308 691.787C140.884 676.523 140.604 671.386 139.244 654.027L138.502 644.824L141.018 647.193L143.553 649.625L143.962 655.402C144.285 660.052 144.816 662.674 146.601 668.041C147.847 671.806 150.296 679.823 152.095 685.864C153.912 691.967 155.377 696.887 155.455 696.728C155.494 696.649 155.093 692.158 154.586 686.681C153.554 675.666 151.109 664.936 147.819 657.033C146.735 654.441 145.914 652.312 146.029 652.278C146.086 652.261 146.806 652.792 147.582 653.51C148.699 654.534 149.822 657.047 152.167 663.875C155.592 673.703 155.479 673.533 163.851 682.567C166.044 684.897 167.266 686.906 168.499 689.997C170.665 695.386 170.742 693.126 168.648 685.884C166.795 679.453 164.398 674.336 160.367 668.349C158.635 665.678 157.224 663.454 157.263 663.375C157.302 663.295 159.941 664.611 163.188 666.289C168.619 669.011 192.778 678.429 193.068 677.936C193.32 677.522 176.74 664.83 171.885 661.733C167.238 658.71 160.375 656.21 153.786 655.053C150.301 654.464 146.238 652.351 145.811 650.919C145.7 650.545 146.957 650.781 148.649 651.43C154.181 653.444 159.609 654.269 166.171 654.078C172.79 653.87 182.62 652.909 184.627 652.312C185.928 651.857 163.74 648.429 157.126 648.025C154.648 647.881 150.567 647.808 147.991 647.965L143.299 648.141L139.88 644.21C137.973 641.998 136.558 640.182 136.73 640.131C136.902 640.079 141.736 641.216 147.483 642.692C153.23 644.168 159.835 645.591 162.16 645.848C166.466 646.261 193.587 645.915 193.802 645.376C193.918 645.138 177.104 642.144 162.173 639.81C158.897 639.294 151.276 638.444 145.139 637.966C134.124 637.042 132.279 636.506 131.367 633.863C131.237 633.427 134.763 633.733 139.162 634.457C150.645 636.326 153.582 636.333 164.999 634.833C176.301 633.366 181.734 633.579 195.025 636.063C199.194 636.855 202.737 637.428 202.909 637.376C203.081 637.325 200.991 636.388 198.292 635.293C191.925 632.782 184.844 631.229 176.877 630.686C173.427 630.425 167.542 629.533 163.868 628.728C154.428 626.59 142.166 626.511 131.375 628.436L127.517 629.11L125.404 626.417C124.196 624.878 123.35 623.503 123.409 623.282C123.544 623.106 130.026 623.278 137.86 623.793C153.947 624.766 160.777 624.428 172.201 622.111C176.557 621.221 184.121 619.783 188.972 618.881C198.599 617.031 199.077 616.957 198.621 616.686C198.47 616.595 192.157 616.576 184.642 616.712C177.128 616.848 168.049 616.974 164.426 616.968C154.203 617.029 142.183 617.76 131.321 619.028C125.823 619.648 120.977 619.938 120.503 619.605C119.516 619.017 112.784 610.038 112.978 609.641C113.056 609.482 119.913 610.492 128.254 611.873C136.538 613.271 146.348 614.554 150.027 614.747C155.803 615.061 197.227 612.423 197.519 611.725C197.713 611.329 163.088 608.281 146.22 607.202C137.814 606.653 126.261 606.229 120.539 606.305C111.137 606.393 109.975 606.264 109.089 604.968C108.543 604.182 106.865 601.901 105.376 599.836L102.7 596.09L106.451 596.736C108.507 597.141 115.266 598.451 121.396 599.745C140.357 603.659 144.378 603.953 163.973 602.865C171.586 602.429 180.934 601.951 184.807 601.747C188.623 601.56 191.867 601.34 191.944 601.181C192.022 601.022 189.261 600.556 185.774 600.171C182.345 599.768 172.744 598.559 164.553 597.472C141.16 594.402 132.051 593.589 115.446 592.973L99.9661 592.362L96.31 587.213C94.3319 584.344 92.713 581.843 92.848 581.667C92.9071 581.446 102.814 582.632 114.795 584.285C135.806 587.115 136.816 587.153 145.31 586.319C154.567 585.326 158.588 585.62 178.87 588.937C191.992 591.065 193.63 591.323 193.556 591.074C193.519 590.949 191.236 590.205 188.516 589.456C185.834 588.627 181.364 587.246 178.702 586.275C172.067 583.912 165.006 582.217 156.874 580.91C153.084 580.343 149.067 579.437 147.851 578.918C143.424 577.05 136.174 575.14 130.289 574.248C123.184 573.245 115.917 573.374 101.01 574.897C94.9982 575.467 89.693 575.894 89.16 575.781C88.6844 575.652 86.8899 573.61 85.1749 571.205C82.1226 566.825 82.1226 566.825 83.5142 566.886C84.2581 566.868 94.853 567.849 107.049 568.964C129.382 570.993 131.899 571.057 148.334 569.214C151.483 568.887 159.957 568.195 167.188 567.736C174.401 567.216 180.374 566.726 180.433 566.505C180.511 566.346 179.367 566.28 177.804 566.271C172.844 566.391 155.118 565.364 148.773 564.609C145.344 564.206 139.311 562.816 135.355 561.485C120.885 556.505 113.201 556.284 79.5498 559.862C77.7938 560.046 77.4531 559.741 74.76 555.729C73.1782 553.352 71.8797 551.298 71.9759 551.201C72.0535 551.043 74.7423 551.056 78.0215 551.164C87.6297 551.558 99.2065 551.433 104.798 550.921C107.643 550.616 116.411 548.819 124.265 546.887C135.942 543.953 139.38 543.336 142.907 543.439C149.085 543.634 158.222 545.591 165.846 548.338C169.496 549.692 172.578 550.606 172.637 550.385C173.258 549.115 157.872 541.899 150.355 539.933C142.915 538.012 138.185 538.065 127.775 540.012C116.067 542.21 110.974 542.302 103.839 540.358C98.8732 538.989 93.929 539.58 80.8553 543.066L68.5846 546.313L64.3485 539.845C62.0332 536.263 60.1529 533.093 60.1749 532.748C60.2172 532.261 64.5624 532.594 94.365 535.382C110.734 536.882 117.414 536.249 142.537 530.87C153.026 528.561 161.682 526.594 161.778 526.498C161.991 526.163 161.857 526.135 150.793 526.514C139.424 526.916 128.463 526.382 112.916 524.706C90.1859 522.185 87.9542 522.239 68.0353 525.594C61.9237 526.667 56.6927 527.344 56.465 527.208C55.8207 526.722 50.5173 517.927 50.654 517.548C50.7316 517.389 61.9556 518.386 75.5227 519.703C103.208 522.511 103.075 522.483 117.752 521.029C123.574 520.448 135.406 519.501 143.934 518.996C152.52 518.474 159.867 517.981 160.154 517.896C160.479 517.731 157.048 517.532 152.568 517.375C131.843 516.765 118.565 515.159 110.199 512.226C93.733 506.416 85.6903 505.828 57.8063 508.435L45.4196 509.614L42.165 504.346C40.3589 501.426 39.0251 499.043 39.1398 499.009C39.2545 498.975 43.3872 499.642 48.3581 500.4C62.0127 502.64 66.2635 502.866 77.8084 502.005C97.6156 500.582 98.4944 500.388 124.092 493.038C139.003 488.802 146.881 486.32 145.508 486.322C144.325 486.336 140.295 487.061 136.626 487.95C124.435 490.834 113.641 490.861 96.3292 488.083C81.7605 485.709 69.0533 486.441 40.8856 491.031C34.1447 492.089 34.2206 492.134 31.8769 487.408L30.8264 485.347L36.2834 485.011C39.2404 484.876 46.7182 484.616 52.8415 484.42C69.4941 483.937 73.3891 483.387 89.6916 479.211C97.8141 477.132 108.895 474.714 114.337 473.907C123.943 472.403 141.162 470.259 144.386 470.181C145.244 470.129 145.818 469.958 145.59 469.822C144.907 469.416 123.019 468.882 118.859 469.171C113.916 469.558 104.077 469.436 95.272 468.803C75.0689 467.429 65.5431 468.57 39.5678 475.49C32.5536 477.307 26.7438 478.766 26.592 478.676C26.3828 478.602 20.3644 468.665 20.2346 468.229C20.2161 468.167 22.274 468.367 24.8076 468.698C27.3597 469.091 32.0861 469.446 35.3839 469.617L41.3316 469.88L57.8501 464.962C75.2863 459.77 85.5026 455.915 104.55 447.328C120.344 440.185 120.902 439.544 108.438 443.187C98.5539 446.062 94.3518 446.839 80.2259 448.468C74.4231 449.111 40.5042 457.244 28.1153 460.933C17.5044 464.092 17.5618 464.075 15.1555 459.978C13.6142 457.318 13.3158 456.525 13.8893 456.355C14.2908 456.235 19.1557 456.007 24.7443 455.902C34.7203 455.644 35.0256 455.621 43.1533 452.93C52.5817 449.784 54.0967 448.79 60.4542 441.202C64.1914 436.767 73.2252 423.907 75.8964 419.247L77.1164 417.054L75.4798 418.897C74.594 419.906 70.5886 424.489 66.6405 429.055C56.7989 440.46 55.3784 441.561 47.9221 443.781C43.3336 445.147 40.584 445.559 36.2741 445.554C31.2963 445.612 29.5199 445.938 20.4577 448.636L10.2484 451.676L8.93307 449.355C8.18098 448.088 7.09168 446.107 6.39522 445.026C5.75611 443.928 5.17438 442.813 5.11875 442.626C5.06312 442.439 7.1262 442.028 9.66495 441.747C16.9759 440.926 28.4488 437.307 33.93 434.116C39.9476 430.629 41.0257 429.427 43.3243 423.725C45.8372 417.485 46.4785 416.074 48.0427 413.777L49.3368 411.832L47.3173 413.858C41.3566 419.633 34.7619 423.698 27.7645 425.781C24.782 426.669 19.2874 429.187 12.9848 432.555C7.44795 435.559 2.68052 437.792 2.37692 437.612C1.75118 437.188 -10.2162 415.868 -14.2125 408.109C-15.5446 405.522 -16.7469 403.371 -16.8987 403.281C-17.3541 403.01 -19.2534 411.101 -18.9567 412.097C-18.7342 412.845 1.73085 446.347 3.69041 449.153C4.14236 449.832 2.49757 450.39 -7.00151 452.879C-15.4108 455.044 -19.9622 456.535 -24.9203 458.757C-38.3015 464.775 -38.9729 465.246 -51.7043 477.851C-58.1088 484.233 -63.3036 489.644 -63.2294 489.893C-63.1738 490.08 -62.715 489.943 -62.2729 489.54C-57.9522 486.017 -37.3903 472.03 -34.595 470.723C-32.6229 469.797 -26.1585 467.601 -20.1361 465.807C-10.3282 462.887 -8.4911 462.137 -1.47814 458.218C2.81364 455.856 6.33953 453.857 6.39688 453.839C6.62631 453.771 10.1996 459.691 10.4592 460.563C10.589 460.999 4.25693 467.833 -3.6289 475.741C-11.4574 483.631 -19.4816 492.122 -21.3714 494.584C-23.3573 497.141 -28.2136 505.367 -32.5943 513.723C-36.8011 521.823 -43.0599 533.517 -46.5259 539.702C-56.0143 556.698 -56.1527 557.281 -48.3453 545.126C-43.3407 537.398 -37.3157 530.79 -26.2666 520.924C-16.736 512.459 -12.5701 506.947 4.05374 480.572L13.6801 465.299L16.2197 469.424C17.6497 471.71 19.2298 474.291 19.8706 475.185C20.4541 476.096 20.9431 476.9 20.9802 477.024C21.0358 477.211 8.83875 492.03 2.17422 499.845C-7.78378 511.488 -14.2952 521.495 -17.1458 529.327C-19.8024 536.763 -28.5422 564.451 -28.3753 565.012C-28.3012 565.261 -24.3457 557.574 -19.6105 547.893L-10.9182 530.321L-0.034335 519.69C12.3494 507.596 15.1672 503.638 20.8443 490.828C22.7107 486.611 24.437 483.182 24.6647 483.317C25.2719 483.679 32.7035 495.637 33.1132 496.803C33.4284 497.862 26.1787 504.97 14.5358 515.148C8.54145 520.391 1.30851 527.765 -1.75725 531.729C-3.02944 533.328 -7.05215 539.95 -10.8066 546.424C-14.5426 552.96 -20.6948 563.335 -24.4846 569.481C-33.9204 584.765 -34.7929 586.449 -28.83 578.165C-23.1944 570.249 -16.6937 563.771 -5.63303 554.782C4.98562 546.197 10.1097 540.129 26.9643 515.787C32.0415 508.512 36.4199 502.666 36.705 502.785C37.3139 502.942 40.5128 508.024 40.2429 508.376C39.6253 509.238 27.2562 524.107 22.807 529.297C15.2567 538.121 8.85348 546.605 6.33583 551.151C5.15463 553.266 2.70596 558.673 0.932212 563.201C-3.95692 575.301 -10.1842 590.038 -15.8022 602.626C-18.5242 608.793 -20.6641 613.769 -20.492 613.718C-20.2626 613.65 -18.1128 609.755 -15.6693 604.96C-10.1243 594.223 -4.59007 587.016 8.26117 573.765C15.8029 565.96 20.6946 558.063 34.618 530.797L43.5768 513.282L46.5498 518.024C48.2058 520.65 49.8229 523.355 50.1028 524.085C50.5142 525.047 49.0833 527.372 42.5839 535.951C32.9597 548.716 32.8045 549.033 23.1237 566.221C18.922 573.71 14.2598 581.539 12.6973 583.632C9.24346 588.389 -1.75558 601.359 -10.2253 610.661C-13.652 614.461 -16.3482 617.569 -16.2538 617.677C-15.4189 618.174 31.2768 571.794 35.6536 566.152C40.1653 560.334 48.1392 542.027 51.0968 530.569C51.5104 529.022 51.9981 527.724 52.2275 527.656C52.5717 527.554 60.3051 539.896 60.6945 541.204C60.8058 541.577 58.0993 545.909 54.6066 550.746C32.3915 582.039 29.2442 588.875 23.2368 618.191C19.1001 638.271 16.1817 656.361 17.0994 656.088C17.2141 656.053 18.978 650.443 21.0001 643.604C23.8257 634.219 26.2239 628.014 30.8276 618.1C34.1875 610.93 39.0089 600.07 41.483 593.909C45.5924 583.804 63.2928 547.414 64.2678 547.123C64.6693 547.004 71.1483 556.601 70.8783 556.952C69.9705 558.307 49.7897 590.351 46.8115 595.238C41.8792 603.419 37.0764 614.341 35.3578 621.362C34.6083 624.297 31.9647 634.712 29.3836 644.497C26.8598 654.266 24.4543 663.593 24.0593 665.202L23.3671 668.121L24.3728 666.465C24.933 665.62 28.3653 658.903 32.0693 651.63C35.716 644.375 42.93 630.226 48.0684 620.221C57.8017 601.322 61.7287 592.492 68.9673 573.183C71.2896 566.932 73.3942 561.627 73.6439 561.417C73.8362 561.224 75.44 563.255 77.1533 565.864L80.2595 570.635L73.0261 589.331C60.2351 622.497 59.6037 624.991 57.3947 647.141C56.6241 654.829 55.4411 666.164 54.7786 672.328C52.9332 689.828 52.8388 689.72 56.6502 676.517C58.0647 671.621 62.1479 657.862 65.7196 645.951C73.3136 620.705 75.8778 610.653 79.4474 592.233C80.8641 584.828 82.2773 577.831 82.5154 576.743L82.9527 574.646L87.8145 581.538L92.6578 588.368L86.2696 606.339C77.0088 632.487 77.0679 632.266 74.4457 662.675C73.4956 673.535 72.674 682.729 72.5947 683.092C72.4968 683.392 72.5709 683.642 72.743 683.59C73.2018 683.454 87.3393 630.903 89.1627 622.766C90.0356 618.777 91.6903 610.284 92.7745 603.859C93.8587 597.435 95.027 592.341 95.4065 592.567C96.0896 592.974 102.312 601.291 102.553 602.1C102.646 602.412 100.22 611.88 97.2257 623.213C94.1552 634.501 91.5672 645.102 91.3998 646.847C91.2325 648.592 91.1234 654.727 91.0936 660.499C91.0638 666.27 90.9166 676.891 90.7027 684.142C90.4702 691.33 90.361 697.464 90.4538 697.776C90.5279 698.025 91.0549 694.342 91.6108 689.499C93.0724 676.792 94.945 667.352 98.8259 652.704C102.646 638.482 104.331 628.623 105.125 615.98C105.45 611.408 105.769 607.448 105.925 607.131C106.081 606.61 113.406 615.48 113.739 616.601C113.814 616.85 112.564 624.816 110.919 634.391C108.448 649.161 108.055 652.872 108.323 659.437C108.516 663.65 108.872 673.443 109.169 681.152C109.409 688.878 109.812 695.266 109.964 695.357C110.116 695.447 110.246 693.578 110.361 691.238C110.587 682.56 111.6 673.377 114.067 656.709C116.451 641.016 116.669 637.764 116.734 620.998C116.723 620.12 122.184 626.088 122.592 627.458C122.666 627.707 121.159 636.698 119.219 647.378C116.919 659.996 115.843 667.707 116.133 669.519C116.33 671.019 116.7 679.181 116.838 687.615C117.034 696.032 117.263 702.675 117.419 702.358C118.217 700.425 122.252 663.018 123.153 649.055C123.724 640.07 124.232 631.919 124.317 630.945C124.502 629.262 124.578 629.307 127.676 632.792L130.793 636.339L129.017 652.394C127.721 663.56 127.303 670.125 127.652 674.022C127.95 677.12 128.404 684.307 128.775 689.959C129.09 695.629 129.413 700.279 129.507 700.386C130.02 700.64 131.785 663.367 131.804 652.106C131.825 645.049 132.01 638.959 132.09 638.597C132.245 638.279 133.4 639.224 134.647 640.683L136.893 643.404L135.962 652.021C134.444 666.847 134.516 671.91 136.521 680.534C137.458 684.73 138.919 692.363 139.678 697.426C140.454 702.551 141.238 706.86 141.447 706.933C141.599 707.024 141.522 700.266 141.308 691.787Z" fill="#145EB4" fill-opacity="0.37"/>
<path d="M338.885 57.3962C315.288 55.971 307.336 55.7204 280.436 55.5557L266.173 55.5037L270.019 51.6596L273.963 47.7935L282.912 47.9208C290.114 48.0333 294.201 47.5182 302.62 45.3047C308.526 43.7628 321.085 40.817 330.546 38.6754C340.104 36.5116 347.809 34.7674 347.57 34.6165C347.45 34.541 340.487 34.5794 331.994 34.6564C314.912 34.8325 298.164 37.3934 285.718 41.7488C281.635 43.1858 278.287 44.2512 278.243 44.0561C278.221 43.9586 279.095 42.838 280.262 41.6511C281.926 39.9416 285.889 38.429 296.605 35.4906C312.034 31.1777 311.763 31.3415 326.334 18.7126C330.096 15.4003 333.289 13.6522 338.152 12.0385C346.634 9.19571 343.151 8.75393 331.815 11.2176C321.747 13.3942 313.668 16.6585 304.125 22.51C299.872 25.0107 296.333 27.0422 296.213 26.9667C296.094 26.8913 298.322 22.6957 301.155 17.5432C305.763 8.91271 322.107 -29.8527 321.367 -30.4029C320.747 -30.8777 299.915 -5.14305 294.772 2.48078C289.757 9.76785 285.386 20.8053 283.107 31.5741C281.937 37.2732 278.372 43.7194 276.129 44.2272C275.544 44.3597 276.002 42.3079 277.13 39.5917C280.652 30.6944 282.331 21.8044 282.526 10.892C282.7 -0.118034 281.951 -16.5585 281.179 -19.9722C280.573 -22.1933 273.623 14.1378 272.506 25.0539C272.099 29.1447 271.681 35.9038 271.731 40.1988L271.653 48.0087L265.328 53.1316C261.771 55.9875 258.862 58.0816 258.795 57.789C258.729 57.4964 260.846 49.6351 263.553 40.3071C266.26 30.9792 268.951 20.2195 269.521 16.3993C270.48 9.31264 271.973 -35.7284 271.157 -36.159C270.799 -36.3854 264.92 -8.90936 260.201 15.5359C259.159 20.8982 257.278 33.4227 256.081 43.5364C253.832 61.6809 252.868 64.6675 248.718 65.8119C248.035 65.9665 248.772 60.1607 250.218 52.9636C253.962 34.1733 254.192 29.3023 252.728 10.153C251.308 -8.80127 252.042 -17.7852 256.87 -39.4866C258.405 -46.2935 259.554 -52.0902 259.487 -52.3828C259.421 -52.6754 257.818 -49.3391 255.926 -45.0147C251.574 -34.8016 248.647 -23.271 247.213 -10.13C246.553 -4.44381 244.736 5.19517 243.219 11.1777C239.213 26.5415 238.176 46.8721 240.341 65.0424L241.094 71.5366L236.778 74.6666C234.312 76.4552 232.126 77.6679 231.789 77.539C231.528 77.2906 232.277 66.5603 233.658 53.6366C236.362 27.0842 236.35 15.7062 233.627 -3.56833C232.578 -10.9182 230.923 -23.6672 229.892 -31.8415C227.756 -48.0704 227.677 -48.8728 227.225 -48.1551C227.074 -47.9159 226.573 -37.4469 226.221 -24.9611C225.869 -12.4752 225.386 2.60346 225.106 8.61359C224.436 25.5803 224.667 45.624 225.813 63.82C226.359 73.0266 226.445 81.107 225.895 81.8468C224.914 83.4017 210.549 93.3181 209.951 92.9409C209.712 92.79 211.782 81.5555 214.538 67.9104C217.315 54.3629 220.028 38.2666 220.601 32.1903C221.517 22.6525 220.539 -46.4366 219.485 -47.0181C218.887 -47.3954 211.595 9.62155 208.669 37.4547C207.194 51.3225 205.675 70.4294 205.366 79.9322C204.798 95.5427 204.513 97.4529 202.446 98.7409C201.191 99.5377 197.546 102.003 194.246 104.186L188.264 108.103L189.541 101.97C190.319 98.6154 192.846 87.5852 195.302 77.5966C202.761 46.6868 203.516 40.0566 203.3 7.39828C203.195 -5.29184 203.156 -20.8674 203.13 -27.321C203.126 -33.6771 203.029 -39.0892 202.79 -39.2401C202.551 -39.391 201.625 -34.8752 200.769 -29.1448C199.891 -23.5119 197.307 -7.75241 195.017 5.68475C188.531 44.064 186.594 59.0617 184.404 86.5231L182.303 112.119L174.081 117.466C169.504 120.348 165.522 122.685 165.26 122.436C164.924 122.307 167.495 106.038 170.942 86.392C176.88 51.9305 177.015 50.2596 176.362 36.0531C175.52 20.5567 176.274 13.9264 182.911 -19.2579C187.176 -40.7294 187.697 -43.4106 187.307 -43.3223C187.111 -43.2781 185.792 -39.5959 184.432 -35.1868C182.952 -30.8531 180.486 -23.6304 178.789 -19.3501C174.645 -8.67148 171.501 2.80582 168.875 16.1142C167.717 22.323 166.018 28.8594 165.126 30.8045C161.911 37.8892 158.421 49.6498 156.604 59.2888C154.525 70.9355 154.182 83.0091 155.419 107.951C155.85 118.004 156.113 126.865 155.899 127.734C155.663 128.505 152.377 131.197 148.536 133.707C141.547 138.16 141.547 138.16 141.744 135.86C141.772 134.623 144.078 117.183 146.71 97.1067C151.511 60.3394 151.798 56.1732 150.181 28.6509C149.911 23.3805 149.475 9.22739 149.308 -2.83338C149.044 -14.8721 148.733 -24.8497 148.396 -24.9785C148.157 -25.1294 147.969 -23.2414 147.839 -20.6485C147.654 -12.4044 144.744 16.8604 143.104 27.2797C142.226 32.9125 139.629 42.7281 137.279 49.1044C128.509 72.4159 127.594 85.1317 130.605 141.457C130.757 144.396 130.261 144.919 123.866 148.827C120.078 151.12 116.81 152.987 116.669 152.814C116.429 152.664 116.65 148.205 117.063 142.78C118.388 126.895 119.061 107.672 118.687 98.3239C118.43 93.5633 116.31 78.7661 113.915 65.4668C110.257 45.6862 109.562 39.8968 109.984 34.0597C110.746 23.8392 114.451 8.9538 119.261 -3.31105C121.624 -9.17757 123.264 -14.1626 122.927 -14.2915C121.014 -15.4987 108.724 9.01985 105.128 21.2148C101.607 33.2902 101.334 41.1442 103.562 58.6852C106.081 78.4161 105.843 86.8774 102.309 98.443C99.8248 106.49 100.367 114.775 104.772 136.95L108.868 157.759L98.5659 163.885C92.863 167.226 87.8299 169.903 87.2981 169.819C86.5491 169.681 87.3885 162.519 93.9193 113.466C97.4572 86.5201 96.9791 75.3499 90.5527 32.9217C87.771 15.1985 85.3811 0.565084 85.2394 0.392099C84.7388 -0.00724631 84.6855 0.209899 84.4437 18.6175C84.2149 37.5349 82.5728 55.6444 78.8234 81.203C73.2333 118.559 73.1504 122.269 76.8407 155.781C78.042 166.07 78.6949 174.842 78.4686 175.201C77.6699 176.202 63.6969 183.774 63.1209 183.494C62.8817 183.344 65.2599 164.862 68.3062 142.539C74.7099 97.0011 74.6566 97.2183 73.5073 72.6661C73.0457 62.9277 72.4686 43.1674 72.3256 28.9481C72.1605 14.6312 71.9493 2.37538 71.8389 1.88772C71.6089 1.32461 71.0456 6.98876 70.4675 14.3993C67.9783 48.6953 64.5069 70.4998 59.3538 83.97C49.1544 110.476 47.645 123.737 49.5866 170.359L50.482 191.072L42.1052 195.737C37.4623 198.326 33.6843 200.206 33.6401 200.011C33.5959 199.816 34.9359 193.053 36.4764 184.912C40.9544 162.572 41.6208 155.552 41.1541 136.279C40.4376 103.222 40.2039 101.737 30.7689 58.2465C25.343 32.9194 22.101 19.5042 22.0015 21.7823C21.9334 23.7459 22.752 30.5326 23.8504 36.7434C27.3921 57.3704 26.6278 75.2812 21.0454 103.613C16.2913 127.451 16.4727 148.634 21.4543 196.003C22.5838 207.333 22.6593 207.213 15.1879 210.443L11.9288 211.898L11.8169 202.798C11.83 197.874 11.9868 185.432 12.1418 175.247C12.6396 147.553 12.0822 141.015 6.85333 113.388C4.24991 99.6228 1.34487 80.9022 0.506057 71.7618C-1.09804 55.6175 -3.12126 26.7519 -3.00146 21.3932C-3.01796 19.9615 -3.23876 18.9862 -3.46512 19.345C-4.14419 20.4215 -6.604 56.6589 -6.46807 63.6002C-6.24018 71.8536 -7.16268 88.1597 -8.79731 102.679C-12.4292 136.003 -11.379 151.965 -2.63589 196.022C-0.35444 207.912 1.46333 217.753 1.31243 217.993C1.18361 218.329 -14.6076 226.928 -15.2903 227.083C-15.3878 227.105 -14.924 223.719 -14.2245 219.562C-13.4276 215.383 -12.5256 207.591 -12.0157 202.144L-11.1652 192.314L-17.5239 164.225C-24.236 134.575 -29.4248 117.089 -41.258 84.2922C-51.1059 57.0953 -52.0536 56.0795 -47.3599 77.266C-43.6599 94.0636 -42.775 101.143 -41.3147 124.804C-40.7556 134.521 -30.734 191.925 -25.9649 212.992C-21.8802 231.035 -21.9023 230.938 -28.4076 234.358C-32.6291 236.544 -33.875 236.929 -34.0958 235.954C-34.2503 235.271 -34.239 227.168 -33.9829 217.883C-33.6363 201.297 -33.6492 200.787 -37.1966 186.928C-41.3494 170.848 -42.77 168.197 -54.0096 156.592C-60.5771 149.774 -79.7552 132.994 -86.7497 127.913L-90.0454 125.583L-87.322 128.555C-85.8296 130.165 -79.0542 137.449 -72.3009 144.635C-55.4286 162.552 -53.8351 165.062 -50.9648 177.742C-49.1985 185.544 -48.768 190.163 -49.0977 197.312C-49.3795 205.579 -49.0097 208.571 -45.5212 223.981L-41.5911 241.342L-45.2716 243.2C-47.2849 244.271 -50.4243 245.802 -52.1449 246.807C-53.8877 247.714 -55.6525 248.523 -55.9451 248.59C-56.2377 248.656 -56.7178 245.176 -56.9624 240.925C-57.6834 228.682 -62.4138 209.144 -66.9312 199.606C-71.8645 189.137 -73.6402 187.181 -82.2707 182.573C-91.7163 177.534 -93.8472 176.273 -97.2754 173.358L-100.181 170.94L-97.2056 174.573C-88.7354 185.267 -82.952 196.774 -80.2584 208.673C-79.1103 213.744 -75.6344 223.211 -70.9055 234.136C-66.6807 243.74 -63.5894 251.961 -63.8912 252.439C-64.5924 253.418 -98.3996 270.299 -110.678 275.847C-114.77 277.696 -118.18 279.391 -118.331 279.63C-118.784 280.348 -106.434 284.627 -104.874 284.273C-103.704 284.008 -50.4541 254.729 -45.9749 251.869C-44.8928 251.214 -44.155 254.021 -41.0217 270.126C-38.3079 284.379 -36.3465 292.137 -33.2865 300.672C-24.9953 323.71 -24.3182 324.89 -5.81009 347.768C3.56355 359.282 11.5295 368.655 11.9196 368.567C12.2122 368.5 12.0356 367.72 11.4468 366.931C6.32939 359.272 -13.7277 323.21 -15.5364 318.39C-16.8189 314.99 -19.7261 303.959 -22.0444 293.718C-25.8199 277.04 -26.8411 273.888 -32.3669 261.708C-35.6937 254.258 -38.5164 248.13 -38.5385 248.033C-38.6268 247.643 -29.2213 242.54 -27.8558 242.231C-27.1731 242.076 -17.0946 253.534 -5.47603 267.719C6.1205 281.806 18.6298 296.302 22.288 299.78C26.0879 303.431 38.4244 312.634 50.9964 321.067C63.1875 329.175 80.774 341.188 90.0632 347.801C115.592 365.911 116.482 366.222 98.2999 351.575C86.7436 342.195 76.9927 331.279 62.5864 311.573C50.23 294.582 42.0321 286.903 2.55693 255.647L-20.3034 237.548L-13.7448 233.91C-10.1084 231.856 -6.0065 229.595 -4.57847 228.656C-3.12835 227.815 -1.85122 227.116 -1.65616 227.072C-1.36356 227.006 20.6023 249.306 32.1694 261.452C49.4006 279.595 64.3629 291.793 76.2413 297.614C87.5216 303.058 129.614 321.417 130.492 321.218C130.882 321.13 119.311 313.497 104.718 304.291L78.2401 287.421L62.6413 267.883C44.8951 245.653 38.9955 240.426 19.6442 229.222C13.2736 225.538 8.10819 222.196 8.33455 221.837C8.93818 220.88 27.9535 210.219 29.7845 209.702C31.4426 209.326 41.8743 222.344 56.7185 243.078C64.3643 253.754 75.2082 266.781 81.0985 272.42C83.4723 274.753 93.3944 282.35 103.109 289.481C112.92 296.59 128.477 308.243 137.682 315.387C160.573 333.172 163.107 334.854 150.763 323.806C138.964 313.354 129.449 301.666 116.399 282.064C103.938 263.251 94.9523 253.904 58.6331 222.549C47.7817 213.112 39.0833 205.033 39.2876 204.577C39.5765 203.589 47.6607 198.99 48.1833 199.487C49.4678 200.632 71.4998 223.225 79.1788 231.33C92.2383 245.086 104.856 256.891 111.687 261.702C114.863 263.956 123.028 268.772 129.886 272.346C148.202 282.144 170.486 294.529 189.501 305.604C198.817 310.98 206.34 315.224 206.274 314.931C206.186 314.541 200.334 310.432 193.113 305.709C176.953 295.014 166.239 284.828 146.743 261.66C135.257 248.061 123.43 238.845 82.3777 211.945L56.0063 194.64L63.5494 190.369C67.7268 187.988 72.0238 185.683 73.1721 185.32C74.6884 184.772 78.17 187.47 90.9296 199.448C109.916 217.194 110.395 217.496 136.207 235.952C147.454 243.967 159.192 252.793 162.306 255.677C169.392 262.07 188.594 282.125 202.322 297.473C207.932 303.688 212.529 308.594 212.702 308.452C213.532 307.136 145.419 223.204 137.036 215.156C128.391 206.86 100.724 191.079 83.2565 184.575C80.8992 183.674 78.932 182.683 78.8437 182.293C78.7112 181.708 98.343 170.599 100.391 170.136C100.976 170.003 107.461 175.097 114.667 181.566C161.319 222.783 171.637 228.957 216.445 243.011C247.136 252.673 274.846 260.036 274.493 258.476C274.448 258.281 265.919 254.572 255.511 250.264C241.235 244.268 231.833 239.424 216.873 230.405C206.054 223.831 189.649 214.319 180.323 209.355C165.029 201.129 110.172 166.691 109.797 165.033C109.642 164.35 124.942 154.94 125.465 155.437C127.489 157.132 175.451 195.079 182.773 200.701C195.034 210.024 211.537 219.515 222.246 223.344C226.722 224.997 242.603 230.835 257.517 236.481C272.41 242.03 286.629 247.321 289.084 248.201L293.537 249.756L291.057 247.857C289.794 246.809 279.681 240.179 268.73 233.02C257.801 225.959 236.497 212.018 221.436 202.099C192.987 183.317 179.647 175.571 150.379 160.87C140.902 156.146 132.87 151.915 132.564 151.472C132.281 151.126 135.536 148.748 139.692 146.27L147.288 141.782L175.612 156.388C225.858 182.232 229.66 183.627 263.691 190.38C275.501 192.731 292.913 196.274 302.379 198.232C329.257 203.733 329.084 203.875 308.986 195.711C301.533 192.682 280.597 183.99 262.475 176.404C224.069 160.286 208.742 154.63 180.572 146.14C169.246 142.758 158.549 139.438 156.887 138.891L153.683 137.873L164.686 130.769L175.591 123.686L202.857 136.789C242.534 155.798 242.197 155.669 288.947 164.259C305.641 167.35 319.774 169.994 320.328 170.177C320.784 170.381 321.175 170.293 321.108 170C320.932 169.22 240.86 138.439 228.435 134.28C222.342 132.276 209.354 128.347 199.516 125.652C189.678 122.958 181.902 120.309 182.279 119.711C182.958 118.635 196.263 109.471 197.531 109.184C198.019 109.074 212.455 114.418 229.727 120.966C246.923 127.634 263.097 133.405 265.778 133.926C268.459 134.447 277.922 135.483 286.83 136.338C295.738 137.192 312.124 138.917 323.301 140.283C334.381 141.67 343.843 142.707 344.331 142.596C344.721 142.508 339.075 141.12 331.639 139.523C312.131 135.326 297.698 130.904 275.375 122.423C253.703 114.103 238.61 109.933 219.15 106.853C212.117 105.677 206.027 104.595 205.549 104.293C204.756 103.96 218.998 93.0461 220.753 92.6486C221.143 92.5603 233.347 95.7443 248.006 99.808C270.624 105.966 276.323 107.137 286.478 107.606C292.998 107.873 308.142 108.649 320.065 109.231C332.01 109.91 341.903 110.131 342.054 109.892C342.205 109.653 339.329 109.176 335.725 108.659C322.345 107.074 308.244 104.114 282.696 97.6967C258.647 91.5551 253.643 90.7397 227.765 88.2931C226.408 88.19 236.029 79.9628 238.175 79.477C238.565 79.3887 252.333 83.1414 268.676 87.8492C287.983 93.4239 299.807 96.284 302.626 96.0559C304.958 95.9382 317.585 96.4631 330.616 97.4095C343.624 98.2583 353.898 98.8033 353.419 98.5015C350.495 96.9078 293.048 84.9978 271.558 81.5576C257.731 79.3563 245.184 77.3776 243.686 77.1015C241.103 76.5585 241.178 76.4389 246.789 71.7852L252.498 67.1094L277.151 72.2942C294.292 76.001 304.397 77.6097 310.438 77.5749C315.243 77.5125 326.373 77.7614 335.127 77.9328C343.903 78.2018 351.105 78.3143 351.278 78.1726C351.709 77.3574 294.298 69.2327 276.916 67.6311C266.021 66.6112 256.635 65.4552 256.081 65.273C255.602 64.9712 257.146 63.1863 259.493 61.3222L263.861 57.975L277.094 60.7211C299.869 65.3059 307.691 65.8932 321.154 63.7682C327.702 62.7986 339.595 61.4391 347.468 60.8873C355.438 60.3135 362.149 59.6144 362.278 59.2777C362.429 59.0385 351.991 58.2229 338.885 57.3962Z" fill="#145EB4" fill-opacity="0.38"/>
<path d="M-99.1229 140.778C-97.3345 144.474 -94.1683 149.532 -91.4706 153.193C-86.8752 159.335 -77.7375 168.928 -74.6697 170.911C-70.1823 173.716 -64.0211 175.037 -56.9474 174.738C-51.1243 174.431 -40.1574 172.143 -37.452 170.591C-36.2738 169.893 -36.607 169.648 -40.766 168.21C-53.103 163.923 -61.4615 157.032 -71.7872 142.863C-78.0003 134.3 -78.163 132.824 -72.0127 140.942C-64.808 150.438 -60.8146 154.491 -54.6356 158.38C-44.959 164.603 -35.4853 167.843 -30.776 166.634C-27.4123 165.771 -27.319 164.955 -29.9266 159.556C-34.2615 150.445 -37.7028 146.711 -51.1362 136.572C-54.3457 134.098 -58.4598 130.537 -60.2593 128.624C-63.5863 125.059 -63.5863 125.059 -65.7918 117.182C-66.9879 112.806 -68.2484 107.523 -68.5882 105.433C-69.1243 102.207 -68.8861 102.805 -66.869 109.345C-62.6561 123.501 -60.0115 126.977 -45.886 137.467C-41.1427 140.932 -35.6444 145.194 -33.6534 146.859C-29.285 150.619 -23.3665 157.477 -22.7644 159.565C-22.5165 160.424 -22.0594 161.099 -21.8147 161.036C-20.9585 160.816 -11.471 153.17 -7.15622 149.226C-4.15792 146.411 -3.15689 145.099 -3.18755 143.853C-3.25525 142.024 -5.72456 136.194 -10.8594 125.903C-13.7488 119.982 -14.4909 117.864 -16.851 108.312C-21.2427 90.5746 -21.4731 87.2697 -17.3311 101.18C-15.4363 107.751 -12.3971 116.469 -10.6859 120.581C-7.92527 127.194 -2.88056 136.717 -0.314837 140.148C0.546307 141.312 1.08707 140.909 17.9086 127.488L35.271 113.664L30.9325 98.6178C26.9836 84.9222 26.5924 83.1098 26.3716 77.5598C26.2635 74.2235 26.3503 71.5628 26.508 71.6542C26.7269 71.7299 27.2969 74.6178 27.8861 78.0284C29.7007 89.1058 36.5083 107.476 39.4264 109.168C40.0573 109.533 83.9539 71.5504 84.2644 70.3493C84.4028 69.918 84.3625 68.4113 84.1387 66.9516C83.4737 61.9114 84.0235 51.7442 85.1628 47.4941C86.4919 42.5356 88.7626 36.7417 91.0816 32.2547L92.7842 29.0473L91.1219 33.7615C88.5504 41.0177 86.4794 48.871 86.28 51.8245C86.1803 53.3013 86.6924 57.1275 87.4297 60.3681C88.5228 65.2985 88.8319 66.1426 89.495 65.7085C91.6581 64.0978 127.865 35.2126 129.243 34.0674C130.062 33.2634 130.577 32.9993 130.377 33.4463C130.099 33.8476 117.183 46.4636 101.653 61.4001C86.0787 76.4137 72.7271 89.3396 71.908 90.1436L70.4531 91.7044L76.9056 93.8077C97.3755 100.558 109.761 103.645 115.181 103.308C125.839 102.683 125.778 102.699 119.084 104.087C115.624 104.844 111 105.437 108.761 105.418C101.136 105.397 87.1506 102.457 71.9696 97.6473C67.9249 96.377 64.231 95.4124 63.8641 95.5066C63.0078 95.7264 25.335 130.463 25.459 130.893C25.5829 131.323 38.5767 138.343 45.6635 141.734C53.1623 145.416 66.325 150.744 73.5566 153.043C76.3234 153.982 88.0953 156.764 99.6742 159.333C111.253 161.901 120.53 164.005 120.364 164.113C118.853 164.567 87.8718 160.318 80.4938 158.65C64.6611 154.997 45.9311 148.13 28.3405 139.519L19.6329 135.291L10.7924 142.903C5.88372 147.065 -0.0887949 152.094 -2.51256 154.168L-6.9159 157.805L-4.51922 160.422C-0.752761 164.6 9.37786 173.08 17.8651 179.279C39.4428 195.111 59.2901 206.308 74.6207 211.409C80.5132 213.392 76.2255 212.646 68.3292 210.32C46.5315 203.977 33.9224 196.924 6.86883 175.769C-7.37259 164.65 -10.4227 162.729 -12.9302 163.372C-14.5204 163.781 -23.7552 171.164 -25.1473 173.171C-25.5737 173.742 -24.2812 175.719 -20.5743 180.374C-17.7897 183.88 -10.4981 193.222 -4.49748 201.048C1.58203 208.92 7.65186 216.53 9.00392 218.03C14.2802 223.799 31.5799 239.146 38.5766 244.276C39.0675 244.612 39.2961 244.949 39.1126 244.996C38.5622 245.137 23.3245 234.208 15.7563 228.235C3.00537 218.185 -4.71101 209.876 -21.0083 188.664C-25.8404 182.385 -28.7908 178.987 -28.9549 179.557C-29.4022 181.651 -29.1119 191.998 -28.3551 198.268C-27.4259 206.274 -24.6941 214.61 -20.5316 221.984C-19.0442 224.637 -17.9078 226.983 -17.9947 227.138C-18.2989 227.677 -26.0895 215.694 -28.2384 211.43C-30.7044 206.522 -32.9889 196.093 -33.3322 188.068C-33.6208 180.689 -33.7865 180.797 -36.4786 191.053C-39.9125 204.203 -41.2605 216.158 -40.2525 224.211C-39.6309 229.328 -36.0927 238.182 -33.3612 241.504C-30.8229 244.612 -24.1883 248.714 -14.8949 252.924C-4.6293 257.544 23.6839 268.943 28.131 270.242C37.5676 272.898 47.3452 273.093 58.5745 270.804C78.5946 266.654 98.8767 254.983 121.708 234.61C130.12 227.108 144.785 212.13 144.537 211.27C144.466 211.024 143.626 210.844 142.594 210.911C137.225 210.97 123.272 209.737 117.829 208.628C111.003 207.28 106.002 205.2 91.7658 197.971C86.6845 195.384 77.9769 191.155 72.3886 188.632C55.9827 181.168 48.1264 175.336 46.4619 169.563C45.4879 166.185 46.225 164.413 48.8548 163.738C54.7261 162.23 67.7311 167.467 95.3927 182.529C115.213 193.403 131.02 197.195 146.744 195.005C163.911 192.577 173.577 180.993 179.13 156.283C180.171 151.464 182.05 136.339 181.713 135.172C181.625 134.865 179.416 136.091 176.764 137.827C170.317 142.121 162.406 145.669 157.782 146.262C151.41 147.172 141.515 145.887 116.014 140.824C101.723 137.963 86.5535 131.369 83.3182 126.527C81.9291 124.443 81.9194 124.182 82.9027 122.808C83.4596 122.006 84.2964 121.263 84.7246 121.153C87.2933 120.494 97.0291 121.226 108.92 123.055C124.643 125.417 127.539 125.663 134.175 125.213C145.707 124.429 156.382 121.359 165.223 116.253C170.799 113.04 173.352 110.274 174.544 106.208C176.903 98.215 175.224 88.2903 167.954 67.8617C162.098 51.4237 161.432 48.4286 159.997 30.9216C158.819 17.0422 157.531 11.4364 155.165 10.0649C154.237 9.57776 147.316 8.58408 139.757 7.88594C125.323 6.57831 121 5.70928 103.16 0.790644C90.6691 -2.66469 81.6655 -4.04716 76.7711 -3.25243C74.0092 -2.80726 72.6122 -2.18479 69.865 -0.0943471C67.9111 1.33069 66.0024 3.13991 65.489 3.86535C64.2804 5.82465 62.8484 13.8437 61.6067 26.1674C60.3488 38.891 59.1115 45.0792 57.1497 49.2106C55.5871 52.4481 53.4401 53.6589 51.1626 52.5945C49.3407 51.743 48.0608 45.9372 47.3246 35.6384C46.5691 24.8169 47.2576 19.2313 51.1149 7.09367C53.0861 0.717096 53.4642 -1.16092 52.6675 -1.41812C49.0525 -2.33701 30.4163 -2.49989 22.0679 -1.61001C14.7158 -0.90992 12.0264 0.242209 9.10057 3.76368C3.48387 10.4825 -0.862186 30.2651 -1.5449 52.2735C-2.16645 74.2661 -2.65231 77.8208 -5.08248 80.5555C-9.20249 85.175 -14.9377 75.7637 -18.2944 58.882C-20.6273 47.1461 -20.9032 35.9376 -19.34 15.6161L-18.9363 11.0931L-21.748 12.2766C-28.9084 15.2361 -41.9931 22.0251 -46.3466 24.9237C-58.2902 32.9368 -70.8466 45.6586 -80.9662 59.9976C-87.5533 69.2741 -97.0949 86.3009 -99.9883 94.0356C-102.666 100.923 -104.804 111.96 -104.704 118.003C-104.644 122.539 -101.193 136.56 -99.1229 140.778Z" fill="#1F8429" fill-opacity="0.61"/>
<path d="M-5.35936 297.944C-9.50935 300.001 -15.1687 303.623 -19.2543 306.701C-26.1071 311.944 -36.7588 322.337 -38.9293 325.811C-41.9967 330.892 -43.3337 337.838 -42.8079 345.79C-42.3051 352.335 -39.4184 364.641 -37.5848 367.665C-36.761 368.982 -36.4924 368.604 -34.9683 363.909C-30.4265 349.982 -22.8225 340.498 -7.0062 328.713C2.55288 321.622 4.22378 321.421 -4.83097 328.436C-15.423 336.654 -19.9207 341.195 -24.173 348.191C-30.9835 359.15 -34.4133 369.844 -32.9164 375.125C-31.8472 378.898 -30.9188 378.993 -24.8573 375.995C-14.6263 371.009 -10.4774 367.094 0.681253 351.863C3.4059 348.223 7.34093 343.553 9.46519 341.506C13.4257 337.721 13.4257 337.721 22.3113 335.145C27.2488 333.747 33.2142 332.265 35.5778 331.857C39.2271 331.215 38.5538 331.491 31.1811 333.838C15.2193 338.748 11.3414 341.765 -0.1964 357.778C-4.0063 363.155 -8.69969 369.39 -10.5384 371.65C-14.6922 376.608 -22.3227 383.348 -24.6778 384.05C-25.6475 384.339 -26.401 384.862 -26.3232 385.136C-26.0511 386.096 -17.1186 396.674 -12.5266 401.479C-9.25186 404.817 -7.73535 405.927 -6.32206 405.877C-4.2465 405.779 2.30841 402.931 13.8579 397.031C20.504 393.71 22.8895 392.85 33.6733 390.08C53.6975 384.925 57.444 384.626 41.7592 389.453C34.3476 391.664 24.5286 395.188 19.9047 397.162C12.4688 400.347 1.78936 406.136 -2.03865 409.063C-3.33775 410.046 -2.86627 410.649 12.8162 429.405L28.9701 448.764L45.9405 443.703C61.3871 439.095 63.4348 438.633 69.7307 438.318C73.5161 438.156 76.5395 438.221 76.4398 438.4C76.3596 438.647 73.0955 439.323 69.2385 440.027C56.7085 442.202 36.0291 450.081 34.1855 453.383C33.7869 454.097 78.0724 503.006 79.4443 503.341C79.9377 503.491 81.6475 503.428 83.299 503.158C89.0043 502.349 100.563 502.844 105.419 504.074C111.084 505.509 117.723 507.992 122.879 510.546L126.566 512.422L121.169 510.61C112.862 507.805 103.89 505.572 100.532 505.383C98.8522 505.289 94.5212 505.911 90.861 506.78C85.2917 508.069 84.3413 508.427 84.8517 509.167C86.7376 511.58 120.49 551.951 121.827 553.487C122.761 554.398 123.075 554.974 122.562 554.755C122.099 554.447 107.433 540.074 90.0642 522.788C72.6063 505.455 57.5775 490.595 56.643 489.684L54.8325 488.066L52.6144 495.349C45.4898 518.453 42.3114 532.419 42.8361 538.512C43.8271 550.491 43.8077 550.422 42.0545 542.911C41.1044 539.028 40.3087 533.835 40.2711 531.317C40.0941 522.74 43.0636 506.976 48.1245 489.844C49.4602 485.28 50.4581 481.114 50.3415 480.702C50.0693 479.742 9.63439 437.793 9.14952 437.938C8.66465 438.083 1.03615 452.781 -2.62805 460.793C-6.61065 469.271 -12.3131 484.139 -14.7329 492.3C-15.7259 495.423 -18.5749 508.697 -21.1858 521.75C-23.7966 534.804 -25.9408 545.263 -26.0683 545.078C-26.6236 543.384 -22.6154 508.488 -20.9162 500.17C-17.1859 482.32 -9.8828 461.171 -0.569791 441.283L4.00224 431.439L-4.8743 421.589C-9.72996 416.118 -15.5978 409.462 -18.0159 406.761L-22.2616 401.853L-25.1697 404.58C-29.8144 408.867 -39.1768 420.363 -45.9909 429.984C-63.3985 454.444 -75.5892 476.901 -80.977 494.205C-83.0736 500.856 -82.3394 496.025 -79.9061 487.116C-73.2785 462.524 -65.6026 448.257 -42.2961 417.574C-30.0461 401.423 -27.9449 397.969 -28.7419 395.157C-29.2474 393.373 -37.8748 383.077 -40.1897 381.535C-40.8495 381.062 -43.06 382.54 -48.2479 386.766C-52.1561 389.94 -62.5707 398.254 -71.2986 405.097C-80.0763 412.03 -88.5575 418.949 -90.2248 420.488C-96.6365 426.492 -113.606 446.134 -119.247 454.065C-119.615 454.622 -119.992 454.883 -120.05 454.677C-120.225 454.06 -108.217 436.79 -101.635 428.206C-90.5587 413.743 -81.3276 404.964 -57.6729 386.378C-50.6707 380.867 -46.8901 377.508 -47.5414 377.33C-49.9305 376.853 -61.6717 377.305 -68.7709 378.232C-77.8376 379.374 -87.23 382.547 -95.4936 387.318C-98.466 389.023 -101.101 390.33 -101.278 390.234C-101.899 389.898 -88.4974 380.991 -83.713 378.522C-78.2056 375.69 -66.4241 372.994 -57.3211 372.51C-48.9496 372.096 -49.0772 371.911 -60.7927 369.008C-75.8148 365.305 -89.425 363.934 -98.5414 365.166C-104.336 365.927 -114.295 370.013 -117.996 373.126C-121.458 376.018 -125.94 383.529 -130.476 394.033C-135.451 405.634 -147.647 437.615 -149.005 442.632C-151.772 453.278 -151.735 464.277 -148.84 476.878C-143.6 499.344 -129.813 522.013 -106.079 547.443C-97.339 556.813 -79.9454 573.125 -78.9757 572.836C-78.6986 572.753 -78.5163 571.806 -78.6195 570.646C-78.8283 564.608 -77.7958 548.901 -76.68 542.766C-75.3295 535.073 -73.0994 529.423 -65.2667 513.324C-62.4629 507.578 -57.8909 497.734 -55.1734 491.418C-47.1316 472.876 -40.7161 463.97 -34.205 462.028C-30.3953 460.892 -28.3635 461.699 -27.5276 464.649C-25.6614 471.234 -31.2641 485.924 -47.6368 517.216C-59.4617 539.639 -63.35 557.462 -60.4489 575.121C-57.2393 594.398 -43.8313 605.129 -15.6281 611.074C-10.1294 612.187 7.09474 614.117 8.41082 613.724C8.75716 613.621 7.30633 611.152 5.26494 608.19C0.219782 600.991 -4.01719 592.138 -4.81289 586.944C-6.01438 579.789 -4.81567 568.645 0.260361 539.903C3.13264 523.796 10.2193 506.655 15.6319 502.958C17.9615 501.37 18.2581 501.356 19.8438 502.445C20.7698 503.062 21.635 503.994 21.771 504.474C22.5875 507.355 22.0122 518.314 20.2495 531.709C17.9823 549.421 17.7793 552.681 18.4655 560.138C19.6594 573.098 23.4272 585.068 29.4577 594.949C33.2525 601.182 36.4605 604.019 41.1085 605.31C50.2467 607.867 61.4716 605.858 84.4756 597.434C102.986 590.648 106.369 589.863 126.21 588.036C141.938 586.544 148.269 585.028 149.764 582.35C150.293 581.299 151.238 573.504 151.832 564.995C152.936 548.746 153.809 543.873 158.923 523.749C162.517 509.659 163.85 499.516 162.818 494.021C162.24 490.92 161.496 489.357 159.05 486.292C157.381 484.112 155.276 481.987 154.439 481.419C152.182 480.083 143.039 478.57 129.013 477.323C114.533 476.062 107.474 474.746 102.731 472.589C99.0142 470.871 97.5828 468.471 98.7313 465.897C99.6501 463.838 106.209 462.328 117.883 461.375C130.15 460.394 136.511 461.101 150.394 465.292C157.687 467.431 159.829 467.834 160.1 466.935C161.048 462.858 160.742 441.896 159.511 432.518C158.522 424.258 157.143 421.247 153.067 417.999C145.29 411.764 122.714 407.116 97.7061 406.615C72.718 406.182 68.669 405.679 65.4999 402.979C60.1459 398.401 70.6808 391.837 89.7608 387.857C103.025 385.091 115.744 384.645 138.86 386.157L144.006 386.556L142.588 383.408C139.039 375.391 130.985 360.757 127.579 355.896C118.166 342.561 103.39 328.593 86.8416 317.385C76.1348 310.09 56.55 299.565 47.6914 296.405C39.8 293.476 27.2119 291.205 20.3533 291.391C15.2045 291.513 -0.624831 295.565 -5.35936 297.944Z" fill="#1F8429" fill-opacity="0.47"/>
</svg>
