<svg width="174" height="315" viewBox="0 0 174 315" fill="none" xmlns="http://www.w3.org/2000/svg">
<path d="M133.901 204.463C127.649 196.685 125.47 194.129 117.887 185.677L113.855 181.205L116.148 181.316L118.475 181.451L120.975 184.283C122.984 186.566 124.305 187.697 127.386 189.699C129.544 191.107 134.029 194.195 137.383 196.544C140.772 198.916 143.504 200.829 143.483 200.711C143.473 200.652 141.485 198.488 139.05 195.856C134.147 190.568 128.594 186.061 123.701 183.409C122.093 182.541 120.81 181.797 120.858 181.728C120.882 181.693 121.481 181.648 122.183 181.676C123.189 181.711 124.786 182.52 128.746 185.034C134.472 188.631 134.344 188.593 142.426 189.562C144.529 189.797 145.981 190.299 147.866 191.361C151.161 193.204 150.31 191.99 146.323 189.147C142.786 186.619 139.473 185.021 134.936 183.7C132.948 183.081 131.309 182.552 131.298 182.493C131.288 182.434 133.231 181.94 135.645 181.362C139.65 180.353 156.402 174.458 156.364 174.071C156.336 173.742 142.382 174.536 138.54 175.093C134.84 175.594 130.15 177.361 126.139 179.705C124.026 180.957 121 181.672 120.204 181.116C119.997 180.97 120.768 180.531 121.937 180.113C125.717 178.688 128.971 176.69 132.437 173.654C135.926 170.583 140.851 165.683 141.698 164.473C142.22 163.654 128.896 171.793 125.167 174.542C123.774 175.576 121.543 177.364 120.215 178.598L117.753 180.79L114.357 180.268C112.455 179.967 110.975 179.652 111.047 179.548C111.12 179.445 114.177 177.875 117.86 176.073C121.543 174.272 125.669 172.059 127.025 171.153C129.511 169.442 144.009 157.125 143.912 156.748C143.881 156.571 133.627 162.532 124.649 167.996C122.678 169.192 118.231 172.159 114.731 174.655C108.423 179.102 107.216 179.648 105.68 178.677C105.438 178.507 107.461 177.089 110.121 175.499C117.055 171.336 118.642 170.025 124.21 164.133C129.73 158.31 132.746 155.99 140.897 151.339C143.459 149.887 145.597 148.6 145.669 148.497C145.742 148.393 144.245 148.839 142.356 149.475C137.93 151.014 133.496 153.372 128.983 156.653C127.019 158.061 123.491 160.229 121.191 161.453C115.254 164.561 108.607 170.007 103.543 175.841L101.728 177.919L99.5249 177.459C98.2662 177.196 97.2668 176.857 97.2115 176.715C97.215 176.563 100.781 173.752 105.211 170.515C114.275 163.824 117.827 160.591 123.077 154.27C125.076 151.856 128.59 147.721 130.851 145.079C135.316 139.806 135.544 139.553 135.192 139.615C135.074 139.636 131.661 142.451 127.659 145.884C123.658 149.318 118.809 153.447 116.852 155.065C111.36 159.671 105.163 165.432 99.8021 170.954C97.0803 173.738 94.5799 176.058 94.1926 176.096C93.4283 176.231 86.2527 174.556 86.2009 174.262C86.1801 174.145 90.2783 171.603 95.3239 168.592C100.345 165.615 106.145 161.894 108.206 160.348C111.447 157.928 132.757 138.014 132.64 137.519C132.588 137.226 112.702 151.129 103.175 158.114C98.423 161.589 92.0216 166.537 88.9643 169.138C83.9255 173.391 83.2477 173.844 82.2586 173.564C81.6535 173.398 79.8483 172.958 78.23 172.547L75.3079 171.789L77.5869 170.447C78.8561 169.739 83.0199 167.398 86.8378 165.33C98.6134 158.888 100.899 157.242 111.043 147.906C114.978 144.272 119.834 139.839 121.843 137.999C123.828 136.194 125.492 134.628 125.471 134.51C125.451 134.393 123.777 135.385 121.743 136.744C119.734 138.068 114.076 141.734 109.228 144.832C95.3942 153.697 90.1583 157.349 80.9556 164.458L72.3616 171.066L68.3571 170.015C66.1578 169.402 64.2973 168.821 64.3008 168.669C64.2455 168.527 70.0589 164.713 77.1761 160.215C89.6296 152.29 90.1898 151.857 94.4437 147.621C99.0468 142.96 101.333 141.314 113.586 133.97C121.505 129.209 122.491 128.611 122.352 128.514C122.283 128.465 120.758 129.098 118.994 129.924C117.22 130.692 114.264 131.971 112.444 132.656C107.931 134.391 103.453 136.667 98.5491 139.623C96.2804 141.023 93.7559 142.348 92.8948 142.621C89.7685 143.627 85.1033 145.874 81.5758 148.042C77.3463 150.698 73.4764 154.017 66.0339 161.483C63.0147 164.471 60.3205 167.068 59.9886 167.247C59.6808 167.393 57.9067 167.13 56.0325 166.642C52.6574 165.722 52.6574 165.722 53.432 165.131C53.8263 164.788 59.9303 160.559 66.9507 155.684C79.8019 146.749 81.1852 145.656 89.3263 137.34C90.8965 135.76 95.1953 131.607 98.9165 128.132C102.603 124.632 105.633 121.703 105.577 121.562C105.557 121.444 104.913 121.921 104.066 122.616C101.438 124.898 91.4673 132.295 87.7462 134.739C85.7369 136.064 81.9328 138.038 79.2733 139.113C69.5003 142.989 65.2673 146.312 48.5216 163.239C47.6466 164.12 47.3423 164.113 44.3061 163.224C42.5148 162.692 41.0036 162.201 41.0175 162.107C40.9967 161.99 42.4527 160.793 44.2649 159.382C49.6046 155.288 55.802 150.043 58.6171 147.273C60.0316 145.841 64.0538 140.98 67.5296 136.456C72.6724 129.7 74.2841 127.839 76.2277 126.314C79.6376 123.652 85.3403 120.585 90.5381 118.607C93.0419 117.681 95.065 116.778 95.0096 116.636C94.8437 115.696 83.6944 118.814 78.8631 121.152C74.0907 123.478 71.5592 125.622 66.7104 131.297C61.2599 137.684 58.5485 140.011 53.9317 142.189C50.7121 143.697 48.2773 146.217 42.5985 153.887L37.2585 161.073L32.4207 159.592C29.7579 158.759 27.4929 157.946 27.3684 157.756C27.199 157.483 29.6752 155.712 46.8562 143.831C56.2802 137.289 59.6348 133.969 71.0685 119.92C75.817 114.021 79.7113 109.121 79.7251 109.027C79.7079 108.758 79.6249 108.802 73.8044 113.951C67.8283 119.249 61.7036 123.875 52.6531 129.958C39.3939 138.813 38.2111 139.84 28.7868 150.504C25.9128 153.8 23.3571 156.493 23.1807 156.524C22.6412 156.559 16.3095 154.342 16.2334 154.082C16.2127 153.965 22.6625 149.463 30.5025 144.079C46.5492 133.156 46.4662 133.201 53.8119 125.874C56.7239 122.965 62.7346 117.177 67.1371 113.097C71.5639 108.982 75.3335 105.437 75.4546 105.264C75.5653 105.033 73.6355 106.464 71.1559 108.387C59.7329 117.343 51.9344 122.446 46.2628 124.659C35.0857 128.995 30.5138 132.287 16.4968 146.125L10.2786 152.284L6.44361 150.99C4.3169 150.274 2.65702 149.627 2.70544 149.558C2.75386 149.489 5.24731 147.988 8.22838 146.159C16.4799 141.218 18.8627 139.434 24.7524 133.818C34.8786 124.212 35.2763 123.718 46.1879 108.427C52.562 99.543 55.8338 94.7225 55.0937 95.338C54.4608 95.874 52.5725 98.056 50.9435 100.162C45.5033 107.123 39.6898 111.967 29.2526 118.264C20.4547 123.544 13.8872 129.612 0.499509 144.613C-2.7203 148.181 -2.66151 148.171 -5.79105 146.753L-7.17081 146.148L-4.35913 143.53C-2.81669 142.137 1.1155 138.654 4.34217 135.812C13.1368 128.108 15.0217 126.078 22.1704 116.603C25.7327 111.883 30.7578 105.662 33.3759 102.806C37.9652 97.7229 46.4107 88.8983 48.1191 87.4149C48.5618 87.0034 48.8039 86.6576 48.6276 86.6887C48.0985 86.782 36.0772 96.298 33.9468 98.3105C31.4325 100.724 26.0755 105.064 21.0748 108.674C9.6311 116.997 4.94147 121.855 -6.34364 137.091C-9.41132 141.178 -11.9706 144.539 -12.0882 144.56C-12.23 144.615 -19.3986 142.121 -19.6406 141.952C-19.6752 141.928 -18.4855 141.112 -16.9881 140.15C-15.456 139.213 -12.7655 137.284 -10.9187 135.897L-7.60559 133.373L-0.633201 123.414C6.72654 112.902 10.7177 106.318 17.6074 93.3122C23.3107 82.5163 23.3591 81.9319 18.071 89.4115C13.8724 95.335 11.9115 97.6207 4.93236 104.792C2.05495 107.725 -13.0379 127.148 -18.2672 134.617C-22.746 141.015 -22.7218 140.98 -25.6369 139.918C-27.5181 139.219 -27.9919 138.939 -27.7498 138.594C-27.5803 138.351 -25.0453 136.055 -22.0711 133.5C-16.7901 128.901 -16.6345 128.752 -13.3108 123.711C-9.46493 117.849 -9.03949 116.653 -8.60325 109.847C-8.33668 105.86 -8.53646 95.1051 -8.93388 91.4775L-9.14124 89.7864L-9.29699 91.4809C-9.37659 92.4042 -9.72963 96.5886 -10.0585 100.738C-10.8684 111.095 -11.2005 112.306 -14.3478 116.801C-16.2845 119.568 -17.6057 121.013 -19.9332 122.939C-22.5961 125.197 -23.4261 126.162 -27.2513 131.625L-31.5606 137.781L-33.1859 137.158C-34.0919 136.833 -35.4613 136.286 -36.2636 136.034C-37.0416 135.747 -37.7955 135.425 -37.8992 135.352C-38.003 135.28 -37.0519 134.142 -35.793 132.859C-32.172 129.159 -27.4096 122.136 -25.7114 118.018C-23.8402 113.505 -23.7329 112.395 -24.7424 108.39C-25.8487 104.009 -26.0595 102.985 -26.1216 101.086L-26.1907 99.4922L-26.4813 101.453C-27.4189 107.135 -29.3731 112.208 -32.3267 116.426C-33.5856 118.225 -35.5571 121.997 -37.6288 126.576C-39.4308 130.622 -41.1221 133.921 -41.3573 133.962C-41.8622 134.021 -56.7318 128.248 -61.95 125.986C-63.6894 125.232 -65.1868 124.647 -65.3044 124.668C-65.6571 124.73 -63.4892 129.804 -62.9359 130.191C-62.521 130.482 -38.2591 138.811 -36.0944 139.399C-35.5826 139.551 -36.2501 140.578 -40.3934 146.128C-44.0767 151.021 -45.9443 153.836 -47.7428 157.214C-52.5883 166.343 -52.7647 166.89 -54.6607 179.166C-55.5983 185.363 -56.2661 190.512 -56.1278 190.609C-56.0241 190.682 -55.8304 190.405 -55.7508 189.997C-54.8099 186.224 -49.2342 169.722 -48.2415 167.789C-47.5429 166.423 -44.9213 162.384 -42.3793 158.753C-38.2394 152.84 -37.5442 151.627 -35.3064 146.443C-33.9229 143.289 -32.8092 140.668 -32.785 140.633C-32.6882 140.495 -28.4244 141.986 -27.9402 142.325C-27.6982 142.494 -28.4179 148.895 -29.5528 156.552C-30.6634 164.173 -31.6427 172.196 -31.6913 174.326C-31.7537 176.55 -31.1282 183.017 -30.195 189.338C-29.2686 195.449 -28.0313 204.354 -27.461 209.133C-25.8747 222.25 -25.7191 222.617 -26.3028 212.778C-26.6516 206.505 -26.008 200.36 -23.9392 190.266C-22.1369 181.582 -22.0639 176.841 -23.5009 155.636L-24.3335 143.356L-21.3353 144.373C-19.6616 144.926 -17.7908 145.566 -17.0922 145.746C-16.4179 145.96 -15.837 146.161 -15.7678 146.209C-15.6641 146.282 -16.3982 159.475 -16.9105 166.536C-17.6894 177.07 -17.2542 185.207 -15.7019 190.571C-14.2015 195.64 -7.99196 214.004 -7.68074 214.221C-7.54242 214.318 -8.44112 208.536 -9.70627 201.364L-11.9496 188.302L-10.2717 177.883C-8.36188 166.029 -8.40314 162.702 -10.3944 153.475C-11.0512 150.439 -11.4729 147.876 -11.2965 147.845C-10.8262 147.762 -2.09802 150.678 -1.41679 151.104C-0.828938 151.515 -1.93607 158.469 -4.20194 168.992C-5.36774 174.411 -6.36075 181.497 -6.45092 184.938C-6.50636 186.342 -6.0641 191.598 -5.53539 196.658C-4.97208 201.741 -4.19806 209.909 -3.81802 214.813C-2.8783 227.014 -2.68474 228.283 -2.7361 221.29C-2.8186 214.637 -1.86714 208.347 0.554284 198.705C2.89614 189.472 3.26657 184.012 2.75626 163.764C2.6253 157.695 2.68101 152.684 2.88158 152.619C3.27237 152.428 7.00363 153.649 6.9967 153.954C7.00356 154.68 6.19683 167.977 5.84375 172.676C5.25181 180.661 5.14406 187.954 5.57952 191.454C5.77652 193.086 6.5889 197.004 7.41862 200.162C9.55513 208.666 12.0096 219.144 13.9455 228.229C14.91 232.666 15.719 236.221 15.7916 236.117C15.8885 235.979 15.5117 232.984 14.938 229.387C13.6936 221.302 13.8359 215.063 15.5417 202.396C16.5313 194.947 16.0545 188.636 12.8088 168.174L10.7314 155.023L14.2068 156.168C16.1364 156.797 18.0764 157.485 18.5155 157.741C19.1172 158.059 19.2623 159.913 19.1408 167.3C18.9843 178.269 19.0258 178.504 20.5845 191.808C21.2722 197.597 21.8458 203.77 21.8284 205.561C21.8419 209.59 21.0249 221.282 20.1252 229.927C19.7756 233.444 19.5472 236.273 19.6405 236.287C20.2872 236.173 27.1827 191.068 27.3179 186.165C27.4566 181.109 24.5354 167.985 21.6104 160.681C21.2231 159.688 20.9742 158.793 21.0711 158.654C21.2163 158.447 30.2592 161.429 30.9854 161.937C31.1928 162.082 31.4416 165.554 31.4655 169.642C31.8266 195.917 32.8257 200.893 41.1516 218.883C46.8428 231.215 52.4062 241.964 52.7936 241.411C52.842 241.341 51.58 237.624 49.9723 233.149C47.7941 226.986 46.6394 222.674 45.2117 215.439C44.1954 210.193 42.5119 202.367 41.416 198.044C39.6459 190.931 34.8376 164.016 35.2492 163.428C35.4186 163.186 42.7014 165.296 42.6944 165.6C42.7393 166.714 44.4941 192.47 44.8155 196.354C45.3821 202.831 47.1002 210.681 48.9431 215.114C49.6968 216.982 52.3799 223.601 54.8486 229.864C57.3414 236.092 59.7237 242.037 60.1455 243.054L60.9234 244.887L60.8129 243.573C60.7818 242.881 59.9833 237.839 59.1123 232.385C58.217 226.966 56.5268 216.353 55.3515 208.831C53.1463 194.611 51.7808 188.245 48.0677 174.927C46.8542 170.625 45.8966 166.914 45.9485 166.693C45.9761 166.506 47.643 166.849 49.5968 167.444L53.1551 168.544L56.6296 181.54C62.8146 204.575 63.4577 206.159 71.0059 218.709C73.6234 223.067 77.458 229.513 79.5327 233.027C85.4419 242.986 85.3486 242.973 82.1954 234.375C81.0267 231.187 77.8009 222.178 75.0281 214.362C69.1643 197.787 66.5815 191.393 61.2394 180.181C59.0819 175.682 57.0834 171.397 56.7826 170.723L56.1913 169.433L61.5341 170.854L66.8423 172.252L70.4863 184.491C75.8071 202.283 75.7517 202.141 86.3359 219.187C90.1083 225.281 93.2929 230.448 93.3931 230.673C93.4588 230.873 93.5972 230.97 93.6698 230.866C93.8635 230.59 80.7561 196.833 78.5294 191.771C77.4264 189.298 74.9681 184.124 73.0179 180.286C71.0678 176.447 69.6882 173.265 69.9822 173.213C70.5113 173.12 77.1509 174.677 77.6004 174.992C77.7733 175.113 80.2005 181.14 83.0564 188.396C85.8535 195.662 88.6403 202.353 89.2385 203.339C89.8367 204.325 92.1983 207.575 94.4598 210.601C96.7212 213.627 100.833 219.237 103.578 223.117C106.289 226.973 108.651 230.224 108.823 230.345C108.962 230.442 107.793 228.284 106.182 225.507C101.956 218.22 99.2422 212.455 95.5566 203.073C92.0057 193.94 89.0252 188.04 84.4644 181.085C82.8358 178.554 81.4458 176.344 81.4043 176.109C81.2833 175.766 88.7355 177.119 89.3579 177.555C89.4963 177.652 91.9651 182.369 94.8556 188.103C99.3506 196.918 100.602 199.031 103.337 202.337C105.104 204.45 109.16 209.403 112.362 213.293C115.54 217.218 118.279 220.372 118.396 220.352C118.514 220.331 117.847 219.297 116.986 218.024C113.683 213.394 110.606 208.147 105.361 198.343C100.454 189.085 99.2891 187.29 92.7088 178.51C92.3561 178.057 97.6574 178.728 98.4182 179.26C98.5565 179.357 101.292 184.725 104.459 191.167C108.196 198.782 110.658 203.289 111.53 204.105C112.228 204.8 115.648 208.895 119.051 213.235C122.477 217.541 125.223 220.906 125.181 220.67C124.849 219.304 112.267 197.974 107.243 190.282C104.006 185.337 101.064 180.855 100.725 180.308C100.161 179.347 100.22 179.337 103.267 179.769L106.348 180.226L111.724 189.401C115.431 195.809 117.796 199.423 119.522 201.301C120.905 202.784 123.986 206.333 126.417 209.117C128.823 211.935 130.832 214.218 130.926 214.232C131.303 214.135 117.548 193.89 113.115 188.004C110.342 184.31 108.039 181.049 107.938 180.824C107.897 180.589 108.893 180.565 110.141 180.769L112.427 181.184L115.325 186.098C120.356 194.516 122.392 197.127 126.877 200.731C129.038 202.502 132.839 205.832 135.245 208.135C137.687 210.463 139.81 212.362 139.952 212.306C140.069 212.285 137.362 208.793 133.901 204.463Z" fill="#145EB4" fill-opacity="0.58"/>
<path d="M21.5888 291.041C21.4099 284.597 21.2914 282.429 20.7175 275.101L20.4043 271.216L21.4664 272.216L22.5365 273.243L22.709 275.682C22.8454 277.644 23.0694 278.751 23.8231 281.017C24.349 282.606 25.3829 285.99 26.1422 288.54C26.9093 291.116 27.5276 293.193 27.5604 293.126C27.5768 293.093 27.4077 291.197 27.1938 288.885C26.7582 284.235 25.7259 279.706 24.3374 276.37C23.8797 275.276 23.5331 274.377 23.5815 274.363C23.6058 274.356 23.9098 274.58 24.2372 274.883C24.7085 275.315 25.1826 276.376 26.1725 279.258C27.6186 283.407 27.5709 283.335 31.1047 287.148C32.0302 288.132 32.5463 288.98 33.0666 290.285C33.9811 292.56 34.0133 291.606 33.1296 288.549C32.3475 285.834 31.3354 283.674 29.6341 281.147C28.903 280.019 28.3072 279.08 28.3236 279.047C28.34 279.013 29.4543 279.569 30.8248 280.277C33.1174 281.426 43.3154 285.402 43.4379 285.193C43.544 285.019 36.5456 279.661 34.4958 278.354C32.5344 277.078 29.6372 276.023 26.856 275.534C25.385 275.285 23.6698 274.394 23.4898 273.789C23.4428 273.631 23.9733 273.731 24.6874 274.005C27.0228 274.855 29.3141 275.203 32.084 275.123C34.8781 275.035 39.0274 274.629 39.8747 274.377C40.4238 274.185 31.0577 272.738 28.2658 272.567C27.2198 272.507 25.4973 272.476 24.41 272.542L22.4291 272.617L20.9861 270.957C20.1809 270.023 19.5836 269.257 19.6563 269.235C19.7289 269.214 21.7696 269.693 24.1954 270.316C26.6212 270.939 29.4095 271.54 30.3907 271.649C32.2086 271.823 43.657 271.677 43.7475 271.45C43.7966 271.349 36.6991 270.085 30.3962 269.1C29.0134 268.882 25.7964 268.523 23.206 268.321C18.5564 267.931 17.7775 267.705 17.3925 266.589C17.3377 266.405 18.8258 266.535 20.6828 266.84C25.5303 267.629 26.77 267.632 31.5893 266.999C36.3602 266.38 38.6537 266.469 44.2637 267.518C46.0239 267.852 47.5191 268.094 47.5918 268.073C47.6644 268.051 46.7823 267.655 45.6431 267.193C42.9553 266.133 39.9662 265.478 36.6032 265.248C35.1471 265.138 32.6628 264.762 31.112 264.422C27.1268 263.519 21.9509 263.486 17.3958 264.299L15.7672 264.583L14.8752 263.446C14.3655 262.797 14.0082 262.216 14.0331 262.123C14.0901 262.049 16.8265 262.121 20.1333 262.339C26.924 262.75 29.8072 262.607 34.6294 261.629C36.468 261.253 39.6609 260.646 41.7089 260.265C45.7727 259.484 45.9742 259.453 45.782 259.338C45.7179 259.3 43.0534 259.292 39.8812 259.35C36.709 259.407 32.8767 259.46 31.3472 259.458C27.0322 259.483 21.958 259.792 17.373 260.327C15.0524 260.589 13.0066 260.711 12.8066 260.571C12.3901 260.323 9.54829 256.532 9.63021 256.365C9.66298 256.298 12.5574 256.724 16.0784 257.307C19.5752 257.897 23.7164 258.439 25.2693 258.52C27.7074 258.653 45.1935 257.539 45.3167 257.245C45.3986 257.077 30.7826 255.791 23.6621 255.335C20.114 255.104 15.2372 254.924 12.8219 254.957C8.85292 254.994 8.36232 254.939 7.9886 254.392C7.75796 254.06 7.04965 253.098 6.42108 252.226L5.29136 250.645L6.87491 250.917C7.74287 251.088 10.596 251.641 13.1835 252.187C21.1873 253.84 22.8848 253.964 31.1561 253.505C34.3697 253.32 38.3159 253.119 39.9508 253.032C41.5615 252.954 42.9308 252.861 42.9635 252.794C42.9963 252.727 41.8307 252.53 40.3589 252.367C38.9114 252.197 34.8585 251.687 31.4008 251.228C21.5263 249.932 17.6813 249.589 10.6719 249.329L4.13743 249.071L2.59412 246.897C1.75911 245.686 1.07574 244.63 1.13273 244.556C1.15766 244.463 5.33946 244.964 10.397 245.662C19.2661 246.856 19.6927 246.872 23.2779 246.52C27.1857 246.101 28.8833 246.225 37.4447 247.625C42.9836 248.523 43.675 248.632 43.6437 248.527C43.628 248.475 42.6647 248.16 41.5162 247.844C40.3841 247.494 38.4973 246.911 37.3737 246.502C34.5727 245.504 31.5922 244.789 28.1595 244.237C26.5595 243.998 24.8642 243.615 24.3509 243.396C22.4819 242.607 19.4216 241.801 16.9374 241.425C13.9383 241.001 10.8707 241.056 4.5782 241.699C2.04039 241.939 -0.199054 242.119 -0.424051 242.072C-0.624842 242.017 -1.3823 241.155 -2.10627 240.14C-3.39472 238.291 -3.39472 238.291 -2.80728 238.317C-2.49326 238.309 1.97906 238.723 7.12712 239.194C16.5545 240.05 17.6169 240.078 24.5546 239.3C25.884 239.162 29.4607 238.869 32.5133 238.676C35.5581 238.456 38.0795 238.249 38.1045 238.156C38.1373 238.089 37.6545 238.061 36.9944 238.057C34.901 238.108 27.4181 237.674 24.7401 237.356C23.2925 237.186 20.7456 236.599 19.076 236.037C12.9677 233.935 9.7243 233.841 -4.48074 235.352C-5.222 235.43 -5.36581 235.301 -6.50264 233.607C-7.17035 232.604 -7.71846 231.737 -7.67786 231.696C-7.64509 231.629 -6.51009 231.635 -5.12586 231.68C-1.07004 231.847 3.81679 231.794 6.17729 231.578C7.37784 231.449 11.0792 230.691 14.3947 229.875C19.3238 228.636 20.775 228.376 22.2639 228.419C24.8714 228.502 28.7285 229.328 31.9467 230.488C33.4875 231.059 34.7883 231.445 34.8133 231.351C35.0754 230.815 28.5807 227.769 25.4079 226.939C22.2672 226.129 20.2706 226.151 15.8764 226.973C10.9338 227.9 8.78411 227.94 5.77229 227.119C3.67611 226.541 1.58904 226.79 -3.92966 228.262L-9.1094 229.632L-10.8976 226.902C-11.8749 225.39 -12.6686 224.052 -12.6593 223.906C-12.6415 223.701 -10.8072 223.842 1.77309 225.018C8.68273 225.651 11.5025 225.384 22.1076 223.114C26.5353 222.139 30.189 221.309 30.2296 221.268C30.3194 221.127 30.2631 221.115 25.5927 221.275C20.7934 221.445 16.1666 221.219 9.60371 220.512C0.00899275 219.448 -0.933057 219.471 -9.34126 220.887C-11.9211 221.34 -14.1292 221.625 -14.2254 221.568C-14.4973 221.363 -16.736 217.65 -16.6783 217.49C-16.6455 217.423 -11.9076 217.844 -6.18068 218.4C5.50602 219.585 5.44977 219.574 11.6455 218.959C14.1028 218.714 19.0972 218.315 22.6974 218.102C26.3218 217.881 29.4228 217.673 29.5439 217.637C29.6813 217.568 28.233 217.484 26.3418 217.417C17.5936 217.16 11.9884 216.482 8.4569 215.244C1.50631 212.791 -1.88871 212.543 -13.6592 213.643L-18.8879 214.141L-20.2617 211.917C-21.0241 210.685 -21.5871 209.679 -21.5387 209.664C-21.4903 209.65 -19.7458 209.932 -17.6474 210.252C-11.8835 211.197 -10.0892 211.293 -5.21582 210.929C3.14522 210.329 3.51622 210.247 14.3215 207.144C20.6157 205.356 23.9412 204.308 23.3616 204.309C22.8624 204.315 21.1613 204.621 19.6125 204.996C14.4662 206.214 9.90981 206.225 2.60224 205.052C-3.54757 204.05 -8.91153 204.359 -20.8018 206.297C-23.6472 206.743 -23.6152 206.762 -24.6046 204.767L-25.048 203.898L-22.7445 203.756C-21.4962 203.699 -18.3397 203.589 -15.7549 203.506C-8.72548 203.302 -7.0813 203.07 -0.199679 201.307C3.22903 200.43 7.90671 199.409 10.2039 199.069C14.2584 198.434 21.5272 197.529 22.888 197.496C23.2504 197.474 23.4925 197.402 23.3964 197.344C23.1081 197.173 13.8685 196.947 12.1125 197.069C10.0262 197.232 5.8728 197.181 2.15594 196.914C-6.37222 196.334 -10.3933 196.815 -21.358 199.737C-24.3189 200.504 -26.7713 201.12 -26.8354 201.081C-26.9237 201.05 -29.4642 196.856 -29.519 196.672C-29.5268 196.645 -28.6581 196.73 -27.5887 196.87C-26.5114 197.035 -24.5162 197.185 -23.1242 197.257L-20.6135 197.369L-13.6407 195.292C-6.28045 193.101 -1.96793 191.474 6.07256 187.849C12.7394 184.834 12.9751 184.563 7.71347 186.101C3.54132 187.315 1.76753 187.642 -4.19534 188.33C-6.64485 188.602 -20.9628 192.035 -26.1924 193.592C-30.6715 194.925 -30.6473 194.918 -31.663 193.189C-32.3136 192.066 -32.4396 191.731 -32.1975 191.659C-32.028 191.609 -29.9744 191.512 -27.6154 191.468C-23.4043 191.359 -23.2754 191.35 -19.8445 190.214C-15.8646 188.885 -15.2251 188.466 -12.5414 185.263C-10.9639 183.391 -7.15048 177.962 -6.02292 175.995L-5.50793 175.069L-6.19877 175.847C-6.57268 176.274 -8.26347 178.208 -9.93005 180.135C-14.0844 184.95 -14.684 185.414 -17.8315 186.352C-19.7684 186.928 -20.9291 187.102 -22.7484 187.1C-24.8496 187.125 -25.5995 187.262 -29.4248 188.401L-33.7344 189.684L-34.2896 188.705C-34.6071 188.17 -35.0669 187.333 -35.3609 186.877C-35.6307 186.414 -35.8763 185.943 -35.8997 185.864C-35.9232 185.785 -35.0524 185.612 -33.9807 185.493C-30.8946 185.147 -26.0516 183.619 -23.7379 182.272C-21.1977 180.8 -20.7426 180.292 -19.7723 177.885C-18.7116 175.251 -18.4409 174.656 -17.7806 173.686L-17.2343 172.865L-18.0868 173.72C-20.603 176.158 -23.3867 177.874 -26.3405 178.754C-27.5995 179.128 -29.9188 180.191 -32.5793 181.613C-34.9165 182.881 -36.929 183.824 -37.0571 183.747C-37.3213 183.568 -42.373 174.569 -44.0599 171.293C-44.6222 170.202 -45.1297 169.294 -45.1938 169.256C-45.386 169.141 -46.1878 172.557 -46.0625 172.977C-45.9686 173.293 -37.3299 187.435 -36.5027 188.619C-36.3119 188.906 -37.0062 189.141 -41.016 190.192C-44.5657 191.106 -46.487 191.735 -48.5799 192.673C-54.2284 195.214 -54.5118 195.413 -59.886 200.733C-62.5895 203.427 -64.7823 205.711 -64.751 205.816C-64.7276 205.895 -64.5339 205.838 -64.3473 205.668C-62.5234 204.18 -53.8438 198.276 -52.6638 197.724C-51.8313 197.333 -49.1026 196.406 -46.5604 195.649C-42.4203 194.417 -41.6448 194.1 -38.6844 192.446C-36.8728 191.449 -35.3844 190.605 -35.3602 190.597C-35.2634 190.569 -33.755 193.067 -33.6454 193.435C-33.5906 193.619 -36.2635 196.505 -39.5923 199.843C-42.8969 203.173 -46.2841 206.758 -47.0818 207.796C-47.9201 208.876 -49.9701 212.348 -51.8193 215.875C-53.5951 219.295 -56.237 224.231 -57.7001 226.842C-61.7054 234.016 -61.7638 234.263 -58.4681 229.131C-56.3555 225.869 -53.8123 223.08 -49.1482 218.915C-45.1251 215.342 -43.3666 213.015 -36.3493 201.882L-32.2858 195.435L-31.2138 197.176C-30.6102 198.141 -29.9432 199.231 -29.6727 199.608C-29.4264 199.993 -29.2199 200.332 -29.2043 200.384C-29.1808 200.463 -34.3294 206.718 -37.1427 210.017C-41.3462 214.932 -44.0948 219.156 -45.2981 222.463C-46.4195 225.601 -50.1088 237.289 -50.0383 237.526C-50.007 237.631 -48.3373 234.386 -46.3385 230.299L-42.6693 222.882L-38.075 218.394C-32.8475 213.289 -31.6581 211.618 -29.2617 206.211C-28.4738 204.431 -27.7451 202.984 -27.649 203.041C-27.3926 203.193 -24.2556 208.241 -24.0827 208.733C-23.9496 209.18 -27.0099 212.181 -31.9246 216.477C-34.4549 218.69 -37.5081 221.803 -38.8023 223.476C-39.3393 224.151 -41.0374 226.947 -42.6222 229.679C-44.1992 232.439 -46.7962 236.818 -48.396 239.412C-52.3791 245.864 -52.7473 246.575 -50.2302 243.078C-47.8513 239.737 -45.1073 237.002 -40.4383 233.208C-35.9559 229.584 -33.7929 227.022 -26.6782 216.747C-24.5351 213.676 -22.6868 211.208 -22.5665 211.258C-22.3095 211.325 -20.9591 213.47 -21.0731 213.618C-21.3337 213.982 -26.555 220.259 -28.4331 222.45C-31.6203 226.175 -34.3232 229.756 -35.386 231.675C-35.8846 232.567 -36.9182 234.85 -37.667 236.761C-39.7308 241.869 -42.3595 248.09 -44.7309 253.404C-45.88 256.007 -46.7833 258.107 -46.7106 258.086C-46.6138 258.057 -45.7063 256.413 -44.6749 254.389C-42.3342 249.857 -39.9981 246.814 -34.5733 241.221C-31.3897 237.926 -29.3248 234.592 -23.4475 223.083L-19.6657 215.689L-18.4108 217.691C-17.7118 218.8 -17.0291 219.941 -16.911 220.25C-16.7373 220.656 -17.3413 221.637 -20.0849 225.259C-24.1475 230.647 -24.213 230.781 -28.2995 238.036C-30.0731 241.198 -32.0411 244.502 -32.7006 245.386C-34.1586 247.394 -38.8016 252.869 -42.3768 256.795C-43.8233 258.4 -44.9614 259.711 -44.9216 259.757C-44.5691 259.967 -24.8578 240.389 -23.0103 238.007C-21.1058 235.551 -17.7398 227.823 -16.4914 222.987C-16.3168 222.334 -16.1109 221.786 -16.0141 221.757C-15.8688 221.714 -12.6043 226.924 -12.44 227.476C-12.393 227.634 -13.5355 229.462 -15.0098 231.504C-24.3873 244.713 -25.7158 247.599 -28.2517 259.974C-29.9979 268.45 -31.2298 276.086 -30.8424 275.971C-30.794 275.957 -30.0495 273.588 -29.1959 270.701C-28.0031 266.74 -26.9908 264.12 -25.0475 259.936C-23.6292 256.909 -21.594 252.325 -20.5496 249.724C-18.8149 245.458 -11.3432 230.097 -10.9316 229.975C-10.7621 229.924 -8.02721 233.975 -8.14117 234.124C-8.52437 234.696 -17.0432 248.222 -18.3003 250.285C-20.3823 253.738 -22.4097 258.349 -23.1352 261.312C-23.4516 262.551 -24.5675 266.948 -25.657 271.078C-26.7223 275.202 -27.7378 279.139 -27.9045 279.819L-28.1967 281.05L-27.7722 280.352C-27.5357 279.995 -26.0869 277.159 -24.5233 274.089C-22.984 271.027 -19.9388 265.054 -17.7698 260.831C-13.6611 252.853 -12.0034 249.126 -8.94783 240.975C-7.96753 238.336 -7.07917 236.097 -6.97377 236.008C-6.89258 235.927 -6.21558 236.784 -5.49235 237.886L-4.18114 239.899L-7.23453 247.792C-12.6339 261.792 -12.9004 262.844 -13.8329 272.194C-14.1582 275.439 -14.6576 280.225 -14.9372 282.826C-15.7162 290.213 -15.7561 290.168 -14.1472 284.595C-13.5501 282.528 -11.8265 276.72 -10.3188 271.692C-7.1132 261.035 -6.03077 256.792 -4.52398 249.017C-3.92596 245.891 -3.3294 242.937 -3.22891 242.478L-3.04432 241.593L-0.992034 244.502L1.05243 247.385L-1.64417 254.971C-5.55335 266.009 -5.52841 265.915 -6.6353 278.752C-7.03636 283.336 -7.38317 287.217 -7.41666 287.37C-7.45799 287.497 -7.42668 287.602 -7.35404 287.58C-7.16035 287.523 -1.19261 265.34 -0.42292 261.905C-0.0544618 260.221 0.64405 256.636 1.10171 253.924C1.55938 251.212 2.05254 249.062 2.21273 249.157C2.50108 249.329 5.12787 252.84 5.22963 253.182C5.26877 253.313 4.24477 257.31 2.98066 262.094C1.68451 266.859 0.592065 271.334 0.521429 272.07C0.450791 272.807 0.404715 275.396 0.392138 277.833C0.379561 280.269 0.317453 284.753 0.227139 287.813C0.129 290.847 0.0829294 293.437 0.122066 293.568C0.153377 293.674 0.375837 292.119 0.6105 290.074C1.22746 284.711 2.0179 280.726 3.65612 274.543C5.26866 268.539 5.9801 264.378 6.31509 259.04C6.45217 257.111 6.58708 255.439 6.65261 255.305C6.71888 255.085 9.8106 258.83 9.95149 259.303C9.9828 259.408 9.45523 262.771 8.7609 266.812C7.71796 273.047 7.55175 274.614 7.66514 277.385C7.74668 279.163 7.89683 283.297 8.02223 286.551C8.12342 289.812 8.2938 292.509 8.35787 292.547C8.42195 292.585 8.47693 291.796 8.52554 290.809C8.62096 287.146 9.04823 283.269 10.0899 276.233C11.0959 269.609 11.188 268.236 11.2157 261.159C11.2108 260.788 13.516 263.307 13.6882 263.886C13.7195 263.991 13.0836 267.786 12.2646 272.295C11.2937 277.621 10.8395 280.876 10.9618 281.641C11.045 282.274 11.201 285.719 11.2594 289.279C11.342 292.832 11.439 295.637 11.5046 295.503C11.8415 294.687 13.545 278.897 13.9249 273.002C14.1663 269.21 14.3806 265.769 14.4163 265.357C14.4948 264.647 14.5268 264.666 15.8346 266.137L17.1502 267.634L16.4005 274.412C15.8534 279.125 15.677 281.897 15.8241 283.541C15.9499 284.849 16.1415 287.883 16.2984 290.269C16.4311 292.662 16.5674 294.625 16.6073 294.67C16.8238 294.778 17.5688 279.044 17.5768 274.29C17.5859 271.311 17.664 268.741 17.6975 268.588C17.7631 268.454 18.2508 268.852 18.7768 269.468L19.7251 270.617L19.332 274.254C18.6914 280.513 18.7216 282.65 19.5682 286.29C19.9638 288.061 20.5805 291.284 20.9005 293.421C21.2284 295.584 21.5591 297.403 21.6474 297.434C21.7115 297.472 21.6793 294.62 21.5888 291.041Z" fill="#145EB4" fill-opacity="0.37"/>
<path d="M104.99 23.25C95.0296 22.6484 91.6731 22.5426 80.3179 22.4731L74.297 22.4511L75.9205 20.8284L77.5853 19.1965L81.3628 19.2502C84.4032 19.2977 86.1285 19.0802 89.6823 18.1459C92.1751 17.495 97.4768 16.2515 101.47 15.3475C105.505 14.4341 108.757 13.6978 108.657 13.6341C108.606 13.6023 105.667 13.6185 102.082 13.651C94.8707 13.7253 87.8011 14.8064 82.5475 16.6449C80.8238 17.2515 79.4108 17.7012 79.3922 17.6188C79.3828 17.5777 79.7518 17.1046 80.2443 16.6036C80.9466 15.882 82.6198 15.2435 87.1431 14.0031C93.6559 12.1826 93.5417 12.2517 99.6925 6.92077C101.28 5.52259 102.628 4.78468 104.681 4.1035C108.261 2.90348 106.791 2.717 102.006 3.75695C97.756 4.67576 94.3459 6.05367 90.3173 8.52374C88.5221 9.57934 87.0283 10.4369 86.9778 10.405C86.9273 10.3732 87.8681 8.6021 89.0636 6.42712C91.0089 2.78402 97.9082 -13.5797 97.5959 -13.812C97.3341 -14.0124 88.5404 -3.14923 86.3692 0.0689576C84.2523 3.14499 82.4073 7.80415 81.4454 12.3499C80.9513 14.7556 79.4465 17.4767 78.4996 17.6911C78.2526 17.747 78.446 16.8809 78.9223 15.7343C80.4092 11.9786 81.1178 8.2259 81.2003 3.6195C81.2734 -1.02806 80.9575 -7.96796 80.6313 -9.40893C80.3758 -10.3465 77.4421 4.98964 76.9704 9.59757C76.7987 11.3244 76.6222 14.1775 76.6431 15.9906L76.6104 19.2873L73.9405 21.4498C72.4389 22.6553 71.2108 23.5393 71.1828 23.4158C71.1548 23.2923 72.0483 19.9738 73.1911 16.0363C74.3339 12.0988 75.4697 7.55688 75.7105 5.94426C76.1154 2.95284 76.7452 -16.06 76.4011 -16.2418C76.2497 -16.3373 73.7682 -4.73907 71.7761 5.57981C71.3364 7.84337 70.5423 13.1302 70.0372 17.3995C69.0877 25.0586 68.6806 26.3193 66.9289 26.8025C66.6407 26.8677 66.9515 24.4169 67.5622 21.3789C69.1425 13.4471 69.2397 11.3909 68.6216 3.30757C68.0222 -4.69345 68.3323 -8.48575 70.3701 -17.6464C71.0181 -20.5198 71.5029 -22.9667 71.475 -23.0902C71.447 -23.2137 70.7703 -21.8054 69.9717 -19.9799C68.1345 -15.6688 66.8992 -10.8014 66.2939 -5.25435C66.0149 -2.85406 65.2481 1.21476 64.6079 3.7401C62.9166 10.2255 62.479 18.8075 63.393 26.4776L63.7106 29.219L61.8889 30.5402C60.848 31.2952 59.9252 31.8071 59.783 31.7527C59.6727 31.6478 59.989 27.1184 60.5718 21.663C61.7133 10.4546 61.7081 5.65169 60.5587 -2.4845C60.116 -5.58704 59.4171 -10.9687 58.9822 -14.4192C58.0806 -21.2698 58.0472 -21.6085 57.8561 -21.3056C57.7924 -21.2046 57.581 -16.7854 57.4324 -11.5149C57.2839 -6.24431 57.0801 0.120744 56.9619 2.65775C56.679 9.81979 56.7765 18.2807 57.2602 25.9616C57.4908 29.8479 57.5272 33.2588 57.2949 33.5711C56.8808 34.2275 50.817 38.4134 50.5646 38.2542C50.4636 38.1905 51.3376 33.4482 52.5007 27.6883C53.6731 21.9695 54.8183 15.175 55.06 12.61C55.447 8.58387 55.034 -20.5801 54.5889 -20.8256C54.3364 -20.9849 51.2587 3.08324 50.0232 14.8322C49.4008 20.6861 48.7596 28.7516 48.629 32.7629C48.3895 39.3525 48.2691 40.1588 47.3967 40.7025C46.8669 41.0389 45.328 42.0797 43.9352 43.0009L41.4098 44.6546L41.949 42.0656C42.2776 40.6495 43.3443 35.9934 44.3807 31.777C47.5295 18.7293 47.8481 15.9305 47.7569 2.14474C47.7129 -3.21204 47.696 -9.78684 47.6852 -12.5111C47.6838 -15.1941 47.6427 -17.4787 47.5417 -17.5424C47.4407 -17.6061 47.0499 -15.6998 46.6886 -13.2809C46.318 -10.9031 45.2271 -4.2507 44.2606 1.42142C41.5226 17.6222 40.7052 23.953 39.7804 35.5451L38.8937 46.3495L35.4229 48.6068C33.491 49.8232 31.81 50.8096 31.6997 50.7048C31.5575 50.6504 32.6429 43.7828 34.0982 35.4897C36.6046 20.9428 36.6613 20.2375 36.3858 14.2406C36.0303 7.69919 36.3488 4.90041 39.1505 -9.10744C40.9506 -18.171 41.1705 -19.3028 41.0058 -19.2655C40.9234 -19.2469 40.3664 -17.6925 39.7923 -15.8314C39.1677 -14.002 38.1267 -10.9531 37.4104 -9.14634C35.6609 -4.63866 34.334 0.206164 33.2253 5.82391C32.7366 8.4448 32.0195 11.204 31.6428 12.025C30.2856 15.0156 28.8126 19.9801 28.0458 24.0489C27.1678 28.9652 27.0232 34.0617 27.5456 44.5905C27.7272 48.8341 27.8381 52.5744 27.748 52.941C27.6486 53.2665 26.2612 54.4029 24.64 55.4624C21.6896 57.3421 21.6896 57.3421 21.7728 56.3711C21.7845 55.8491 22.758 48.4875 23.8692 40.0127C25.8956 24.4924 26.0168 22.7337 25.3344 11.1159C25.2203 8.89119 25.0364 2.91685 24.9659 -2.17427C24.8542 -7.25606 24.7231 -11.4679 24.581 -11.5222C24.48 -11.5859 24.4007 -10.7889 24.3455 -9.69444C24.2677 -6.2144 23.0392 6.13893 22.3469 10.5371C21.9763 12.9149 20.8801 17.0583 19.888 19.7498C16.1862 29.5901 15.8 34.9578 17.0708 58.734C17.1352 59.9745 16.9254 60.1951 14.226 61.8449C12.6273 62.8128 11.2477 63.6012 11.1879 63.5281C11.0869 63.4644 11.1802 61.5823 11.3543 59.2923C11.9138 52.587 12.1976 44.4726 12.0401 40.5265C11.9314 38.5169 11.0368 32.2707 10.0256 26.6567C8.48161 18.3069 8.18807 15.8631 8.36604 13.3991C8.68778 9.08481 10.2517 2.80137 12.2824 -2.3759C13.2799 -4.85229 13.9721 -6.9566 13.83 -7.01098C13.0221 -7.52059 7.8343 2.82925 6.31626 7.97701C4.83008 13.0743 4.71499 16.3897 5.65543 23.7941C6.71857 32.1229 6.61823 35.6946 5.12662 40.5767C4.07783 43.9736 4.30686 47.4708 6.16618 56.8312L7.89501 65.6153L3.54642 68.2011C1.13908 69.6117 -0.985491 70.7418 -1.20998 70.7061C-1.52614 70.6478 -1.17181 67.6245 1.58498 46.9184C3.07839 35.5438 2.87659 30.8287 0.163872 12.9188C-1.01038 5.43741 -2.01922 -0.7397 -2.07903 -0.81272C-2.29031 -0.981293 -2.31284 -0.889631 -2.41487 6.88065C-2.51148 14.8661 -3.20465 22.5105 -4.78736 33.2994C-7.14704 49.0682 -7.18205 50.6342 -5.6243 64.7805C-5.11721 69.1236 -4.84157 72.8266 -4.93713 72.9781C-5.27427 73.4006 -11.1726 76.5969 -11.4157 76.4789C-11.5167 76.4151 -10.5128 68.6138 -9.22688 59.1906C-6.52373 39.9681 -6.54626 40.0598 -7.03139 29.6957C-7.22623 25.5849 -7.46984 17.2437 -7.53022 11.2414C-7.59992 5.19793 -7.68907 0.0244652 -7.73567 -0.181387C-7.83276 -0.41909 -8.07055 1.97188 -8.31457 5.10002C-9.36531 19.5771 -10.8307 28.7813 -13.0059 34.4674C-17.3113 45.6562 -17.9485 51.2537 -17.1289 70.9339L-16.7509 79.6775L-20.2869 81.6466C-22.2468 82.7394 -23.8416 83.5333 -23.8602 83.4509C-23.8789 83.3686 -23.3133 80.5139 -22.663 77.0774C-20.7727 67.6471 -20.4914 64.6837 -20.6884 56.5483C-20.9909 42.5939 -21.0895 41.967 -25.0722 23.6089C-27.3626 12.9178 -28.7311 7.25491 -28.7731 8.21658C-28.8019 9.04542 -28.4563 11.9103 -27.9927 14.532C-26.4976 23.2391 -26.8203 30.7996 -29.1767 42.7591C-31.1835 52.8216 -31.107 61.7633 -29.0041 81.7589C-28.5273 86.5416 -28.4955 86.4911 -31.6493 87.8543L-33.025 88.4687L-33.0723 84.6274C-33.0668 82.5487 -33.0006 77.2968 -32.9352 72.9973C-32.725 61.3073 -32.9603 58.5473 -35.1675 46.8852C-36.2665 41.0748 -37.4928 33.1724 -37.8468 29.314C-38.524 22.4992 -39.378 10.3143 -39.3274 8.0523C-39.3344 7.44796 -39.4276 7.03625 -39.5232 7.18772C-39.8098 7.64214 -40.8482 22.9388 -40.7908 25.8688C-40.6946 29.3528 -41.084 36.2359 -41.774 42.3648C-43.3071 56.4317 -42.8638 63.1697 -39.1731 81.7671C-38.2101 86.786 -37.4428 90.9403 -37.5065 91.0413C-37.5608 91.1834 -44.2266 94.8132 -44.5148 94.8784C-44.556 94.8877 -44.3602 93.4584 -44.065 91.7037C-43.7285 89.9396 -43.3478 86.6506 -43.1325 84.3513L-42.7735 80.2017L-45.4577 68.3446C-48.291 55.8288 -50.4813 48.4476 -55.4764 34.6034C-59.6334 23.123 -60.0334 22.6942 -58.0521 31.6375C-56.4903 38.7281 -56.1167 41.7165 -55.5003 51.7045C-55.2643 55.806 -51.034 80.0375 -49.0208 88.9303C-47.2966 96.5469 -47.3059 96.5057 -50.0519 97.9497C-51.8339 98.8724 -52.3598 99.0348 -52.453 98.6231C-52.5183 98.3349 -52.5135 94.9146 -52.4054 90.9949C-52.2591 83.9937 -52.2645 83.7785 -53.762 77.9284C-55.515 71.1407 -56.1146 70.0213 -60.8591 65.1227C-63.6314 62.2446 -71.7269 55.1615 -74.6794 53.0166L-76.0706 52.0332L-74.921 53.2877C-74.2911 53.9674 -71.431 57.0421 -68.5803 60.0756C-61.4581 67.6387 -60.7854 68.6983 -59.5738 74.0504C-58.8282 77.3441 -58.6465 79.2938 -58.7857 82.3117C-58.9046 85.801 -58.7485 87.0641 -57.276 93.5691L-55.617 100.897L-57.1706 101.682C-58.0204 102.134 -59.3457 102.78 -60.072 103.204C-60.8076 103.587 -61.5526 103.929 -61.6761 103.957C-61.7996 103.985 -62.0023 102.516 -62.1056 100.722C-62.4099 95.5536 -64.4067 87.3063 -66.3136 83.2801C-68.3961 78.8608 -69.1456 78.0351 -72.7887 76.0898C-76.776 73.9628 -77.6755 73.4307 -79.1226 72.2002L-80.3491 71.1794L-79.0931 72.7129C-75.5177 77.227 -73.0764 82.0844 -71.9393 87.1072C-71.4547 89.248 -69.9874 93.2439 -67.9912 97.8558C-66.2079 101.91 -64.903 105.38 -65.0304 105.582C-65.3263 105.995 -79.5971 113.121 -84.78 115.463C-86.5076 116.243 -87.947 116.959 -88.0107 117.06C-88.2018 117.363 -82.9888 119.169 -82.3301 119.02C-81.836 118.908 -59.3582 106.548 -57.4675 105.341C-57.0107 105.065 -56.6993 106.249 -55.3766 113.048C-54.2311 119.064 -53.4031 122.339 -52.1114 125.942C-48.6115 135.667 -48.3257 136.165 -40.513 145.822C-36.5562 150.683 -33.1936 154.639 -33.0289 154.602C-32.9054 154.574 -32.98 154.245 -33.2285 153.911C-35.3887 150.678 -43.8552 135.456 -44.6187 133.421C-45.1601 131.986 -46.3873 127.33 -47.3659 123.007C-48.9596 115.967 -49.3907 114.636 -51.7232 109.494C-53.1276 106.35 -54.3191 103.763 -54.3284 103.722C-54.3657 103.557 -50.3954 101.403 -49.819 101.273C-49.5308 101.208 -45.2765 106.044 -40.372 112.032C-35.4769 117.978 -30.1964 124.097 -28.6522 125.565C-27.0482 127.107 -21.8407 130.992 -16.5337 134.551C-11.3876 137.974 -3.96395 143.045 -0.0427802 145.836C10.7334 153.481 11.1094 153.612 3.4341 147.43C-1.44404 143.47 -5.5601 138.862 -11.6413 130.544C-16.8573 123.371 -20.3178 120.13 -36.9811 106.936L-46.631 99.296L-43.8624 97.7603C-42.3274 96.8935 -40.5959 95.9389 -39.9931 95.5427C-39.381 95.1878 -38.8419 94.8926 -38.7596 94.8739C-38.636 94.846 -29.3638 104.26 -24.481 109.387C-17.2074 117.045 -10.8914 122.194 -5.87731 124.651C-1.11564 126.949 16.6525 134.699 17.023 134.615C17.1877 134.578 12.3033 131.356 6.14349 127.47L-5.03356 120.349L-11.6182 112.101C-19.1092 102.717 -21.5996 100.511 -29.7682 95.7816C-32.4574 94.2263 -34.6378 92.8156 -34.5423 92.6641C-34.2875 92.2602 -26.2607 87.7597 -25.4878 87.5415C-24.7879 87.383 -20.3844 92.8782 -14.1183 101.631C-10.8909 106.137 -6.31341 111.636 -3.82698 114.016C-2.82495 115.001 1.36342 118.208 5.46401 121.218C9.60577 124.219 16.1726 129.138 20.0581 132.154C29.7211 139.661 30.7907 140.371 25.5802 135.708C20.5995 131.295 16.5829 126.362 11.0741 118.087C5.81396 110.146 2.02101 106.2 -13.3101 92.9647C-17.8907 88.9811 -21.5625 85.5709 -21.4763 85.3782C-21.3543 84.9611 -17.9418 83.02 -17.7212 83.2298C-17.179 83.7129 -7.87878 93.25 -4.63734 96.6711C0.875371 102.478 6.20168 107.461 9.08507 109.492C10.4258 110.443 13.8724 112.476 16.7674 113.985C24.4987 118.121 33.9055 123.349 41.932 128.024C45.8648 130.293 49.0403 132.085 49.0123 131.961C48.9751 131.797 46.5049 130.062 43.4568 128.069C36.6352 123.554 32.1128 119.254 23.883 109.474C19.0345 103.734 14.0421 99.8434 -3.28699 88.4884L-14.419 81.1838L-11.2348 79.381C-9.47147 78.3759 -7.65762 77.4026 -7.17289 77.2496C-6.5328 77.0181 -5.06315 78.157 0.322965 83.2133C8.33768 90.7042 8.53964 90.8316 19.4355 98.6225C24.1831 102.006 29.1382 105.731 30.4525 106.949C33.4438 109.647 41.5494 118.113 47.344 124.592C49.7124 127.215 51.6527 129.286 51.7258 129.226C52.0761 128.671 23.3243 93.241 19.7853 89.8439C16.1361 86.342 4.4572 79.6806 -2.91605 76.9351C-3.9111 76.5545 -4.74149 76.1365 -4.77877 75.9718C-4.83469 75.7248 3.45233 71.0356 4.31691 70.8399C4.56393 70.784 7.30128 72.9342 10.3431 75.6648C30.0358 93.0633 34.3912 95.6696 53.306 101.602C66.2612 105.681 77.9581 108.789 77.809 108.13C77.7903 108.048 74.1899 106.482 69.7964 104.664C63.7702 102.133 59.8016 100.088 53.4864 96.2809C48.9197 93.506 41.9947 89.4905 38.058 87.3954C31.6022 83.9228 8.44563 69.3859 8.28718 68.686C8.22195 68.3978 14.6804 64.4255 14.901 64.6352C15.7554 65.3507 36.0012 81.3689 39.092 83.7421C44.2677 87.6775 51.2338 91.6837 55.7547 93.3004C57.6439 93.998 64.3475 96.4623 70.6433 98.8457C76.9299 101.188 82.9321 103.421 83.9683 103.793L85.8482 104.449L84.8011 103.648C84.2682 103.206 79.999 100.407 75.3764 97.3847C70.7631 94.404 61.7704 88.5194 55.4125 84.3323C43.4035 76.4039 37.7726 73.1342 25.4179 66.9287C21.4175 64.9345 18.0268 63.1485 17.8979 62.9613C17.7783 62.8153 19.1525 61.8117 20.9065 60.7654L24.1132 58.8709L36.0694 65.0368C57.2794 75.9461 58.8842 76.5349 73.2494 79.3855C78.2349 80.3776 85.5848 81.8732 89.5806 82.6999C100.926 85.0221 100.853 85.0819 92.3694 81.6358C89.2234 80.3571 80.3859 76.6879 72.7362 73.4857C56.5239 66.682 50.0541 64.2947 38.163 60.7109C33.3819 59.283 28.8664 57.8815 28.165 57.6507L26.8126 57.2211L31.4572 54.2221L36.0606 51.2324L47.5701 56.7635C64.3183 64.7877 64.1762 64.7333 83.9105 68.3593C90.9576 69.6638 96.9233 70.7802 97.1571 70.8571C97.3498 70.9434 97.5145 70.9061 97.4865 70.7826C97.4119 70.4532 63.6117 57.4601 58.3669 55.7044C55.7949 54.8584 50.3123 53.1997 46.1596 52.0623C42.0069 50.925 38.7242 49.807 38.8835 49.5546C39.1701 49.1002 44.7865 45.2319 45.3217 45.1108C45.5276 45.0642 51.6215 47.3202 58.9124 50.0843C66.1714 52.8989 72.9986 55.3351 74.1304 55.555C75.2621 55.7749 79.2564 56.2124 83.0169 56.5729C86.7773 56.9335 93.6939 57.6616 98.4121 58.2381C103.089 58.824 107.083 59.2615 107.289 59.2149C107.454 59.1776 105.071 58.5918 101.932 57.9174C93.697 56.1461 87.6047 54.2792 78.1815 50.6994C69.0333 47.1872 62.6621 45.4267 54.4476 44.1269C51.4787 43.6304 48.9083 43.1736 48.7063 43.0462C48.3715 42.9055 54.3833 38.2986 55.1244 38.1308C55.289 38.0935 60.4407 39.4376 66.6286 41.153C76.1761 43.7525 78.5818 44.2466 82.8682 44.4448C85.6203 44.5576 92.0133 44.8848 97.0462 45.1304C102.088 45.4173 106.264 45.5106 106.328 45.4096C106.392 45.3087 105.178 45.1074 103.657 44.8891C98.0087 44.2201 92.0561 42.9708 81.272 40.2617C71.1201 37.6692 69.008 37.325 58.084 36.2923C57.5115 36.2487 61.5727 32.7758 62.4785 32.5708C62.6431 32.5335 68.4551 34.1176 75.3537 36.1049C83.5038 38.4581 88.4946 39.6654 89.6847 39.5691C90.6689 39.5194 95.9993 39.741 101.5 40.1405C106.991 40.4988 111.328 40.7289 111.126 40.6015C109.891 39.9287 85.6416 34.9012 76.5703 33.4491C70.7335 32.5198 65.4373 31.6846 64.805 31.568C63.7144 31.3388 63.7462 31.2883 66.1148 29.3239L68.5245 27.3502L78.9311 29.5388C86.1669 31.1035 90.4322 31.7825 92.9825 31.7679C95.0107 31.7415 99.7087 31.8466 103.404 31.9189C107.108 32.0325 110.149 32.08 110.222 32.0202C110.404 31.676 86.1693 28.2464 78.8317 27.5703C74.2331 27.1398 70.2707 26.6519 70.0369 26.575C69.8349 26.4476 70.4867 25.6941 71.4771 24.9072L73.3213 23.4943L78.9072 24.6535C88.5207 26.5888 91.8229 26.8367 97.5059 25.9397C100.27 25.5305 105.29 24.9566 108.613 24.7237C111.978 24.4814 114.811 24.1863 114.865 24.0442C114.929 23.9432 110.523 23.5989 104.99 23.25Z" fill="#145EB4" fill-opacity="0.38"/>
<path d="M-79.9025 58.4471C-79.1476 60.0075 -77.8111 62.1425 -76.6723 63.6878C-74.7325 66.2805 -70.8753 70.3299 -69.5803 71.1669C-67.686 72.3513 -65.0853 72.9087 -62.0993 72.7826C-59.6412 72.6528 -55.0119 71.6871 -53.8698 71.0319C-53.3725 70.7372 -53.5132 70.6341 -55.2688 70.0267C-60.4765 68.2173 -64.0048 65.3085 -68.3635 59.3273C-70.9862 55.7127 -71.0549 55.0899 -68.4587 58.5164C-65.4174 62.5248 -63.7317 64.236 -61.1234 65.8775C-57.0387 68.5042 -53.0397 69.8722 -51.0518 69.3618C-49.6318 68.9973 -49.5925 68.6531 -50.6932 66.374C-52.5231 62.528 -53.9757 60.9519 -59.6463 56.6718C-61.001 55.6274 -62.7377 54.1242 -63.4973 53.3168C-64.9017 51.8118 -64.9017 51.8118 -65.8327 48.4869C-66.3376 46.6396 -66.8697 44.4095 -67.0131 43.5274C-67.2394 42.1655 -67.1389 42.4181 -66.2874 45.1788C-64.5091 51.1542 -63.3927 52.6217 -57.43 57.0496C-55.4278 58.5125 -53.1068 60.3112 -52.2663 61.0143C-50.4224 62.6013 -47.924 65.4961 -47.6699 66.3775C-47.5652 66.7405 -47.3723 67.0251 -47.269 66.9986C-46.9076 66.9058 -42.9027 63.678 -41.0813 62.0132C-39.8157 60.8251 -39.3931 60.2711 -39.406 59.7454C-39.4346 58.9731 -40.477 56.5121 -42.6445 52.168C-43.8642 49.6689 -44.1775 48.7748 -45.1737 44.7426C-47.0275 37.2553 -47.1248 35.8602 -45.3763 41.7319C-44.5765 44.5058 -43.2936 48.1859 -42.5713 49.9217C-41.4059 52.7132 -39.2765 56.7329 -38.1934 58.1812C-37.8299 58.6726 -37.6016 58.5026 -30.5009 52.8373L-23.1718 47.002L-25.0032 40.6505C-26.6701 34.8693 -26.8353 34.1042 -26.9285 31.7614C-26.9741 30.3531 -26.9375 29.23 -26.8709 29.2686C-26.7785 29.3005 -26.5379 30.5196 -26.2892 31.9593C-25.5232 36.6353 -22.6495 44.3899 -21.4177 45.1039C-21.1514 45.2582 -2.62172 29.2247 -2.49062 28.7177C-2.4322 28.5357 -2.44922 27.8997 -2.5437 27.2835C-2.82442 25.1559 -2.59232 20.8641 -2.11141 19.07C-1.55035 16.977 -0.591864 14.5312 0.38704 12.6372L1.10577 11.2832L0.404066 13.2732C-0.681434 16.3362 -1.55563 19.6513 -1.6398 20.898C-1.68188 21.5214 -1.46574 23.1365 -1.15449 24.5045C-0.69305 26.5857 -0.562589 26.942 -0.282685 26.7588C0.630389 26.0789 15.9141 13.8858 16.4957 13.4023C16.8415 13.063 17.0589 12.9515 16.9746 13.1402C16.8571 13.3096 11.4052 18.6351 4.8494 24.9401C-1.72479 31.2777 -7.36076 36.734 -7.70656 37.0733L-8.3207 37.7322L-5.59693 38.62C3.04386 41.4694 8.27193 42.7724 10.5601 42.6305C15.0591 42.3665 15.0333 42.3731 12.2077 42.9593C10.747 43.2786 8.79511 43.5291 7.85006 43.5211C4.63106 43.5122 -1.27232 42.2711 -7.68055 40.2408C-9.38792 39.7046 -10.9472 39.2974 -11.1021 39.3372C-11.4635 39.43 -27.366 54.093 -27.3137 54.2744C-27.2614 54.4559 -21.7764 57.4193 -18.7849 58.851C-15.6195 60.4051 -10.0632 62.6541 -7.01063 63.6246C-5.84272 64.0208 -0.873506 65.1954 4.01416 66.2795C8.90184 67.3637 12.818 68.2517 12.748 68.2975C12.11 68.4891 -0.967854 66.6953 -4.08227 65.9913C-10.7656 64.4493 -18.672 61.5507 -26.0974 57.916L-29.773 56.1309L-33.5048 59.3442C-35.5769 61.1013 -38.098 63.2242 -39.1211 64.0994L-40.9799 65.6346L-39.9682 66.7393C-38.3783 68.5029 -34.1019 72.0828 -30.5193 74.6993C-21.4108 81.3823 -13.0329 86.109 -6.56143 88.2622C-4.0741 89.0994 -5.88404 88.7844 -9.21724 87.8024C-18.4185 85.1248 -23.7411 82.1476 -35.161 73.2179C-41.1726 68.5242 -42.4602 67.7131 -43.5186 67.9848C-44.1899 68.1572 -48.0881 71.274 -48.6757 72.1209C-48.8558 72.3621 -48.3102 73.1965 -46.7454 75.1615C-45.5699 76.6418 -42.492 80.585 -39.959 83.8886C-37.3927 87.2114 -34.8305 90.4239 -34.2598 91.057C-32.0325 93.4924 -24.73 99.9708 -21.7765 102.136C-21.5692 102.278 -21.4728 102.42 -21.5502 102.44C-21.7826 102.5 -28.2147 97.8861 -31.4094 95.365C-36.7919 91.1223 -40.0491 87.6149 -46.9286 78.6612C-48.9683 76.0106 -50.2137 74.5762 -50.283 74.8167C-50.4719 75.7005 -50.3493 80.0684 -50.0298 82.715C-49.6376 86.0948 -48.4845 89.6133 -46.7273 92.7262C-46.0995 93.8459 -45.6198 94.8365 -45.6565 94.9016C-45.7849 95.1294 -49.0735 90.0708 -49.9806 88.2711C-51.0215 86.1995 -51.9859 81.7971 -52.1308 78.4096C-52.2526 75.2945 -52.3226 75.3403 -53.4589 79.6694C-54.9085 85.2204 -55.4775 90.2669 -55.052 93.666C-54.7896 95.8261 -53.2961 99.5636 -52.143 100.966C-51.0715 102.278 -48.2709 104.009 -44.348 105.787C-40.0146 107.737 -28.063 112.549 -26.1858 113.097C-22.2024 114.218 -18.075 114.3 -13.3349 113.334C-4.88396 111.582 3.67755 106.656 13.315 98.056C16.8661 94.8891 23.0564 88.5665 22.9517 88.2036C22.9218 88.0999 22.5672 88.0238 22.1317 88.0521C19.8652 88.0771 13.9754 87.5565 11.6777 87.0883C8.79631 86.5193 6.68537 85.6412 0.675882 82.5897C-1.46905 81.4976 -5.14472 79.7125 -7.50366 78.6475C-14.429 75.497 -17.7453 73.0349 -18.4479 70.598C-18.859 69.1721 -18.5479 68.424 -17.4378 68.1391C-14.9594 67.5028 -9.4697 69.7132 2.20686 76.0711C10.5733 80.6615 17.2458 82.262 23.8835 81.3376C31.1299 80.3126 35.2101 75.4228 37.5541 64.9922C37.9935 62.9582 38.7867 56.5733 38.6447 56.0807C38.6073 55.9511 37.6752 56.4688 36.5556 57.2018C33.834 59.0142 30.4948 60.5118 28.5429 60.7623C25.8532 61.1465 21.6762 60.6038 10.9117 58.4668C4.87918 57.2589 -1.52434 54.4756 -2.89005 52.4317C-3.47643 51.552 -3.48051 51.4417 -3.06543 50.8618C-2.83038 50.523 -2.47711 50.2096 -2.29639 50.1632C-1.21208 49.8848 2.89763 50.1941 7.91709 50.966C14.5542 51.963 15.7765 52.0669 18.5776 51.8768C23.4455 51.546 27.9519 50.2499 31.6837 48.0946C34.0378 46.7385 35.1152 45.5709 35.6185 43.8546C36.6144 40.4805 35.9055 36.291 32.8368 27.6677C30.3647 20.7288 30.0834 19.4645 29.4776 12.0744C28.9806 6.21564 28.4369 3.84928 27.4382 3.27037C27.0462 3.06473 24.1247 2.64527 20.9342 2.35057C14.8413 1.79859 13.0164 1.43176 5.48583 -0.64451C0.212916 -2.10308 -3.58769 -2.68666 -5.65372 -2.35118C-6.81956 -2.16327 -7.40927 -1.90051 -8.56896 -1.01808C-9.39371 -0.416547 -10.1994 0.347165 -10.4161 0.653393C-10.9263 1.48045 -11.5308 4.86549 -12.055 10.0676C-12.5859 15.4385 -13.1083 18.0507 -13.9363 19.7946C-14.596 21.1613 -15.5022 21.6723 -16.4636 21.2231C-17.2327 20.8636 -17.773 18.4129 -18.0837 14.0655C-18.4027 9.49749 -18.112 7.1397 -16.4838 2.01614C-15.6517 -0.675558 -15.4921 -1.46831 -15.8284 -1.57688C-17.3543 -1.96477 -25.2211 -2.03352 -28.7452 -1.65788C-31.8486 -1.36236 -32.9839 -0.876017 -34.219 0.610473C-36.5899 3.44662 -38.4245 11.7973 -38.7127 21.0875C-38.975 30.3711 -39.1801 31.8717 -40.2059 33.026C-41.9451 34.976 -44.366 31.0033 -45.783 23.8771C-46.7678 18.9232 -46.8842 14.1918 -46.2243 5.61364L-46.0539 3.70437L-47.2408 4.20396C-50.2634 5.45324 -55.7868 8.31904 -57.6245 9.54258C-62.6661 12.9251 -67.9665 18.2953 -72.2382 24.348C-75.0187 28.2639 -79.0464 35.4513 -80.2678 38.7162C-81.3982 41.6237 -82.3008 46.2826 -82.2585 48.8333C-82.2333 50.7481 -80.7763 56.6667 -79.9025 58.4471Z" fill="#1F8429" fill-opacity="0.61"/>
<path d="M-40.3228 124.791C-42.0746 125.659 -44.4635 127.188 -46.1881 128.487C-49.0808 130.7 -53.5772 135.087 -54.4934 136.554C-55.7882 138.699 -56.3526 141.631 -56.1306 144.987C-55.9184 147.75 -54.6999 152.945 -53.9259 154.221C-53.5781 154.777 -53.4647 154.618 -52.8214 152.636C-50.9042 146.757 -47.6944 142.754 -41.0179 137.779C-36.9828 134.785 -36.2775 134.701 -40.0997 137.662C-44.5709 141.131 -46.4694 143.048 -48.2644 146.001C-51.1393 150.627 -52.5871 155.141 -51.9552 157.371C-51.5039 158.963 -51.112 159.003 -48.5533 157.738C-44.2345 155.633 -42.4832 153.98 -37.7729 147.551C-36.6228 146.014 -34.9617 144.043 -34.065 143.179C-32.3932 141.581 -32.3932 141.581 -28.6423 140.494C-26.5582 139.904 -24.04 139.278 -23.0423 139.106C-21.5018 138.835 -21.786 138.951 -24.8982 139.942C-31.6361 142.015 -33.273 143.288 -38.1434 150.048C-39.7516 152.318 -41.7328 154.95 -42.5089 155.903C-44.2624 157.996 -47.4834 160.841 -48.4775 161.138C-48.8869 161.26 -49.2049 161.48 -49.1721 161.596C-49.0572 162.002 -45.2866 166.467 -43.3482 168.495C-41.9659 169.904 -41.3257 170.373 -40.7291 170.352C-39.853 170.31 -37.086 169.108 -32.2107 166.618C-29.4053 165.215 -28.3983 164.852 -23.8462 163.683C-15.3935 161.507 -13.8121 161.381 -20.433 163.419C-23.5616 164.352 -27.7064 165.839 -29.6582 166.673C-32.7971 168.017 -37.3051 170.461 -38.921 171.696C-39.4694 172.111 -39.2704 172.366 -32.6505 180.283L-25.8315 188.455L-18.6679 186.319C-12.1476 184.374 -11.2832 184.179 -8.62557 184.045C-7.02769 183.977 -5.75145 184.005 -5.79351 184.08C-5.82737 184.184 -7.2052 184.47 -8.83336 184.767C-14.1226 185.685 -22.8518 189.011 -23.63 190.405C-23.7983 190.706 -5.10436 211.352 -4.52523 211.493C-4.31697 211.557 -3.59524 211.53 -2.89811 211.416C-0.489739 211.075 4.38954 211.284 6.43931 211.803C8.83071 212.408 11.633 213.457 13.8094 214.535L15.3657 215.326L13.0877 214.561C9.58113 213.378 5.79398 212.435 4.37615 212.355C3.66724 212.315 1.83903 212.578 0.293975 212.945C-2.05696 213.489 -2.4581 213.64 -2.24267 213.953C-1.4466 214.971 12.8011 232.013 13.3653 232.661C13.7598 233.046 13.8921 233.289 13.6757 233.196C13.4802 233.066 7.28959 226.999 -0.0423411 219.702C-7.41171 212.385 -13.7557 206.113 -14.1502 205.728L-14.9145 205.045L-15.8508 208.12C-18.8582 217.872 -20.1999 223.768 -19.9784 226.34C-19.5601 231.396 -19.5683 231.367 -20.3083 228.196C-20.7094 226.558 -21.0453 224.365 -21.0611 223.302C-21.1358 219.682 -19.8824 213.028 -17.746 205.796C-17.1822 203.869 -16.761 202.111 -16.8102 201.937C-16.9251 201.531 -33.9936 183.824 -34.1983 183.885C-34.4029 183.946 -37.6231 190.151 -39.1698 193.533C-40.851 197.112 -43.2581 203.388 -44.2796 206.833C-44.6987 208.151 -45.9014 213.754 -47.0035 219.264C-48.1056 224.774 -49.0106 229.189 -49.0645 229.111C-49.2989 228.396 -47.6069 213.666 -46.8897 210.155C-45.315 202.62 -42.2322 193.692 -38.301 185.297L-36.371 181.142L-40.118 176.984C-42.1677 174.675 -44.6447 171.865 -45.6654 170.725L-47.4576 168.653L-48.6852 169.804C-50.6458 171.614 -54.5979 176.467 -57.4742 180.528C-64.8224 190.853 -69.9684 200.332 -72.2427 207.637C-73.1277 210.444 -72.8177 208.405 -71.7906 204.644C-68.9929 194.263 -65.7528 188.241 -55.9146 175.289C-50.7436 168.471 -49.8566 167.013 -50.1931 165.826C-50.4064 165.073 -54.0483 160.727 -55.0254 160.076C-55.3039 159.877 -56.2371 160.5 -58.427 162.284C-60.0767 163.624 -64.473 167.134 -68.1572 170.022C-71.8625 172.949 -75.4426 175.869 -76.1464 176.519C-78.8529 179.053 -86.0163 187.345 -88.3971 190.693C-88.5525 190.928 -88.7116 191.038 -88.7362 190.951C-88.81 190.69 -83.7411 183.4 -80.9627 179.777C-76.2873 173.672 -72.3907 169.966 -62.4055 162.12C-59.4497 159.794 -57.8538 158.376 -58.1288 158.301C-59.1372 158.1 -64.0935 158.29 -67.0902 158.682C-70.9174 159.164 -74.8822 160.503 -78.3704 162.517C-79.6252 163.237 -80.7373 163.789 -80.8122 163.748C-81.0743 163.606 -75.4172 159.847 -73.3976 158.805C-71.0728 157.609 -66.0996 156.471 -62.257 156.267C-58.7232 156.092 -58.777 156.014 -63.7224 154.788C-70.0636 153.225 -75.8087 152.647 -79.657 153.166C-82.1028 153.488 -86.3071 155.213 -87.8692 156.526C-89.3307 157.747 -91.2226 160.918 -93.1372 165.352C-95.2375 170.249 -100.386 183.749 -100.959 185.867C-102.127 190.36 -102.111 195.003 -100.889 200.323C-98.6772 209.806 -92.8576 219.375 -82.839 230.11C-79.1494 234.065 -71.8072 240.951 -71.3979 240.828C-71.2809 240.794 -71.2039 240.394 -71.2475 239.904C-71.3356 237.356 -70.8998 230.725 -70.4288 228.135C-69.8587 224.888 -68.9173 222.503 -65.611 215.707C-64.4275 213.282 -62.4975 209.126 -61.3504 206.46C-57.9557 198.633 -55.2476 194.874 -52.4992 194.054C-50.891 193.574 -50.0333 193.915 -49.6805 195.16C-48.8927 197.94 -51.2578 204.141 -58.169 217.35C-63.1606 226.815 -64.8019 234.339 -63.5773 241.793C-62.2224 249.93 -56.5626 254.46 -44.6574 256.97C-42.3363 257.439 -35.0656 258.254 -34.5101 258.088C-34.3639 258.045 -34.9763 257.003 -35.838 255.752C-37.9677 252.714 -39.7562 248.976 -40.0921 246.784C-40.5993 243.764 -40.0933 239.059 -37.9506 226.927C-36.7381 220.128 -33.7467 212.892 -31.4619 211.331C-30.4785 210.661 -30.3533 210.655 -29.6839 211.115C-29.2931 211.375 -28.9279 211.769 -28.8704 211.972C-28.5258 213.188 -28.7686 217.813 -29.5127 223.468C-30.4697 230.945 -30.5554 232.321 -30.2658 235.469C-29.7618 240.939 -28.1713 245.992 -25.6257 250.163C-24.0239 252.794 -22.6697 253.992 -20.7076 254.537C-16.8502 255.616 -12.1119 254.768 -2.40141 251.212C5.41216 248.348 6.84026 248.016 15.2154 247.245C21.8547 246.615 24.5273 245.975 25.1583 244.845C25.3814 244.401 25.7807 241.11 26.0312 237.519C26.4973 230.659 26.8657 228.603 29.0246 220.108C30.5417 214.16 31.1041 209.879 30.6687 207.559C30.4246 206.25 30.1107 205.59 29.0782 204.297C28.3734 203.376 27.485 202.479 27.1316 202.239C26.1791 201.676 22.3196 201.037 16.399 200.51C10.2866 199.978 7.3068 199.422 5.30476 198.512C3.73564 197.787 3.13142 196.774 3.61622 195.687C4.00406 194.818 6.77255 194.181 11.7006 193.778C16.879 193.364 19.5638 193.663 25.4243 195.432C28.5025 196.335 29.4069 196.505 29.5213 196.125C29.9215 194.404 29.7921 185.556 29.2727 181.597C28.8553 178.11 28.2731 176.84 26.5527 175.468C23.2699 172.836 13.7397 170.874 3.18344 170.663C-7.36458 170.48 -9.07376 170.268 -10.4115 169.128C-12.6715 167.196 -8.22453 164.425 -0.170439 162.745C5.4286 161.577 10.7978 161.389 20.5553 162.027L22.7277 162.196L22.1291 160.867C20.6309 157.483 17.2313 151.305 15.7936 149.253C11.8199 143.624 5.58259 137.728 -1.4027 132.997C-5.92226 129.917 -14.1894 125.475 -17.9289 124.141C-21.26 122.905 -26.5737 121.946 -29.4689 122.024C-31.6423 122.076 -38.3242 123.786 -40.3228 124.791Z" fill="#1F8429" fill-opacity="0.47"/>
</svg>
