<svg width="179" height="315" viewBox="0 0 179 315" fill="none" xmlns="http://www.w3.org/2000/svg">
<path d="M40.0995 204.522C46.3513 196.744 48.5297 194.189 56.1128 185.736L60.1447 181.265L57.852 181.375L55.5246 181.51L53.0246 184.343C51.0156 186.625 49.6946 187.756 46.6136 189.759C44.4558 191.166 39.9708 194.255 36.6165 196.603C33.2277 198.976 30.4959 200.888 30.5166 200.771C30.527 200.712 32.5153 198.547 34.9496 195.915C39.8529 190.627 45.4064 186.121 50.2995 183.468C51.9075 182.6 53.1904 181.856 53.142 181.787C53.1178 181.753 52.5195 181.708 51.8175 181.736C50.8112 181.77 49.2136 182.579 45.2542 185.094C39.5277 188.691 39.6557 188.653 31.574 189.622C29.4715 189.857 28.0191 190.358 26.1345 191.42C22.839 193.264 23.6896 192.05 27.6766 189.207C31.2142 186.679 34.5269 185.081 39.064 183.759C41.0523 183.14 42.6915 182.611 42.7018 182.552C42.7122 182.494 40.7687 181.999 38.3549 181.422C34.3502 180.412 17.5985 174.517 17.6365 174.13C17.6641 173.802 31.6179 174.596 35.4599 175.152C39.1602 175.654 43.8496 177.42 47.8612 179.765C49.9742 181.016 53.0002 181.732 53.7955 181.175C54.003 181.03 53.2318 180.591 52.0629 180.172C48.283 178.748 45.0288 176.749 41.5634 173.713C38.0739 170.643 33.1492 165.743 32.3018 164.533C31.7796 163.713 45.1045 171.853 48.8326 174.602C50.2263 175.635 52.4569 177.423 53.785 178.658L56.2473 180.85L59.6432 180.327C61.5452 180.026 63.0252 179.712 62.9526 179.608C62.88 179.504 59.8228 177.934 56.1398 176.133C52.4567 174.332 48.331 172.119 46.9753 171.213C44.4888 169.501 29.9912 157.184 30.088 156.807C30.1191 156.631 40.373 162.592 49.3508 168.055C51.3221 169.252 55.7695 172.218 59.2693 174.715C65.5773 179.162 66.7843 179.708 68.3196 178.736C68.5617 178.567 66.5385 177.149 63.8791 175.558C56.9452 171.395 55.3578 170.085 49.7897 164.192C44.2701 158.369 41.2544 156.049 33.1032 151.398C30.5405 149.946 28.4033 148.66 28.3307 148.556C28.258 148.452 29.7555 148.898 31.6437 149.535C36.0702 151.073 40.5038 153.431 45.0169 156.713C46.9812 158.12 50.5087 160.288 52.8085 161.512C58.7464 164.621 65.3934 170.067 70.4565 175.9L72.2722 177.978L74.4751 177.518C75.7338 177.255 76.7332 176.916 76.7885 176.775C76.785 176.623 73.2195 173.811 68.7893 170.575C59.725 163.884 56.1732 160.651 50.9233 154.33C48.9243 151.916 45.4105 147.78 43.1486 145.138C38.6838 139.865 38.4555 139.613 38.8082 139.675C38.9258 139.696 42.3392 142.51 46.3406 145.944C50.3419 149.378 55.1906 153.506 57.148 155.125C62.6399 159.73 68.8374 165.491 74.1979 171.014C76.9197 173.797 79.4201 176.117 79.8074 176.155C80.5717 176.29 87.7473 174.616 87.7991 174.322C87.8199 174.204 83.7217 171.663 78.6761 168.651C73.6546 165.674 67.855 161.954 65.7938 160.408C62.5533 157.988 41.2427 138.074 41.3602 137.579C41.4121 137.285 61.2975 151.189 70.8253 158.174C75.577 161.649 81.9784 166.597 85.0357 169.197C90.0745 173.45 90.7523 173.903 91.7414 173.623C92.3465 173.457 94.1517 173.018 95.77 172.606L98.6921 171.849L96.4131 170.507C95.1439 169.798 90.9801 167.457 87.1622 165.39C75.3866 158.948 73.1007 157.302 62.9572 147.966C59.0215 144.332 54.1659 139.899 52.1566 138.059C50.1715 136.254 48.508 134.687 48.5287 134.57C48.5495 134.452 50.2233 135.445 52.2568 136.804C54.2661 138.128 59.9239 141.793 64.7725 144.891C78.6058 153.757 83.8417 157.408 93.0444 164.518L101.638 171.126L105.643 170.074C107.842 169.462 109.703 168.881 109.699 168.729C109.755 168.587 103.941 164.773 96.8239 160.274C84.3704 152.349 83.8102 151.917 79.5563 147.681C74.9532 143.02 72.6672 141.374 60.4144 134.03C52.4949 129.268 51.5093 128.67 51.6476 128.573C51.7167 128.525 53.2418 129.158 55.0055 129.984C56.7796 130.751 59.7365 132.031 61.5555 132.715C66.0685 134.451 70.547 136.726 75.4509 139.683C77.7196 141.083 80.2441 142.407 81.1052 142.68C84.2315 143.686 88.8967 145.934 92.4242 148.102C96.6537 150.757 100.524 154.077 107.966 161.543C110.985 164.53 113.679 167.127 114.011 167.307C114.319 167.452 116.093 167.189 117.968 166.701C121.343 165.781 121.343 165.781 120.568 165.19C120.174 164.848 114.07 160.619 107.049 155.743C94.1981 146.808 92.8148 145.716 84.6737 137.399C83.1035 135.819 78.8047 131.666 75.0835 128.191C71.3968 124.692 68.3673 121.763 68.4226 121.621C68.4433 121.504 69.0866 121.981 69.9339 122.676C72.5623 124.958 82.5327 132.354 86.2538 134.799C88.2631 136.123 92.0672 138.097 94.7267 139.173C104.5 143.049 108.733 146.372 125.478 163.298C126.353 164.18 126.658 164.173 129.694 163.284C131.485 162.751 132.996 162.26 132.983 162.167C133.003 162.049 131.547 160.853 129.735 159.442C124.395 155.348 118.198 150.102 115.383 147.332C113.968 145.901 109.946 141.039 106.47 136.516C101.328 129.759 99.7159 127.899 97.7723 126.374C94.3624 123.711 88.6597 120.644 83.4619 118.667C80.9581 117.74 78.935 116.838 78.9904 116.696C79.1563 115.755 90.3056 118.874 95.1369 121.211C99.9093 123.538 102.441 125.682 107.29 131.356C112.74 137.743 115.451 140.07 120.068 142.249C123.288 143.756 125.723 146.277 131.402 153.947L136.741 161.132L141.579 159.652C144.242 158.818 146.507 158.006 146.632 157.815C146.801 157.542 144.325 155.772 127.144 143.891C117.72 137.349 114.365 134.029 102.931 119.979C98.183 114.08 94.2887 109.18 94.2749 109.087C94.2921 108.817 94.3751 108.862 100.196 114.011C106.172 119.308 112.296 123.935 121.347 130.017C134.606 138.872 135.789 139.899 145.213 150.564C148.087 153.859 150.643 156.553 150.819 156.584C151.359 156.618 157.691 154.401 157.767 154.142C157.787 154.024 151.338 149.522 143.497 144.139C127.451 133.215 127.534 133.26 120.188 125.933C117.276 123.025 111.265 117.236 106.863 113.156C102.436 109.041 98.6665 105.497 98.5454 105.324C98.4347 105.092 100.365 106.524 102.844 108.446C114.267 117.402 122.066 122.506 127.737 124.719C138.914 129.054 143.486 132.346 157.503 146.185L163.721 152.343L167.556 151.05C169.683 150.334 171.343 149.687 171.295 149.618C171.246 149.548 168.753 148.048 165.772 146.219C157.52 141.278 155.137 139.493 149.248 133.878C139.121 124.272 138.724 123.777 127.812 108.486C121.438 99.6025 118.166 94.7821 118.906 95.3976C119.539 95.9336 121.428 98.1155 123.056 100.221C128.497 107.182 134.31 112.027 144.747 118.323C153.545 123.603 160.113 129.672 173.5 144.672C176.72 148.241 176.662 148.231 179.791 146.812L181.171 146.207L178.359 143.59C176.817 142.196 172.884 138.714 169.658 135.872C160.863 128.167 158.978 126.138 151.83 116.663C148.267 111.943 143.242 105.722 140.624 102.866C136.035 97.7824 127.589 88.9578 125.881 87.4744C125.438 87.0629 125.196 86.7171 125.372 86.7482C125.902 86.8416 137.923 96.3575 140.053 98.37C142.567 100.784 147.924 105.123 152.925 108.733C164.369 117.056 169.059 121.915 180.344 137.15C183.411 141.238 185.971 144.599 186.088 144.62C186.23 144.675 193.399 142.181 193.641 142.012C193.675 141.987 192.486 141.171 190.988 140.21C189.456 139.273 186.765 137.344 184.919 135.957L181.606 133.433L174.633 123.474C167.273 112.961 163.282 106.377 156.393 93.3718C150.689 82.5758 150.641 81.9914 155.929 89.471C160.128 95.3945 162.089 97.6802 169.068 104.852C171.945 107.784 187.038 127.208 192.267 134.677C196.746 141.074 196.722 141.04 199.637 139.978C201.518 139.279 201.992 138.999 201.75 138.653C201.58 138.411 199.045 136.115 196.071 133.56C190.79 128.961 190.635 128.812 187.311 123.77C183.465 117.909 183.039 116.712 182.603 109.907C182.337 105.92 182.536 95.1646 182.934 91.537L183.141 89.8459L183.297 91.5404C183.377 92.4638 183.73 96.6481 184.058 100.798C184.868 111.155 185.201 112.365 188.348 116.861C190.285 119.627 191.606 121.073 193.933 122.999C196.596 125.257 197.426 126.221 201.251 131.685L205.561 137.84L207.186 137.218C208.092 136.892 209.461 136.346 210.264 136.093C211.042 135.806 211.795 135.485 211.899 135.412C212.003 135.339 211.052 134.202 209.793 132.919C206.172 129.219 201.41 122.196 199.711 118.077C197.84 113.564 197.733 112.454 198.742 108.45C199.849 104.068 200.06 103.044 200.122 101.146L200.191 99.5517L200.481 101.512C201.419 107.194 203.373 112.267 206.327 116.486C207.586 118.284 209.557 122.057 211.629 126.635C213.431 130.681 215.122 133.98 215.357 134.022C215.862 134.08 230.732 128.308 235.95 126.046C237.689 125.292 239.187 124.707 239.304 124.728C239.657 124.79 237.489 129.863 236.936 130.251C236.521 130.541 212.259 138.87 210.094 139.458C209.583 139.61 210.25 140.637 214.393 146.187C218.077 151.08 219.944 153.895 221.743 157.274C226.588 166.403 226.765 166.949 228.661 179.226C229.598 185.423 230.266 190.572 230.128 190.669C230.024 190.741 229.83 190.465 229.751 190.057C228.81 186.284 223.234 169.782 222.242 167.849C221.543 166.483 218.921 162.444 216.379 158.813C212.239 152.9 211.544 151.686 209.306 146.503C207.923 143.349 206.809 140.728 206.785 140.693C206.688 140.555 202.424 142.045 201.94 142.384C201.698 142.554 202.418 148.955 203.553 156.611C204.663 164.233 205.643 172.256 205.691 174.386C205.754 176.61 205.128 183.076 204.195 189.398C203.269 195.509 202.031 204.413 201.461 209.193C199.875 222.31 199.719 222.676 200.303 212.838C200.652 206.564 200.008 200.419 197.939 190.325C196.137 181.642 196.064 176.901 197.501 155.695L198.333 143.415L195.335 144.432C193.662 144.986 191.791 145.625 191.092 145.805C190.418 146.02 189.837 146.22 189.768 146.269C189.664 146.341 190.398 159.534 190.91 166.596C191.689 177.129 191.254 185.266 189.702 190.63C188.201 195.7 181.992 214.063 181.681 214.281C181.542 214.378 182.441 208.596 183.706 201.423L185.95 188.362L184.272 177.942C182.362 166.088 182.403 162.761 184.394 153.535C185.051 150.498 185.473 147.936 185.297 147.905C184.826 147.822 176.098 150.738 175.417 151.163C174.829 151.575 175.936 158.529 178.202 169.052C179.368 174.471 180.361 181.557 180.451 184.997C180.506 186.401 180.064 191.658 179.535 196.717C178.972 201.801 178.198 209.969 177.818 214.873C176.878 227.073 176.685 228.342 176.736 221.35C176.819 214.696 175.867 208.406 173.446 198.765C171.104 189.532 170.733 184.071 171.244 163.824C171.375 157.755 171.319 152.744 171.118 152.678C170.728 152.488 166.996 153.709 167.003 154.013C166.996 154.74 167.803 168.036 168.156 172.736C168.748 180.721 168.856 188.014 168.42 191.513C168.223 193.146 167.411 197.064 166.581 200.221C164.445 208.725 161.99 219.203 160.054 228.288C159.09 232.725 158.281 236.28 158.208 236.176C158.112 236.038 158.488 233.043 159.062 229.447C160.306 221.361 160.164 215.123 158.458 202.456C157.469 195.007 157.945 188.696 161.191 168.234L163.269 155.082L159.793 156.227C157.864 156.857 155.924 157.545 155.484 157.801C154.883 158.119 154.738 159.973 154.859 167.359C155.016 178.329 154.974 178.564 153.416 191.867C152.728 197.656 152.154 203.829 152.172 205.621C152.158 209.649 152.975 221.341 153.875 229.987C154.224 233.504 154.453 236.332 154.359 236.346C153.713 236.232 146.817 191.128 146.682 186.224C146.543 181.168 149.465 168.044 152.39 160.74C152.777 159.748 153.026 158.852 152.929 158.714C152.784 158.507 143.741 161.488 143.015 161.997C142.807 162.142 142.558 165.614 142.535 169.701C142.173 195.976 141.174 200.953 132.848 218.943C127.157 231.275 121.594 242.023 121.206 241.47C121.158 241.401 122.42 237.683 124.028 233.208C126.206 227.046 127.361 222.733 128.788 215.499C129.805 210.253 131.488 202.427 132.584 198.104C134.354 190.99 139.162 164.075 138.751 163.487C138.581 163.245 131.299 165.355 131.306 165.66C131.261 166.773 129.506 192.53 129.185 196.413C128.618 202.89 126.9 210.74 125.057 215.174C124.303 217.041 121.62 223.661 119.151 229.923C116.659 236.152 114.276 242.097 113.855 243.113L113.077 244.946L113.187 243.632C113.218 242.94 114.017 237.898 114.888 232.445C115.783 227.026 117.473 216.413 118.648 208.891C120.854 194.671 122.219 188.304 125.932 174.987C127.146 170.685 128.103 166.974 128.052 166.753C128.024 166.566 126.357 166.908 124.403 167.503L120.845 168.603L117.37 181.599C111.185 204.635 110.542 206.218 102.994 218.769C100.377 223.126 96.542 229.572 94.4673 233.086C88.5581 243.046 88.6514 243.032 91.8046 234.435C92.9733 231.246 96.1991 222.238 98.9719 214.422C104.836 197.847 107.419 191.452 112.761 180.241C114.918 175.741 116.917 171.457 117.217 170.782L117.809 169.492L112.466 170.914L107.158 172.311L103.514 184.55C98.1929 202.343 98.2483 202.201 87.6641 219.247C83.8917 225.341 80.7071 230.507 80.6069 230.732C80.5412 230.933 80.4028 231.029 80.3302 230.926C80.1365 230.649 93.2439 196.893 95.4706 191.83C96.5736 189.357 99.0319 184.184 100.982 180.345C102.932 176.506 104.312 173.325 104.018 173.273C103.489 173.18 96.8491 174.736 96.3996 175.051C96.2267 175.172 93.7995 181.2 90.9436 188.455C88.1465 195.721 85.3597 202.413 84.7615 203.398C84.1633 204.384 81.8017 207.635 79.5402 210.661C77.2788 213.687 73.1675 219.296 70.422 223.177C67.7111 227.033 65.3494 230.284 65.1765 230.405C65.0382 230.502 66.2069 228.344 67.8182 225.567C72.0435 218.28 74.7578 212.515 78.4434 203.133C81.9943 193.999 84.9748 188.1 89.5356 181.145C91.1642 178.613 92.5542 176.403 92.5957 176.168C92.7167 175.826 85.2645 177.179 84.6421 177.614C84.5037 177.711 82.0349 182.428 79.1444 188.162C74.6494 196.977 73.3977 199.09 70.6625 202.397C68.8956 204.51 64.8395 209.462 61.6376 213.353C58.4598 217.278 55.7212 220.432 55.6036 220.411C55.486 220.391 56.1534 219.357 57.0143 218.084C60.3165 213.453 63.3939 208.207 68.6392 198.403C73.5457 189.145 74.7109 187.35 81.2912 178.569C81.6439 178.116 76.3426 178.787 75.5818 179.32C75.4435 179.417 72.7085 184.784 69.5413 191.227C65.8036 198.842 63.3417 203.348 62.4703 204.164C61.7718 204.859 58.352 208.954 54.9495 213.294C51.5227 217.6 48.7772 220.965 48.8187 220.73C49.1506 219.364 61.7333 198.033 66.7574 190.342C69.9939 185.396 72.9364 180.914 73.2753 180.368C73.8389 179.407 73.7801 179.396 70.7335 179.829L67.6523 180.285L62.2755 189.46C58.5689 195.869 56.2038 199.482 54.4783 201.36C53.0951 202.844 50.0142 206.392 47.5833 209.176C45.1766 211.995 43.1676 214.277 43.0742 214.291C42.6973 214.194 56.4523 193.949 60.8853 188.063C63.6584 184.37 65.9613 181.109 66.0616 180.884C66.1031 180.649 65.1071 180.624 63.8587 180.829L61.5729 181.244L58.6754 186.158C53.6444 194.576 51.6077 197.187 47.1227 200.79C44.9615 202.561 41.1612 205.892 38.7545 208.195C36.3132 210.522 34.1901 212.421 34.0483 212.366C33.9307 212.345 36.6382 208.852 40.0995 204.522Z" fill="#145EB4" fill-opacity="0.58"/>
<path d="M152.411 291.1C152.59 284.657 152.709 282.488 153.282 275.161L153.596 271.276L152.534 272.276L151.464 273.303L151.291 275.741C151.155 277.704 150.931 278.811 150.177 281.076C149.651 282.665 148.617 286.05 147.858 288.6C147.091 291.176 146.472 293.253 146.44 293.186C146.423 293.152 146.592 291.257 146.806 288.945C147.242 284.295 148.274 279.765 149.663 276.43C150.12 275.335 150.467 274.437 150.418 274.422C150.394 274.415 150.09 274.639 149.763 274.943C149.291 275.375 148.817 276.436 147.828 279.318C146.381 283.466 146.429 283.395 142.895 287.208C141.97 288.192 141.454 289.04 140.933 290.344C140.019 292.619 139.987 291.665 140.87 288.608C141.652 285.893 142.665 283.733 144.366 281.206C145.097 280.079 145.693 279.14 145.676 279.106C145.66 279.073 144.546 279.628 143.175 280.337C140.883 281.486 130.685 285.461 130.562 285.253C130.456 285.078 137.454 279.721 139.504 278.414C141.466 277.137 144.363 276.082 147.144 275.594C148.615 275.345 150.33 274.453 150.51 273.849C150.557 273.691 150.027 273.791 149.313 274.064C146.977 274.915 144.686 275.263 141.916 275.182C139.122 275.094 134.973 274.689 134.125 274.437C133.576 274.244 142.942 272.797 145.734 272.627C146.78 272.566 148.503 272.535 149.59 272.602L151.571 272.676L153.014 271.017C153.819 270.083 154.416 269.316 154.344 269.295C154.271 269.273 152.23 269.753 149.805 270.376C147.379 270.999 144.59 271.6 143.609 271.708C141.791 271.882 130.343 271.736 130.253 271.509C130.203 271.409 137.301 270.145 143.604 269.159C144.987 268.941 148.204 268.583 150.794 268.381C155.444 267.991 156.223 267.765 156.608 266.649C156.662 266.465 155.174 266.594 153.317 266.9C148.47 267.689 147.23 267.692 142.411 267.058C137.64 266.439 135.346 266.529 129.736 267.578C127.976 267.912 126.481 268.154 126.408 268.132C126.336 268.11 127.218 267.715 128.357 267.253C131.045 266.193 134.034 265.537 137.397 265.308C138.853 265.198 141.337 264.821 142.888 264.481C146.873 263.579 152.049 263.546 156.604 264.358L158.233 264.643L159.125 263.506C159.634 262.856 159.992 262.276 159.967 262.183C159.91 262.108 157.173 262.181 153.867 262.398C147.076 262.809 144.193 262.666 139.371 261.688C137.532 261.313 134.339 260.705 132.291 260.325C128.227 259.544 128.026 259.513 128.218 259.398C128.282 259.36 130.947 259.352 134.119 259.409C137.291 259.466 141.123 259.52 142.653 259.517C146.968 259.543 152.042 259.852 156.627 260.387C158.948 260.648 160.993 260.771 161.193 260.63C161.61 260.382 164.452 256.592 164.37 256.424C164.337 256.357 161.443 256.783 157.922 257.366C154.425 257.957 150.284 258.498 148.731 258.58C146.293 258.712 128.807 257.598 128.683 257.304C128.601 257.137 143.217 255.85 150.338 255.395C153.886 255.163 158.763 254.984 161.178 255.016C165.147 255.053 165.638 254.999 166.011 254.452C166.242 254.12 166.95 253.157 167.579 252.286L168.709 250.704L167.125 250.977C166.257 251.148 163.404 251.701 160.817 252.247C152.813 253.899 151.115 254.023 142.844 253.564C139.63 253.38 135.684 253.178 134.049 253.092C132.439 253.013 131.069 252.92 131.036 252.853C131.004 252.786 132.169 252.59 133.641 252.427C135.089 252.257 139.142 251.746 142.599 251.287C152.474 249.992 156.319 249.648 163.328 249.389L169.863 249.13L171.406 246.957C172.241 245.746 172.924 244.69 172.867 244.616C172.842 244.523 168.661 245.023 163.603 245.721C154.734 246.916 154.307 246.932 150.722 246.58C146.814 246.16 145.117 246.284 136.555 247.685C131.016 248.583 130.325 248.692 130.356 248.587C130.372 248.534 131.335 248.22 132.484 247.904C133.616 247.554 135.503 246.971 136.626 246.561C139.427 245.564 142.408 244.848 145.841 244.296C147.44 244.057 149.136 243.675 149.649 243.455C151.518 242.667 154.578 241.861 157.063 241.484C160.062 241.061 163.129 241.115 169.422 241.758C171.96 241.999 174.199 242.179 174.424 242.131C174.625 242.077 175.382 241.215 176.106 240.2C177.395 238.351 177.395 238.351 176.807 238.376C176.493 238.369 172.021 238.783 166.873 239.254C157.445 240.11 156.383 240.137 149.445 239.359C148.116 239.221 144.539 238.929 141.487 238.735C138.442 238.516 135.92 238.309 135.896 238.216C135.863 238.149 136.346 238.121 137.006 238.117C139.099 238.168 146.582 237.734 149.26 237.415C150.707 237.245 153.254 236.658 154.924 236.097C161.032 233.994 164.276 233.901 178.481 235.412C179.222 235.489 179.366 235.36 180.503 233.667C181.17 232.664 181.718 231.796 181.678 231.756C181.645 231.689 180.51 231.694 179.126 231.74C175.07 231.906 170.183 231.853 167.823 231.637C166.622 231.509 162.921 230.75 159.605 229.935C154.676 228.696 153.225 228.436 151.736 228.479C149.129 228.561 145.272 229.387 142.053 230.547C140.513 231.119 139.212 231.504 139.187 231.411C138.925 230.875 145.419 227.829 148.592 226.999C151.733 226.188 153.729 226.21 158.124 227.032C163.066 227.96 165.216 227.999 168.228 227.179C170.324 226.601 172.411 226.85 177.93 228.321L183.109 229.692L184.898 226.962C185.875 225.45 186.669 224.112 186.659 223.966C186.641 223.76 184.807 223.901 172.227 225.078C165.317 225.711 162.497 225.444 151.892 223.173C147.465 222.199 143.811 221.368 143.77 221.328C143.681 221.186 143.737 221.175 148.407 221.334C153.207 221.504 157.833 221.279 164.396 220.571C173.991 219.507 174.933 219.53 183.341 220.946C185.921 221.399 188.129 221.685 188.225 221.628C188.497 221.422 190.736 217.71 190.678 217.55C190.646 217.483 185.908 217.904 180.181 218.46C168.494 219.645 168.55 219.633 162.355 219.019C159.897 218.774 154.903 218.374 151.303 218.161C147.678 217.941 144.577 217.733 144.456 217.697C144.319 217.627 145.767 217.543 147.658 217.477C156.406 217.219 162.012 216.541 165.543 215.303C172.494 212.851 175.889 212.602 187.659 213.703L192.888 214.201L194.262 211.977C195.024 210.744 195.587 209.738 195.539 209.724C195.49 209.71 193.746 209.992 191.647 210.311C185.884 211.257 184.089 211.352 179.216 210.989C170.855 210.388 170.484 210.306 159.678 207.204C153.384 205.415 150.059 204.368 150.638 204.369C151.138 204.374 152.839 204.681 154.388 205.056C159.534 206.273 164.09 206.285 171.398 205.112C177.548 204.11 182.912 204.419 194.802 206.356C197.647 206.803 197.615 206.822 198.605 204.827L199.048 203.957L196.744 203.815C195.496 203.758 192.34 203.648 189.755 203.566C182.725 203.362 181.081 203.13 174.2 201.367C170.771 200.489 166.093 199.469 163.796 199.128C159.742 198.493 152.473 197.588 151.112 197.555C150.75 197.533 150.507 197.461 150.604 197.404C150.892 197.232 160.132 197.007 161.887 197.129C163.974 197.292 168.127 197.241 171.844 196.974C180.372 196.393 184.393 196.875 195.358 199.796C198.319 200.563 200.771 201.179 200.835 201.141C200.924 201.11 203.464 196.915 203.519 196.731C203.527 196.705 202.658 196.79 201.589 196.929C200.511 197.095 198.516 197.245 197.124 197.317L194.613 197.428L187.641 195.352C180.28 193.161 175.968 191.533 167.927 187.908C161.261 184.893 161.025 184.623 166.287 186.161C170.459 187.374 172.232 187.702 178.195 188.39C180.645 188.661 194.963 192.094 200.192 193.651C204.671 194.985 204.647 194.978 205.663 193.248C206.314 192.125 206.44 191.791 206.197 191.719C206.028 191.668 203.974 191.572 201.615 191.528C197.404 191.419 197.275 191.409 193.845 190.273C189.865 188.945 189.225 188.526 186.541 185.323C184.964 183.45 181.15 178.022 180.023 176.055L179.508 175.129L180.199 175.907C180.573 176.333 182.263 178.268 183.93 180.195C188.084 185.009 188.684 185.474 191.831 186.411C193.768 186.988 194.929 187.162 196.748 187.16C198.85 187.184 199.599 187.322 203.425 188.46L207.734 189.744L208.29 188.764C208.607 188.229 209.067 187.393 209.361 186.937C209.631 186.473 209.876 186.003 209.9 185.924C209.923 185.845 209.052 185.671 207.981 185.553C204.895 185.206 200.052 183.678 197.738 182.331C195.198 180.859 194.743 180.352 193.772 177.945C192.712 175.311 192.441 174.715 191.781 173.746L191.234 172.925L192.087 173.78C194.603 176.218 197.387 177.934 200.34 178.813C201.599 179.188 203.919 180.251 206.579 181.672C208.917 182.941 210.929 183.883 211.057 183.807C211.321 183.628 216.373 174.629 218.06 171.353C218.622 170.261 219.13 169.353 219.194 169.315C219.386 169.201 220.188 172.616 220.063 173.037C219.969 173.352 211.33 187.494 210.503 188.679C210.312 188.966 211.006 189.201 215.016 190.252C218.566 191.166 220.487 191.795 222.58 192.733C228.228 195.273 228.512 195.472 233.886 200.793C236.589 203.487 238.782 205.771 238.751 205.876C238.728 205.955 238.534 205.897 238.347 205.727C236.523 204.24 227.844 198.335 226.664 197.784C225.831 197.393 223.103 196.466 220.56 195.709C216.42 194.476 215.645 194.16 212.684 192.505C210.873 191.508 209.384 190.664 209.36 190.657C209.263 190.628 207.755 193.127 207.645 193.495C207.591 193.679 210.264 196.564 213.592 199.902C216.897 203.233 220.284 206.817 221.082 207.856C221.92 208.936 223.97 212.408 225.819 215.935C227.595 219.354 230.237 224.291 231.7 226.902C235.705 234.076 235.764 234.322 232.468 229.191C230.356 225.929 227.812 223.14 223.148 218.975C219.125 215.402 217.367 213.075 210.349 201.942L206.286 195.494L205.214 197.236C204.61 198.201 203.943 199.29 203.673 199.667C203.426 200.052 203.22 200.391 203.204 200.444C203.181 200.523 208.329 206.778 211.143 210.077C215.346 214.992 218.095 219.216 219.298 222.522C220.42 225.661 224.109 237.349 224.038 237.585C224.007 237.69 222.337 234.446 220.339 230.359L216.669 222.941L212.075 218.454C206.848 213.349 205.658 211.678 203.262 206.271C202.474 204.491 201.745 203.043 201.649 203.1C201.393 203.253 198.256 208.301 198.083 208.793C197.95 209.24 201.01 212.24 205.925 216.537C208.455 218.75 211.508 221.863 212.802 223.536C213.339 224.211 215.037 227.006 216.622 229.739C218.199 232.498 220.796 236.878 222.396 239.472C226.379 245.924 226.747 246.634 224.23 243.137C221.851 239.796 219.107 237.062 214.438 233.267C209.956 229.643 207.793 227.082 200.678 216.807C198.535 213.736 196.687 211.268 196.566 211.318C196.309 211.384 194.959 213.53 195.073 213.678C195.334 214.042 200.555 220.319 202.433 222.509C205.62 226.234 208.323 229.815 209.386 231.734C209.885 232.627 210.918 234.91 211.667 236.821C213.731 241.929 216.359 248.149 218.731 253.463C219.88 256.066 220.783 258.167 220.711 258.145C220.614 258.116 219.706 256.473 218.675 254.448C216.334 249.916 213.998 246.874 208.573 241.28C205.39 237.986 203.325 234.652 197.447 223.143L193.666 215.749L192.411 217.751C191.712 218.859 191.029 220.001 190.911 220.309C190.737 220.715 191.341 221.697 194.085 225.318C198.147 230.706 198.213 230.84 202.299 238.096C204.073 241.257 206.041 244.562 206.701 245.445C208.159 247.453 212.802 252.928 216.377 256.855C217.823 258.459 218.961 259.771 218.922 259.816C218.569 260.026 198.858 240.448 197.01 238.067C195.106 235.611 191.74 227.883 190.491 223.046C190.317 222.393 190.111 221.845 190.014 221.817C189.869 221.773 186.604 226.983 186.44 227.535C186.393 227.693 187.535 229.522 189.01 231.563C198.387 244.773 199.716 247.659 202.252 260.033C203.998 268.51 205.23 276.146 204.842 276.03C204.794 276.016 204.049 273.648 203.196 270.761C202.003 266.799 200.991 264.18 199.047 259.995C197.629 256.968 195.594 252.384 194.55 249.784C192.815 245.518 185.343 230.157 184.932 230.034C184.762 229.984 182.027 234.035 182.141 234.183C182.524 234.755 191.043 248.282 192.3 250.345C194.382 253.798 196.41 258.408 197.135 261.372C197.452 262.611 198.567 267.007 199.657 271.138C200.722 275.262 201.738 279.199 201.905 279.878L202.197 281.11L201.772 280.411C201.536 280.054 200.087 277.219 198.523 274.149C196.984 271.086 193.939 265.114 191.77 260.891C187.661 252.913 186.003 249.185 182.948 241.035C181.968 238.396 181.079 236.157 180.974 236.068C180.893 235.987 180.216 236.844 179.492 237.945L178.181 239.959L181.235 247.851C186.634 261.851 186.9 262.904 187.833 272.254C188.158 275.499 188.658 280.284 188.937 282.886C189.716 290.273 189.756 290.227 188.147 284.654C187.55 282.587 185.826 276.78 184.319 271.751C181.113 261.095 180.031 256.852 178.524 249.076C177.926 245.95 177.329 242.997 177.229 242.537L177.044 241.652L174.992 244.562L172.948 247.444L175.644 255.03C179.553 266.068 179.528 265.975 180.635 278.811C181.036 283.396 181.383 287.277 181.417 287.43C181.458 287.556 181.427 287.662 181.354 287.64C181.16 287.582 175.193 265.399 174.423 261.965C174.054 260.281 173.356 256.696 172.898 253.984C172.441 251.272 171.947 249.121 171.787 249.217C171.499 249.389 168.872 252.9 168.77 253.241C168.731 253.373 169.755 257.37 171.019 262.153C172.315 266.918 173.408 271.393 173.479 272.13C173.549 272.866 173.595 275.456 173.608 277.892C173.62 280.329 173.683 284.812 173.773 287.873C173.871 290.907 173.917 293.497 173.878 293.628C173.847 293.733 173.624 292.179 173.389 290.134C172.773 284.77 171.982 280.786 170.344 274.602C168.731 268.599 168.02 264.437 167.685 259.1C167.548 257.17 167.413 255.499 167.347 255.365C167.281 255.145 164.189 258.889 164.049 259.362C164.017 259.468 164.545 262.83 165.239 266.872C166.282 273.107 166.448 274.673 166.335 277.444C166.253 279.223 166.103 283.357 165.978 286.611C165.877 289.872 165.706 292.569 165.642 292.607C165.578 292.645 165.523 291.856 165.474 290.868C165.379 287.205 164.952 283.329 163.91 276.293C162.904 269.668 162.812 268.296 162.784 261.218C162.789 260.848 160.484 263.367 160.312 263.945C160.281 264.05 160.916 267.846 161.735 272.354C162.706 277.68 163.16 280.935 163.038 281.7C162.955 282.334 162.799 285.779 162.741 289.339C162.658 292.892 162.561 295.696 162.495 295.562C162.158 294.746 160.455 278.956 160.075 273.062C159.834 269.269 159.619 265.828 159.584 265.417C159.505 264.707 159.473 264.726 158.165 266.197L156.85 267.694L157.6 274.471C158.147 279.185 158.323 281.956 158.176 283.601C158.05 284.909 157.858 287.942 157.702 290.328C157.569 292.722 157.433 294.684 157.393 294.73C157.176 294.837 156.431 279.103 156.423 274.35C156.414 271.371 156.336 268.8 156.302 268.647C156.237 268.513 155.749 268.912 155.223 269.528L154.275 270.677L154.668 274.314C155.309 280.572 155.278 282.71 154.432 286.35C154.036 288.121 153.419 291.343 153.099 293.48C152.772 295.644 152.441 297.463 152.353 297.494C152.289 297.532 152.321 294.679 152.411 291.1Z" fill="#145EB4" fill-opacity="0.37"/>
<path d="M69.0096 23.3095C78.9704 22.7079 82.3269 22.6021 93.6821 22.5326L99.703 22.5106L98.0795 20.888L96.4148 19.256L92.6372 19.3097C89.5968 19.3572 87.8716 19.1398 84.3177 18.2054C81.8249 17.5546 76.5233 16.3111 72.5297 15.407C68.495 14.4937 65.2425 13.7574 65.3435 13.6937C65.394 13.6618 68.3334 13.678 71.9183 13.7105C79.1293 13.7849 86.199 14.8659 91.4525 16.7044C93.1762 17.311 94.5892 17.7607 94.6079 17.6784C94.6172 17.6372 94.2482 17.1642 93.7557 16.6631C93.0534 15.9415 91.3802 15.3031 86.8569 14.0627C80.3442 12.2421 80.4584 12.3112 74.3075 6.98031C72.7197 5.58213 71.3719 4.84422 69.3188 4.16304C65.7385 2.96302 67.209 2.77654 71.9941 3.81649C76.244 4.7353 79.6542 6.11321 83.6827 8.58328C85.4779 9.63888 86.9717 10.4964 87.0222 10.4646C87.0727 10.4327 86.1319 8.66164 84.9364 6.48666C82.9912 2.84356 76.0919 -13.5202 76.4041 -13.7524C76.6659 -13.9529 85.4596 -3.08969 87.6309 0.128497C89.7477 3.20453 91.5928 7.86369 92.5546 12.4095C93.0487 14.8152 94.5535 17.5362 95.5004 17.7506C95.7474 17.8065 95.554 16.9404 95.0778 15.7939C93.5909 12.0381 92.8823 8.28544 92.7998 3.67904C92.7266 -0.968521 93.0425 -7.90842 93.3687 -9.34939C93.6242 -10.287 96.558 5.04918 97.0296 9.65711C97.2014 11.3839 97.3778 14.2371 97.3569 16.0501L97.3896 19.3468L100.06 21.5093C101.561 22.7149 102.789 23.5988 102.817 23.4753C102.845 23.3518 101.952 20.0334 100.809 16.0958C99.6662 12.1583 98.5303 7.61642 98.2895 6.0038C97.8847 3.01238 97.2548 -16.0004 97.5989 -16.1822C97.7504 -16.2778 100.232 -4.67953 102.224 5.63935C102.664 7.90291 103.458 13.1897 103.963 17.459C104.912 25.1182 105.319 26.3789 107.071 26.862C107.359 26.9272 107.048 24.4765 106.438 21.4384C104.858 13.5066 104.76 11.4505 105.378 3.36711C105.978 -4.63391 105.668 -8.42621 103.63 -17.5869C102.982 -20.4602 102.497 -22.9071 102.525 -23.0306C102.553 -23.1541 103.23 -21.7458 104.028 -19.9204C105.866 -15.6092 107.101 -10.7419 107.706 -5.19481C107.985 -2.79453 108.752 1.2743 109.392 3.79964C111.083 10.285 111.521 18.8671 110.607 26.5372L110.289 29.2785L112.111 30.5998C113.152 31.3548 114.075 31.8666 114.217 31.8123C114.327 31.7074 114.011 27.1779 113.428 21.7225C112.287 10.5142 112.292 5.71123 113.441 -2.42496C113.884 -5.5275 114.583 -10.9092 115.018 -14.3597C115.919 -21.2103 115.953 -21.549 116.144 -21.246C116.208 -21.145 116.419 -16.7259 116.568 -11.4553C116.716 -6.18477 116.92 0.180284 117.038 2.71729C117.321 9.87933 117.224 18.3402 116.74 26.0212C116.509 29.9075 116.473 33.3184 116.705 33.6307C117.119 34.287 123.183 38.473 123.435 38.3137C123.536 38.25 122.662 33.5077 121.499 27.7478C120.327 22.0291 119.182 15.2345 118.94 12.6695C118.553 8.64341 118.966 -20.5206 119.411 -20.7661C119.664 -20.9253 122.741 3.14278 123.977 14.8918C124.599 20.7457 125.24 28.8111 125.371 32.8225C125.611 39.412 125.731 40.2183 126.603 40.7621C127.133 41.0984 128.672 42.1392 130.065 43.0605L132.59 44.7142L132.051 42.1251C131.722 40.7091 130.656 36.053 129.619 31.8366C126.47 18.7889 126.152 15.9901 126.243 2.20428C126.287 -3.1525 126.304 -9.7273 126.315 -12.4515C126.316 -15.1346 126.357 -17.4191 126.458 -17.4828C126.559 -17.5465 126.95 -15.6403 127.311 -13.2214C127.682 -10.8436 128.773 -4.19116 129.739 1.48096C132.477 17.6817 133.295 24.0126 134.22 35.6046L135.106 46.4091L138.577 48.6663C140.509 49.8827 142.19 50.8692 142.3 50.7643C142.443 50.7099 141.357 43.8423 139.902 35.5493C137.395 21.0023 137.339 20.297 137.614 14.3001C137.97 7.75873 137.651 4.95995 134.85 -9.0479C133.049 -18.1115 132.83 -19.2433 132.994 -19.206C133.077 -19.1873 133.634 -17.633 134.208 -15.7718C134.832 -13.9425 135.873 -10.8936 136.59 -9.0868C138.339 -4.57912 139.666 0.265704 140.775 5.88345C141.263 8.50434 141.98 11.2635 142.357 12.0845C143.714 15.0752 145.187 20.0396 145.954 24.1084C146.832 29.0247 146.977 34.1213 146.454 44.65C146.273 48.8936 146.162 52.6339 146.252 53.0006C146.351 53.326 147.739 54.4624 149.36 55.5219C152.31 57.4017 152.31 57.4016 152.227 56.4307C152.216 55.9087 151.242 48.547 150.131 40.0722C148.104 24.5519 147.983 22.7933 148.666 11.1755C148.78 8.95073 148.964 2.97639 149.034 -2.11473C149.146 -7.19652 149.277 -11.4083 149.419 -11.4627C149.52 -11.5264 149.599 -10.7294 149.654 -9.6349C149.732 -6.15486 150.961 6.19847 151.653 10.5967C152.024 12.9744 153.12 17.1178 154.112 19.8094C157.814 29.6497 158.2 35.0173 156.929 58.7935C156.865 60.0341 157.075 60.2547 159.774 61.9045C161.373 62.8723 162.752 63.6607 162.812 63.5877C162.913 63.524 162.82 61.6418 162.646 59.3518C162.086 52.6465 161.802 44.5322 161.96 40.586C162.069 38.5765 162.963 32.3302 163.974 26.7163C165.518 18.3665 165.812 15.9226 165.634 13.4587C165.312 9.14435 163.748 2.86091 161.718 -2.31636C160.72 -4.79275 160.028 -6.89706 160.17 -6.95144C160.978 -7.46105 166.166 2.88879 167.684 8.03655C169.17 13.1338 169.285 16.4492 168.345 23.8536C167.281 32.1825 167.382 35.7542 168.873 40.6363C169.922 44.0332 169.693 47.5303 167.834 56.8908L166.105 65.6748L170.454 68.2606C172.861 69.6712 174.986 70.8013 175.21 70.7656C175.526 70.7073 175.172 67.6841 172.415 46.9779C170.922 35.6034 171.123 30.8882 173.836 12.9783C175.01 5.49695 176.019 -0.68016 176.079 -0.75318C176.29 -0.921753 176.313 -0.830092 176.415 6.94019C176.512 14.9256 177.205 22.5701 178.787 33.3589C181.147 49.1278 181.182 50.6938 179.624 64.8401C179.117 69.1831 178.842 72.8861 178.937 73.0376C179.274 73.4602 185.173 76.6565 185.416 76.5384C185.517 76.4747 184.513 68.6734 183.227 59.2501C180.524 40.0276 180.546 40.1193 181.031 29.7553C181.226 25.6445 181.47 17.3032 181.53 11.3009C181.6 5.25746 181.689 0.084005 181.736 -0.121847C181.833 -0.35955 182.071 2.03142 182.315 5.15956C183.365 19.6367 184.831 28.8409 187.006 34.5269C191.311 45.7157 191.948 51.3133 191.129 70.9934L190.751 79.737L194.287 81.7061C196.247 82.799 197.842 83.5928 197.86 83.5105C197.879 83.4281 197.313 80.5734 196.663 77.1369C194.773 67.7067 194.491 64.7432 194.688 56.6078C194.991 42.6535 195.09 42.0266 199.072 23.6684C201.363 12.9773 202.731 7.31445 202.773 8.27612C202.802 9.10496 202.456 11.9698 201.993 14.5915C200.498 23.2986 200.82 30.8592 203.177 42.8186C205.184 52.8812 205.107 61.8229 203.004 81.8184C202.527 86.6012 202.495 86.5507 205.649 87.9138L207.025 88.5282L207.072 84.687C207.067 82.6083 207.001 77.3564 206.935 73.0568C206.725 61.3668 206.96 58.6069 209.168 46.9448C210.267 41.1343 211.493 33.2319 211.847 29.3736C212.524 22.5587 213.378 10.3739 213.327 8.11184C213.334 7.5075 213.428 7.09579 213.523 7.24726C213.81 7.70168 214.848 22.9983 214.791 25.9284C214.695 29.4123 215.084 36.2955 215.774 42.4244C217.307 56.4913 216.864 63.2292 213.173 81.8266C212.21 86.8455 211.443 90.9998 211.506 91.1008C211.561 91.243 218.227 94.8727 218.515 94.9379C218.556 94.9473 218.36 93.518 218.065 91.7632C217.729 89.9991 217.348 86.7102 217.133 84.4109L216.774 80.2612L219.458 68.4041C222.291 55.8883 224.481 48.5071 229.476 34.6629C233.633 23.1825 234.033 22.7537 232.052 31.697C230.49 38.7877 230.117 41.776 229.5 51.7641C229.264 55.8655 225.034 80.097 223.021 88.9899C221.297 96.6064 221.306 96.5652 224.052 98.0092C225.834 98.932 226.36 99.0943 226.453 98.6826C226.518 98.3944 226.514 94.9742 226.405 91.0545C226.259 84.0532 226.265 83.838 227.762 77.988C229.515 71.2002 230.115 70.0809 234.859 65.1822C237.631 62.3041 245.727 55.221 248.679 53.0762L250.071 52.0927L248.921 53.3473C248.291 54.027 245.431 57.1016 242.58 60.1351C235.458 67.6982 234.785 68.7578 233.574 74.11C232.828 77.4036 232.647 79.3534 232.786 82.3712C232.905 85.8606 232.749 87.1237 231.276 93.6286L229.617 100.957L231.171 101.741C232.02 102.194 233.346 102.84 234.072 103.264C234.808 103.647 235.553 103.989 235.676 104.017C235.8 104.044 236.002 102.576 236.106 100.781C236.41 95.6131 238.407 87.3658 240.314 83.3396C242.396 78.9204 243.146 78.0946 246.789 76.1494C250.776 74.0224 251.675 73.4902 253.123 72.2597L254.349 71.239L253.093 72.7724C249.518 77.2865 247.076 82.1439 245.939 87.1667C245.455 89.3076 243.987 93.3034 241.991 97.9154C240.208 101.97 238.903 105.439 239.03 105.641C239.326 106.055 253.597 113.181 258.78 115.522C260.508 116.303 261.947 117.018 262.011 117.119C262.202 117.422 256.989 119.229 256.33 119.079C255.836 118.968 233.358 106.608 231.468 105.401C231.011 105.124 230.699 106.309 229.377 113.108C228.231 119.124 227.403 122.399 226.111 126.002C222.612 135.727 222.326 136.224 214.513 145.882C210.556 150.742 207.194 154.699 207.029 154.661C206.905 154.634 206.98 154.304 207.229 153.971C209.389 150.738 217.855 135.515 218.619 133.481C219.16 132.045 220.387 127.389 221.366 123.066C222.96 116.026 223.391 114.696 225.723 109.554C227.128 106.409 228.319 103.823 228.328 103.781C228.366 103.617 224.395 101.463 223.819 101.332C223.531 101.267 219.277 106.104 214.372 112.091C209.477 118.038 204.196 124.157 202.652 125.625C201.048 127.166 195.841 131.051 190.534 134.611C185.388 138.033 177.964 143.105 174.043 145.896C163.267 153.541 162.891 153.672 170.566 147.489C175.444 143.53 179.56 138.921 185.641 130.603C190.857 123.431 194.318 120.189 210.981 106.996L220.631 99.3555L217.862 97.8199C216.327 96.953 214.596 95.9984 213.993 95.6023C213.381 95.2473 212.842 94.9521 212.76 94.9335C212.636 94.9055 203.364 104.319 198.481 109.446C191.207 117.105 184.891 122.254 179.877 124.711C175.116 127.009 157.348 134.759 156.977 134.675C156.812 134.637 161.697 131.415 167.857 127.529L179.034 120.408L185.618 112.161C193.109 102.777 195.6 100.571 203.768 95.8411C206.457 94.2859 208.638 92.8751 208.542 92.7237C208.287 92.3197 200.261 87.8193 199.488 87.601C198.788 87.4426 194.384 92.9378 188.118 101.69C184.891 106.196 180.313 111.696 177.827 114.076C176.825 115.061 172.637 118.268 168.536 121.278C164.394 124.279 157.827 129.198 153.942 132.213C144.279 139.72 143.209 140.431 148.42 135.767C153.401 131.355 157.417 126.421 162.926 118.147C168.186 110.205 171.979 106.26 187.31 93.0242C191.891 89.0407 195.563 85.6304 195.476 85.4378C195.354 85.0206 191.942 83.0796 191.721 83.2893C191.179 83.7725 181.879 93.3095 178.637 96.7306C173.125 102.537 167.798 107.521 164.915 109.551C163.574 110.503 160.128 112.536 157.233 114.045C149.501 118.181 140.095 123.409 132.068 128.084C128.135 130.353 124.96 132.144 124.988 132.021C125.025 131.856 127.495 130.121 130.543 128.128C137.365 123.613 141.887 119.313 150.117 109.534C154.966 103.793 159.958 99.903 177.287 88.5479L188.419 81.2433L185.235 79.4405C183.471 78.4354 181.658 77.4621 181.173 77.3091C180.533 77.0777 179.063 78.2165 173.677 83.2728C165.662 90.7638 165.46 90.8912 154.565 98.682C149.817 102.065 144.862 105.791 143.548 107.008C140.556 109.707 132.451 118.173 126.656 124.651C124.288 127.275 122.347 129.346 122.274 129.286C121.924 128.73 150.676 93.3005 154.215 89.9035C157.864 86.4016 169.543 79.7401 176.916 76.9947C177.911 76.614 178.742 76.1961 178.779 76.0314C178.835 75.7844 170.548 71.0951 169.683 70.8994C169.436 70.8435 166.699 72.9938 163.657 75.7243C143.964 93.1229 139.609 95.7292 120.694 101.661C107.739 105.74 96.0419 108.848 96.1911 108.19C96.2097 108.107 99.8101 106.542 104.204 104.723C110.23 102.192 114.198 100.148 120.514 96.3404C125.08 93.5655 132.005 89.55 135.942 87.4549C142.398 83.9824 165.554 69.4454 165.713 68.7455C165.778 68.4573 159.32 64.485 159.099 64.6947C158.245 65.4102 137.999 81.4284 134.908 83.8017C129.732 87.7371 122.766 91.7433 118.245 93.3599C116.356 94.0576 109.653 96.5218 103.357 98.9052C97.0702 101.247 91.0679 103.481 90.0317 103.852L88.1519 104.509L89.199 103.707C89.7318 103.265 94.001 100.466 98.6236 97.4442C103.237 94.4635 112.23 88.579 118.588 84.3918C130.597 76.4634 136.227 73.1937 148.582 66.9882C152.583 64.994 155.973 63.2081 156.102 63.0209C156.222 62.8748 154.848 61.8713 153.094 60.825L149.887 58.9305L137.931 65.0963C116.721 76.0056 115.116 76.5945 100.751 79.445C95.7652 80.4372 88.4152 81.9328 84.4194 82.7594C73.0736 85.0817 73.1466 85.1415 81.6306 81.6953C84.7766 80.4166 93.6141 76.7475 101.264 73.5453C117.476 66.7415 123.946 64.3542 135.837 60.7704C140.618 59.3425 145.134 57.941 145.835 57.7103L147.187 57.2807L142.543 54.2816L137.939 51.2919L126.43 56.8231C109.682 64.8472 109.824 64.7928 90.0895 68.4188C83.0424 69.7233 77.0767 70.8398 76.8429 70.9167C76.6502 71.0029 76.4856 70.9656 76.5135 70.8421C76.5881 70.5128 110.388 57.5197 115.633 55.7639C118.205 54.9179 123.688 53.2592 127.84 52.1219C131.993 50.9845 135.276 49.8666 135.117 49.6141C134.83 49.1597 129.214 45.2915 128.678 45.1703C128.472 45.1237 122.379 47.3797 115.088 50.1438C107.829 52.9584 101.001 55.3947 99.8697 55.6145C98.7379 55.8344 94.7436 56.2719 90.9832 56.6325C87.2227 56.993 80.3062 57.7211 75.5879 58.2977C70.9109 58.8836 66.9166 59.321 66.7107 59.2744C66.5461 59.2371 68.9292 58.6514 72.0683 57.977C80.303 56.2056 86.3953 54.3387 95.8185 50.7589C104.967 47.2467 111.338 45.4863 119.552 44.1864C122.521 43.6899 125.092 43.2331 125.294 43.1057C125.629 42.9651 119.617 38.3581 118.876 38.1904C118.711 38.1531 113.559 39.4971 107.371 41.2125C97.824 43.812 95.4182 44.3061 91.1319 44.5044C88.3797 44.6171 81.9867 44.9443 76.9538 45.19C71.9117 45.4768 67.7356 45.5702 67.6719 45.4692C67.6082 45.3682 68.8223 45.167 70.3433 44.9486C75.9914 44.2796 81.9439 43.0303 92.728 40.3213C102.88 37.7287 104.992 37.3845 115.916 36.3518C116.489 36.3083 112.427 32.8354 111.522 32.6303C111.357 32.593 105.545 34.1771 98.6463 36.1644C90.4963 38.5176 85.5054 39.7249 84.3153 39.6287C83.3311 39.579 78.0008 39.8005 72.5003 40.2C67.0091 40.5583 62.6723 40.7884 62.8743 40.661C64.1086 39.9882 88.3584 34.9608 97.4298 33.5086C103.267 32.5793 108.563 31.7441 109.195 31.6276C110.286 31.3984 110.254 31.3479 107.885 29.3834L105.476 27.4097L95.0689 29.5983C87.8331 31.163 83.5678 31.8421 81.0176 31.8274C78.9894 31.8011 74.2913 31.9061 70.5961 31.9785C66.8916 32.092 63.8512 32.1395 63.7782 32.0797C63.5964 31.7356 87.8307 28.306 95.1683 27.6299C99.7669 27.1994 103.729 26.7114 103.963 26.6345C104.165 26.5071 103.513 25.7536 102.523 24.9668L100.679 23.5539L95.0928 24.713C85.4793 26.6484 82.1771 26.8963 76.4941 25.9993C73.7302 25.59 68.7098 25.0161 65.3866 24.7832C62.0223 24.541 59.1894 24.2459 59.135 24.1037C59.0713 24.0028 63.4772 23.6585 69.0096 23.3095Z" fill="#145EB4" fill-opacity="0.38"/>
<path d="M253.902 58.5067C253.148 60.067 251.811 62.202 250.672 63.7473C248.732 66.34 244.875 70.3895 243.58 71.2265C241.686 72.4108 239.085 72.9683 236.099 72.8421C233.641 72.7123 229.012 71.7466 227.87 71.0915C227.372 70.7968 227.513 70.6936 229.269 70.0863C234.476 68.2768 238.005 65.368 242.363 59.3869C244.986 55.7722 245.055 55.1494 242.459 58.576C239.417 62.5843 237.732 64.2956 235.123 65.937C231.039 68.5637 227.04 69.9317 225.052 69.4214C223.632 69.0569 223.592 68.7126 224.693 66.4336C226.523 62.5876 227.976 61.0114 233.646 56.7314C235.001 55.687 236.738 54.1837 237.497 53.3764C238.902 51.8714 238.902 51.8714 239.833 48.5464C240.338 46.6991 240.87 44.469 241.013 43.587C241.239 42.2251 241.139 42.4777 240.287 45.2384C238.509 51.2137 237.393 52.6813 231.43 57.1091C229.428 58.572 227.107 60.3707 226.266 61.0738C224.422 62.6609 221.924 65.5556 221.67 66.4371C221.565 66.8 221.372 67.0846 221.269 67.0581C220.908 66.9653 216.903 63.7376 215.081 62.0727C213.816 60.8846 213.393 60.3307 213.406 59.805C213.435 59.0327 214.477 56.5716 216.644 52.2276C217.864 49.7285 218.177 48.8344 219.174 44.8022C221.028 37.3148 221.125 35.9198 219.376 41.7914C218.576 44.5653 217.294 48.2455 216.571 49.9813C215.406 52.7727 213.276 56.7924 212.193 58.2407C211.83 58.7321 211.602 58.5621 204.501 52.8968L197.172 47.0616L199.003 40.71C200.67 34.9288 200.835 34.1638 200.928 31.821C200.974 30.4127 200.937 29.2895 200.871 29.3281C200.778 29.3601 200.538 30.5791 200.289 32.0188C199.523 36.6948 196.65 44.4494 195.418 45.1634C195.151 45.3178 176.622 29.2843 176.491 28.7773C176.432 28.5952 176.449 27.9592 176.544 27.343C176.824 25.2155 176.592 20.9236 176.111 19.1296C175.55 17.0365 174.592 14.5908 173.613 12.6967L172.894 11.3428L173.596 13.3327C174.681 16.3958 175.556 19.7108 175.64 20.9576C175.682 21.5809 175.466 23.1961 175.154 24.564C174.693 26.6452 174.563 27.0015 174.283 26.8183C173.37 26.1384 158.086 13.9453 157.504 13.4619C157.158 13.1225 156.941 13.011 157.025 13.1997C157.143 13.3691 162.595 18.6946 169.151 24.9996C175.725 31.3372 181.361 36.7935 181.707 37.1329L182.321 37.7917L179.597 38.6796C170.956 41.5289 165.728 42.8319 163.44 42.69C158.941 42.4261 158.967 42.4327 161.792 43.0188C163.253 43.3381 165.205 43.5886 166.15 43.5806C169.369 43.5717 175.272 42.3307 181.681 40.3004C183.388 39.7642 184.947 39.357 185.102 39.3967C185.463 39.4895 201.366 54.1525 201.314 54.334C201.261 54.5155 195.776 57.4788 192.785 58.9105C189.619 60.4646 184.063 62.7136 181.011 63.6841C179.843 64.0804 174.873 65.2549 169.986 66.3391C165.098 67.4232 161.182 68.3112 161.252 68.3571C161.89 68.5487 174.968 66.7549 178.082 66.0508C184.766 64.5088 192.672 61.6102 200.097 57.9755L203.773 56.1904L207.505 59.4038C209.577 61.1608 212.098 63.2837 213.121 64.159L214.98 65.6942L213.968 66.7988C212.378 68.5625 208.102 72.1424 204.519 74.7588C195.411 81.4419 187.033 86.1685 180.561 88.3218C178.074 89.1589 179.884 88.844 183.217 87.862C192.418 85.1844 197.741 82.2072 209.161 73.2774C215.173 68.5837 216.46 67.7727 217.519 68.0444C218.19 68.2167 222.088 71.3335 222.676 72.1805C222.856 72.4216 222.31 73.2561 220.745 75.2211C219.57 76.7013 216.492 80.6446 213.959 83.9481C211.393 87.271 208.83 90.4835 208.26 91.1166C206.033 93.5519 198.73 100.03 195.776 102.196C195.569 102.337 195.473 102.48 195.55 102.5C195.783 102.559 202.215 97.9456 205.409 95.4245C210.792 91.1819 214.049 87.6745 220.929 78.7207C222.968 76.0702 224.214 74.6357 224.283 74.8763C224.472 75.7601 224.349 80.1279 224.03 82.7746C223.638 86.1543 222.484 89.6729 220.727 92.7858C220.099 93.9054 219.62 94.896 219.656 94.9611C219.785 95.189 223.073 90.1304 223.981 88.3306C225.022 86.259 225.986 81.8567 226.131 78.4691C226.253 75.354 226.323 75.3999 227.459 79.7289C228.908 85.2799 229.477 90.3265 229.052 93.7255C228.79 95.8857 227.296 99.6231 226.143 101.026C225.072 102.338 222.271 104.069 218.348 105.846C214.015 107.797 202.063 112.608 200.186 113.156C196.202 114.278 192.075 114.36 187.335 113.394C178.884 111.642 170.322 106.715 160.685 98.1155C157.134 94.9486 150.944 88.626 151.048 88.2631C151.078 88.1594 151.433 88.0834 151.868 88.1116C154.135 88.1366 160.025 87.616 162.322 87.1478C165.204 86.5789 167.315 85.7007 173.324 82.6493C175.469 81.5571 179.145 79.7721 181.504 78.707C188.429 75.5565 191.745 73.0945 192.448 70.6575C192.859 69.2317 192.548 68.4836 191.438 68.1986C188.959 67.5623 183.47 69.7727 171.793 76.1306C163.427 80.721 156.754 82.3215 150.117 81.3971C142.87 80.3722 138.79 75.4823 136.446 65.0518C136.006 63.0178 135.213 56.6329 135.355 56.1403C135.393 56.0107 136.325 56.5284 137.444 57.2613C140.166 59.0737 143.505 60.5713 145.457 60.8218C148.147 61.206 152.324 60.6634 163.088 58.5263C169.121 57.3184 175.524 54.5352 176.89 52.4912C177.476 51.6115 177.48 51.5012 177.065 50.9213C176.83 50.5825 176.477 50.2691 176.296 50.2227C175.212 49.9443 171.102 50.2537 166.083 51.0255C159.446 52.0225 158.224 52.1264 155.422 51.9363C150.554 51.6055 146.048 50.3094 142.316 48.1541C139.962 46.7981 138.885 45.6305 138.381 43.9142C137.386 40.54 138.094 36.3506 141.163 27.7272C143.635 20.7884 143.917 19.5241 144.522 12.134C145.019 6.27518 145.563 3.90882 146.562 3.32991C146.954 3.12427 149.875 2.70481 153.066 2.41011C159.159 1.85813 160.984 1.49129 168.514 -0.58497C173.787 -2.04355 177.588 -2.62712 179.654 -2.29164C180.82 -2.10373 181.409 -1.84097 182.569 -0.958544C183.394 -0.357007 184.199 0.406705 184.416 0.712932C184.926 1.53999 185.531 4.92503 186.055 10.1271C186.586 15.498 187.108 18.1102 187.936 19.8542C188.596 21.2208 189.502 21.7319 190.464 21.2826C191.233 20.9232 191.773 18.4724 192.084 14.125C192.403 9.55703 192.112 7.19924 190.484 2.07568C189.652 -0.616018 189.492 -1.40877 189.828 -1.51734C191.354 -1.90523 199.221 -1.97398 202.745 -1.59834C205.849 -1.30282 206.984 -0.816477 208.219 0.670013C210.59 3.50616 212.424 11.8569 212.713 21.1471C212.975 30.4307 213.18 31.9312 214.206 33.0855C215.945 35.0356 218.366 31.0628 219.783 23.9367C220.768 18.9827 220.884 14.2513 220.224 5.67318L220.054 3.76391L221.241 4.2635C224.263 5.51278 229.787 8.37858 231.624 9.60212C236.666 12.9847 241.966 18.3548 246.238 24.4076C249.019 28.3234 253.046 35.5108 254.268 38.7758C255.398 41.6833 256.301 46.3421 256.259 48.8929C256.233 50.8076 254.776 56.7262 253.902 58.5067Z" fill="#1F8429" fill-opacity="0.61"/>
<path d="M214.323 124.85C216.075 125.718 218.464 127.247 220.188 128.547C223.081 130.76 227.577 135.147 228.493 136.614C229.788 138.758 230.353 141.69 230.131 145.047C229.918 147.81 228.7 153.005 227.926 154.281C227.578 154.837 227.465 154.677 226.821 152.695C224.904 146.817 221.694 142.813 215.018 137.839C210.983 134.845 210.278 134.76 214.1 137.722C218.571 141.191 220.469 143.107 222.264 146.061C225.139 150.686 226.587 155.201 225.955 157.43C225.504 159.023 225.112 159.063 222.553 157.797C218.235 155.693 216.483 154.04 211.773 147.61C210.623 146.074 208.962 144.103 208.065 143.239C206.393 141.641 206.393 141.641 202.642 140.553C200.558 139.963 198.04 139.338 197.042 139.166C195.502 138.895 195.786 139.011 198.898 140.002C205.636 142.074 207.273 143.348 212.143 150.107C213.752 152.377 215.733 155.009 216.509 155.963C218.262 158.056 221.483 160.901 222.478 161.197C222.887 161.32 223.205 161.54 223.172 161.656C223.057 162.061 219.287 166.526 217.348 168.554C215.966 169.964 215.326 170.432 214.729 170.411C213.853 170.37 211.086 169.167 206.211 166.677C203.405 165.275 202.398 164.912 197.846 163.743C189.394 161.567 187.812 161.441 194.433 163.478C197.562 164.411 201.706 165.899 203.658 166.732C206.797 168.077 211.305 170.52 212.921 171.756C213.469 172.171 213.27 172.425 206.65 180.343L199.832 188.515L192.668 186.378C186.148 184.433 185.283 184.238 182.626 184.105C181.028 184.037 179.751 184.064 179.794 184.14C179.827 184.244 181.205 184.529 182.833 184.826C188.123 185.745 196.852 189.07 197.63 190.465C197.798 190.766 179.104 211.411 178.525 211.553C178.317 211.616 177.595 211.589 176.898 211.476C174.49 211.134 169.61 211.343 167.561 211.862C165.169 212.468 162.367 213.516 160.191 214.594L158.634 215.386L160.912 214.621C164.419 213.437 168.206 212.494 169.624 212.415C170.333 212.375 172.161 212.638 173.706 213.004C176.057 213.548 176.458 213.7 176.243 214.012C175.447 215.031 161.199 232.072 160.635 232.72C160.24 233.105 160.108 233.348 160.324 233.256C160.52 233.126 166.71 227.059 174.042 219.762C181.412 212.445 187.756 206.173 188.15 205.788L188.914 205.105L189.851 208.179C192.858 217.932 194.2 223.827 193.978 226.399C193.56 231.456 193.568 231.427 194.308 228.256C194.709 226.617 195.045 224.425 195.061 223.362C195.136 219.742 193.882 213.087 191.746 205.855C191.182 203.929 190.761 202.17 190.81 201.996C190.925 201.591 207.994 183.884 208.198 183.945C208.403 184.006 211.623 190.21 213.17 193.592C214.851 197.171 217.258 203.447 218.28 206.892C218.699 208.211 219.901 213.814 221.003 219.324C222.106 224.834 223.011 229.249 223.064 229.171C223.299 228.456 221.607 213.726 220.89 210.214C219.315 202.679 216.232 193.752 212.301 185.357L210.371 181.201L214.118 177.043C216.168 174.734 218.645 171.924 219.665 170.784L221.458 168.712L222.685 169.864C224.646 171.673 228.598 176.526 231.474 180.587C238.822 190.912 243.968 200.392 246.243 207.696C247.128 210.504 246.818 208.464 245.791 204.704C242.993 194.323 239.753 188.301 229.915 175.349C224.744 168.531 223.857 167.073 224.193 165.886C224.406 165.133 228.048 160.786 229.025 160.136C229.304 159.936 230.237 160.56 232.427 162.344C234.077 163.684 238.473 167.193 242.157 170.082C245.862 173.008 249.443 175.929 250.146 176.579C252.853 179.113 260.016 187.404 262.397 190.752C262.553 190.987 262.712 191.097 262.736 191.011C262.81 190.75 257.741 183.46 254.963 179.836C250.287 173.732 246.391 170.026 236.405 162.18C233.45 159.854 231.854 158.436 232.129 158.361C233.137 158.159 238.093 158.35 241.09 158.741C244.917 159.223 248.882 160.563 252.37 162.577C253.625 163.297 254.737 163.848 254.812 163.808C255.074 163.666 249.417 159.906 247.398 158.864C245.073 157.668 240.1 156.53 236.257 156.326C232.723 156.151 232.777 156.073 237.722 154.848C244.064 153.285 249.809 152.706 253.657 153.226C256.103 153.547 260.307 155.272 261.869 156.586C263.331 157.807 265.223 160.978 267.137 165.411C269.237 170.308 274.386 183.808 274.959 185.926C276.127 190.42 276.111 195.063 274.889 200.382C272.677 209.865 266.858 219.435 256.839 230.169C253.149 234.125 245.807 241.01 245.398 240.888C245.281 240.853 245.204 240.453 245.248 239.964C245.336 237.415 244.9 230.785 244.429 228.195C243.859 224.947 242.917 222.563 239.611 215.767C238.427 213.341 236.498 209.186 235.35 206.52C231.956 198.693 229.248 194.933 226.499 194.114C224.891 193.634 224.033 193.975 223.68 195.22C222.893 198 225.258 204.2 232.169 217.41C237.161 226.875 238.802 234.399 237.577 241.853C236.222 249.99 230.563 254.52 218.657 257.029C216.336 257.499 209.066 258.314 208.51 258.148C208.364 258.104 208.976 257.062 209.838 255.812C211.968 252.773 213.756 249.036 214.092 246.844C214.599 243.823 214.093 239.119 211.951 226.986C210.738 220.187 207.747 212.952 205.462 211.391C204.478 210.721 204.353 210.715 203.684 211.175C203.293 211.435 202.928 211.828 202.87 212.031C202.526 213.247 202.769 217.873 203.513 223.528C204.47 231.004 204.555 232.38 204.266 235.528C203.762 240.999 202.171 246.051 199.626 250.222C198.024 252.853 196.67 254.051 194.708 254.596C190.85 255.675 186.112 254.827 176.401 251.272C168.588 248.407 167.16 248.075 158.785 247.305C152.145 246.675 149.473 246.034 148.842 244.904C148.619 244.461 148.219 241.17 147.969 237.578C147.503 230.719 147.134 228.662 144.975 220.168C143.458 214.22 142.896 209.938 143.331 207.619C143.575 206.31 143.889 205.65 144.922 204.356C145.627 203.436 146.515 202.539 146.868 202.299C147.821 201.735 151.68 201.096 157.601 200.57C163.713 200.038 166.693 199.482 168.695 198.572C170.264 197.847 170.869 196.833 170.384 195.747C169.996 194.877 167.227 194.24 162.299 193.838C157.121 193.424 154.436 193.722 148.576 195.491C145.497 196.394 144.593 196.564 144.479 196.185C144.079 194.464 144.208 185.616 144.727 181.657C145.145 178.17 145.727 176.899 147.447 175.528C150.73 172.896 160.26 170.934 170.817 170.722C181.365 170.54 183.074 170.327 184.412 169.188C186.672 167.255 182.225 164.484 174.17 162.804C168.571 161.637 163.202 161.448 153.445 162.087L151.272 162.255L151.871 160.926C153.369 157.542 156.769 151.365 158.206 149.313C162.18 143.684 168.417 137.788 175.403 133.057C179.922 129.977 188.189 125.534 191.929 124.2C195.26 122.964 200.574 122.006 203.469 122.084C205.642 122.136 212.324 123.846 214.323 124.85Z" fill="#1F8429" fill-opacity="0.47"/>
</svg>
