<svg width="510" height="748" viewBox="0 0 510 748" fill="none" xmlns="http://www.w3.org/2000/svg">
<path d="M93.8855 486.686C108.696 468.26 113.857 462.206 131.821 442.182L141.372 431.589L135.941 431.851L130.427 432.171L124.505 438.881C119.746 444.289 116.616 446.968 109.317 451.712C104.205 455.046 93.5806 462.363 85.6344 467.926C77.6064 473.547 71.1348 478.077 71.1839 477.799C71.2085 477.66 75.9187 472.531 81.6856 466.296C93.3014 453.769 106.457 443.094 118.049 436.809C121.858 434.753 124.898 432.991 124.783 432.827C124.726 432.745 123.308 432.639 121.645 432.705C119.261 432.787 115.477 434.704 106.097 440.66C92.531 449.181 92.8341 449.091 73.6888 451.387C68.7079 451.944 65.2673 453.132 60.8026 455.648C52.9957 460.015 55.0107 457.139 64.456 450.404C72.8363 444.415 80.6843 440.63 91.4324 437.499C96.1428 436.033 100.026 434.779 100.05 434.64C100.075 434.5 95.4708 433.329 89.7525 431.961C80.2656 429.57 40.581 415.605 40.6711 414.687C40.7365 413.909 73.7927 415.791 82.8944 417.109C91.6603 418.296 102.769 422.482 112.273 428.036C117.279 431.001 124.447 432.696 126.331 431.377C126.823 431.033 124.996 429.993 122.227 429.002C113.272 425.627 105.563 420.892 97.3536 413.7C89.087 406.426 77.4203 394.818 75.413 391.951C74.1758 390.01 105.742 409.292 114.574 415.804C117.876 418.254 123.16 422.489 126.306 425.413L132.139 430.607L140.184 429.369C144.69 428.656 148.196 427.91 148.024 427.664C147.852 427.419 140.61 423.7 131.885 419.432C123.16 415.165 113.386 409.922 110.174 407.776C104.284 403.721 69.9392 374.543 70.1685 373.65C70.2422 373.232 94.5335 387.354 115.802 400.296C120.472 403.13 131.007 410.159 139.298 416.073C154.242 426.607 157.101 427.901 160.738 425.599C161.312 425.197 156.519 421.839 150.219 418.071C133.793 408.209 130.032 405.104 116.841 391.145C103.766 377.35 96.6214 371.854 77.3113 360.837C71.2405 357.396 66.1774 354.349 66.0054 354.103C65.8333 353.858 69.3807 354.914 73.8538 356.421C84.3402 360.066 94.8432 365.652 105.535 373.426C110.188 376.76 118.545 381.896 123.993 384.796C138.06 392.16 153.806 405.061 165.801 418.881L170.102 423.804L175.321 422.714C178.303 422.091 180.67 421.288 180.801 420.952C180.793 420.592 172.346 413.932 161.851 406.265C140.378 390.414 131.964 382.755 119.527 367.781C114.791 362.063 106.467 352.265 101.109 346.007C90.5317 333.514 89.9909 332.916 90.8266 333.064C91.1051 333.113 99.1914 339.781 108.671 347.915C118.15 356.049 129.636 365.83 134.273 369.664C147.283 380.575 161.965 394.222 174.664 407.304C181.112 413.899 187.035 419.395 187.953 419.485C189.763 419.805 206.762 415.838 206.885 415.142C206.934 414.864 197.226 408.843 185.273 401.708C173.377 394.656 159.638 385.842 154.755 382.18C147.078 376.446 96.5937 329.27 96.8721 328.099C96.995 327.402 144.103 360.34 166.674 376.887C177.931 385.119 193.096 396.841 200.338 403.002C212.275 413.077 213.881 414.15 216.224 413.487C217.658 413.093 221.934 412.053 225.768 411.077L232.69 409.283L227.291 406.104C224.285 404.425 214.421 398.88 205.376 393.981C177.48 378.721 172.065 374.822 148.035 352.705C138.711 344.095 127.209 333.593 122.449 329.236C117.746 324.959 113.805 321.249 113.854 320.97C113.903 320.692 117.869 323.042 122.686 326.262C127.446 329.399 140.849 338.082 152.335 345.421C185.106 366.424 197.51 375.074 219.311 391.916L239.67 407.57L249.157 405.079C254.367 403.628 258.774 402.252 258.766 401.891C258.897 401.555 245.125 392.52 228.265 381.863C198.763 363.089 197.435 362.065 187.358 352.03C176.453 340.987 171.038 337.088 142.011 319.69C123.25 308.411 120.915 306.993 121.243 306.764C121.407 306.649 125.019 308.148 129.198 310.106C133.4 311.924 140.405 314.955 144.714 316.577C155.406 320.688 166.015 326.078 177.632 333.082C183.007 336.399 188.987 339.537 191.027 340.184C198.433 342.567 209.485 347.891 217.842 353.027C227.861 359.318 237.029 367.182 254.66 384.868C261.813 391.946 268.195 398.098 268.982 398.523C269.711 398.868 273.913 398.245 278.354 397.089C286.349 394.909 286.349 394.909 284.514 393.509C283.58 392.698 269.12 382.68 252.488 371.13C222.044 349.963 218.767 347.374 199.481 327.673C195.761 323.93 185.578 314.091 176.762 305.859C168.028 297.569 160.851 290.63 160.982 290.295C161.032 290.016 162.555 291.146 164.563 292.793C170.789 298.199 194.409 315.721 203.224 321.512C207.984 324.65 216.996 329.327 223.296 331.874C246.448 341.056 256.476 348.928 296.147 389.027C298.219 391.115 298.94 391.099 306.133 388.993C310.377 387.731 313.957 386.568 313.924 386.346C313.973 386.068 310.524 383.234 306.231 379.891C293.581 370.193 278.899 357.766 272.23 351.204C268.88 347.813 259.351 336.295 251.117 325.58C238.934 309.574 235.116 305.166 230.511 301.554C222.433 295.246 208.924 287.981 196.61 283.296C190.679 281.101 185.886 278.963 186.017 278.627C186.41 276.398 212.823 283.786 224.268 289.323C235.574 294.836 241.571 299.915 253.058 313.357C265.97 328.488 272.393 334.001 283.33 339.161C290.957 342.732 296.725 348.704 310.178 366.874L322.829 383.896L334.289 380.389C340.597 378.414 345.963 376.489 346.258 376.038C346.659 375.391 340.793 371.197 300.092 343.051C277.767 327.553 269.82 319.689 242.733 286.405C231.484 272.43 222.259 260.822 222.226 260.601C222.267 259.962 222.464 260.069 236.252 272.266C250.409 284.815 264.919 295.776 286.359 310.184C317.77 331.163 320.572 333.596 342.898 358.859C349.706 366.666 355.761 373.047 356.179 373.121C357.457 373.203 372.456 367.95 372.637 367.336C372.686 367.057 357.406 356.392 338.833 343.638C300.819 317.761 301.016 317.868 283.614 300.509C276.716 293.62 262.476 279.907 252.047 270.241C241.56 260.493 232.63 252.097 232.343 251.687C232.081 251.138 236.652 254.529 242.526 259.084C269.587 280.3 288.062 292.391 301.498 297.633C327.976 307.904 338.807 315.702 372.013 348.485L386.744 363.075L395.829 360.01C400.867 358.314 404.799 356.782 404.684 356.618C404.57 356.454 398.663 352.899 391.601 348.566C372.053 336.86 366.408 332.634 352.455 319.33C328.467 296.574 327.524 295.402 301.675 259.178C286.575 238.133 278.824 226.713 280.577 228.172C282.077 229.441 286.55 234.61 290.409 239.599C303.297 256.089 317.069 267.566 341.795 282.482C362.637 294.99 378.195 309.367 409.91 344.903C417.538 353.356 417.398 353.332 424.812 349.972L428.081 348.539L421.42 342.337C417.766 339.036 408.451 330.787 400.807 324.054C379.972 305.803 375.507 300.994 358.572 278.549C350.133 267.367 338.229 252.63 332.027 245.863C321.154 233.821 301.147 212.916 297.1 209.402C296.051 208.427 295.478 207.608 295.896 207.681C297.149 207.903 325.627 230.446 330.674 235.213C336.63 240.931 349.321 251.211 361.168 259.763C388.277 279.48 399.387 290.99 426.121 327.083C433.389 336.766 439.452 344.728 439.73 344.777C440.066 344.908 457.048 339.001 457.622 338.599C457.704 338.542 454.885 336.609 451.338 334.331C447.708 332.112 441.335 327.541 436.96 324.256L429.111 318.276L412.593 294.683C395.158 269.78 385.703 254.183 369.382 223.372C355.871 197.797 355.756 196.413 368.283 214.132C378.23 228.164 382.875 233.579 399.409 250.569C406.225 257.515 441.98 303.529 454.368 321.223C464.978 336.378 464.921 336.297 471.827 333.781C476.283 332.126 477.406 331.462 476.832 330.643C476.431 330.07 470.425 324.63 463.379 318.577C450.869 307.682 450.5 307.33 442.627 295.386C433.516 281.5 432.508 278.666 431.474 262.544C430.843 253.098 431.316 227.62 432.258 219.026L432.749 215.02L433.118 219.034C433.306 221.221 434.143 231.134 434.922 240.965C436.841 265.501 437.627 268.368 445.083 279.017C449.671 285.571 452.801 288.995 458.315 293.558C464.623 298.907 466.589 301.192 475.651 314.136L485.86 328.717L489.71 327.242C491.856 326.472 495.101 325.177 497.001 324.579C498.844 323.899 500.63 323.137 500.876 322.965C501.122 322.793 498.869 320.098 495.886 317.059C487.308 308.294 476.026 291.656 472.003 281.899C467.57 271.208 467.316 268.579 469.708 259.092C472.328 248.712 472.828 246.287 472.975 241.789L473.139 238.013L473.827 242.658C476.048 256.117 480.678 268.135 487.675 278.129C490.657 282.389 495.327 291.327 500.235 302.173C504.504 311.758 508.511 319.573 509.068 319.671C510.264 319.81 545.49 306.135 557.852 300.776C561.972 298.99 565.52 297.605 565.798 297.654C566.634 297.801 561.498 309.82 560.187 310.738C559.204 311.426 501.729 331.157 496.6 332.55C495.388 332.911 496.969 335.344 506.785 348.492C515.51 360.083 519.935 366.752 524.195 374.755C535.674 396.382 536.092 397.676 540.584 426.759C542.805 441.439 544.387 453.637 544.059 453.867C543.813 454.039 543.355 453.384 543.166 452.417C540.937 443.479 527.728 404.386 525.377 399.807C523.722 396.571 517.511 387.003 511.489 378.402C501.682 364.393 500.035 361.518 494.734 349.238C491.456 341.767 488.818 335.557 488.76 335.476C488.531 335.148 478.43 338.679 477.283 339.482C476.71 339.884 478.415 355.048 481.103 373.185C483.734 391.241 486.054 410.247 486.169 415.293C486.317 420.561 484.836 435.881 482.625 450.857C480.43 465.333 477.499 486.428 476.148 497.75C472.39 528.824 472.022 529.692 473.404 506.385C474.231 491.524 472.706 476.966 467.805 453.053C463.535 432.483 463.362 421.251 466.767 371.015L468.739 341.924L461.636 344.333C457.671 345.644 453.239 347.16 451.585 347.587C449.987 348.095 448.611 348.57 448.447 348.685C448.201 348.857 449.94 380.11 451.154 396.839C452.999 421.792 451.968 441.069 448.291 453.776C444.736 465.786 430.026 509.288 429.289 509.804C428.961 510.034 431.09 496.336 434.087 479.345L439.402 448.402L435.427 423.719C430.903 395.636 431 387.755 435.717 365.898C437.273 358.705 438.272 352.634 437.855 352.56C436.74 352.364 416.064 359.271 414.45 360.279C413.057 361.254 415.68 377.729 421.048 402.658C423.809 415.495 426.162 432.281 426.376 440.432C426.507 443.758 425.459 456.21 424.207 468.196C422.872 480.239 421.039 499.589 420.138 511.206C417.912 540.108 417.453 543.115 417.575 526.55C417.771 510.788 415.517 495.887 409.78 473.047C404.232 451.174 403.355 438.238 404.564 390.272C404.874 375.894 404.742 364.024 404.267 363.868C403.341 363.418 394.502 366.31 394.518 367.031C394.502 368.752 396.413 400.251 397.25 411.384C398.652 430.3 398.907 447.578 397.876 455.868C397.409 459.735 395.484 469.017 393.519 476.497C388.457 496.642 382.643 521.465 378.057 542.987C375.772 553.498 373.855 561.92 373.683 561.674C373.454 561.346 374.346 554.252 375.706 545.732C378.653 526.578 378.316 511.799 374.275 481.791C371.931 464.145 373.061 449.193 380.75 400.719L385.671 369.563L377.438 372.275C372.867 373.767 368.271 375.397 367.23 376.004C365.805 376.758 365.461 381.149 365.749 398.647C366.12 424.633 366.022 425.191 362.329 456.707C360.7 470.421 359.341 485.044 359.382 489.288C359.35 498.832 361.286 526.53 363.417 547.01C364.245 555.342 364.787 562.043 364.565 562.076C363.033 561.806 346.698 454.955 346.378 443.338C346.049 431.361 352.969 400.27 359.899 382.968C360.816 380.616 361.406 378.495 361.176 378.167C360.832 377.675 339.41 384.739 337.69 385.943C337.198 386.287 336.609 394.512 336.552 404.196C335.697 466.441 333.33 478.23 313.606 520.848C300.124 550.063 286.944 575.525 286.026 574.215C285.912 574.051 288.901 565.244 292.71 554.643C297.87 540.044 300.605 529.828 303.988 512.689C306.395 500.261 310.384 481.722 312.98 471.481C317.173 454.629 328.564 390.867 327.589 389.475C327.187 388.901 309.935 393.9 309.951 394.621C309.845 397.259 305.688 458.276 304.926 467.476C303.584 482.82 299.514 501.417 295.148 511.92C293.362 516.344 287.006 532.024 281.158 546.861C275.253 561.616 269.609 575.699 268.61 578.107L266.767 582.449L267.029 579.336C267.102 577.698 268.994 565.753 271.057 552.834C273.178 539.996 277.183 514.854 279.967 497.035C285.191 463.348 288.426 448.266 297.222 416.717C300.097 406.525 302.365 397.735 302.242 397.21C302.177 396.768 298.228 397.579 293.6 398.989L285.17 401.594L276.939 432.382C262.287 486.952 260.763 490.704 242.882 520.435C236.681 530.758 227.597 546.029 222.682 554.353C208.683 577.948 208.904 577.915 216.374 557.548C219.143 549.995 226.784 528.653 233.353 510.138C247.245 470.871 253.363 455.723 266.018 429.163C271.129 418.504 275.864 408.354 276.576 406.756L277.977 403.7L265.32 407.068L252.745 410.379L244.113 439.372C231.508 481.523 231.639 481.187 206.565 521.569C197.628 536.004 190.084 548.244 189.847 548.776C189.691 549.252 189.363 549.481 189.191 549.235C188.733 548.58 219.784 468.612 225.059 456.618C227.672 450.761 233.495 438.505 238.115 429.411C242.735 420.317 246.003 412.78 245.307 412.657C244.053 412.436 228.324 416.124 227.259 416.869C226.85 417.156 221.1 431.436 214.334 448.624C207.708 465.836 201.106 481.689 199.689 484.024C198.272 486.359 192.677 494.06 187.32 501.228C181.963 508.397 172.223 521.686 165.719 530.878C159.297 540.013 153.702 547.714 153.293 548.001C152.965 548.23 155.733 543.118 159.551 536.539C169.56 519.277 175.99 505.62 184.722 483.394C193.134 461.757 200.194 447.781 210.999 431.305C214.857 425.308 218.15 420.073 218.248 419.516C218.535 418.705 200.881 421.909 199.406 422.942C199.078 423.171 193.23 434.346 186.382 447.929C175.734 468.812 172.768 473.818 166.289 481.65C162.103 486.656 152.494 498.388 144.909 507.605C137.381 516.904 130.893 524.376 130.614 524.327C130.336 524.278 131.917 521.828 133.956 518.813C141.779 507.843 149.07 495.415 161.496 472.189C173.119 450.257 175.879 446.005 191.468 425.203C192.303 424.13 179.745 425.72 177.942 426.982C177.615 427.212 171.136 439.927 163.633 455.189C154.778 473.23 148.946 483.905 146.882 485.838C145.227 487.485 137.125 497.185 129.065 507.467C120.947 517.667 114.443 525.639 114.541 525.082C115.327 521.846 145.135 471.313 157.038 453.093C164.705 441.377 171.676 430.759 172.478 429.465C173.814 427.187 173.674 427.163 166.457 428.187L159.158 429.269L146.42 451.004C137.639 466.185 132.036 474.747 127.949 479.195C124.672 482.71 117.373 491.116 111.614 497.711C105.913 504.389 101.154 509.796 100.933 509.829C100.04 509.599 132.625 461.639 143.127 447.695C149.696 438.945 155.152 431.219 155.389 430.687C155.488 430.13 153.128 430.072 150.171 430.556L144.756 431.54L137.891 443.181C125.973 463.122 121.148 469.308 110.523 477.845C105.404 482.04 96.4008 489.93 90.6993 495.386C84.9159 500.9 79.8862 505.398 79.5503 505.267C79.2718 505.218 85.6857 496.943 93.8855 486.686Z" fill="#145EB4" fill-opacity="0.58"/>
<path d="M359.95 691.787C360.374 676.523 360.654 671.386 362.014 654.027L362.756 644.824L360.24 647.193L357.705 649.625L357.296 655.402C356.973 660.052 356.442 662.674 354.657 668.041C353.411 671.806 350.962 679.823 349.163 685.864C347.346 691.967 345.881 696.887 345.803 696.728C345.764 696.649 346.165 692.158 346.672 686.681C347.704 675.666 350.149 664.936 353.439 657.033C354.523 654.441 355.344 652.312 355.229 652.278C355.172 652.261 354.452 652.792 353.676 653.51C352.559 654.534 351.436 657.047 349.091 663.875C345.665 673.703 345.778 673.533 337.407 682.567C335.214 684.897 333.992 686.906 332.759 689.997C330.593 695.386 330.516 693.126 332.61 685.884C334.463 679.453 336.86 674.336 340.891 668.349C342.623 665.678 344.034 663.454 343.995 663.375C343.956 663.295 341.317 664.611 338.07 666.289C332.639 669.011 308.48 678.429 308.19 677.936C307.938 677.522 324.518 664.83 329.373 661.733C334.02 658.71 340.883 656.21 347.472 655.053C350.957 654.464 355.02 652.351 355.446 650.919C355.558 650.545 354.301 650.781 352.609 651.43C347.077 653.444 341.649 654.269 335.087 654.078C328.468 653.87 318.638 652.909 316.631 652.312C315.33 651.857 337.518 648.429 344.132 648.025C346.61 647.881 350.691 647.808 353.266 647.965L357.959 648.141L361.378 644.21C363.285 641.998 364.7 640.182 364.528 640.131C364.356 640.079 359.522 641.216 353.775 642.692C348.028 644.168 341.423 645.591 339.098 645.848C334.792 646.261 307.671 645.915 307.456 645.376C307.34 645.138 324.154 642.144 339.085 639.81C342.361 639.294 349.982 638.444 356.119 637.966C367.134 637.042 368.979 636.506 369.891 633.863C370.021 633.427 366.495 633.733 362.096 634.457C350.612 636.326 347.676 636.333 336.259 634.833C324.957 633.366 319.523 633.579 306.233 636.063C302.064 636.855 298.521 637.428 298.349 637.376C298.177 637.325 300.267 636.388 302.966 635.293C309.333 632.782 316.414 631.229 324.381 630.686C327.831 630.425 333.716 629.533 337.39 628.728C346.83 626.59 359.092 626.511 369.883 628.436L373.741 629.11L375.854 626.417C377.062 624.878 377.908 623.503 377.849 623.282C377.714 623.106 371.232 623.278 363.398 623.793C347.311 624.766 340.481 624.428 329.057 622.111C324.701 621.221 317.137 619.783 312.286 618.881C302.659 617.031 302.181 616.957 302.637 616.686C302.788 616.595 309.101 616.576 316.615 616.712C324.13 616.848 333.209 616.974 336.832 616.968C347.055 617.029 359.075 617.76 369.937 619.028C375.435 619.648 380.281 619.938 380.755 619.605C381.741 619.017 388.474 610.038 388.28 609.641C388.202 609.482 381.345 610.492 373.004 611.873C364.72 613.271 354.91 614.554 351.231 614.747C345.455 615.061 304.031 612.423 303.739 611.725C303.545 611.329 338.17 608.281 355.038 607.202C363.444 606.653 374.997 606.229 380.718 606.305C390.121 606.393 391.283 606.264 392.168 604.968C392.715 604.182 394.393 601.901 395.882 599.836L398.558 596.09L394.807 596.736C392.751 597.141 385.992 598.451 379.862 599.745C360.901 603.659 356.88 603.953 337.285 602.865C329.672 602.429 320.324 601.951 316.451 601.747C312.635 601.56 309.391 601.34 309.313 601.181C309.236 601.022 311.997 600.556 315.484 600.171C318.913 599.768 328.514 598.559 336.705 597.472C360.098 594.402 369.207 593.589 385.812 592.973L401.292 592.362L404.948 587.213C406.926 584.344 408.545 581.843 408.41 581.667C408.351 581.446 398.444 582.632 386.463 584.285C365.452 587.115 364.442 587.153 355.948 586.319C346.691 585.326 342.669 585.62 322.388 588.937C309.266 591.065 307.628 591.323 307.702 591.074C307.739 590.949 310.022 590.205 312.742 589.456C315.424 588.627 319.894 587.246 322.556 586.275C329.191 583.912 336.252 582.217 344.384 580.91C348.174 580.343 352.19 579.437 353.407 578.918C357.834 577.05 365.084 575.14 370.969 574.248C378.074 573.245 385.341 573.374 400.248 574.897C406.26 575.467 411.565 575.894 412.098 575.781C412.574 575.652 414.368 573.61 416.083 571.205C419.135 566.825 419.135 566.825 417.744 566.886C417 566.868 406.405 567.849 394.209 568.964C371.876 570.993 369.359 571.057 352.924 569.214C349.775 568.887 341.301 568.195 334.07 567.736C326.857 567.216 320.884 566.726 320.825 566.505C320.747 566.346 321.891 566.28 323.454 566.271C328.414 566.391 346.14 565.364 352.484 564.609C355.914 564.206 361.947 562.816 365.903 561.485C380.373 556.505 388.057 556.284 421.708 559.862C423.464 560.046 423.805 559.741 426.498 555.729C428.08 553.352 429.378 551.298 429.282 551.201C429.204 551.043 426.516 551.056 423.236 551.164C413.628 551.558 402.051 551.433 396.459 550.921C393.615 550.616 384.847 548.819 376.993 546.887C365.316 543.953 361.878 543.336 358.351 543.439C352.173 543.634 343.036 545.591 335.412 548.338C331.762 549.692 328.68 550.606 328.621 550.385C328 549.115 343.386 541.899 350.902 539.933C358.343 538.012 363.073 538.065 373.483 540.012C385.191 542.21 390.284 542.302 397.419 540.358C402.385 538.989 407.329 539.58 420.403 543.066L432.673 546.313L436.909 539.845C439.225 536.263 441.105 533.093 441.083 532.748C441.041 532.261 436.695 532.594 406.893 535.382C390.524 536.882 383.844 536.249 358.721 530.87C348.232 528.561 339.576 526.594 339.48 526.498C339.267 526.163 339.401 526.135 350.465 526.514C361.834 526.916 372.795 526.382 388.342 524.706C411.072 522.185 413.304 522.239 433.223 525.594C439.334 526.667 444.565 527.344 444.793 527.208C445.437 526.722 450.741 517.927 450.604 517.548C450.526 517.389 439.302 518.386 425.735 519.703C398.05 522.511 398.183 522.483 383.505 521.029C377.684 520.448 365.852 519.501 357.324 518.996C348.737 518.474 341.391 517.981 341.104 517.896C340.779 517.731 344.21 517.532 348.69 517.375C369.414 516.765 382.693 515.159 391.059 512.226C407.525 506.416 415.568 505.828 443.452 508.435L455.838 509.614L459.093 504.346C460.899 501.426 462.233 499.043 462.118 499.009C462.003 498.975 457.871 499.642 452.9 500.4C439.245 502.64 434.994 502.866 423.45 502.005C403.642 500.582 402.763 500.388 377.166 493.038C362.255 488.802 354.377 486.32 355.75 486.322C356.933 486.336 360.963 487.061 364.632 487.95C376.823 490.834 387.617 490.861 404.929 488.083C419.497 485.709 432.205 486.441 460.372 491.031C467.113 492.089 467.037 492.134 469.381 487.408L470.432 485.347L464.975 485.011C462.018 484.876 454.54 484.616 448.416 484.42C431.764 483.937 427.869 483.387 411.566 479.211C403.444 477.132 392.362 474.714 386.921 473.907C377.315 472.403 360.096 470.259 356.872 470.181C356.014 470.129 355.44 469.958 355.668 469.822C356.351 469.416 378.239 468.882 382.399 469.171C387.341 469.558 397.181 469.436 405.986 468.803C426.189 467.429 435.715 468.57 461.69 475.49C468.704 477.307 474.514 478.766 474.666 478.676C474.875 478.602 480.894 468.665 481.023 468.229C481.042 468.167 478.984 468.367 476.45 468.698C473.898 469.091 469.172 469.446 465.874 469.617L459.926 469.88L443.408 464.962C425.972 459.77 415.755 455.915 396.708 447.328C380.914 440.185 380.355 439.544 392.82 443.187C402.704 446.062 406.906 446.839 421.032 448.468C426.835 449.111 460.754 457.244 473.143 460.933C483.754 464.092 483.696 464.075 486.102 459.978C487.644 457.318 487.942 456.525 487.369 456.355C486.967 456.235 482.102 456.007 476.514 455.902C466.538 455.644 466.232 455.621 458.105 452.93C448.676 449.784 447.161 448.79 440.804 441.202C437.067 436.767 428.033 423.907 425.362 419.247L424.142 417.054L425.778 418.897C426.664 419.906 430.669 424.489 434.617 429.055C444.459 440.46 445.88 441.561 453.336 443.781C457.924 445.147 460.674 445.559 464.984 445.554C469.962 445.612 471.738 445.938 480.8 448.636L491.01 451.676L492.325 449.355C493.077 448.088 494.166 446.107 494.863 445.026C495.502 443.928 496.084 442.813 496.139 442.626C496.195 442.439 494.132 442.028 491.593 441.747C484.282 440.926 472.809 437.307 467.328 434.116C461.31 430.629 460.232 429.427 457.934 423.725C455.421 417.485 454.779 416.074 453.215 413.777L451.921 411.832L453.941 413.858C459.901 419.633 466.496 423.698 473.493 425.781C476.476 426.669 481.97 429.187 488.273 432.555C493.81 435.559 498.577 437.792 498.881 437.612C499.507 437.188 511.474 415.868 515.47 408.109C516.803 405.522 518.005 403.371 518.157 403.281C518.612 403.01 520.511 411.101 520.215 412.097C519.992 412.845 499.527 446.347 497.568 449.153C497.116 449.832 498.76 450.39 508.259 452.879C516.669 455.044 521.22 456.535 526.178 458.757C539.559 464.775 540.231 465.246 552.962 477.851C559.367 484.233 564.562 489.644 564.487 489.893C564.432 490.08 563.973 489.943 563.531 489.54C559.21 486.017 538.648 472.03 535.853 470.723C533.881 469.797 527.416 467.601 521.394 465.807C511.586 462.887 509.749 462.137 502.736 458.218C498.444 455.856 494.918 453.857 494.861 453.839C494.632 453.771 491.058 459.691 490.799 460.563C490.669 460.999 497.001 467.833 504.887 475.741C512.715 483.631 520.74 492.122 522.629 494.584C524.615 497.141 529.472 505.367 533.852 513.723C538.059 521.823 544.318 533.517 547.784 539.702C557.272 556.698 557.411 557.281 549.603 545.126C544.599 537.398 538.574 530.79 527.525 520.924C517.994 512.459 513.828 506.947 497.204 480.572L487.578 465.299L485.038 469.424C483.608 471.71 482.028 474.291 481.387 475.185C480.804 476.096 480.315 476.9 480.278 477.024C480.222 477.211 492.419 492.03 499.084 499.845C509.042 511.488 515.553 521.495 518.404 529.327C521.06 536.763 529.8 564.451 529.633 565.012C529.559 565.261 525.604 557.574 520.868 547.893L512.176 530.321L501.292 519.69C488.909 507.596 486.091 503.638 480.414 490.828C478.547 486.611 476.821 483.182 476.593 483.317C475.986 483.679 468.554 495.637 468.145 496.803C467.83 497.862 475.079 504.97 486.722 515.148C492.716 520.391 499.949 527.765 503.015 531.729C504.287 533.328 508.31 539.95 512.065 546.424C515.801 552.96 521.953 563.335 525.743 569.481C535.178 584.765 536.051 586.449 530.088 578.165C524.452 570.249 517.952 563.771 506.891 554.782C496.272 546.197 491.148 540.129 474.294 515.787C469.216 508.512 464.838 502.666 464.553 502.785C463.944 502.942 460.745 508.024 461.015 508.376C461.633 509.238 474.002 524.107 478.451 529.297C486.001 538.121 492.404 546.605 494.922 551.151C496.103 553.266 498.552 558.673 500.326 563.201C505.215 575.301 511.442 590.038 517.06 602.626C519.782 608.793 521.922 613.769 521.75 613.718C521.521 613.65 519.371 609.755 516.927 604.96C511.382 594.223 505.848 587.016 492.997 573.765C485.455 565.96 480.563 558.063 466.64 530.797L457.681 513.282L454.708 518.024C453.052 520.65 451.435 523.355 451.155 524.085C450.744 525.047 452.175 527.372 458.674 535.951C468.298 548.716 468.453 549.033 478.134 566.221C482.336 573.71 486.998 581.539 488.561 583.632C492.014 588.389 503.014 601.359 511.483 610.661C514.91 614.461 517.606 617.569 517.512 617.677C516.677 618.174 469.981 571.794 465.604 566.152C461.093 560.334 453.119 542.027 450.161 530.569C449.748 529.022 449.26 527.724 449.03 527.656C448.686 527.554 440.953 539.896 440.563 541.204C440.452 541.577 443.159 545.909 446.651 550.746C468.866 582.039 472.014 588.875 478.021 618.191C482.158 638.271 485.076 656.361 484.158 656.088C484.044 656.053 482.28 650.443 480.258 643.604C477.432 634.219 475.034 628.014 470.43 618.1C467.07 610.93 462.249 600.07 459.775 593.909C455.666 583.804 437.965 547.414 436.99 547.123C436.589 547.004 430.11 556.601 430.38 556.952C431.287 558.307 451.468 590.351 454.446 595.238C459.379 603.419 464.182 614.341 465.9 621.362C466.65 624.297 469.293 634.712 471.874 644.497C474.398 654.266 476.804 663.593 477.199 665.202L477.891 668.121L476.885 666.465C476.325 665.62 472.893 658.903 469.189 651.63C465.542 644.375 458.328 630.226 453.19 620.221C443.456 601.322 439.529 592.492 432.291 573.183C429.968 566.932 427.864 561.627 427.614 561.417C427.422 561.224 425.818 563.255 424.105 565.864L420.998 570.635L428.232 589.331C441.023 622.497 441.654 624.991 443.863 647.141C444.634 654.829 445.817 666.164 446.479 672.328C448.325 689.828 448.419 689.72 444.608 676.517C443.193 671.621 439.11 657.862 435.538 645.951C427.944 620.705 425.38 610.653 421.811 592.233C420.394 584.828 418.981 577.831 418.743 576.743L418.305 574.646L413.443 581.538L408.6 588.368L414.988 606.339C424.249 632.487 424.19 632.266 426.812 662.675C427.762 673.535 428.584 682.729 428.663 683.092C428.761 683.392 428.687 683.642 428.515 683.59C428.056 683.454 413.919 630.903 412.095 622.766C411.222 618.777 409.568 610.284 408.483 603.859C407.399 597.435 406.231 592.341 405.851 592.567C405.168 592.974 398.946 601.291 398.704 602.1C398.612 602.412 401.038 611.88 404.032 623.213C407.103 634.501 409.691 645.102 409.858 646.847C410.025 648.592 410.135 654.727 410.164 660.499C410.194 666.27 410.341 676.891 410.555 684.142C410.788 691.33 410.897 697.464 410.804 697.776C410.73 698.025 410.203 694.342 409.647 689.499C408.185 676.792 406.313 667.352 402.432 652.704C398.612 638.482 396.927 628.623 396.133 615.98C395.808 611.408 395.489 607.448 395.333 607.131C395.176 606.61 387.852 615.48 387.518 616.601C387.444 616.85 388.694 624.816 390.339 634.391C392.81 649.161 393.203 652.872 392.935 659.437C392.742 663.65 392.386 673.443 392.089 681.152C391.849 688.878 391.446 695.266 391.294 695.357C391.142 695.447 391.012 693.578 390.896 691.238C390.67 682.56 389.658 673.377 387.191 656.709C384.807 641.016 384.589 637.764 384.523 620.998C384.535 620.12 379.074 626.088 378.666 627.458C378.592 627.707 380.099 636.698 382.039 647.378C384.339 659.996 385.415 667.707 385.125 669.519C384.928 671.019 384.558 679.181 384.42 687.615C384.224 696.032 383.994 702.675 383.839 702.358C383.041 700.425 379.006 663.018 378.105 649.055C377.534 640.07 377.026 631.919 376.941 630.945C376.755 629.262 376.68 629.307 373.582 632.792L370.465 636.339L372.241 652.394C373.537 663.56 373.955 670.125 373.606 674.022C373.308 677.12 372.854 684.307 372.483 689.959C372.168 695.629 371.845 700.279 371.751 700.386C371.238 700.64 369.473 663.367 369.454 652.106C369.433 645.049 369.248 638.959 369.168 638.597C369.013 638.279 367.858 639.224 366.611 640.683L364.365 643.404L365.296 652.021C366.814 666.847 366.742 671.91 364.737 680.534C363.799 684.73 362.338 692.363 361.58 697.426C360.804 702.551 360.02 706.86 359.811 706.933C359.659 707.024 359.736 700.266 359.95 691.787Z" fill="#145EB4" fill-opacity="0.37"/>
<path d="M162.373 57.3962C185.97 55.971 193.922 55.7204 220.822 55.5557L235.085 55.5037L231.239 51.6596L227.295 47.7935L218.346 47.9208C211.144 48.0333 207.057 47.5182 198.638 45.3047C192.732 43.7628 180.173 40.817 170.712 38.6754C161.154 36.5116 153.449 34.7674 153.688 34.6165C153.808 34.541 160.771 34.5794 169.264 34.6564C186.346 34.8325 203.094 37.3934 215.54 41.7488C219.623 43.1858 222.971 44.2512 223.015 44.0561C223.037 43.9586 222.163 42.838 220.996 41.6511C219.332 39.9416 215.369 38.429 204.653 35.4906C189.224 31.1777 189.495 31.3415 174.924 18.7126C171.162 15.4003 167.969 13.6522 163.106 12.0385C154.624 9.19571 158.107 8.75393 169.443 11.2176C179.511 13.3942 187.59 16.6585 197.133 22.51C201.386 25.0107 204.925 27.0422 205.045 26.9667C205.164 26.8913 202.936 22.6957 200.103 17.5432C195.495 8.91271 179.151 -29.8527 179.891 -30.4029C180.511 -30.8777 201.343 -5.14305 206.486 2.48078C211.501 9.76785 215.872 20.8053 218.151 31.5741C219.321 37.2732 222.886 43.7194 225.129 44.2272C225.714 44.3597 225.256 42.3079 224.128 39.5917C220.606 30.6944 218.927 21.8044 218.732 10.892C218.558 -0.118034 219.307 -16.5585 220.079 -19.9722C220.685 -22.1933 227.635 14.1378 228.752 25.0539C229.159 29.1447 229.577 35.9038 229.527 40.1988L229.605 48.0087L235.93 53.1316C239.487 55.9875 242.396 58.0816 242.463 57.789C242.529 57.4964 240.412 49.6351 237.705 40.3071C234.998 30.9792 232.307 20.2195 231.737 16.3993C230.778 9.31264 229.285 -35.7284 230.101 -36.159C230.459 -36.3854 236.338 -8.90936 241.057 15.5359C242.099 20.8982 243.98 33.4227 245.177 43.5364C247.426 61.6809 248.39 64.6675 252.54 65.8119C253.223 65.9665 252.486 60.1607 251.04 52.9636C247.296 34.1733 247.066 29.3023 248.53 10.153C249.95 -8.80127 249.216 -17.7852 244.388 -39.4866C242.853 -46.2935 241.704 -52.0902 241.771 -52.3828C241.837 -52.6754 243.44 -49.3391 245.332 -45.0147C249.684 -34.8016 252.611 -23.271 254.044 -10.13C254.705 -4.44381 256.522 5.19517 258.039 11.1777C262.045 26.5415 263.082 46.8721 260.917 65.0424L260.164 71.5366L264.48 74.6666C266.946 76.4552 269.132 77.6679 269.469 77.539C269.73 77.2906 268.981 66.5603 267.6 53.6366C264.896 27.0842 264.908 15.7062 267.631 -3.56833C268.68 -10.9182 270.335 -23.6672 271.366 -31.8415C273.502 -48.0704 273.581 -48.8728 274.033 -48.1551C274.184 -47.9159 274.685 -37.4469 275.037 -24.9611C275.389 -12.4752 275.872 2.60346 276.152 8.61359C276.822 25.5803 276.591 45.624 275.445 63.82C274.899 73.0266 274.813 81.107 275.363 81.8468C276.344 83.4017 290.709 93.3181 291.307 92.9409C291.546 92.79 289.476 81.5555 286.72 67.9104C283.943 54.3629 281.23 38.2666 280.657 32.1903C279.741 22.6525 280.719 -46.4366 281.773 -47.0181C282.371 -47.3954 289.663 9.62155 292.589 37.4547C294.064 51.3225 295.583 70.4294 295.892 79.9322C296.46 95.5427 296.745 97.4529 298.812 98.7409C300.067 99.5377 303.712 102.003 307.012 104.186L312.994 108.103L311.717 101.97C310.939 98.6154 308.412 87.5852 305.956 77.5966C298.497 46.6868 297.742 40.0566 297.958 7.39828C298.063 -5.29184 298.102 -20.8674 298.128 -27.321C298.131 -33.6771 298.229 -39.0892 298.468 -39.2401C298.707 -39.391 299.633 -34.8752 300.489 -29.1448C301.367 -23.5119 303.951 -7.75241 306.241 5.68475C312.727 44.064 314.664 59.0617 316.854 86.5231L318.955 112.119L327.177 117.466C331.754 120.348 335.736 122.685 335.998 122.436C336.334 122.307 333.763 106.038 330.316 86.392C324.378 51.9305 324.243 50.2596 324.896 36.0531C325.738 20.5567 324.984 13.9264 318.347 -19.2579C314.082 -40.7294 313.561 -43.4106 313.951 -43.3223C314.147 -43.2781 315.466 -39.5959 316.826 -35.1868C318.306 -30.8531 320.772 -23.6304 322.469 -19.3501C326.613 -8.67148 329.757 2.80582 332.383 16.1142C333.541 22.323 335.24 28.8594 336.132 30.8045C339.347 37.8892 342.837 49.6498 344.654 59.2888C346.733 70.9355 347.076 83.0091 345.839 107.951C345.408 118.004 345.145 126.865 345.359 127.734C345.594 128.505 348.881 131.197 352.722 133.707C359.711 138.16 359.711 138.16 359.514 135.86C359.486 134.623 357.18 117.183 354.548 97.1067C349.747 60.3394 349.46 56.1732 351.077 28.6509C351.347 23.3805 351.783 9.22739 351.95 -2.83338C352.214 -14.8721 352.525 -24.8497 352.862 -24.9785C353.101 -25.1294 353.289 -23.2414 353.419 -20.6485C353.604 -12.4044 356.514 16.8604 358.154 27.2797C359.032 32.9125 361.629 42.7281 363.979 49.1044C372.749 72.4159 373.664 85.1317 370.653 141.457C370.501 144.396 370.997 144.919 377.392 148.827C381.18 151.12 384.448 152.987 384.589 152.814C384.829 152.664 384.608 148.205 384.195 142.78C382.87 126.895 382.197 107.672 382.571 98.3239C382.828 93.5633 384.948 78.7661 387.343 65.4668C391.001 45.6862 391.696 39.8968 391.274 34.0597C390.512 23.8392 386.807 8.9538 381.997 -3.31105C379.634 -9.17757 377.994 -14.1626 378.331 -14.2915C380.244 -15.4987 392.534 9.01985 396.13 21.2148C399.651 33.2902 399.924 41.1442 397.696 58.6852C395.177 78.4161 395.415 86.8774 398.949 98.443C401.433 106.49 400.891 114.775 396.486 136.95L392.39 157.759L402.692 163.885C408.395 167.226 413.428 169.903 413.96 169.819C414.709 169.681 413.869 162.519 407.339 113.466C403.801 86.5201 404.279 75.3499 410.705 32.9217C413.487 15.1985 415.877 0.565084 416.019 0.392099C416.519 -0.00724631 416.573 0.209899 416.814 18.6175C417.043 37.5349 418.685 55.6444 422.435 81.203C428.025 118.559 428.108 122.269 424.417 155.781C423.216 166.07 422.563 174.842 422.789 175.201C423.588 176.202 437.561 183.774 438.137 183.494C438.376 183.344 435.998 164.862 432.952 142.539C426.548 97.0011 426.601 97.2183 427.751 72.6661C428.212 62.9277 428.789 43.1674 428.932 28.9481C429.098 14.6312 429.309 2.37538 429.419 1.88772C429.649 1.32461 430.212 6.98876 430.791 14.3993C433.28 48.6953 436.751 70.4998 441.904 83.97C452.104 110.476 453.613 123.737 451.671 170.359L450.776 191.072L459.153 195.737C463.796 198.326 467.574 200.206 467.618 200.011C467.662 199.816 466.322 193.053 464.782 184.912C460.304 162.572 459.637 155.552 460.104 136.279C460.82 103.222 461.054 101.737 470.489 58.2465C475.915 32.9194 479.157 19.5042 479.256 21.7823C479.325 23.7459 478.506 30.5326 477.408 36.7434C473.866 57.3704 474.63 75.2812 480.213 103.613C484.967 127.451 484.785 148.634 479.804 196.003C478.674 207.333 478.599 207.213 486.07 210.443L489.329 211.898L489.441 202.798C489.428 197.874 489.271 185.432 489.116 175.247C488.618 147.553 489.176 141.015 494.405 113.388C497.008 99.6228 499.913 80.9022 500.752 71.7618C502.356 55.6175 504.379 26.7519 504.259 21.3932C504.276 19.9615 504.497 18.9862 504.723 19.345C505.402 20.4215 507.862 56.6589 507.726 63.6002C507.498 71.8536 508.421 88.1597 510.055 102.679C513.687 136.003 512.637 151.965 503.894 196.022C501.612 207.912 499.795 217.753 499.946 217.993C500.074 218.329 515.866 226.928 516.548 227.083C516.646 227.105 516.182 223.719 515.483 219.562C514.686 215.383 513.784 207.591 513.274 202.144L512.423 192.314L518.782 164.225C525.494 134.575 530.683 117.089 542.516 84.2922C552.364 57.0953 553.312 56.0795 548.618 77.266C544.918 94.0636 544.033 101.143 542.573 124.804C542.014 134.521 531.992 191.925 527.223 212.992C523.138 231.035 523.16 230.938 529.666 234.358C533.887 236.544 535.133 236.929 535.354 235.954C535.508 235.271 535.497 227.168 535.241 217.883C534.894 201.297 534.907 200.787 538.455 186.928C542.607 170.848 544.028 168.197 555.268 156.592C561.835 149.774 581.013 132.994 588.008 127.913L591.303 125.583L588.58 128.555C587.088 130.165 580.312 137.449 573.559 144.635C556.687 162.552 555.093 165.062 552.223 177.742C550.456 185.544 550.026 190.163 550.356 197.312C550.637 205.579 550.268 208.571 546.779 223.981L542.849 241.342L546.53 243.2C548.543 244.271 551.682 245.802 553.403 246.807C555.146 247.714 556.91 248.523 557.203 248.59C557.496 248.656 557.976 245.176 558.22 240.925C558.941 228.682 563.672 209.144 568.189 199.606C573.122 189.137 574.898 187.181 583.529 182.573C592.974 177.534 595.105 176.273 598.533 173.358L601.439 170.94L598.464 174.573C589.993 185.267 584.21 196.774 581.516 208.673C580.368 213.744 576.892 223.211 572.163 234.136C567.939 243.74 564.847 251.961 565.149 252.439C565.85 253.418 599.658 270.299 611.936 275.847C616.028 277.696 619.438 279.391 619.589 279.63C620.042 280.348 607.692 284.627 606.132 284.273C604.962 284.008 551.712 254.729 547.233 251.869C546.151 251.214 545.413 254.021 542.28 270.126C539.566 284.379 537.604 292.137 534.544 300.672C526.253 323.71 525.576 324.89 507.068 347.768C497.694 359.282 489.728 368.655 489.338 368.567C489.046 368.5 489.222 367.72 489.811 366.931C494.929 359.272 514.986 323.21 516.794 318.39C518.077 314.99 520.984 303.959 523.302 293.718C527.078 277.04 528.099 273.888 533.625 261.708C536.952 254.258 539.774 248.13 539.796 248.033C539.885 247.643 530.479 242.54 529.114 242.231C528.431 242.076 518.353 253.534 506.734 267.719C495.137 281.806 482.628 296.302 478.97 299.78C475.17 303.431 462.834 312.634 450.262 321.067C438.07 329.175 420.484 341.188 411.195 347.801C385.666 365.911 384.776 366.222 402.958 351.575C414.514 342.195 424.265 331.279 438.672 311.573C451.028 294.582 459.226 286.903 498.701 255.647L521.561 237.548L515.003 233.91C511.366 231.856 507.264 229.595 505.836 228.656C504.386 227.815 503.109 227.116 502.914 227.072C502.622 227.006 480.656 249.306 469.089 261.452C451.857 279.595 436.895 291.793 425.017 297.614C413.736 303.058 371.644 321.417 370.766 321.218C370.376 321.13 381.947 313.497 396.54 304.291L423.018 287.421L438.617 267.883C456.363 245.653 462.262 240.426 481.614 229.222C487.984 225.538 493.15 222.196 492.923 221.837C492.32 220.88 473.305 210.219 471.473 209.702C469.815 209.326 459.384 222.344 444.539 243.078C436.894 253.754 426.05 266.781 420.159 272.42C417.786 274.753 407.864 282.35 398.149 289.481C388.338 296.59 372.781 308.243 363.576 315.387C340.685 333.172 338.151 334.854 350.495 323.806C362.294 313.354 371.809 301.666 384.859 282.064C397.32 263.251 406.306 253.904 442.625 222.549C453.476 213.112 462.175 205.033 461.97 204.577C461.681 203.589 453.597 198.99 453.075 199.487C451.79 200.632 429.758 223.225 422.079 231.33C409.02 245.086 396.402 256.891 389.571 261.702C386.395 263.956 378.23 268.772 371.372 272.346C353.056 282.144 330.772 294.529 311.757 305.604C302.441 310.98 294.918 315.224 294.984 314.931C295.072 314.541 300.924 310.432 308.145 305.709C324.305 295.014 335.019 284.828 354.515 261.66C366.001 248.061 377.828 238.845 418.88 211.945L445.252 194.64L437.709 190.369C433.531 187.988 429.234 185.683 428.086 185.32C426.57 184.772 423.088 187.47 410.328 199.448C391.342 217.194 390.863 217.496 365.051 235.952C353.804 243.967 342.066 252.793 338.952 255.677C331.866 262.07 312.664 282.125 298.936 297.473C293.326 303.688 288.729 308.594 288.556 308.452C287.726 307.136 355.839 223.204 364.222 215.156C372.867 206.86 400.534 191.079 418.002 184.575C420.359 183.674 422.326 182.683 422.414 182.293C422.547 181.708 402.915 170.599 400.867 170.136C400.282 170.003 393.797 175.097 386.591 181.566C339.939 222.783 329.621 228.957 284.813 243.011C254.122 252.673 226.412 260.036 226.765 258.476C226.81 258.281 235.339 254.572 245.747 250.264C260.023 244.268 269.425 239.424 284.385 230.405C295.204 223.831 311.609 214.319 320.935 209.355C336.229 201.129 391.086 166.691 391.461 165.033C391.616 164.35 376.316 154.94 375.793 155.437C373.769 157.132 325.807 195.079 318.485 200.701C306.224 210.024 289.721 219.515 279.012 223.344C274.536 224.997 258.655 230.835 243.741 236.481C228.848 242.03 214.629 247.321 212.174 248.201L207.721 249.756L210.201 247.857C211.464 246.809 221.577 240.179 232.528 233.02C243.457 225.959 264.761 212.018 279.822 202.099C308.271 183.317 321.611 175.571 350.879 160.87C360.356 156.146 368.388 151.915 368.694 151.472C368.977 151.126 365.722 148.748 361.566 146.27L353.97 141.782L325.646 156.388C275.4 182.232 271.598 183.627 237.567 190.38C225.757 192.731 208.345 196.274 198.879 198.232C172.001 203.733 172.174 203.875 192.272 195.711C199.725 192.682 220.661 183.99 238.783 176.404C277.189 160.286 292.516 154.63 320.686 146.14C332.012 142.758 342.709 139.438 344.371 138.891L347.575 137.873L336.572 130.769L325.667 123.686L298.401 136.789C258.724 155.798 259.061 155.669 212.311 164.259C195.617 167.35 181.484 169.994 180.93 170.177C180.474 170.381 180.083 170.293 180.15 170C180.326 169.22 260.398 138.439 272.823 134.28C278.916 132.276 291.904 128.347 301.742 125.652C311.58 122.958 319.356 120.309 318.979 119.711C318.3 118.635 304.995 109.471 303.727 109.184C303.239 109.074 288.803 114.418 271.531 120.966C254.335 127.634 238.161 133.405 235.48 133.926C232.799 134.447 223.336 135.483 214.428 136.338C205.52 137.192 189.134 138.917 177.957 140.283C166.877 141.67 157.415 142.707 156.927 142.596C156.537 142.508 162.183 141.12 169.619 139.523C189.127 135.326 203.56 130.904 225.883 122.423C247.555 114.103 262.648 109.933 282.108 106.853C289.141 105.677 295.231 104.595 295.709 104.293C296.502 103.96 282.26 93.0461 280.505 92.6486C280.115 92.5603 267.911 95.7443 253.252 99.808C230.634 105.966 224.935 107.137 214.78 107.606C208.26 107.873 193.116 108.649 181.193 109.231C169.248 109.91 159.355 110.131 159.204 109.892C159.053 109.653 161.929 109.176 165.533 108.659C178.913 107.074 193.014 104.114 218.562 97.6967C242.611 91.5551 247.615 90.7397 273.493 88.2931C274.85 88.19 265.229 79.9628 263.083 79.477C262.693 79.3887 248.925 83.1414 232.582 87.8492C213.275 93.4239 201.451 96.284 198.632 96.0559C196.3 95.9382 183.673 96.4631 170.642 97.4095C157.634 98.2583 147.36 98.8033 147.839 98.5015C150.763 96.9078 208.21 84.9978 229.7 81.5576C243.527 79.3563 256.074 77.3776 257.572 77.1015C260.155 76.5585 260.08 76.4389 254.469 71.7852L248.76 67.1094L224.107 72.2942C206.966 76.001 196.861 77.6097 190.82 77.5749C186.015 77.5125 174.885 77.7614 166.131 77.9328C157.355 78.2018 150.153 78.3143 149.98 78.1726C149.549 77.3574 206.96 69.2327 224.342 67.6311C235.237 66.6112 244.623 65.4552 245.177 65.273C245.656 64.9712 244.112 63.1863 241.765 61.3222L237.397 57.975L224.164 60.7211C201.389 65.3059 193.567 65.8932 180.104 63.7682C173.556 62.7986 161.663 61.4391 153.79 60.8873C145.82 60.3135 139.109 59.6144 138.98 59.2777C138.829 59.0385 149.267 58.2229 162.373 57.3962Z" fill="#145EB4" fill-opacity="0.38"/>
<path d="M600.381 140.778C598.592 144.474 595.426 149.532 592.729 153.193C588.133 159.335 578.996 168.928 575.928 170.911C571.44 173.716 565.279 175.037 558.205 174.738C552.382 174.431 541.415 172.143 538.71 170.591C537.532 169.893 537.865 169.648 542.024 168.21C554.361 163.923 562.719 157.032 573.045 142.863C579.258 134.3 579.421 132.824 573.271 140.942C566.066 150.438 562.073 154.491 555.894 158.38C546.217 164.603 536.743 167.843 532.034 166.634C528.67 165.771 528.577 164.955 531.185 159.556C535.52 150.445 538.961 146.711 552.394 136.572C555.604 134.098 559.718 130.537 561.517 128.624C564.844 125.059 564.844 125.059 567.05 117.182C568.246 112.806 569.506 107.523 569.846 105.433C570.382 102.207 570.144 102.805 568.127 109.345C563.914 123.501 561.27 126.977 547.144 137.467C542.401 140.932 536.902 145.194 534.911 146.859C530.543 150.619 524.624 157.477 524.022 159.565C523.775 160.424 523.317 161.099 523.073 161.036C522.217 160.816 512.729 153.17 508.414 149.226C505.416 146.411 504.415 145.099 504.446 143.853C504.513 142.024 506.983 136.194 512.117 125.903C515.007 119.982 515.749 117.864 518.109 108.312C522.501 90.5746 522.731 87.2697 518.589 101.18C516.694 107.751 513.655 116.469 511.944 120.581C509.183 127.194 504.139 136.717 501.573 140.148C500.712 141.312 500.171 140.909 483.349 127.488L465.987 113.664L470.325 98.6178C474.274 84.9222 474.666 83.1098 474.886 77.5598C474.994 74.2235 474.908 71.5628 474.75 71.6542C474.531 71.7299 473.961 74.6178 473.372 78.0284C471.557 89.1058 464.75 107.476 461.832 109.168C461.201 109.533 417.304 71.5504 416.994 70.3493C416.855 69.918 416.895 68.4113 417.119 66.9516C417.784 61.9114 417.234 51.7442 416.095 47.4941C414.766 42.5356 412.495 36.7417 410.176 32.2547L408.474 29.0473L410.136 33.7615C412.708 41.0177 414.779 48.871 414.978 51.8245C415.078 53.3013 414.566 57.1275 413.828 60.3681C412.735 65.2985 412.426 66.1426 411.763 65.7085C409.6 64.0978 373.393 35.2126 372.015 34.0674C371.196 33.2634 370.681 32.9993 370.881 33.4463C371.159 33.8476 384.075 46.4636 399.605 61.4001C415.179 76.4137 428.531 89.3396 429.35 90.1436L430.805 91.7044L424.352 93.8077C403.882 100.558 391.497 103.645 386.077 103.308C375.419 102.683 375.48 102.699 382.173 104.087C385.634 104.844 390.258 105.437 392.497 105.418C400.122 105.397 414.107 102.457 429.288 97.6473C433.333 96.377 437.027 95.4124 437.394 95.5066C438.25 95.7264 475.923 130.463 475.799 130.893C475.675 131.323 462.681 138.343 455.594 141.734C448.096 145.416 434.933 150.744 427.701 153.043C424.935 153.982 413.163 156.764 401.584 159.333C390.005 161.901 380.728 164.005 380.894 164.113C382.405 164.567 413.386 160.318 420.764 158.65C436.597 154.997 455.327 148.13 472.918 139.519L481.625 135.291L490.466 142.903C495.374 147.065 501.347 152.094 503.771 154.168L508.174 157.805L505.777 160.422C502.011 164.6 491.88 173.08 483.393 179.279C461.815 195.111 441.968 206.308 426.637 211.409C420.745 213.392 425.033 212.646 432.929 210.32C454.726 203.977 467.336 196.924 494.389 175.769C508.631 164.65 511.681 162.729 514.188 163.372C515.778 163.781 525.013 171.164 526.405 173.171C526.832 173.742 525.539 175.719 521.832 180.374C519.048 183.88 511.756 193.222 505.755 201.048C499.676 208.92 493.606 216.53 492.254 218.03C486.978 223.799 469.678 239.146 462.681 244.276C462.19 244.612 461.962 244.949 462.145 244.996C462.696 245.137 477.933 234.208 485.502 228.235C498.253 218.185 505.969 209.876 522.266 188.664C527.098 182.385 530.049 178.987 530.213 179.557C530.66 181.651 530.37 191.998 529.613 198.268C528.684 206.274 525.952 214.61 521.79 221.984C520.302 224.637 519.166 226.983 519.253 227.138C519.557 227.677 527.347 215.694 529.496 211.43C531.962 206.522 534.247 196.093 534.59 188.068C534.879 180.689 535.045 180.797 537.737 191.053C541.17 204.203 542.518 216.158 541.51 224.211C540.889 229.328 537.351 238.182 534.619 241.504C532.081 244.612 525.446 248.714 516.153 252.924C505.887 257.544 477.574 268.943 473.127 270.242C463.69 272.898 453.913 273.093 442.684 270.804C422.663 266.654 402.381 254.983 379.55 234.61C371.138 227.108 356.473 212.13 356.721 211.27C356.792 211.024 357.632 210.844 358.664 210.911C364.033 210.97 377.986 209.737 383.429 208.628C390.255 207.28 395.256 205.2 409.492 197.971C414.573 195.384 423.281 191.155 428.869 188.632C445.275 181.168 453.132 175.336 454.796 169.563C455.77 166.185 455.033 164.413 452.403 163.738C446.532 162.23 433.527 167.467 405.865 182.529C386.045 193.403 370.238 197.195 354.514 195.005C337.347 192.577 327.681 180.993 322.128 156.283C321.087 151.464 319.208 136.339 319.545 135.172C319.633 134.865 321.842 136.091 324.494 137.827C330.941 142.121 338.852 145.669 343.476 146.262C349.848 147.172 359.743 145.887 385.244 140.824C399.535 137.963 414.704 131.369 417.94 126.527C419.329 124.443 419.339 124.182 418.355 122.808C417.798 122.006 416.962 121.263 416.533 121.153C413.965 120.494 404.229 121.226 392.338 123.055C376.615 125.417 373.719 125.663 367.083 125.213C355.551 124.429 344.876 121.359 336.035 116.253C330.458 113.04 327.906 110.274 326.714 106.208C324.355 98.215 326.034 88.2903 333.304 67.8617C339.16 51.4237 339.826 48.4286 341.261 30.9216C342.439 17.0422 343.727 11.4364 346.093 10.0649C347.021 9.57776 353.942 8.58408 361.501 7.88594C375.935 6.57831 380.258 5.70928 398.097 0.790644C410.589 -2.66469 419.592 -4.04716 424.487 -3.25243C427.249 -2.80726 428.646 -2.18479 431.393 -0.0943471C433.347 1.33069 435.256 3.13991 435.769 3.86535C436.978 5.82465 438.41 13.8437 439.651 26.1674C440.909 38.891 442.147 45.0792 444.108 49.2106C445.671 52.4481 447.818 53.6589 450.095 52.5945C451.917 51.743 453.197 45.9372 453.933 35.6384C454.689 24.8169 454 19.2313 450.143 7.09367C448.172 0.717096 447.794 -1.16092 448.59 -1.41812C452.205 -2.33701 470.842 -2.49989 479.19 -1.61001C486.542 -0.90992 489.232 0.242209 492.157 3.76368C497.774 10.4825 502.12 30.2651 502.803 52.2735C503.424 74.2661 503.91 77.8208 506.34 80.5555C510.46 85.175 516.196 75.7637 519.552 58.882C521.885 47.1461 522.161 35.9376 520.598 15.6161L520.194 11.0931L523.006 12.2766C530.166 15.2361 543.251 22.0251 547.605 24.9237C559.548 32.9368 572.105 45.6586 582.224 59.9976C588.811 69.2741 598.353 86.3009 601.246 94.0356C603.924 100.923 606.062 111.96 605.962 118.003C605.902 122.539 602.451 136.56 600.381 140.778Z" fill="#1F8429" fill-opacity="0.61"/>
<path d="M506.617 297.944C510.767 300.001 516.427 303.623 520.512 306.701C527.365 311.944 538.017 322.337 540.187 325.811C543.255 330.892 544.592 337.838 544.066 345.79C543.563 352.335 540.676 364.641 538.843 367.665C538.019 368.982 537.75 368.604 536.226 363.909C531.684 349.982 524.081 340.498 508.264 328.713C498.705 321.622 497.034 321.421 506.089 328.436C516.681 336.654 521.179 341.195 525.431 348.191C532.241 359.15 535.671 369.844 534.174 375.125C533.105 378.898 532.177 378.993 526.115 375.995C515.884 371.009 511.735 367.094 500.577 351.863C497.852 348.223 493.917 343.553 491.793 341.506C487.832 337.721 487.832 337.721 478.947 335.145C474.009 333.747 468.044 332.265 465.68 331.857C462.031 331.215 462.704 331.491 470.077 333.838C486.039 338.748 489.917 341.765 501.454 357.778C505.264 363.155 509.958 369.39 511.796 371.65C515.95 376.608 523.581 383.348 525.936 384.05C526.906 384.339 527.659 384.862 527.581 385.136C527.309 386.096 518.377 396.674 513.785 401.479C510.51 404.817 508.993 405.927 507.58 405.877C505.504 405.779 498.95 402.931 487.4 397.031C480.754 393.71 478.369 392.85 467.585 390.08C447.56 384.925 443.814 384.626 459.499 389.453C466.91 391.664 476.729 395.188 481.353 397.162C488.789 400.347 499.469 406.136 503.297 409.063C504.596 410.046 504.124 410.649 488.442 429.405L472.288 448.764L455.317 443.703C439.871 439.095 437.823 438.633 431.527 438.318C427.742 438.156 424.719 438.221 424.818 438.4C424.898 438.647 428.162 439.323 432.02 440.027C444.55 442.202 465.229 450.081 467.073 453.383C467.471 454.097 423.186 503.006 421.814 503.341C421.32 503.491 419.611 503.428 417.959 503.158C412.254 502.349 400.695 502.844 395.839 504.074C390.174 505.509 383.535 507.992 378.379 510.546L374.692 512.422L380.089 510.61C388.396 507.805 397.368 505.572 400.726 505.383C402.406 505.289 406.737 505.911 410.397 506.78C415.966 508.069 416.917 508.427 416.406 509.167C414.52 511.58 380.768 551.951 379.431 553.487C378.497 554.398 378.183 554.974 378.696 554.755C379.159 554.447 393.825 540.074 411.194 522.788C428.652 505.455 443.681 490.595 444.615 489.684L446.426 488.066L448.644 495.349C455.768 518.453 458.947 532.419 458.422 538.512C457.431 550.491 457.45 550.422 459.204 542.911C460.154 539.028 460.949 533.835 460.987 531.317C461.164 522.74 458.194 506.976 453.134 489.844C451.798 485.28 450.8 481.114 450.917 480.702C451.189 479.742 491.624 437.793 492.108 437.938C492.593 438.083 500.222 452.781 503.886 460.793C507.869 469.271 513.571 484.139 515.991 492.3C516.984 495.423 519.833 508.697 522.444 521.75C525.055 534.804 527.199 545.263 527.326 545.078C527.882 543.384 523.873 508.488 522.174 500.17C518.444 482.32 511.141 461.171 501.828 441.283L497.256 431.439L506.132 421.589C510.988 416.118 516.856 409.462 519.274 406.761L523.52 401.853L526.428 404.58C531.072 408.867 540.435 420.363 547.249 429.984C564.657 454.444 576.847 476.901 582.235 494.205C584.332 500.856 583.597 496.025 581.164 487.116C574.536 462.524 566.861 448.257 543.554 417.574C531.304 401.423 529.203 397.969 530 395.157C530.505 393.373 539.133 383.077 541.448 381.535C542.107 381.062 544.318 382.54 549.506 386.766C553.414 389.94 563.829 398.254 572.557 405.097C581.334 412.03 589.816 418.949 591.483 420.488C597.894 426.492 614.864 446.134 620.505 454.065C620.873 454.622 621.249 454.883 621.308 454.677C621.483 454.06 609.475 436.79 602.893 428.206C591.817 413.743 582.586 404.964 558.931 386.378C551.929 380.867 548.148 377.508 548.799 377.33C551.188 376.853 562.93 377.305 570.029 378.232C579.096 379.374 588.488 382.547 596.752 387.318C599.724 389.023 602.359 390.33 602.536 390.234C603.157 389.898 589.755 380.991 584.971 378.522C579.464 375.69 567.682 372.994 558.579 372.51C550.208 372.096 550.335 371.911 562.051 369.008C577.073 365.305 590.683 363.934 599.799 365.166C605.594 365.927 615.553 370.013 619.254 373.126C622.716 376.018 627.198 383.529 631.734 394.033C636.709 405.634 648.905 437.615 650.263 442.632C653.03 453.278 652.993 464.277 650.098 476.878C644.858 499.344 631.071 522.013 607.337 547.443C598.597 556.813 581.203 573.125 580.234 572.836C579.957 572.753 579.774 571.806 579.878 570.646C580.086 564.608 579.054 548.901 577.938 542.766C576.588 535.073 574.357 529.423 566.525 513.324C563.721 507.578 559.149 497.734 556.431 491.418C548.39 472.876 541.974 463.97 535.463 462.028C531.653 460.892 529.622 461.699 528.786 464.649C526.919 471.234 532.522 485.924 548.895 517.216C560.72 539.639 564.608 557.462 561.707 575.121C558.497 594.398 545.089 605.129 516.886 611.074C511.387 612.187 494.163 614.117 492.847 613.724C492.501 613.621 493.952 611.152 495.993 608.19C501.038 600.991 505.275 592.138 506.071 586.944C507.272 579.789 506.074 568.645 500.998 539.903C498.125 523.796 491.039 506.655 485.626 502.958C483.296 501.37 483 501.356 481.414 502.445C480.488 503.062 479.623 503.994 479.487 504.474C478.67 507.355 479.246 518.314 481.008 531.709C483.276 549.421 483.479 552.681 482.793 560.138C481.599 573.098 477.831 585.068 471.8 594.949C468.006 601.182 464.798 604.019 460.149 605.31C451.011 607.867 439.786 605.858 416.782 597.434C398.272 590.648 394.889 589.863 375.048 588.036C359.32 586.544 352.989 585.028 351.494 582.35C350.965 581.299 350.02 573.504 349.426 564.995C348.322 548.746 347.449 543.873 342.335 523.749C338.741 509.659 337.408 499.516 338.44 494.021C339.018 490.92 339.762 489.357 342.208 486.292C343.877 484.112 345.982 481.987 346.819 481.419C349.076 480.083 358.219 478.57 372.245 477.323C386.725 476.062 393.784 474.746 398.527 472.589C402.244 470.871 403.675 468.471 402.527 465.897C401.608 463.838 395.049 462.328 383.375 461.375C371.108 460.394 364.747 461.101 350.864 465.292C343.571 467.431 341.429 467.834 341.158 466.935C340.21 462.858 340.516 441.896 341.747 432.518C342.736 424.258 344.115 421.247 348.191 417.999C355.967 411.764 378.544 407.116 403.552 406.615C428.54 406.182 432.589 405.679 435.758 402.979C441.112 398.401 430.577 391.837 411.497 387.857C398.233 385.091 385.514 384.645 362.398 386.157L357.252 386.556L358.67 383.408C362.219 375.391 370.273 360.757 373.679 355.896C383.092 342.561 397.868 328.593 414.416 317.385C425.123 310.09 444.708 299.565 453.567 296.405C461.458 293.476 474.046 291.205 480.905 291.391C486.053 291.513 501.883 295.565 506.617 297.944Z" fill="#1F8429" fill-opacity="0.47"/>
</svg>
