<svg width="825" height="464" viewBox="0 0 825 464" fill="none" xmlns="http://www.w3.org/2000/svg">
<path d="M261.403 93.9801C279.823 108.797 285.876 113.96 305.893 131.932L316.483 141.487L316.222 136.055L315.904 130.542L309.196 124.617C303.791 119.856 301.113 116.725 296.372 109.425C293.039 104.312 285.726 93.684 280.166 85.7359C274.548 77.7058 270.02 71.2325 270.298 71.2818C270.437 71.3064 275.565 76.0185 281.797 81.7877C294.32 93.408 304.991 106.568 311.271 118.162C313.326 121.972 315.087 125.012 315.25 124.897C315.332 124.84 315.439 123.423 315.374 121.759C315.293 119.375 313.377 115.59 307.424 106.208C298.908 92.6392 298.998 92.9424 296.71 73.7963C296.154 68.8152 294.967 65.3741 292.453 60.9085C288.089 53.1 290.964 55.1161 297.695 64.5638C303.681 72.9463 307.464 80.7956 310.59 91.5448C312.055 96.2558 313.308 100.139 313.447 100.164C313.586 100.189 314.759 95.5848 316.129 89.867C318.524 80.381 332.503 40.7014 333.421 40.7918C334.199 40.8575 332.305 73.913 330.984 83.0143C329.793 91.7797 325.604 102.887 320.047 112.389C317.079 117.393 315.382 124.561 316.7 126.446C317.044 126.937 318.085 125.111 319.077 122.342C322.455 113.389 327.192 105.681 334.387 97.4747C341.665 89.2107 353.276 77.5482 356.144 75.5419C358.086 74.3054 338.792 105.865 332.277 114.694C329.827 117.995 325.59 123.278 322.664 126.423L317.468 132.254L318.703 140.3C319.415 144.806 320.159 148.312 320.405 148.14C320.651 147.968 324.372 140.727 328.643 132.004C332.914 123.28 338.159 113.508 340.307 110.297C344.364 104.408 373.555 70.0745 374.447 70.3041C374.865 70.378 360.735 94.6641 347.785 115.928C344.949 120.596 337.917 131.13 332 139.419C321.46 154.358 320.165 157.217 322.466 160.855C322.867 161.429 326.227 156.637 329.997 150.338C339.866 133.916 342.972 130.156 356.935 116.971C370.735 103.9 376.234 96.7576 387.258 77.4515C390.701 71.382 393.75 66.32 393.996 66.148C394.241 65.9761 393.184 69.5231 391.675 73.9956C388.026 84.4807 382.436 94.9817 374.658 105.67C371.323 110.323 366.184 118.677 363.282 124.124C355.913 138.189 343.006 153.93 329.182 165.92L324.257 170.22L325.345 175.438C325.967 178.421 326.769 180.788 327.105 180.92C327.465 180.911 334.128 172.467 341.799 161.975C357.658 140.507 365.32 132.096 380.299 119.665C386.019 114.931 395.819 106.61 402.079 101.254C414.576 90.6818 415.174 90.1413 415.026 90.9768C414.977 91.2554 408.306 99.3392 400.168 108.815C392.031 118.292 382.246 129.774 378.41 134.41C367.495 147.416 353.842 162.093 340.755 174.787C334.158 181.233 328.66 187.154 328.569 188.072C328.249 189.882 332.21 206.883 332.906 207.006C333.184 207.055 339.209 197.349 346.347 185.398C353.404 173.505 362.223 159.769 365.887 154.887C371.624 147.213 418.818 96.7453 419.989 97.0242C420.685 97.1473 387.731 144.244 371.176 166.809C362.939 178.063 351.211 193.223 345.049 200.463C334.969 212.397 333.895 214.002 334.558 216.345C334.951 217.779 335.99 222.056 336.964 225.89L338.756 232.813L341.936 227.415C343.616 224.409 349.165 214.547 354.067 205.504C369.337 177.614 373.238 172.2 395.365 148.178C403.977 138.858 414.483 127.359 418.843 122.6C423.121 117.899 426.833 113.96 427.111 114.009C427.39 114.058 425.038 118.023 421.817 122.839C418.678 127.598 409.99 140.998 402.646 152.481C381.632 185.244 372.977 197.645 356.127 219.44L340.466 239.793L342.954 249.281C344.402 254.492 345.777 258.899 346.138 258.891C346.474 259.023 355.514 245.254 366.177 228.397C384.962 198.902 385.987 197.575 396.025 187.501C407.071 176.601 410.973 171.187 428.381 142.166C439.668 123.409 441.086 121.075 441.315 121.402C441.43 121.566 439.929 125.179 437.97 129.356C436.15 133.558 433.117 140.562 431.494 144.871C427.378 155.56 421.984 166.168 414.977 177.783C411.657 183.156 408.518 189.135 407.87 191.175C405.484 198.58 400.156 209.63 395.017 217.985C388.722 228.002 380.855 237.167 363.163 254.792C356.082 261.942 349.928 268.322 349.502 269.108C349.158 269.837 349.779 274.04 350.933 278.481C353.11 286.477 353.11 286.477 354.511 284.642C355.322 283.709 365.346 269.252 376.902 252.625C398.08 222.188 400.669 218.912 420.377 199.633C424.122 195.915 433.964 185.735 442.2 176.922C450.493 168.191 457.434 161.017 457.77 161.148C458.048 161.197 456.917 162.721 455.27 164.727C449.862 170.952 432.331 194.566 426.537 203.379C423.398 208.138 418.717 217.148 416.168 223.447C406.978 246.596 399.102 256.621 358.989 296.277C356.899 298.349 356.916 299.07 359.019 306.263C360.279 310.507 361.442 314.087 361.663 314.055C361.941 314.104 364.777 310.656 368.121 306.364C377.824 293.718 390.256 279.041 396.82 272.374C400.212 269.024 411.734 259.5 422.452 251.27C438.463 239.093 442.871 235.276 446.486 230.673C452.796 222.597 460.066 209.09 464.756 196.779C466.953 190.848 469.093 186.056 469.429 186.187C471.657 186.581 464.26 212.991 458.718 224.434C453.202 235.738 448.121 241.733 434.674 253.215C419.539 266.122 414.024 272.543 408.859 283.478C405.285 291.104 399.311 296.87 381.137 310.316L364.11 322.96L367.613 334.423C369.585 340.731 371.509 346.098 371.959 346.393C372.606 346.794 376.803 340.93 404.963 300.239C420.469 277.919 428.336 269.975 461.63 242.9C475.609 231.656 487.22 222.435 487.441 222.402C488.08 222.444 487.974 222.64 475.771 236.424C463.217 250.577 452.251 265.083 437.835 286.518C416.845 317.921 414.411 320.722 389.14 343.039C381.33 349.844 374.947 355.897 374.873 356.315C374.791 357.592 380.038 372.594 380.652 372.775C380.931 372.824 391.601 357.548 404.362 338.98C430.253 300.975 430.146 301.172 447.511 283.776C454.402 276.88 468.12 262.646 477.79 252.22C487.542 241.736 495.942 232.809 496.352 232.523C496.901 232.261 493.508 236.831 488.951 242.703C467.725 269.757 455.628 288.227 450.381 301.661C440.1 328.135 432.298 338.963 399.503 372.157L384.908 386.883L387.969 395.969C389.664 401.008 391.195 404.941 391.358 404.826C391.522 404.711 395.079 398.806 399.415 391.745C411.128 372.202 415.357 366.558 428.665 352.611C451.43 328.63 452.602 327.688 488.836 301.852C509.886 286.76 521.308 279.013 519.85 280.766C518.579 282.265 513.409 286.736 508.419 290.593C491.924 303.475 480.442 317.243 465.517 341.963C453.001 362.801 438.619 378.354 403.072 410.056C394.615 417.681 394.64 417.541 397.997 424.956L399.429 428.226L405.633 421.567C408.935 417.914 417.188 408.602 423.924 400.96C442.182 380.133 446.993 375.669 469.444 358.742C480.629 350.307 495.371 338.408 502.139 332.208C514.185 321.341 535.098 301.341 538.614 297.295C539.589 296.247 540.408 295.673 540.334 296.091C540.113 297.345 517.559 325.815 512.79 330.86C507.07 336.814 496.785 349.501 488.229 361.344C468.502 388.447 456.989 399.553 420.886 426.274C411.2 433.538 403.235 439.598 403.186 439.876C403.055 440.212 408.957 457.196 409.358 457.77C409.415 457.852 411.35 455.034 413.628 451.488C415.849 447.859 420.422 441.487 423.709 437.113L429.691 429.266L453.29 412.758C478.2 395.331 493.801 385.882 524.617 369.572C550.197 356.07 551.581 355.956 533.858 368.477C519.822 378.418 514.405 383.062 497.409 399.589C490.46 406.403 444.434 442.141 426.735 454.523C411.576 465.127 411.658 465.07 414.171 471.977C415.825 476.434 416.488 477.556 417.307 476.983C417.881 476.582 423.322 470.579 429.378 463.535C440.278 451.028 440.63 450.66 452.577 442.79C466.465 433.685 469.3 432.678 485.423 431.65C494.869 431.022 520.347 431.505 528.94 432.449L532.946 432.942L528.932 433.309C526.745 433.497 516.832 434.33 507.001 435.105C482.464 437.015 479.597 437.801 468.944 445.253C462.389 449.839 458.964 452.967 454.399 458.479C449.048 464.786 446.762 466.751 433.815 475.808L419.23 486.012L420.703 489.862C421.473 492.009 422.766 495.254 423.364 497.154C424.043 498.998 424.805 500.784 424.977 501.03C425.149 501.276 427.844 499.024 430.885 496.042C439.653 487.468 456.295 476.192 466.053 472.172C476.745 467.743 479.375 467.49 488.861 469.885C499.24 472.509 501.665 473.01 506.162 473.158L509.939 473.323L505.294 474.01C491.833 476.226 479.814 480.852 469.817 487.845C465.556 490.826 456.617 495.493 445.769 500.397C436.183 504.662 428.366 508.666 428.267 509.223C428.128 510.419 441.791 545.65 447.145 558.014C448.93 562.135 450.313 565.683 450.264 565.961C450.116 566.797 438.1 561.657 437.182 560.346C436.495 559.362 416.784 501.88 415.393 496.751C415.033 495.538 412.599 497.119 399.448 506.929C387.853 515.651 381.183 520.073 373.178 524.33C351.547 535.801 350.252 536.219 321.168 540.7C306.487 542.916 294.288 544.493 294.059 544.166C293.887 543.92 294.543 543.461 295.509 543.273C304.448 541.047 343.545 527.853 348.126 525.503C351.362 523.849 360.932 517.642 369.536 511.623C383.548 501.821 386.424 500.175 398.706 494.878C406.178 491.603 412.388 488.967 412.47 488.91C412.798 488.681 409.27 478.578 408.468 477.431C408.066 476.858 392.902 478.557 374.763 481.239C356.707 483.864 337.7 486.177 332.653 486.29C327.386 486.436 312.066 484.949 297.091 482.732C282.616 480.533 261.522 477.594 250.201 476.239C219.128 472.47 218.26 472.101 241.567 473.492C256.427 474.324 270.985 472.804 294.9 467.912C315.472 463.65 326.704 463.481 376.938 466.903L406.029 468.886L403.622 461.782C402.313 457.817 400.798 453.385 400.373 451.73C399.865 450.132 399.391 448.755 399.276 448.592C399.104 448.346 367.85 450.074 351.121 451.281C326.166 453.117 306.89 452.08 294.185 448.398C282.176 444.839 238.679 430.113 238.163 429.375C237.934 429.047 251.631 431.181 268.621 434.185L299.562 439.51L324.246 435.544C352.331 431.03 360.212 431.131 382.068 435.856C389.26 437.414 395.33 438.416 395.404 437.998C395.601 436.884 388.701 416.204 387.694 414.59C386.719 413.197 370.244 415.814 345.313 421.173C332.475 423.93 315.688 426.276 307.537 426.487C304.21 426.617 291.758 425.565 279.773 424.308C267.731 422.969 248.381 421.128 236.765 420.224C207.863 417.987 204.857 417.528 221.421 417.655C237.183 417.857 252.086 415.608 274.928 409.88C296.803 404.34 309.739 403.467 357.704 404.693C372.082 405.009 383.953 404.881 384.108 404.406C384.559 403.48 381.67 394.64 380.949 394.656C379.228 394.639 347.728 396.539 336.595 397.372C317.678 398.767 300.401 399.016 292.11 397.981C288.244 397.513 278.962 395.585 271.483 393.617C251.34 388.548 226.519 382.725 204.999 378.131C194.489 375.842 186.068 373.923 186.314 373.751C186.641 373.522 193.736 374.417 202.255 375.779C221.408 378.734 236.187 378.402 266.197 374.372C283.844 372.034 298.794 373.169 347.266 380.875L378.42 385.808L375.711 377.574C374.221 373.002 372.592 368.406 371.986 367.365C371.233 365.939 366.842 365.594 349.343 365.876C323.357 366.237 322.8 366.138 291.285 362.435C277.572 360.8 262.949 359.436 258.705 359.476C249.161 359.441 221.462 361.366 200.981 363.49C192.649 364.315 185.947 364.854 185.915 364.633C186.186 363.101 293.043 346.804 304.659 346.488C316.637 346.164 347.725 353.095 365.025 360.031C367.376 360.949 369.497 361.54 369.825 361.31C370.317 360.966 363.261 339.541 362.057 337.821C361.713 337.329 353.489 336.737 343.805 336.677C281.56 335.799 269.772 333.428 227.161 313.688C197.951 300.195 172.494 287.007 173.805 286.089C173.968 285.975 182.774 288.967 193.374 292.78C207.971 297.945 218.186 300.684 235.324 304.073C247.751 306.485 266.289 310.48 276.528 313.08C293.379 317.279 357.136 328.693 358.529 327.719C359.103 327.317 354.111 310.063 353.39 310.079C350.752 309.972 289.737 305.793 280.537 305.028C265.193 303.68 246.598 299.603 236.096 295.234C231.673 293.446 215.995 287.085 201.16 281.231C186.407 275.32 172.326 269.672 169.918 268.671L165.577 266.827L168.69 267.09C170.328 267.164 182.272 269.06 195.191 271.128C208.028 273.254 233.169 277.267 250.986 280.058C284.671 285.294 299.753 288.534 331.299 297.342C341.489 300.22 350.279 302.492 350.803 302.369C351.246 302.304 350.436 298.355 349.028 293.726L346.425 285.295L315.641 277.053C261.076 262.381 257.324 260.857 227.6 242.964C217.279 236.76 202.011 227.67 193.689 222.752C170.099 208.745 170.132 208.966 190.496 216.443C198.049 219.214 219.387 226.864 237.9 233.439C277.162 247.345 292.308 253.469 318.864 266.134C329.52 271.249 339.669 275.987 341.266 276.7L344.322 278.102L340.958 265.444L337.652 252.868L308.662 244.225C266.516 231.604 266.852 231.736 226.479 206.647C212.047 197.705 199.81 190.157 199.278 189.919C198.803 189.763 198.573 189.435 198.819 189.263C199.475 188.805 279.431 219.885 291.423 225.164C297.28 227.779 309.534 233.608 318.626 238.231C327.718 242.854 335.254 246.125 335.377 245.428C335.599 244.175 331.917 228.445 331.171 227.379C330.885 226.97 316.607 221.215 299.422 214.443C282.212 207.81 266.361 201.203 264.027 199.785C261.692 198.367 253.993 192.769 246.827 187.409C239.66 182.05 226.375 172.305 217.185 165.798C208.052 159.372 200.353 153.775 200.066 153.365C199.837 153.037 204.948 155.808 211.526 159.627C228.784 169.643 242.439 176.078 264.662 184.818C286.295 193.237 300.27 200.303 316.741 211.113C322.737 214.974 327.971 218.269 328.528 218.367C329.339 218.654 326.141 200.999 325.109 199.524C324.88 199.196 313.707 193.343 300.126 186.491C279.247 175.835 274.242 172.868 266.412 166.385C261.408 162.198 249.679 152.585 240.465 144.996C231.169 137.464 223.7 130.974 223.749 130.695C223.798 130.417 226.247 131.999 229.261 134.04C240.228 141.866 252.654 149.161 275.876 161.596C297.803 173.227 302.054 175.989 322.85 191.585C323.923 192.421 322.337 179.861 321.076 178.059C320.847 177.731 308.134 171.247 292.874 163.739C274.837 154.878 264.164 149.042 262.232 146.977C260.585 145.321 250.888 137.216 240.609 129.152C230.412 121.03 222.443 114.523 223 114.622C226.235 115.409 276.757 145.236 294.973 157.144C306.686 164.816 317.301 171.791 318.596 172.594C320.873 173.93 320.897 173.79 319.875 166.573L318.796 159.273L297.065 146.528C281.888 137.741 273.328 132.135 268.881 128.046C265.367 124.768 256.964 117.466 250.371 111.705C243.696 106.001 238.29 101.24 238.258 101.019C238.487 100.126 286.436 132.729 300.376 143.235C309.124 149.808 316.847 155.266 317.38 155.504C317.937 155.603 317.995 153.243 317.512 150.286L316.531 144.87L304.892 138.002C284.955 126.076 278.771 121.249 270.238 110.621C266.045 105.5 258.158 96.4942 252.704 90.7908C247.192 85.0055 242.696 79.9741 242.827 79.6382C242.876 79.3597 251.149 85.7767 261.403 93.9801Z" fill="#145EB4" fill-opacity="0.58"/>
<path d="M56.2052 359.97C71.4695 360.4 76.6064 360.682 93.9648 362.048L103.168 362.793L100.799 360.276L98.3681 357.741L92.5914 357.33C87.9416 357.005 85.3201 356.473 79.9537 354.686C76.1892 353.439 68.1732 350.986 62.1328 349.186C56.0301 347.366 51.1105 345.899 51.2693 345.822C51.3486 345.783 55.8397 346.185 61.316 346.694C72.3311 347.73 83.0603 350.179 90.9615 353.472C93.5537 354.557 95.682 355.379 95.7162 355.264C95.7333 355.206 95.2022 354.486 94.4842 353.71C93.4611 352.593 90.9482 351.469 84.1214 349.122C74.2946 345.692 74.4643 345.806 65.434 337.431C63.1043 335.237 61.0958 334.014 58.0054 332.78C52.617 330.612 54.8772 330.536 62.1179 332.633C68.549 334.487 73.6651 336.887 79.6504 340.92C82.3208 342.652 84.5442 344.065 84.6236 344.026C84.703 343.987 83.388 341.347 81.7117 338.1C78.9916 332.667 69.5823 308.505 70.0757 308.215C70.4896 307.964 83.1754 324.548 86.2704 329.405C89.2923 334.052 91.7889 340.917 92.9436 347.506C93.5319 350.991 95.6429 355.055 97.0752 355.482C97.4488 355.593 97.2132 354.336 96.5649 352.644C94.553 347.111 93.7303 341.683 93.9236 335.121C94.134 328.502 95.098 318.673 95.6965 316.666C96.152 315.365 99.572 337.554 99.9734 344.168C100.116 346.646 100.188 350.727 100.03 353.303L99.8517 357.996L103.782 361.415C105.993 363.324 107.809 364.739 107.86 364.567C107.911 364.395 106.776 359.56 105.303 353.813C103.829 348.066 102.408 341.46 102.152 339.135C101.741 334.829 102.097 307.708 102.635 307.494C102.873 307.377 105.861 324.192 108.19 339.125C108.705 342.4 109.552 350.022 110.028 356.159C110.948 367.174 111.483 369.019 114.126 369.932C114.562 370.062 114.257 366.537 113.535 362.137C111.669 350.653 111.663 347.716 113.169 336.3C114.639 324.998 114.428 319.565 111.949 306.274C111.158 302.104 110.587 298.561 110.638 298.389C110.69 298.217 111.626 300.308 112.72 303.007C115.229 309.375 116.779 316.457 117.32 324.424C117.579 327.873 118.469 333.759 119.272 337.433C121.408 346.874 121.481 359.136 119.553 369.926L118.877 373.784L121.569 375.898C123.108 377.106 124.483 377.953 124.704 377.894C124.88 377.759 124.71 371.277 124.198 363.443C123.231 347.355 123.572 340.525 125.892 329.103C126.784 324.747 128.225 317.184 129.129 312.333C130.982 302.706 131.056 302.229 131.328 302.684C131.418 302.836 131.435 309.148 131.296 316.663C131.158 324.178 131.028 333.256 131.032 336.88C130.968 347.102 130.233 359.122 128.961 369.984C128.339 375.481 128.047 380.327 128.38 380.801C128.967 381.788 137.944 388.524 138.341 388.33C138.5 388.252 137.493 381.395 136.115 373.053C134.72 364.769 133.441 354.958 133.249 351.279C132.937 345.503 135.59 304.08 136.287 303.788C136.684 303.594 139.719 338.221 140.792 355.089C141.338 363.495 141.758 375.048 141.68 380.77C141.589 390.172 141.717 391.335 143.013 392.22C143.799 392.767 146.079 394.446 148.143 395.936L151.888 398.613L151.244 394.862C150.839 392.805 149.532 386.046 148.241 379.916C144.333 360.953 144.04 356.932 145.136 337.338C145.574 329.725 146.056 320.377 146.261 316.504C146.45 312.688 146.671 309.444 146.83 309.367C146.988 309.289 147.453 312.051 147.838 315.537C148.239 318.967 149.445 328.568 150.529 336.76C153.59 360.154 154.4 369.263 155.01 385.868L155.616 401.348L160.763 405.006C163.632 406.985 166.132 408.605 166.308 408.47C166.529 408.411 165.346 398.504 163.698 386.522C160.876 365.511 160.838 364.5 161.675 356.007C162.672 346.75 162.379 342.728 159.069 322.445C156.946 309.323 156.688 307.685 156.938 307.759C157.062 307.796 157.806 310.079 158.554 312.8C159.382 315.482 160.761 319.952 161.73 322.614C164.092 329.251 165.784 336.312 167.088 344.445C167.654 348.235 168.558 352.252 169.077 353.468C170.944 357.896 172.851 365.146 173.74 371.032C174.741 378.137 174.609 385.404 173.08 400.31C172.509 406.322 172.08 411.627 172.192 412.16C172.321 412.636 174.363 414.431 176.767 416.147C181.146 419.201 181.146 419.201 181.086 417.809C181.104 417.065 180.127 406.47 179.016 394.274C176.996 371.94 176.932 369.423 178.781 352.989C179.109 349.839 179.805 341.367 180.265 334.135C180.788 326.922 181.281 320.949 181.502 320.89C181.661 320.813 181.726 321.956 181.735 323.52C181.612 328.479 182.633 346.207 183.386 352.551C183.788 355.98 185.176 362.014 186.505 365.97C191.48 380.443 191.699 388.126 188.108 421.776C187.923 423.532 188.229 423.873 192.24 426.568C194.616 428.15 196.669 429.449 196.766 429.353C196.925 429.276 196.913 426.587 196.805 423.308C196.415 413.699 196.544 402.123 197.058 396.531C197.364 393.687 199.164 384.919 201.099 377.065C204.037 365.39 204.655 361.952 204.554 358.425C204.362 352.247 202.407 343.109 199.663 335.484C198.31 331.834 197.398 328.752 197.619 328.693C198.889 328.072 206.1 343.461 208.063 350.978C209.981 358.419 209.927 363.149 207.976 373.558C205.774 385.266 205.679 390.358 207.62 397.494C208.988 402.46 208.395 407.404 204.905 420.477L201.654 432.746L208.12 436.985C211.701 439.301 214.87 441.183 215.215 441.161C215.702 441.119 215.371 436.774 212.593 406.97C211.1 390.601 211.735 383.921 217.123 358.8C219.436 348.311 221.406 339.656 221.502 339.56C221.837 339.348 221.865 339.481 221.482 350.545C221.076 361.914 221.605 372.875 223.276 388.423C225.789 411.154 225.734 413.386 222.372 433.303C221.296 439.414 220.618 444.645 220.754 444.873C221.24 445.517 230.032 450.824 230.412 450.687C230.571 450.61 229.577 439.385 228.266 425.818C225.467 398.131 225.495 398.265 226.955 383.588C227.538 377.766 228.489 365.935 228.997 357.407C229.523 348.821 230.018 341.474 230.103 341.188C230.268 340.862 230.466 344.293 230.622 348.774C231.224 369.498 232.825 382.777 235.755 391.145C241.559 407.612 242.145 415.655 239.527 443.538L238.344 455.925L243.611 459.181C246.53 460.988 248.913 462.323 248.947 462.208C248.981 462.094 248.315 457.961 247.559 452.989C245.324 439.334 245.1 435.083 245.965 423.539C247.395 403.732 247.589 402.853 254.948 377.258C259.19 362.349 261.674 354.472 261.671 355.845C261.658 357.027 260.931 361.057 260.041 364.726C257.152 376.916 257.121 387.71 259.893 405.023C262.262 419.592 261.525 432.299 256.925 460.465C255.865 467.206 255.82 467.13 260.545 469.475L262.605 470.527L262.944 465.07C263.079 462.113 263.342 454.635 263.54 448.512C264.03 431.859 264.581 427.965 268.762 411.664C270.845 403.542 273.267 392.461 274.076 387.02C275.583 377.415 277.733 360.196 277.812 356.973C277.865 356.114 278.036 355.541 278.172 355.768C278.578 356.452 279.104 378.34 278.813 382.5C278.425 387.442 278.543 397.282 279.172 406.087C280.54 426.291 279.395 435.816 272.465 461.789C270.646 468.802 269.185 474.612 269.275 474.763C269.349 474.973 279.284 480.995 279.72 481.125C279.782 481.143 279.582 479.085 279.252 476.552C278.861 473.999 278.507 469.273 278.337 465.975L278.076 460.027L283.001 443.51C288.198 426.076 292.057 415.861 300.651 396.816C307.8 381.025 308.441 380.467 304.793 392.931C301.915 402.813 301.136 407.015 299.502 421.14C298.857 426.943 290.712 460.859 287.018 473.247C283.855 483.856 283.872 483.799 287.969 486.207C290.628 487.749 291.421 488.048 291.592 487.474C291.711 487.073 291.941 482.208 292.048 476.619C292.31 466.644 292.333 466.338 295.027 458.211C298.177 448.784 299.171 447.27 306.761 440.915C311.197 437.179 324.06 428.15 328.721 425.481L330.916 424.261L329.072 425.897C328.062 426.783 323.478 430.787 318.911 434.733C307.502 444.57 306.401 445.991 304.178 453.446C302.81 458.034 302.397 460.783 302.401 465.093C302.34 470.071 302.014 471.847 299.313 480.909L296.269 491.117L298.589 492.433C299.857 493.186 301.837 494.276 302.918 494.972C304.015 495.612 305.13 496.194 305.317 496.25C305.504 496.305 305.915 494.243 306.198 491.704C307.021 484.393 310.645 472.922 313.838 467.442C317.327 461.425 318.53 460.348 324.232 458.051C330.473 455.54 331.885 454.9 334.181 453.336L336.127 452.043L334.101 454.062C328.324 460.02 324.256 466.613 322.17 473.61C321.281 476.592 318.762 482.086 315.391 488.387C312.385 493.923 310.15 498.69 310.33 498.993C310.754 499.619 332.069 511.594 339.828 515.594C342.414 516.927 344.564 518.13 344.654 518.281C344.925 518.737 336.833 520.633 335.837 520.336C335.09 520.113 301.595 499.636 298.789 497.676C298.11 497.224 297.552 498.868 295.059 508.366C292.892 516.775 291.399 521.326 289.175 526.283C283.152 539.662 282.681 540.333 270.072 553.06C263.688 559.462 258.274 564.655 258.025 564.581C257.839 564.525 257.975 564.066 258.378 563.624C261.904 559.305 275.898 538.748 277.206 535.953C278.133 533.982 280.331 527.518 282.127 521.496C285.05 511.689 285.801 509.853 289.723 502.841C292.087 498.55 294.087 495.025 294.104 494.968C294.173 494.738 288.254 491.163 287.383 490.903C286.947 490.773 280.11 497.102 272.199 504.985C264.306 512.811 255.812 520.832 253.35 522.721C250.792 524.706 242.564 529.559 234.207 533.937C226.105 538.141 214.408 544.396 208.222 547.859C191.223 557.342 190.64 557.48 202.798 549.677C210.528 544.675 217.138 538.652 227.008 527.607C235.477 518.079 240.99 513.915 267.37 497.301L282.647 487.68L278.523 485.139C276.237 483.708 273.657 482.127 272.763 481.486C271.853 480.902 271.049 480.413 270.925 480.376C270.738 480.32 255.915 492.512 248.097 499.174C236.45 509.127 226.441 515.635 218.608 518.483C211.171 521.137 183.48 529.867 182.919 529.7C182.67 529.625 190.358 525.673 200.042 520.941L217.617 512.255L228.251 501.375C240.35 488.996 244.309 486.179 257.121 480.507C261.338 478.642 264.768 476.917 264.633 476.689C264.271 476.082 252.316 468.646 251.15 468.236C250.092 467.92 242.981 475.167 232.798 486.806C227.553 492.799 220.177 500.029 216.212 503.094C214.612 504.365 207.989 508.385 201.513 512.138C194.976 515.871 184.599 522.02 178.452 525.807C163.164 535.238 161.48 536.109 169.766 530.149C177.684 524.517 184.164 518.018 193.157 506.961C201.746 496.345 207.816 491.223 232.164 474.378C239.44 469.303 245.288 464.927 245.17 464.642C245.012 464.033 239.932 460.832 239.58 461.102C238.718 461.719 223.844 474.083 218.653 478.53C209.825 486.077 201.34 492.477 196.793 494.993C194.678 496.174 189.27 498.621 184.741 500.393C172.638 505.277 157.9 511.499 145.309 517.113C139.142 519.833 134.165 521.971 134.216 521.799C134.284 521.569 138.18 519.421 142.976 516.979C153.714 511.438 160.924 505.906 174.179 493.06C181.987 485.521 189.886 480.632 217.156 466.719L234.675 457.766L229.934 454.791C227.309 453.135 224.605 451.516 223.874 451.236C222.912 450.824 220.587 452.255 212.005 458.751C199.237 468.37 198.92 468.526 181.728 478.2C174.238 482.399 166.407 487.058 164.314 488.62C159.556 492.072 146.581 503.067 137.276 511.533C133.475 514.958 130.366 517.653 130.259 517.559C129.762 516.724 176.158 470.045 181.802 465.67C187.622 461.161 205.932 453.193 217.391 450.24C218.938 449.827 220.236 449.34 220.304 449.11C220.407 448.766 208.067 441.028 206.76 440.638C206.386 440.527 202.053 443.232 197.215 446.723C165.914 468.927 159.077 472.071 129.759 478.068C109.678 482.198 91.5863 485.109 91.8599 484.192C91.8941 484.077 97.5049 482.315 104.345 480.296C113.73 477.473 119.937 475.077 129.852 470.477C137.024 467.12 147.885 462.303 154.047 459.831C164.154 455.725 200.551 438.038 200.841 437.063C200.961 436.661 191.366 430.179 191.015 430.449C189.659 431.356 157.608 451.525 152.72 454.502C144.537 459.431 133.614 464.23 126.592 465.946C123.657 466.694 113.241 469.334 103.454 471.912C93.6847 474.432 84.3569 476.834 82.7476 477.229L79.8292 477.92L81.485 476.915C82.33 476.355 89.0484 472.925 96.3224 469.224C103.579 465.579 117.731 458.371 127.737 453.236C146.64 443.509 155.472 439.586 174.783 432.354C181.035 430.034 186.341 427.931 186.551 427.682C186.744 427.489 184.713 425.885 182.105 424.171L177.336 421.063L158.636 428.289C125.466 441.068 122.972 441.699 100.821 443.9C93.1333 444.668 81.797 445.847 75.6331 446.507C58.1329 448.346 58.2403 448.44 71.445 444.634C76.3415 443.221 90.1017 439.143 102.015 435.575C127.263 427.991 137.316 425.43 155.737 421.867C163.142 420.453 170.14 419.042 171.228 418.805L173.325 418.368L166.435 413.504L159.607 408.658L141.634 415.04C115.482 424.291 115.703 424.232 85.2928 426.843C74.4327 427.789 65.2381 428.608 64.8755 428.687C64.5751 428.785 64.326 428.71 64.3773 428.538C64.5141 428.08 117.07 413.961 125.207 412.141C129.197 411.269 137.69 409.618 144.115 408.536C150.541 407.454 155.635 406.287 155.409 405.908C155.003 405.225 146.688 398.999 145.878 398.757C145.567 398.664 136.097 401.087 124.763 404.077C113.475 407.144 102.872 409.728 101.127 409.895C99.3822 410.061 93.2477 410.168 87.4757 410.196C81.7038 410.224 71.0831 410.367 63.8325 410.578C56.6442 410.808 50.5097 410.915 50.1983 410.822C49.9492 410.748 53.6319 410.222 58.4758 409.668C71.1834 408.211 80.6234 406.342 95.2726 402.467C109.497 398.652 119.356 396.97 132 396.181C136.571 395.858 140.531 395.54 140.849 395.384C141.37 395.228 132.502 387.9 131.381 387.566C131.132 387.492 123.166 388.739 113.59 390.38C98.8191 392.845 95.1083 393.238 88.5439 392.967C84.3301 392.772 74.5373 392.413 66.8289 392.113C59.1033 391.871 52.7148 391.465 52.6244 391.313C52.534 391.161 54.4035 391.031 56.743 390.917C65.421 390.694 74.6046 389.685 91.2733 387.224C106.968 384.846 110.219 384.629 126.986 384.569C127.863 384.581 121.898 379.118 120.528 378.71C120.279 378.636 111.287 380.139 100.606 382.075C87.9876 384.371 80.2766 385.444 78.4646 385.153C76.964 384.956 68.8025 384.583 60.3687 384.442C51.952 384.243 45.3083 384.011 45.6258 383.856C47.5588 383.058 84.9671 379.036 98.9311 378.141C107.916 377.573 116.067 377.068 117.042 376.984C118.724 376.799 118.679 376.723 115.196 373.623L111.65 370.505L95.5943 372.276C84.4277 373.568 77.8621 373.983 73.9658 373.633C70.868 373.334 63.6809 372.878 58.0287 372.504C52.3594 372.187 47.7096 371.863 47.6022 371.768C47.3482 371.255 84.6221 369.504 95.8826 369.489C102.94 369.47 109.03 369.287 109.392 369.208C109.71 369.053 108.766 367.897 107.307 366.65L104.587 364.403L95.9695 365.331C81.1435 366.843 76.0798 366.77 67.4568 364.761C63.2614 363.822 55.6287 362.359 50.5663 361.599C45.4415 360.82 41.1325 360.035 41.0592 359.826C40.9689 359.674 47.7262 359.753 56.2052 359.97Z" fill="#145EB4" fill-opacity="0.37"/>
<path d="M690.668 162.623C692.084 186.22 692.332 194.172 692.487 221.072L692.534 235.336L696.379 231.491L700.247 227.549L700.123 218.6C700.013 211.397 700.53 207.31 702.746 198.892C704.29 192.987 707.24 180.429 709.386 170.969C711.553 161.411 713.3 153.707 713.451 153.946C713.526 154.066 713.485 161.029 713.405 169.522C713.223 186.604 710.656 203.351 706.296 215.795C704.857 219.878 703.791 223.225 703.986 223.27C704.083 223.292 705.204 222.418 706.392 221.252C708.102 219.589 709.616 215.625 712.558 204.911C716.877 189.484 716.713 189.754 729.347 175.188C732.66 171.427 734.41 168.235 736.025 163.372C738.871 154.891 739.312 158.375 736.844 169.71C734.664 179.777 731.396 187.854 725.541 197.396C723.039 201.648 721.006 205.186 721.082 205.305C721.157 205.425 725.354 203.198 730.507 200.368C739.139 195.762 777.911 179.432 778.461 180.172C778.935 180.792 753.193 201.615 745.567 206.756C738.278 211.768 727.239 216.135 716.47 218.41C710.77 219.578 704.323 223.141 703.814 225.384C703.681 225.969 705.733 225.511 708.45 224.384C717.348 220.865 726.239 219.19 737.152 218.998C748.162 218.829 764.602 219.583 768.015 220.357C770.236 220.963 733.903 227.9 722.986 229.014C718.895 229.419 712.136 229.834 707.841 229.783L700.031 229.858L694.906 236.181C692.049 239.737 689.953 242.646 690.246 242.712C690.539 242.779 698.401 240.665 707.73 237.961C717.059 235.257 727.819 232.57 731.64 232.001C738.727 231.045 783.768 229.569 784.198 230.384C784.425 230.743 756.947 236.612 732.5 241.322C727.137 242.362 714.612 244.239 704.498 245.431C686.352 247.674 683.365 248.638 682.219 252.787C682.065 253.469 687.871 252.735 695.068 251.291C713.86 247.554 718.731 247.326 737.88 248.797C756.834 250.224 765.818 249.493 787.521 244.673C794.328 243.14 800.125 241.994 800.418 242.06C800.711 242.126 797.374 243.728 793.049 245.619C782.834 249.967 771.302 252.89 758.161 254.319C752.474 254.978 742.835 256.791 736.852 258.305C721.486 262.306 701.155 263.336 682.986 261.164L676.492 260.409L673.36 264.723C671.571 267.189 670.357 269.374 670.486 269.711C670.735 269.973 681.465 269.227 694.389 267.851C720.943 265.156 732.321 265.173 751.594 267.903C758.944 268.954 771.692 270.615 779.866 271.648C796.094 273.79 796.896 273.869 796.179 274.321C795.939 274.472 785.47 274.969 772.984 275.317C760.498 275.664 745.419 276.141 739.409 276.419C722.442 277.083 702.399 276.845 684.203 275.693C674.997 275.143 666.916 275.054 666.176 275.604C664.621 276.584 654.699 290.946 655.076 291.544C655.227 291.783 666.462 289.717 680.109 286.966C693.657 284.194 709.754 281.487 715.831 280.916C725.369 280.003 794.458 281.006 795.039 282.061C795.416 282.659 738.396 289.93 710.562 292.846C696.694 294.316 677.586 295.828 668.083 296.134C652.473 296.696 650.562 296.98 649.274 299.046C648.476 300.301 646.009 303.946 643.826 307.245L639.906 313.226L646.04 311.951C649.395 311.173 660.426 308.65 670.415 306.199C701.328 298.751 707.958 297.998 740.617 298.226C753.307 298.335 768.882 298.381 775.336 298.409C781.692 298.414 787.104 298.514 787.255 298.753C787.406 298.992 782.889 299.916 777.159 300.77C771.526 301.646 755.765 304.225 742.327 306.509C703.946 312.982 688.947 314.913 661.485 317.094L635.889 319.185L630.538 327.405C627.655 331.981 625.317 335.962 625.565 336.224C625.694 336.561 641.964 333.995 661.611 330.555C696.075 324.63 697.746 324.496 711.952 325.154C727.448 326.002 734.079 325.249 767.265 318.624C788.738 314.368 791.42 313.848 791.331 314.238C791.287 314.433 787.604 315.751 783.195 317.109C778.861 318.588 771.637 321.051 767.356 322.746C756.676 326.887 745.198 330.026 731.888 332.648C725.679 333.804 719.142 335.5 717.197 336.392C710.111 339.604 698.349 343.09 688.709 344.903C677.062 346.978 664.988 347.317 640.046 346.07C629.993 345.636 621.133 345.37 620.264 345.583C619.493 345.819 616.8 349.104 614.288 352.944C609.833 359.932 609.833 359.932 612.133 359.736C613.37 359.708 630.81 357.408 650.888 354.783C687.657 349.996 691.823 349.71 719.345 351.337C724.615 351.609 738.768 352.05 750.829 352.221C762.867 352.49 772.845 352.804 772.974 353.141C773.124 353.381 771.236 353.568 768.643 353.697C760.399 353.879 731.133 356.779 720.713 358.415C715.08 359.291 705.264 361.884 698.887 364.232C675.572 372.993 662.856 373.903 606.531 370.873C603.593 370.719 603.07 371.216 599.159 377.609C596.865 381.395 594.996 384.663 595.169 384.805C595.32 385.044 599.779 384.825 605.204 384.414C621.089 383.094 640.312 382.429 649.66 382.806C654.421 383.065 669.217 385.19 682.516 387.59C702.295 391.255 708.084 391.952 713.921 391.533C724.142 390.774 739.029 387.075 751.296 382.268C757.163 379.907 762.149 378.27 762.277 378.606C763.484 380.521 738.961 392.801 726.765 396.393C714.688 399.91 706.834 400.179 689.294 397.945C669.564 395.419 661.102 395.654 649.535 399.184C641.487 401.665 633.203 401.12 611.03 396.707L590.222 392.604L584.092 402.903C580.749 408.605 578.07 413.637 578.154 414.169C578.292 414.918 585.454 414.081 634.509 407.568C661.457 404.04 672.626 404.522 715.052 410.964C732.775 413.752 747.407 416.147 747.58 416.289C747.979 416.79 747.762 416.843 729.354 417.078C710.437 417.3 692.327 418.936 666.767 422.676C629.409 428.252 625.699 428.334 592.188 424.632C581.9 423.427 573.128 422.77 572.769 422.997C571.767 423.795 564.19 437.765 564.47 438.341C564.621 438.581 583.103 436.209 605.427 433.171C650.967 426.784 650.75 426.837 675.302 427.995C685.04 428.46 704.8 429.044 719.019 429.193C733.336 429.363 745.592 429.578 746.08 429.689C746.643 429.919 740.978 430.48 733.568 431.056C699.271 433.533 677.465 436.996 663.993 442.144C637.483 452.334 624.222 453.839 577.601 451.88L556.888 450.977L552.22 459.352C549.629 463.995 547.747 467.772 547.942 467.816C548.137 467.86 554.901 466.523 563.042 464.985C585.384 460.515 592.405 459.851 611.677 460.325C644.734 461.054 646.219 461.288 689.706 470.739C715.031 476.174 728.445 479.421 726.167 479.519C724.203 479.587 717.417 478.765 711.207 477.665C690.581 474.116 672.67 474.874 644.336 480.446C620.496 485.191 599.314 485.002 551.946 480.003C540.617 478.87 540.736 478.794 537.504 486.264L536.047 489.523L545.147 489.638C550.072 489.627 562.513 489.475 572.699 489.323C600.393 488.836 606.931 489.395 634.556 494.634C648.32 497.243 667.04 500.154 676.18 500.997C692.323 502.606 721.188 504.64 726.547 504.522C727.979 504.539 728.954 504.76 728.595 504.987C727.518 505.665 691.28 508.112 684.339 507.974C676.085 507.743 659.779 508.659 645.259 510.289C611.934 513.909 595.972 512.853 551.918 504.094C540.029 501.808 530.188 499.986 529.949 500.137C529.612 500.266 521.008 516.054 520.853 516.737C520.831 516.834 524.217 516.372 528.374 515.674C532.554 514.878 540.346 513.979 545.793 513.471L555.623 512.624L583.71 518.993C613.358 525.716 630.842 530.911 663.634 542.756C690.828 552.614 691.843 553.562 670.658 548.861C653.862 545.154 646.783 544.267 623.122 542.798C613.406 542.235 556.005 532.193 534.94 527.416C516.898 523.325 516.996 523.347 513.573 529.851C511.385 534.072 511 535.318 511.975 535.539C512.658 535.694 520.76 535.685 530.046 535.433C546.632 535.092 547.142 535.105 560.999 538.658C577.078 542.816 579.729 544.238 591.33 555.481C598.146 562.051 614.919 581.236 619.997 588.232L622.326 591.529L619.355 588.804C617.745 587.311 610.464 580.533 603.28 573.777C585.369 556.898 582.859 555.304 570.181 552.429C562.379 550.66 557.761 550.228 550.611 550.555C542.345 550.834 539.353 550.463 523.944 546.969L506.585 543.032L504.725 546.712C503.653 548.725 502.121 551.864 501.116 553.584C500.208 555.327 499.398 557.091 499.331 557.384C499.265 557.676 502.745 558.158 506.996 558.404C519.238 559.129 538.774 563.867 548.311 568.388C558.778 573.325 560.734 575.101 565.339 583.733C570.374 593.181 571.634 595.312 574.548 598.741L576.965 601.648L573.333 598.671C562.642 590.197 551.138 584.409 539.24 581.711C534.168 580.561 524.703 577.082 513.78 572.349C504.177 568.121 495.958 565.027 495.479 565.328C494.5 566.029 477.607 599.83 472.054 612.106C470.204 616.198 468.508 619.608 468.269 619.759C467.551 620.211 463.276 607.86 463.63 606.3C463.895 605.129 493.194 551.89 496.055 547.412C496.711 546.33 493.905 545.592 477.8 542.452C463.549 539.734 455.791 537.769 447.257 534.706C424.222 526.407 423.043 525.729 400.171 507.213C388.66 497.835 379.291 489.866 379.379 489.476C379.445 489.183 380.226 489.36 381.015 489.949C388.672 495.069 424.726 515.139 429.545 516.95C432.946 518.233 443.975 521.145 454.215 523.467C470.892 527.248 474.044 528.271 486.222 533.801C493.67 537.13 499.797 539.955 499.895 539.977C500.285 540.066 505.391 530.662 505.7 529.297C505.855 528.614 494.401 518.531 480.221 506.908C466.138 495.306 451.646 482.792 448.17 479.132C444.52 475.331 435.321 462.991 426.893 450.416C418.789 438.222 406.782 420.631 400.173 411.339C382.072 385.804 381.761 384.914 396.402 403.101C405.777 414.661 416.69 424.416 436.391 438.829C453.377 451.192 461.054 459.393 492.295 498.879L510.386 521.746L514.026 515.189C516.081 511.553 518.344 507.452 519.283 506.024C520.125 504.574 520.824 503.298 520.869 503.103C520.935 502.81 498.642 480.836 486.501 469.264C468.364 452.027 456.172 437.06 450.355 425.18C444.915 413.897 426.571 371.798 426.77 370.921C426.859 370.53 434.488 382.104 443.688 396.7L460.549 423.184L480.081 438.79C502.305 456.545 507.529 462.446 518.726 481.801C522.408 488.173 525.748 493.34 526.107 493.114C527.064 492.51 537.733 473.499 538.251 471.668C538.626 470.01 525.612 459.574 504.883 444.722C494.211 437.072 481.187 426.224 475.551 420.331C473.218 417.957 465.625 408.032 458.498 398.315C451.392 388.501 439.745 372.94 432.604 363.733C414.828 340.835 413.147 338.3 424.189 350.648C434.638 362.451 446.322 371.97 465.92 385.028C484.728 397.496 494.072 406.484 525.413 442.815C534.846 453.67 542.922 462.371 543.379 462.167C544.367 461.878 548.968 453.796 548.472 453.273C547.327 451.988 524.742 429.948 516.64 422.266C502.889 409.202 491.088 396.579 486.28 389.747C484.027 386.57 479.214 378.403 475.642 371.544C465.851 353.225 453.474 330.936 442.405 311.917C437.033 302.599 432.792 295.074 433.085 295.141C433.475 295.229 437.582 301.082 442.302 308.305C452.992 324.469 463.174 335.186 486.334 354.691C499.929 366.182 509.141 378.012 536.026 419.074L553.321 445.452L557.595 437.91C559.977 433.734 562.285 429.438 562.648 428.289C563.196 426.773 560.5 423.291 548.526 410.527C530.787 391.534 530.485 391.055 512.038 365.236C504.028 353.986 495.206 342.245 492.323 339.13C485.933 332.041 465.884 312.832 450.542 299.099C444.329 293.486 439.424 288.888 439.566 288.715C440.882 287.886 524.79 356.028 532.835 364.415C541.128 373.063 556.898 400.736 563.396 418.205C564.297 420.563 565.286 422.53 565.677 422.619C566.262 422.752 577.377 403.124 577.842 401.076C577.975 400.491 572.883 394.004 566.417 386.796C525.217 340.129 519.046 329.809 505.009 284.995C495.358 254.301 488.004 226.589 489.565 226.942C489.76 226.987 493.465 235.517 497.77 245.927C503.76 260.205 508.601 269.609 517.615 284.572C524.184 295.393 533.691 311.802 538.651 321.13C546.872 336.426 581.29 391.296 582.948 391.672C583.631 391.827 593.046 376.53 592.55 376.008C590.855 373.983 552.926 326.007 547.306 318.683C537.988 306.419 528.503 289.913 524.677 279.201C523.026 274.725 517.194 258.842 511.553 243.926C506.01 229.031 500.724 214.81 499.845 212.355L498.292 207.901L500.19 210.382C501.237 211.645 507.864 221.761 515.019 232.714C522.076 243.646 536.009 264.954 545.922 280.02C564.694 308.476 572.435 321.818 587.126 351.091C591.846 360.57 596.074 368.604 596.518 368.909C596.863 369.193 599.242 365.938 601.722 361.784L606.213 354.189L591.617 325.86C565.791 275.604 564.397 271.802 557.657 237.769C555.31 225.957 551.774 208.544 549.819 199.077C544.327 172.197 544.185 172.37 552.342 192.472C555.369 199.926 564.053 220.865 571.633 238.99C587.737 277.402 593.387 292.731 601.866 320.904C605.245 332.231 608.561 342.93 609.107 344.591L610.124 347.796L617.232 336.795L624.319 325.892L611.226 298.622C592.231 258.939 592.36 259.275 583.787 212.522C580.702 195.827 578.063 181.693 577.881 181.139C577.676 180.683 577.765 180.292 578.057 180.359C578.838 180.536 609.589 260.619 613.744 273.045C615.746 279.139 619.671 292.129 622.361 301.967C625.052 311.806 627.698 319.583 628.296 319.206C629.373 318.528 638.541 305.226 638.829 303.958C638.939 303.471 633.6 289.032 627.058 271.758C620.397 254.559 614.631 238.383 614.111 235.702C613.591 233.021 612.558 223.558 611.707 214.649C610.857 205.74 609.138 189.355 607.776 178.177C606.392 167.096 605.359 157.634 605.47 157.146C605.558 156.756 606.944 162.402 608.539 169.839C612.728 189.349 617.145 203.783 625.618 226.109C633.93 247.784 638.095 262.879 641.167 282.34C642.341 289.374 643.421 295.463 643.723 295.942C644.056 296.735 654.975 282.497 655.373 280.742C655.461 280.352 652.281 268.146 648.223 253.486C642.073 230.866 640.905 225.166 640.439 215.012C640.174 208.492 639.404 193.347 638.827 181.424C638.151 169.479 637.934 159.586 638.173 159.435C638.412 159.284 638.888 162.161 639.404 165.764C640.984 179.145 643.938 193.247 650.347 218.797C656.48 242.849 657.293 247.852 659.731 273.732C659.833 275.088 668.064 265.47 668.551 263.325C668.639 262.935 664.891 249.165 660.189 232.821C654.622 213.511 651.766 201.687 651.995 198.868C652.113 196.536 651.593 183.909 650.651 170.878C649.807 157.869 649.266 147.595 649.568 148.073C651.16 150.998 663.05 208.45 666.482 229.941C668.678 243.769 670.652 256.316 670.928 257.814C671.47 260.398 671.59 260.323 676.245 254.713L680.923 249.007L675.747 224.352C672.047 207.209 670.442 197.104 670.479 191.062C670.543 186.257 670.298 175.128 670.13 166.374C669.864 157.598 669.754 150.395 669.896 150.222C670.711 149.792 678.815 207.205 680.41 224.589C681.426 235.483 682.579 244.87 682.761 245.424C683.063 245.903 684.848 244.359 686.713 242.014L690.062 237.646L687.321 224.412C682.744 201.636 682.159 193.813 684.289 180.351C685.261 173.804 686.625 161.911 687.18 154.039C687.756 146.069 688.458 139.358 688.795 139.229C689.034 139.079 689.846 149.516 690.668 162.623Z" fill="#145EB4" fill-opacity="0.38"/>
<path d="M607.128 600.601C603.432 598.811 598.375 595.643 594.715 592.944C588.575 588.346 578.985 579.205 577.004 576.137C574.199 571.648 572.881 565.487 573.182 558.413C573.492 552.59 575.784 541.624 577.337 538.919C578.035 537.741 578.28 538.074 579.717 542.234C583.999 554.572 590.887 562.933 605.052 573.264C613.613 579.48 615.088 579.644 606.973 573.49C597.48 566.282 593.428 562.287 589.541 556.107C583.322 546.428 580.085 536.953 581.296 532.244C582.16 528.881 582.976 528.788 588.374 531.398C597.484 535.736 601.216 539.179 611.351 552.616C613.824 555.826 617.383 559.941 619.295 561.742C622.859 565.07 622.859 565.07 630.735 567.278C635.111 568.476 640.394 569.738 642.483 570.079C645.709 570.616 645.111 570.378 638.572 568.358C624.418 564.14 620.942 561.494 610.458 547.365C606.994 542.62 602.735 537.121 601.07 535.129C597.312 530.759 590.456 524.838 588.368 524.235C587.509 523.987 586.835 523.53 586.897 523.285C587.118 522.429 594.768 512.944 598.713 508.631C601.529 505.634 602.841 504.633 604.087 504.664C605.916 504.733 611.746 507.204 622.035 512.343C627.954 515.234 630.072 515.977 639.623 518.341C657.359 522.739 660.664 522.97 646.755 518.823C640.185 516.926 631.468 513.884 627.356 512.171C620.744 509.408 611.224 504.36 607.794 501.793C606.63 500.931 607.033 500.391 620.46 483.574L634.29 466.217L649.335 470.561C663.029 474.514 664.841 474.906 670.391 475.129C673.727 475.238 676.388 475.153 676.297 474.995C676.221 474.776 673.333 474.205 669.923 473.614C658.846 471.796 640.478 464.982 638.788 462.063C638.422 461.432 676.421 417.549 677.622 417.239C678.054 417.101 679.561 417.142 681.02 417.366C686.06 418.033 696.227 417.487 700.478 416.349C705.437 415.021 711.232 412.753 715.719 410.436L718.928 408.734L714.213 410.395C706.956 412.964 699.101 415.032 696.148 415.23C694.671 415.329 690.845 414.816 687.605 414.077C682.675 412.982 681.831 412.673 682.265 412.01C683.877 409.848 712.775 373.651 713.921 372.274C714.725 371.455 714.989 370.94 714.542 371.139C714.141 371.418 701.52 384.328 686.578 399.854C671.559 415.422 658.628 428.769 657.824 429.588L656.262 431.043L654.161 424.589C647.419 404.117 644.336 391.731 644.675 386.31C645.304 375.652 645.288 375.713 643.897 382.407C643.139 385.867 642.544 390.49 642.562 392.729C642.581 400.355 645.516 414.341 650.32 429.524C651.589 433.569 652.552 437.263 652.458 437.63C652.238 438.486 617.488 476.147 617.058 476.022C616.628 475.898 609.612 462.902 606.223 455.814C602.544 448.314 597.221 435.149 594.925 427.917C593.987 425.15 591.209 413.377 588.645 401.797C586.081 390.217 583.98 380.939 583.872 381.105C583.417 382.616 587.656 413.599 589.321 420.978C592.968 436.812 599.828 455.544 608.432 473.138L612.658 481.847L605.042 490.685C600.878 495.592 595.847 501.563 593.772 503.986L590.134 508.388L587.518 505.99C583.341 502.222 574.864 492.088 568.669 483.599C552.845 462.015 541.655 442.164 536.559 426.832C534.578 420.938 535.323 425.226 537.646 433.123C543.981 454.923 551.03 467.535 572.174 494.596C583.289 508.842 585.209 511.893 584.564 514.4C584.155 515.99 576.768 525.222 574.761 526.613C574.19 527.04 572.214 525.746 567.56 522.038C564.054 519.252 554.715 511.957 546.892 505.953C539.022 499.871 531.414 493.799 529.915 492.446C524.147 487.168 508.806 469.862 503.679 462.864C503.343 462.373 503.006 462.144 502.959 462.327C502.818 462.878 513.742 478.119 519.712 485.69C529.758 498.444 538.064 506.164 559.269 522.469C565.547 527.303 568.944 530.255 568.374 530.419C566.28 530.865 555.933 530.571 549.663 529.812C541.657 528.88 533.322 526.145 525.95 521.98C523.298 520.492 520.951 519.354 520.797 519.441C520.257 519.745 532.238 527.54 536.501 529.691C541.408 532.158 551.836 534.447 559.861 534.793C567.24 535.084 567.132 535.25 556.875 537.938C543.724 541.367 531.768 542.711 523.716 541.7C518.599 541.077 509.746 537.535 506.425 534.803C503.318 532.263 499.219 525.627 495.012 516.332C490.395 506.065 479.007 477.748 477.709 473.3C475.056 463.862 474.866 454.085 477.159 442.856C481.316 422.838 492.994 402.56 513.375 379.736C520.88 371.327 535.864 356.667 536.723 356.915C536.969 356.986 537.149 357.827 537.082 358.858C537.02 364.227 538.249 378.181 539.356 383.624C540.701 390.451 542.78 395.452 550.003 409.691C552.589 414.774 556.814 423.483 559.336 429.072C566.793 445.481 572.623 453.339 578.395 455.006C581.773 455.981 583.545 455.244 584.221 452.615C585.731 446.744 580.499 433.737 565.447 406.07C554.58 386.246 550.794 370.438 552.99 354.714C555.424 337.548 567.011 327.887 591.723 322.343C596.542 321.303 611.668 319.43 612.835 319.767C613.142 319.855 611.915 322.063 610.178 324.715C605.882 331.161 602.331 339.07 601.736 343.694C600.824 350.065 602.106 359.961 607.159 385.464C610.015 399.755 616.603 414.928 621.444 418.165C623.528 419.555 623.789 419.564 625.163 418.582C625.966 418.025 626.709 417.188 626.819 416.76C627.479 414.192 626.75 404.456 624.926 392.564C622.57 376.84 622.324 373.944 622.777 367.309C623.565 355.777 626.639 345.103 631.748 336.264C634.963 330.688 637.73 328.137 641.796 326.946C649.79 324.59 659.714 326.273 680.14 333.55C696.576 339.412 699.571 340.08 717.078 341.521C730.956 342.703 736.562 343.993 737.932 346.36C738.419 347.289 739.41 354.21 740.106 361.768C741.408 376.203 742.276 380.526 747.188 398.368C750.639 410.861 752.018 419.865 751.221 424.759C750.775 427.521 750.152 428.917 748.061 431.664C746.635 433.617 744.825 435.525 744.1 436.038C742.14 437.246 734.12 438.675 721.796 439.913C709.072 441.166 702.883 442.401 698.751 444.361C695.513 445.923 694.302 448.069 695.365 450.347C696.216 452.169 702.021 453.451 712.32 454.191C723.141 454.951 728.727 454.264 740.866 450.411C747.243 448.442 749.122 448.065 749.378 448.862C750.296 452.477 750.452 471.113 749.559 479.461C748.856 486.813 747.703 489.502 744.181 492.427C737.46 498.041 717.676 502.38 695.667 503.055C673.674 503.668 670.119 504.153 667.384 506.582C662.763 510.7 672.172 516.439 689.053 519.802C700.788 522.139 711.996 522.419 732.318 520.863L736.841 520.461L735.657 523.272C732.695 530.432 725.901 543.514 723.001 547.866C714.983 559.807 702.257 572.359 687.914 582.473C678.635 589.057 661.605 598.592 653.869 601.483C646.981 604.158 635.943 606.293 629.901 606.19C625.365 606.129 611.345 602.672 607.128 600.601Z" fill="#1F8429" fill-opacity="0.61"/>
<path d="M449.995 506.78C447.937 510.929 444.313 516.588 441.233 520.672C435.988 527.523 425.591 538.171 422.116 540.34C417.034 543.406 410.088 544.74 402.136 544.211C395.591 543.706 383.286 540.815 380.263 538.98C378.946 538.156 379.324 537.888 384.02 536.365C397.948 531.829 407.435 524.228 419.226 508.416C426.321 498.859 426.522 497.189 419.503 506.241C411.281 516.83 406.739 521.326 399.741 525.576C388.78 532.382 378.085 535.808 372.804 534.309C369.032 533.239 368.937 532.31 371.937 526.25C376.927 516.021 380.844 511.873 396.079 500.72C399.72 497.997 404.391 494.063 406.439 491.94C410.225 487.981 410.225 487.981 412.805 479.096C414.205 474.159 415.689 468.194 416.097 465.831C416.74 462.182 416.465 462.855 414.114 470.227C409.199 486.187 406.181 490.064 390.163 501.596C384.785 505.404 378.548 510.095 376.288 511.933C371.328 516.085 364.586 523.713 363.882 526.068C363.593 527.037 363.07 527.79 362.796 527.713C361.836 527.44 351.261 518.504 346.458 513.91C343.121 510.634 342.012 509.117 342.062 507.704C342.161 505.628 345.011 499.074 350.915 487.527C354.239 480.882 355.1 478.497 357.874 467.714C363.036 447.692 363.336 443.946 358.503 459.629C356.29 467.039 352.763 476.857 350.787 481.48C347.599 488.915 341.806 499.592 338.878 503.419C337.894 504.718 337.291 504.246 318.541 488.557L299.188 472.396L304.255 455.428C308.868 439.983 309.331 437.935 309.649 431.639C309.812 427.854 309.748 424.831 309.569 424.93C309.322 425.01 308.645 428.274 307.94 432.131C305.76 444.66 297.873 465.337 294.57 467.179C293.856 467.578 244.964 423.274 244.629 421.902C244.479 421.409 244.543 419.699 244.813 418.048C245.625 412.343 245.134 400.783 243.906 395.927C242.473 390.261 239.992 383.622 237.44 378.465L235.565 374.778L237.376 380.175C240.177 388.483 242.408 397.455 242.595 400.814C242.688 402.494 242.065 406.824 241.195 410.484C239.903 416.053 239.545 417.003 238.805 416.493C236.392 414.606 196.034 380.839 194.499 379.502C193.588 378.567 193.012 378.253 193.231 378.766C193.539 379.229 207.906 393.9 225.186 411.275C242.513 428.739 257.367 443.774 258.278 444.708L259.895 446.52L252.612 448.735C229.505 455.851 215.538 459.025 209.445 458.498C197.466 457.502 197.535 457.522 205.046 459.278C208.928 460.229 214.121 461.027 216.639 461.065C225.216 461.245 240.981 458.282 258.115 453.227C262.68 451.893 266.846 450.897 267.258 451.013C268.218 451.286 310.152 491.736 310.007 492.221C309.862 492.706 295.16 500.329 287.148 503.99C278.668 507.97 263.798 513.667 255.636 516.083C252.512 517.075 239.238 519.92 226.184 522.526C213.129 525.132 202.669 527.272 202.854 527.4C204.548 527.956 239.445 523.96 247.763 522.264C265.616 518.54 286.767 511.245 306.658 501.939L316.504 497.37L326.351 506.25C331.82 511.108 338.474 516.978 341.173 519.397L346.08 523.645L343.352 526.552C339.064 531.195 327.564 540.553 317.941 547.364C293.475 564.763 271.013 576.945 253.707 582.327C247.056 584.421 251.887 583.689 260.797 581.259C285.391 574.64 299.661 566.969 330.352 543.674C346.508 531.43 349.962 529.33 352.774 530.128C354.558 530.634 364.851 539.265 366.392 541.58C366.864 542.24 365.386 544.45 361.158 549.637C357.983 553.544 349.665 563.955 342.818 572.681C335.882 581.456 328.96 589.935 327.421 591.601C321.415 598.011 301.766 614.974 293.833 620.611C293.277 620.979 293.015 621.356 293.221 621.414C293.838 621.589 311.112 609.587 319.699 603.008C334.165 591.938 342.948 582.71 361.543 559.062C367.056 552.062 370.417 548.282 370.594 548.934C371.071 551.323 370.615 563.064 369.685 570.163C368.539 579.229 365.363 588.62 360.589 596.882C358.883 599.854 357.575 602.488 357.671 602.666C358.006 603.287 366.918 589.888 369.389 585.105C372.224 579.598 374.924 567.818 375.41 558.715C375.827 550.344 376.012 550.471 378.911 562.188C382.609 577.211 383.975 590.822 382.74 599.938C381.977 605.732 377.887 615.69 374.773 619.39C371.879 622.851 364.366 627.33 353.862 631.862C342.258 636.833 310.273 649.018 305.255 650.373C294.609 653.137 283.61 653.096 271.01 650.196C248.546 644.948 225.882 631.153 200.46 607.41C191.093 598.666 174.788 581.267 175.077 580.297C175.16 580.02 176.107 579.838 177.267 579.942C183.304 580.153 199.012 579.126 205.148 578.012C212.842 576.665 218.492 574.436 234.593 566.61C240.341 563.808 250.187 559.239 256.503 556.524C275.048 548.489 283.957 542.077 285.901 535.567C287.039 531.757 286.232 529.725 283.283 528.888C276.698 527.02 262.007 532.617 230.708 548.978C208.281 560.795 190.456 564.677 172.799 561.769C153.523 558.553 142.797 545.141 136.861 516.936C135.751 511.437 133.827 494.212 134.22 492.896C134.324 492.549 136.792 494.001 139.753 496.044C146.95 501.091 155.802 505.332 160.995 506.129C168.15 507.333 179.295 506.139 208.039 501.073C224.147 498.207 241.29 491.126 244.99 485.715C246.578 483.386 246.592 483.089 245.503 481.503C244.887 480.577 243.955 479.711 243.475 479.575C240.595 478.758 229.636 479.329 216.24 481.087C198.527 483.348 195.267 483.549 187.81 482.861C174.85 481.662 162.882 477.89 153.004 471.856C146.772 468.059 143.936 464.85 142.646 460.201C140.093 451.062 142.106 439.838 150.538 416.837C157.33 398.329 158.117 394.946 159.951 375.106C161.449 359.378 162.968 353.048 165.646 351.554C166.696 351.026 174.492 350.083 183.002 349.492C199.251 348.394 204.124 347.523 224.25 342.416C238.342 338.827 248.485 337.498 253.979 338.532C257.08 339.111 258.643 339.855 261.707 342.302C263.886 343.973 266.01 346.078 266.579 346.916C267.913 349.173 269.423 358.316 270.665 372.342C271.921 386.823 273.235 393.883 275.389 398.626C277.106 402.344 279.505 403.776 282.08 402.629C284.14 401.711 285.652 395.153 286.609 383.479C287.594 371.212 286.89 364.851 282.704 350.966C280.567 343.673 280.165 341.531 281.065 341.26C285.142 340.313 306.103 340.627 315.481 341.861C323.741 342.853 326.751 344.233 329.998 348.31C336.23 356.089 340.87 378.668 341.362 403.675C341.786 428.664 342.288 432.713 344.986 435.883C349.562 441.239 356.13 430.706 360.117 411.628C362.888 398.365 363.338 385.645 361.835 362.529L361.438 357.383L364.585 358.802C372.601 362.354 387.232 370.413 392.092 373.821C405.424 383.239 419.386 398.02 430.587 414.572C437.879 425.282 448.397 444.87 451.554 453.73C454.479 461.622 456.746 474.211 456.558 481.07C456.434 486.219 452.376 502.047 449.995 506.78Z" fill="#1F8429" fill-opacity="0.47"/>
</svg>
