<svg width="80" height="45" viewBox="0 0 80 45" fill="none" xmlns="http://www.w3.org/2000/svg">
<path d="M9.232 32L5.116 41.204L1 32H1.432L5.152 40.292L8.824 32H9.232ZM11.4856 40.808C11.9016 40.808 12.2976 40.7 12.6736 40.484C13.0496 40.268 13.3616 39.972 13.6096 39.596V40.208C13.3136 40.536 12.9896 40.776 12.6376 40.928C12.2856 41.072 11.8856 41.144 11.4376 41.144C10.9416 41.144 10.4736 41.012 10.0336 40.748C9.60156 40.484 9.25356 40.132 8.98956 39.692C8.73356 39.252 8.60556 38.784 8.60556 38.288C8.60556 37.752 8.73356 37.272 8.98956 36.848C9.24556 36.416 9.59356 36.08 10.0336 35.84C10.4816 35.6 10.9776 35.48 11.5216 35.48C12.3536 35.48 13.0616 35.808 13.6456 36.464L9.87756 40.184C10.1416 40.4 10.3976 40.56 10.6456 40.664C10.8936 40.76 11.1736 40.808 11.4856 40.808ZM8.98956 38.252C8.98956 38.916 9.20956 39.484 9.64956 39.956L13.1656 36.464C12.9016 36.232 12.6456 36.068 12.3976 35.972C12.1496 35.868 11.8536 35.816 11.5096 35.816C11.0216 35.816 10.5856 35.924 10.2016 36.14C9.82556 36.348 9.52956 36.636 9.31356 37.004C9.09756 37.372 8.98956 37.788 8.98956 38.252ZM17.4498 43.496C16.9938 43.496 16.5498 43.392 16.1178 43.184C15.6858 42.976 15.3498 42.704 15.1098 42.368V41.816C15.3178 42.2 15.6418 42.52 16.0818 42.776C16.5298 43.032 16.9858 43.16 17.4498 43.16C18.2178 43.16 18.8098 42.932 19.2258 42.476C19.6418 42.028 19.8498 41.368 19.8498 40.496V39.692C19.6338 40.124 19.2938 40.476 18.8298 40.748C18.3738 41.012 17.8938 41.144 17.3898 41.144C16.8778 41.144 16.4018 41.016 15.9618 40.76C15.5218 40.504 15.1738 40.16 14.9178 39.728C14.6618 39.288 14.5338 38.816 14.5338 38.312C14.5338 37.808 14.6618 37.34 14.9178 36.908C15.1738 36.468 15.5218 36.12 15.9618 35.864C16.4018 35.608 16.8778 35.48 17.3898 35.48C17.9178 35.48 18.4058 35.612 18.8538 35.876C19.3018 36.14 19.6338 36.496 19.8498 36.944V35.6H20.2338V40.496C20.2338 41.48 19.9938 42.224 19.5138 42.728C19.0418 43.24 18.3538 43.496 17.4498 43.496ZM17.4138 40.808C17.8538 40.808 18.2618 40.696 18.6378 40.472C19.0138 40.24 19.3098 39.936 19.5258 39.56C19.7498 39.176 19.8618 38.76 19.8618 38.312C19.8618 37.864 19.7498 37.452 19.5258 37.076C19.3098 36.692 19.0138 36.388 18.6378 36.164C18.2618 35.932 17.8538 35.816 17.4138 35.816C16.9658 35.816 16.5498 35.932 16.1658 36.164C15.7898 36.388 15.4858 36.692 15.2538 37.076C15.0298 37.452 14.9178 37.864 14.9178 38.312C14.9178 38.76 15.0298 39.176 15.2538 39.56C15.4858 39.936 15.7898 40.24 16.1658 40.472C16.5498 40.696 16.9658 40.808 17.4138 40.808ZM24.3762 40.808C24.7922 40.808 25.1882 40.7 25.5642 40.484C25.9402 40.268 26.2522 39.972 26.5002 39.596V40.208C26.2042 40.536 25.8802 40.776 25.5282 40.928C25.1762 41.072 24.7762 41.144 24.3282 41.144C23.8322 41.144 23.3642 41.012 22.9242 40.748C22.4922 40.484 22.1442 40.132 21.8802 39.692C21.6242 39.252 21.4962 38.784 21.4962 38.288C21.4962 37.752 21.6242 37.272 21.8802 36.848C22.1362 36.416 22.4842 36.08 22.9242 35.84C23.3722 35.6 23.8682 35.48 24.4122 35.48C25.2442 35.48 25.9522 35.808 26.5362 36.464L22.7682 40.184C23.0322 40.4 23.2882 40.56 23.5362 40.664C23.7842 40.76 24.0642 40.808 24.3762 40.808ZM21.8802 38.252C21.8802 38.916 22.1002 39.484 22.5402 39.956L26.0562 36.464C25.7922 36.232 25.5362 36.068 25.2882 35.972C25.0402 35.868 24.7442 35.816 24.4002 35.816C23.9122 35.816 23.4762 35.924 23.0922 36.14C22.7162 36.348 22.4202 36.636 22.2042 37.004C21.9882 37.372 21.8802 37.788 21.8802 38.252ZM28.2765 32.9V41H27.9285V31.868L34.5525 40.088V32H34.9005V41.132L28.2765 32.9ZM39.1516 41.132C38.6396 41.132 38.1636 41.004 37.7236 40.748C37.2836 40.492 36.9356 40.148 36.6796 39.716C36.4236 39.276 36.2956 38.804 36.2956 38.3C36.2956 37.796 36.4236 37.328 36.6796 36.896C36.9356 36.456 37.2836 36.108 37.7236 35.852C38.1636 35.596 38.6396 35.468 39.1516 35.468C39.6716 35.468 40.1636 35.608 40.6276 35.888C41.0916 36.16 41.4156 36.516 41.5996 36.956V35.6H41.9836V41H41.5996V39.656C41.3836 40.104 41.0476 40.464 40.5916 40.736C40.1436 41 39.6636 41.132 39.1516 41.132ZM39.1756 40.796C39.6156 40.796 40.0236 40.684 40.3996 40.46C40.7756 40.228 41.0716 39.924 41.2876 39.548C41.5116 39.164 41.6236 38.748 41.6236 38.3C41.6236 37.86 41.5116 37.448 41.2876 37.064C41.0636 36.68 40.7636 36.376 40.3876 36.152C40.0116 35.92 39.6036 35.804 39.1636 35.804C38.7236 35.804 38.3116 35.92 37.9276 36.152C37.5516 36.384 37.2476 36.692 37.0156 37.076C36.7916 37.46 36.6796 37.872 36.6796 38.312C36.6796 38.752 36.7916 39.164 37.0156 39.548C37.2476 39.924 37.5556 40.228 37.9396 40.46C38.3236 40.684 38.7356 40.796 39.1756 40.796ZM43.4982 35.6H43.8822V36.8C44.0582 36.4 44.3582 36.08 44.7822 35.84C45.2062 35.592 45.6742 35.468 46.1862 35.468C46.8502 35.468 47.3742 35.68 47.7582 36.104C48.1502 36.52 48.3462 37.104 48.3462 37.856V41H47.9622V37.856C47.9622 37.208 47.8022 36.704 47.4822 36.344C47.1702 35.984 46.7302 35.804 46.1622 35.804C45.7462 35.804 45.3622 35.9 45.0102 36.092C44.6662 36.276 44.3902 36.532 44.1822 36.86C43.9822 37.188 43.8822 37.56 43.8822 37.976V41H43.4982V35.6ZM51.7935 41.072C51.2015 41.072 50.7095 40.892 50.3175 40.532C49.9335 40.172 49.7415 39.676 49.7415 39.044V33.428H50.1255V35.6H51.7815V35.936H50.1255V39.044C50.1255 39.572 50.2815 39.988 50.5935 40.292C50.9135 40.588 51.3135 40.736 51.7935 40.736V41.072ZM55.4309 40.808C55.8469 40.808 56.2429 40.7 56.6189 40.484C56.9949 40.268 57.3069 39.972 57.5549 39.596V40.208C57.2589 40.536 56.9349 40.776 56.5829 40.928C56.2309 41.072 55.8309 41.144 55.3829 41.144C54.8869 41.144 54.4189 41.012 53.9789 40.748C53.5469 40.484 53.1989 40.132 52.9349 39.692C52.6789 39.252 52.5509 38.784 52.5509 38.288C52.5509 37.752 52.6789 37.272 52.9349 36.848C53.1909 36.416 53.5389 36.08 53.9789 35.84C54.4269 35.6 54.9229 35.48 55.4669 35.48C56.2989 35.48 57.0069 35.808 57.5909 36.464L53.8229 40.184C54.0869 40.4 54.3429 40.56 54.5909 40.664C54.8389 40.76 55.1189 40.808 55.4309 40.808ZM52.9349 38.252C52.9349 38.916 53.1549 39.484 53.5949 39.956L57.1109 36.464C56.8469 36.232 56.5909 36.068 56.3429 35.972C56.0949 35.868 55.7989 35.816 55.4549 35.816C54.9669 35.816 54.5309 35.924 54.1469 36.14C53.7709 36.348 53.4749 36.636 53.2589 37.004C53.0429 37.372 52.9349 37.788 52.9349 38.252ZM60.0992 41.132C59.7152 41.132 59.3752 41.068 59.0792 40.94C58.7832 40.804 58.5712 40.632 58.4432 40.424V39.788C58.5952 40.132 58.8032 40.388 59.0672 40.556C59.3312 40.716 59.6672 40.796 60.0752 40.796C60.4672 40.796 60.7832 40.676 61.0232 40.436C61.2632 40.188 61.3832 39.872 61.3832 39.488C61.3832 39.16 61.3152 38.908 61.1792 38.732C61.0432 38.548 60.8232 38.364 60.5192 38.18L60.0632 37.916C59.7352 37.716 59.4872 37.56 59.3192 37.448C59.1592 37.328 59.0312 37.196 58.9352 37.052C58.8392 36.9 58.7912 36.724 58.7912 36.524C58.7912 36.204 58.9032 35.948 59.1272 35.756C59.3512 35.564 59.6432 35.468 60.0032 35.468C60.4432 35.468 60.8112 35.568 61.1072 35.768V36.296C60.8592 35.968 60.5032 35.804 60.0392 35.804C59.7832 35.804 59.5752 35.868 59.4152 35.996C59.2552 36.124 59.1752 36.288 59.1752 36.488C59.1752 36.664 59.2232 36.82 59.3192 36.956C59.4152 37.084 59.5472 37.204 59.7152 37.316C59.8912 37.428 60.1792 37.596 60.5792 37.82C60.9872 38.052 61.2872 38.292 61.4792 38.54C61.6712 38.78 61.7672 39.096 61.7672 39.488C61.7672 39.984 61.6032 40.384 61.2752 40.688C60.9552 40.984 60.5632 41.132 60.0992 41.132ZM70.0878 32.108C69.2958 32.108 68.5718 32.312 67.9158 32.72C67.2678 33.12 66.7518 33.66 66.3678 34.34C65.9918 35.012 65.8038 35.736 65.8038 36.512C65.8038 37.296 65.9958 38.024 66.3798 38.696C66.7638 39.368 67.2718 39.904 67.9038 40.304C68.5438 40.696 69.2318 40.892 69.9678 40.892C70.3998 40.892 70.7838 40.852 71.1198 40.772C71.4638 40.692 71.7918 40.564 72.1038 40.388V37.568H69.1278V37.22H72.4998V40.136L72.5238 40.124V40.568C72.1398 40.8 71.7438 40.968 71.3358 41.072C70.9358 41.184 70.4958 41.24 70.0158 41.24C69.1758 41.24 68.4038 41.036 67.6998 40.628C66.9958 40.212 66.4358 39.644 66.0198 38.924C65.6118 38.196 65.4078 37.38 65.4078 36.476C65.4078 35.604 65.6198 34.808 66.0438 34.088C66.4758 33.368 67.0478 32.8 67.7598 32.384C68.4798 31.968 69.2438 31.76 70.0518 31.76C70.6118 31.76 71.0558 31.812 71.3838 31.916C71.7118 32.012 72.0918 32.184 72.5238 32.432V32.876C72.1158 32.596 71.7358 32.4 71.3838 32.288C71.0398 32.168 70.6078 32.108 70.0878 32.108ZM76.5232 41.192C75.9792 41.192 75.4872 41.06 75.0472 40.796C74.6072 40.524 74.2632 40.168 74.0152 39.728C73.7672 39.28 73.6432 38.796 73.6432 38.276C73.6432 37.764 73.7672 37.288 74.0152 36.848C74.2712 36.408 74.6152 36.06 75.0472 35.804C75.4872 35.54 75.9752 35.408 76.5112 35.408C77.0392 35.408 77.5192 35.54 77.9512 35.804C78.3912 36.06 78.7352 36.408 78.9832 36.848C79.2312 37.288 79.3552 37.764 79.3552 38.276C79.3552 38.812 79.2352 39.304 78.9952 39.752C78.7552 40.192 78.4192 40.544 77.9872 40.808C77.5632 41.064 77.0752 41.192 76.5232 41.192ZM76.5232 40.856C76.9792 40.856 77.3952 40.74 77.7712 40.508C78.1472 40.276 78.4392 39.968 78.6472 39.584C78.8632 39.192 78.9712 38.764 78.9712 38.3C78.9712 37.844 78.8632 37.42 78.6472 37.028C78.4312 36.636 78.1352 36.324 77.7592 36.092C77.3832 35.86 76.9672 35.744 76.5112 35.744C76.0552 35.744 75.6352 35.864 75.2512 36.104C74.8752 36.336 74.5752 36.648 74.3512 37.04C74.1352 37.432 74.0272 37.856 74.0272 38.312C74.0272 38.768 74.1352 39.192 74.3512 39.584C74.5752 39.968 74.8752 40.276 75.2512 40.508C75.6352 40.74 76.0592 40.856 76.5232 40.856Z" fill="white"/>
<path d="M9.232 32L9.68844 32.2041L10.0033 31.5H9.232V32ZM5.116 41.204L4.65956 41.4081L5.116 42.4288L5.57244 41.4081L5.116 41.204ZM1 32V31.5H0.228682L0.543562 32.2041L1 32ZM1.432 32L1.8882 31.7953L1.7557 31.5H1.432V32ZM5.152 40.292L4.69581 40.4967L5.15497 41.5201L5.60918 40.4945L5.152 40.292ZM8.824 32V31.5H8.49859L8.36682 31.7975L8.824 32ZM8.77556 31.7959L4.65956 40.9999L5.57244 41.4081L9.68844 32.2041L8.77556 31.7959ZM5.57244 40.9999L1.45644 31.7959L0.543562 32.2041L4.65956 41.4081L5.57244 40.9999ZM1 32.5H1.432V31.5H1V32.5ZM0.975805 32.2047L4.69581 40.4967L5.6082 40.0873L1.8882 31.7953L0.975805 32.2047ZM5.60918 40.4945L9.28118 32.2025L8.36682 31.7975L4.69482 40.0895L5.60918 40.4945ZM8.824 32.5H9.232V31.5H8.824V32.5ZM12.6736 40.484L12.4245 40.0504L12.6736 40.484ZM13.6096 39.596H14.1096V37.9298L13.1922 39.3207L13.6096 39.596ZM13.6096 40.208L13.9808 40.543L14.1096 40.4003V40.208H13.6096ZM12.6376 40.928L12.8269 41.3909L12.8358 41.387L12.6376 40.928ZM10.0336 40.748L9.77283 41.1747L9.77631 41.1767L10.0336 40.748ZM8.98956 39.692L8.55735 39.9435L8.56082 39.9492L8.98956 39.692ZM8.98956 36.848L9.41761 37.1064L9.41971 37.1029L8.98956 36.848ZM10.0336 35.84L9.79745 35.3992L9.79414 35.4011L10.0336 35.84ZM13.6456 36.464L13.9968 36.8198L14.3348 36.4862L14.019 36.1315L13.6456 36.464ZM9.87756 40.184L9.52628 39.8282L9.13057 40.2189L9.56094 40.571L9.87756 40.184ZM10.6456 40.664L10.4521 41.1253L10.4651 41.1303L10.6456 40.664ZM9.64956 39.956L9.28383 40.2969L9.63573 40.6744L10.0019 40.3108L9.64956 39.956ZM13.1656 36.464L13.5179 36.8188L13.8976 36.4417L13.4956 36.0884L13.1656 36.464ZM12.3976 35.972L12.2041 36.4333L12.2171 36.4383L12.3976 35.972ZM10.2016 36.14L10.4436 36.5775L10.4467 36.5758L10.2016 36.14ZM11.4856 41.308C11.9927 41.308 12.4742 41.1752 12.9226 40.9176L12.4245 40.0504C12.1209 40.2248 11.8104 40.308 11.4856 40.308V41.308ZM12.9226 40.9176C13.369 40.6611 13.7377 40.3099 14.0269 39.8713L13.1922 39.3207C12.9854 39.6341 12.7302 39.8749 12.4245 40.0504L12.9226 40.9176ZM13.1096 39.596V40.208H14.1096V39.596H13.1096ZM13.2384 39.873C12.9832 40.1558 12.7161 40.3494 12.4393 40.469L12.8358 41.387C13.263 41.2026 13.644 40.9162 13.9808 40.543L13.2384 39.873ZM12.4482 40.4652C12.166 40.5807 11.832 40.644 11.4376 40.644V41.644C11.9391 41.644 12.4051 41.5633 12.8269 41.3908L12.4482 40.4652ZM11.4376 40.644C11.0354 40.644 10.6559 40.5383 10.2908 40.3193L9.77631 41.1767C10.2912 41.4857 10.8477 41.644 11.4376 41.644V40.644ZM10.2943 40.3214C9.93211 40.1 9.64138 39.8065 9.41831 39.4348L8.56082 39.9492C8.86575 40.4575 9.27102 40.868 9.77284 41.1746L10.2943 40.3214ZM9.42174 39.4406C9.20894 39.0748 9.10556 38.6933 9.10556 38.288H8.10556C8.10556 38.8747 8.25819 39.4292 8.55739 39.9434L9.42174 39.4406ZM9.10556 38.288C9.10556 37.8353 9.21253 37.4461 9.41759 37.1064L8.56153 36.5896C8.25459 37.0979 8.10556 37.6687 8.10556 38.288H9.10556ZM9.41971 37.1029C9.62994 36.7481 9.91212 36.4758 10.273 36.2789L9.79414 35.4011C9.27501 35.6842 8.86118 36.0839 8.55942 36.5931L9.41971 37.1029ZM10.2697 36.2807C10.64 36.0824 11.054 35.98 11.5216 35.98V34.98C10.9011 34.98 10.3232 35.1176 9.79745 35.3993L10.2697 36.2807ZM11.5216 35.98C12.2021 35.98 12.777 36.2403 13.2721 36.7965L14.019 36.1315C13.3461 35.3757 12.505 34.98 11.5216 34.98V35.98ZM13.2943 36.1082L9.52628 39.8282L10.2288 40.5398L13.9968 36.8198L13.2943 36.1082ZM9.56094 40.571C9.85275 40.8097 10.1497 40.9982 10.4522 41.1251L10.8389 40.2029C10.6454 40.1218 10.4304 39.9903 10.1942 39.797L9.56094 40.571ZM10.4651 41.1303C10.7797 41.2521 11.1223 41.308 11.4856 41.308V40.308C11.2248 40.308 11.0075 40.2679 10.8261 40.1977L10.4651 41.1303ZM8.48956 38.252C8.48956 39.0385 8.75481 39.7294 9.28383 40.2969L10.0153 39.6151C9.66431 39.2386 9.48956 38.7935 9.48956 38.252H8.48956ZM10.0019 40.3108L13.5179 36.8188L12.8132 36.1092L9.29722 39.6012L10.0019 40.3108ZM13.4956 36.0884C13.2009 35.8294 12.8953 35.6285 12.5781 35.5057L12.2171 36.4383C12.3958 36.5075 12.6023 36.6346 12.8355 36.8396L13.4956 36.0884ZM12.5909 35.5109C12.2672 35.3751 11.9022 35.316 11.5096 35.316V36.316C11.8049 36.316 12.0319 36.3609 12.2042 36.4331L12.5909 35.5109ZM11.5096 35.316C10.9451 35.316 10.4231 35.4417 9.95643 35.7042L10.4467 36.5758C10.748 36.4063 11.098 36.316 11.5096 36.316V35.316ZM9.95953 35.7025C9.50566 35.9536 9.14407 36.305 8.88235 36.7509L9.74477 37.2571C9.91505 36.967 10.1455 36.7424 10.4436 36.5775L9.95953 35.7025ZM8.88235 36.7509C8.61741 37.2023 8.48956 37.707 8.48956 38.252H9.48956C9.48956 37.869 9.57771 37.5417 9.74477 37.2571L8.88235 36.7509ZM16.1178 43.184L15.9009 43.6345L16.1178 43.184ZM15.1098 42.368H14.6098V42.5282L14.703 42.6586L15.1098 42.368ZM15.1098 41.816L15.5495 41.5779L14.6098 41.816H15.1098ZM16.0818 42.776L15.8304 43.2082L15.8338 43.2101L16.0818 42.776ZM19.2258 42.476L18.8594 42.1358L18.8565 42.139L19.2258 42.476ZM19.8498 39.692H20.3498L19.4026 39.4684L19.8498 39.692ZM18.8298 40.748L19.0804 41.1807L19.0827 41.1793L18.8298 40.748ZM15.9618 40.76L15.7104 41.1922L15.9618 40.76ZM14.9178 39.728L14.4857 39.9795L14.4877 39.9829L14.9178 39.728ZM14.9178 36.908L15.348 37.1629L15.35 37.1594L14.9178 36.908ZM15.9618 35.864L15.7104 35.4318V35.4318L15.9618 35.864ZM19.8498 36.944L19.3995 37.1611L20.3498 36.944H19.8498ZM19.8498 35.6V35.1H19.3498V35.6H19.8498ZM20.2338 35.6H20.7338V35.1H20.2338V35.6ZM19.5138 42.728L19.1517 42.3831L19.1462 42.3891L19.5138 42.728ZM18.6378 40.472L18.8938 40.9016L18.9004 40.8975L18.6378 40.472ZM19.5258 39.56L19.0939 39.3081L19.0923 39.3109L19.5258 39.56ZM19.5258 37.076L19.0899 37.3212L19.0963 37.3319L19.5258 37.076ZM18.6378 36.164L18.3753 36.5896L18.3819 36.5936L18.6378 36.164ZM16.1658 36.164L16.4218 36.5936L16.4244 36.592L16.1658 36.164ZM15.2538 37.076L14.8259 36.8174L14.8243 36.8201L15.2538 37.076ZM15.2538 39.56L14.8218 39.812L14.8283 39.8226L15.2538 39.56ZM16.1658 40.472L15.9032 40.8976L15.9139 40.9039L16.1658 40.472ZM17.4498 42.996C17.0728 42.996 16.7027 42.9106 16.3348 42.7335L15.9009 43.6345C16.397 43.8734 16.9149 43.996 17.4498 43.996V42.996ZM16.3348 42.7335C15.9662 42.5561 15.7005 42.3347 15.5167 42.0774L14.703 42.6586C14.9992 43.0733 15.4055 43.3959 15.9009 43.6345L16.3348 42.7335ZM15.6098 42.368V41.816H14.6098V42.368H15.6098ZM14.6702 42.0541C14.9287 42.5314 15.3244 42.9138 15.8304 43.2082L16.3333 42.3438C15.9593 42.1262 15.707 41.8686 15.5495 41.5779L14.6702 42.0541ZM15.8338 43.2101C16.3487 43.5043 16.8894 43.66 17.4498 43.66V42.66C17.0823 42.66 16.711 42.5597 16.3299 42.3419L15.8338 43.2101ZM17.4498 43.66C18.3216 43.66 19.0622 43.3973 19.5952 42.813L18.8565 42.139C18.5575 42.4668 18.1141 42.66 17.4498 42.66V43.66ZM19.5922 42.8162C20.1247 42.2428 20.3498 41.4406 20.3498 40.496H19.3498C19.3498 41.2954 19.159 41.8132 18.8594 42.1358L19.5922 42.8162ZM20.3498 40.496V39.692H19.3498V40.496H20.3498ZM19.4026 39.4684C19.2348 39.8041 18.9673 40.0879 18.577 40.3167L19.0827 41.1793C19.6204 40.8641 20.0329 40.4439 20.2971 39.9156L19.4026 39.4684ZM18.5793 40.3153C18.1959 40.5373 17.8018 40.644 17.3898 40.644V41.644C17.9859 41.644 18.5518 41.4867 19.0804 41.1807L18.5793 40.3153ZM17.3898 40.644C16.9656 40.644 16.5765 40.5391 16.2133 40.3278L15.7104 41.1922C16.2272 41.4929 16.79 41.644 17.3898 41.644V40.644ZM16.2133 40.3278C15.8459 40.1141 15.5599 39.8307 15.348 39.4731L14.4877 39.9829C14.7878 40.4893 15.1977 40.8939 15.7104 41.1922L16.2133 40.3278ZM15.35 39.4766C15.138 39.1121 15.0338 38.7267 15.0338 38.312H14.0338C14.0338 38.9053 14.1857 39.4639 14.4857 39.9794L15.35 39.4766ZM15.0338 38.312C15.0338 37.8973 15.1379 37.5174 15.348 37.1629L14.4877 36.6531C14.1858 37.1626 14.0338 37.7187 14.0338 38.312H15.0338ZM15.35 37.1594C15.5625 36.7943 15.8482 36.5086 16.2133 36.2962L15.7104 35.4318C15.1955 35.7314 14.7852 36.1417 14.4857 36.6566L15.35 37.1594ZM16.2133 36.2962C16.5765 36.0849 16.9656 35.98 17.3898 35.98V34.98C16.79 34.98 16.2272 35.1311 15.7104 35.4318L16.2133 36.2962ZM17.3898 35.98C17.83 35.98 18.2302 36.0888 18.6 36.3068L19.1077 35.4452C18.5815 35.1352 18.0057 34.98 17.3898 34.98V35.98ZM18.6 36.3068C18.9669 36.523 19.2284 36.8064 19.3995 37.1611L20.3002 36.7269C20.0393 36.1856 19.6368 35.757 19.1077 35.4452L18.6 36.3068ZM20.3498 36.944V35.6H19.3498V36.944H20.3498ZM19.8498 36.1H20.2338V35.1H19.8498V36.1ZM19.7338 35.6V40.496H20.7338V35.6H19.7338ZM19.7338 40.496C19.7338 41.4049 19.5123 42.0047 19.1518 42.3832L19.8759 43.0728C20.4754 42.4433 20.7338 41.5551 20.7338 40.496H19.7338ZM19.1462 42.3891C18.7951 42.77 18.2582 42.996 17.4498 42.996V43.996C18.4495 43.996 19.2886 43.71 19.8815 43.0669L19.1462 42.3891ZM17.4138 41.308C17.9434 41.308 18.4399 41.1719 18.8937 40.9016L18.3819 40.0424C18.0838 40.2201 17.7643 40.308 17.4138 40.308V41.308ZM18.9004 40.8975C19.3458 40.6227 19.7012 40.2586 19.9594 39.8091L19.0923 39.3109C18.9185 39.6134 18.6819 39.8573 18.3753 40.0465L18.9004 40.8975ZM19.9577 39.8119C20.2267 39.3508 20.3618 38.8478 20.3618 38.312H19.3618C19.3618 38.6722 19.273 39.0012 19.094 39.3081L19.9577 39.8119ZM20.3618 38.312C20.3618 37.7761 20.2266 37.2754 19.9554 36.8201L19.0963 37.3319C19.2731 37.6286 19.3618 37.9519 19.3618 38.312H20.3618ZM19.9616 36.8309C19.7031 36.3713 19.3453 36.0035 18.8937 35.7344L18.3819 36.5936C18.6824 36.7725 18.9166 37.0127 19.0901 37.3211L19.9616 36.8309ZM18.9004 35.7385C18.4458 35.458 17.947 35.316 17.4138 35.316V36.316C17.7607 36.316 18.0779 36.406 18.3753 36.5895L18.9004 35.7385ZM17.4138 35.316C16.8746 35.316 16.3692 35.457 15.9073 35.736L16.4244 36.592C16.7305 36.407 17.0571 36.316 17.4138 36.316V35.316ZM15.9099 35.7344C15.4616 36.0015 15.0992 36.365 14.8259 36.8174L15.6818 37.3346C15.8725 37.019 16.1181 36.7745 16.4217 36.5936L15.9099 35.7344ZM14.8243 36.8201C14.5531 37.2754 14.4178 37.7761 14.4178 38.312H15.4178C15.4178 37.9519 15.5066 37.6286 15.6834 37.3319L14.8243 36.8201ZM14.4178 38.312C14.4178 38.8478 14.553 39.3508 14.822 39.8119L15.6857 39.3081C15.5067 39.0012 15.4178 38.6722 15.4178 38.312H14.4178ZM14.8283 39.8226C15.1012 40.2648 15.461 40.6246 15.9033 40.8975L16.4284 40.0465C16.1187 39.8554 15.8705 39.6072 15.6794 39.2974L14.8283 39.8226ZM15.9139 40.9039C16.375 41.1729 16.878 41.308 17.4138 41.308V40.308C17.0536 40.308 16.7247 40.2191 16.4178 40.0401L15.9139 40.9039ZM25.5642 40.484L25.3151 40.0504H25.3151L25.5642 40.484ZM26.5002 39.596H27.0002V37.9298L26.0828 39.3207L26.5002 39.596ZM26.5002 40.208L26.8714 40.543L27.0002 40.4003V40.208H26.5002ZM25.5282 40.928L25.7175 41.3909L25.7264 41.387L25.5282 40.928ZM22.9242 40.748L22.6635 41.1747L22.6669 41.1767L22.9242 40.748ZM21.8802 39.692L21.448 39.9435L21.4514 39.9492L21.8802 39.692ZM21.8802 36.848L22.3082 37.1064L22.3103 37.1029L21.8802 36.848ZM22.9242 35.84L22.6881 35.3992L22.6848 35.4011L22.9242 35.84ZM26.5362 36.464L26.8875 36.8198L27.2254 36.4862L26.9096 36.1315L26.5362 36.464ZM22.7682 40.184L22.4169 39.8282L22.0212 40.2189L22.4516 40.571L22.7682 40.184ZM23.5362 40.664L23.3428 41.1253L23.3557 41.1303L23.5362 40.664ZM22.5402 39.956L22.1745 40.2969L22.5264 40.6744L22.8925 40.3108L22.5402 39.956ZM26.0562 36.464L26.4085 36.8188L26.7882 36.4417L26.3862 36.0884L26.0562 36.464ZM25.2882 35.972L25.0947 36.4333L25.1077 36.4383L25.2882 35.972ZM23.0922 36.14L23.3342 36.5775L23.3373 36.5758L23.0922 36.14ZM24.3762 41.308C24.8834 41.308 25.3648 41.1752 25.8132 40.9176L25.3151 40.0504C25.0116 40.2248 24.701 40.308 24.3762 40.308V41.308ZM25.8132 40.9176C26.2596 40.6611 26.6283 40.3099 26.9176 39.8713L26.0828 39.3207C25.8761 39.6341 25.6208 39.8749 25.3151 40.0504L25.8132 40.9176ZM26.0002 39.596V40.208H27.0002V39.596H26.0002ZM26.129 39.873C25.8738 40.1558 25.6068 40.3494 25.33 40.469L25.7264 41.387C26.1536 41.2026 26.5346 40.9162 26.8714 40.543L26.129 39.873ZM25.3389 40.4652C25.0567 40.5807 24.7226 40.644 24.3282 40.644V41.644C24.8298 41.644 25.2957 41.5633 25.7175 41.3908L25.3389 40.4652ZM24.3282 40.644C23.926 40.644 23.5465 40.5383 23.1814 40.3193L22.6669 41.1767C23.1818 41.4857 23.7383 41.644 24.3282 41.644V40.644ZM23.1849 40.3214C22.8227 40.1 22.532 39.8065 22.3089 39.4348L21.4514 39.9492C21.7564 40.4575 22.1616 40.868 22.6635 41.1746L23.1849 40.3214ZM22.3124 39.4406C22.0996 39.0748 21.9962 38.6933 21.9962 38.288H20.9962C20.9962 38.8747 21.1488 39.4292 21.448 39.9434L22.3124 39.4406ZM21.9962 38.288C21.9962 37.8353 22.1032 37.4461 22.3082 37.1064L21.4522 36.5896C21.1452 37.0979 20.9962 37.6687 20.9962 38.288H21.9962ZM22.3103 37.1029C22.5206 36.7481 22.8027 36.4758 23.1636 36.2789L22.6848 35.4011C22.1656 35.6842 21.7518 36.0839 21.45 36.5931L22.3103 37.1029ZM23.1603 36.2807C23.5306 36.0824 23.9446 35.98 24.4122 35.98V34.98C23.7918 34.98 23.2138 35.1176 22.6881 35.3993L23.1603 36.2807ZM24.4122 35.98C25.0928 35.98 25.6676 36.2403 26.1627 36.7965L26.9096 36.1315C26.2367 35.3757 25.3956 34.98 24.4122 34.98V35.98ZM26.1849 36.1082L22.4169 39.8282L23.1195 40.5398L26.8875 36.8198L26.1849 36.1082ZM22.4516 40.571C22.7434 40.8097 23.0403 40.9982 23.3428 41.1251L23.7296 40.2029C23.536 40.1218 23.321 39.9903 23.0848 39.797L22.4516 40.571ZM23.3557 41.1303C23.6703 41.2521 24.013 41.308 24.3762 41.308V40.308C24.1154 40.308 23.8981 40.2679 23.7167 40.1977L23.3557 41.1303ZM21.3802 38.252C21.3802 39.0385 21.6454 39.7294 22.1745 40.2969L22.9059 39.6151C22.5549 39.2386 22.3802 38.7935 22.3802 38.252H21.3802ZM22.8925 40.3108L26.4085 36.8188L25.7038 36.1092L22.1878 39.6012L22.8925 40.3108ZM26.3862 36.0884C26.0915 35.8294 25.7859 35.6285 25.4687 35.5057L25.1077 36.4383C25.2864 36.5075 25.4929 36.6346 25.7261 36.8396L26.3862 36.0884ZM25.4816 35.5109C25.1578 35.3751 24.7928 35.316 24.4002 35.316V36.316C24.6956 36.316 24.9226 36.3609 25.0948 36.4331L25.4816 35.5109ZM24.4002 35.316C23.8358 35.316 23.3137 35.4417 22.8471 35.7042L23.3373 36.5758C23.6386 36.4063 23.9886 36.316 24.4002 36.316V35.316ZM22.8502 35.7025C22.3963 35.9536 22.0347 36.305 21.773 36.7509L22.6354 37.2571C22.8057 36.967 23.0361 36.7424 23.3342 36.5775L22.8502 35.7025ZM21.773 36.7509C21.508 37.2023 21.3802 37.707 21.3802 38.252H22.3802C22.3802 37.869 22.4683 37.5417 22.6354 37.2571L21.773 36.7509ZM28.2765 32.9L28.666 32.5865L27.7765 31.4811V32.9H28.2765ZM28.2765 41V41.5H28.7765V41H28.2765ZM27.9285 41H27.4285V41.5H27.9285V41ZM27.9285 31.868L28.3178 31.5543L27.4285 30.4507V31.868H27.9285ZM34.5525 40.088L34.1631 40.4017L35.0525 41.5053V40.088H34.5525ZM34.5525 32V31.5H34.0525V32H34.5525ZM34.9005 32H35.4005V31.5H34.9005V32ZM34.9005 41.132L34.5109 41.4455L35.4005 42.5509V41.132H34.9005ZM27.7765 32.9V41H28.7765V32.9H27.7765ZM28.2765 40.5H27.9285V41.5H28.2765V40.5ZM28.4285 41V31.868H27.4285V41H28.4285ZM27.5391 32.1817L34.1631 40.4017L34.9418 39.7743L28.3178 31.5543L27.5391 32.1817ZM35.0525 40.088V32H34.0525V40.088H35.0525ZM34.5525 32.5H34.9005V31.5H34.5525V32.5ZM34.4005 32V41.132H35.4005V32H34.4005ZM35.29 40.8185L28.666 32.5865L27.8869 33.2135L34.5109 41.4455L35.29 40.8185ZM37.7236 40.748L37.4721 41.1802L37.7236 40.748ZM36.6796 39.716L36.2474 39.9675L36.2494 39.9709L36.6796 39.716ZM36.6796 36.896L37.1097 37.1509L37.1117 37.1474L36.6796 36.896ZM37.7236 35.852L37.4721 35.4198L37.7236 35.852ZM40.6276 35.888L40.3692 36.3161L40.3747 36.3193L40.6276 35.888ZM41.5996 36.956L41.1383 37.1489L42.0996 36.956H41.5996ZM41.5996 35.6V35.1H41.0996V35.6H41.5996ZM41.9836 35.6H42.4836V35.1H41.9836V35.6ZM41.9836 41V41.5H42.4836V41H41.9836ZM41.5996 41H41.0996V41.5H41.5996V41ZM41.5996 39.656H42.0996L41.1492 39.4389L41.5996 39.656ZM40.5916 40.736L40.8454 41.1668L40.8477 41.1654L40.5916 40.736ZM40.3996 40.46L40.6555 40.8896L40.6621 40.8855L40.3996 40.46ZM41.2876 39.548L40.8557 39.2961L40.854 39.2989L41.2876 39.548ZM41.2876 37.064L40.8557 37.3159L41.2876 37.064ZM40.3876 36.152L40.125 36.5776L40.1317 36.5816L40.3876 36.152ZM37.9276 36.152L37.669 35.724L37.665 35.7265L37.9276 36.152ZM37.0156 37.076L36.5876 36.8174L36.5837 36.8241L37.0156 37.076ZM37.0156 39.548L36.5835 39.8L36.59 39.8106L37.0156 39.548ZM37.9396 40.46L37.681 40.888L37.6876 40.8919L37.9396 40.46ZM39.1516 40.632C38.7274 40.632 38.3382 40.5271 37.975 40.3158L37.4721 41.1802C37.9889 41.4809 38.5518 41.632 39.1516 41.632V40.632ZM37.975 40.3158C37.6077 40.1021 37.3216 39.8187 37.1097 39.4611L36.2494 39.9709C36.5495 40.4773 36.9595 40.8819 37.4721 41.1802L37.975 40.3158ZM37.1117 39.4646C36.8997 39.1001 36.7956 38.7147 36.7956 38.3H35.7956C35.7956 38.8933 35.9474 39.4519 36.2474 39.9674L37.1117 39.4646ZM36.7956 38.3C36.7956 37.8853 36.8996 37.5054 37.1097 37.1509L36.2494 36.6411C35.9475 37.1506 35.7956 37.7067 35.7956 38.3H36.7956ZM37.1117 37.1474C37.3242 36.7823 37.6099 36.4966 37.975 36.2842L37.4721 35.4198C36.9572 35.7194 36.547 36.1297 36.2474 36.6446L37.1117 37.1474ZM37.975 36.2842C38.3382 36.0729 38.7274 35.968 39.1516 35.968V34.968C38.5518 34.968 37.9889 35.1191 37.4721 35.4198L37.975 36.2842ZM39.1516 35.968C39.5766 35.968 39.9797 36.0811 40.3692 36.3161L40.8859 35.4599C40.3474 35.1349 39.7666 34.968 39.1516 34.968V35.968ZM40.3747 36.3193C40.7577 36.5439 41.0014 36.8215 41.1383 37.1489L42.0609 36.7631C41.8298 36.2105 41.4254 35.7761 40.8804 35.4567L40.3747 36.3193ZM42.0996 36.956V35.6H41.0996V36.956H42.0996ZM41.5996 36.1H41.9836V35.1H41.5996V36.1ZM41.4836 35.6V41H42.4836V35.6H41.4836ZM41.9836 40.5H41.5996V41.5H41.9836V40.5ZM42.0996 41V39.656H41.0996V41H42.0996ZM41.1492 39.4389C40.9786 39.7925 40.7132 40.0812 40.3354 40.3066L40.8477 41.1654C41.3819 40.8468 41.7885 40.4155 42.0499 39.8731L41.1492 39.4389ZM40.3377 40.3052C39.9654 40.5246 39.5728 40.632 39.1516 40.632V41.632C39.7543 41.632 40.3218 41.4754 40.8454 41.1668L40.3377 40.3052ZM39.1756 41.296C39.7051 41.296 40.2016 41.1599 40.6555 40.8896L40.1437 40.0304C39.8455 40.2081 39.526 40.296 39.1756 40.296V41.296ZM40.6621 40.8855C41.1075 40.6107 41.4629 40.2466 41.7211 39.7971L40.854 39.2989C40.6803 39.6014 40.4436 39.8453 40.137 40.0345L40.6621 40.8855ZM41.7195 39.7999C41.9884 39.3388 42.1236 38.8358 42.1236 38.3H41.1236C41.1236 38.6602 41.0347 38.9892 40.8557 39.2961L41.7195 39.7999ZM42.1236 38.3C42.1236 37.7705 41.9876 37.2717 41.7195 36.8121L40.8557 37.3159C41.0356 37.6243 41.1236 37.9495 41.1236 38.3H42.1236ZM41.7195 36.8121C41.4535 36.3561 41.0934 35.9905 40.6435 35.7224L40.1317 36.5816C40.4337 36.7615 40.6736 37.0039 40.8557 37.3159L41.7195 36.8121ZM40.6501 35.7265C40.1955 35.446 39.6967 35.304 39.1636 35.304V36.304C39.5104 36.304 39.8276 36.394 40.125 36.5775L40.6501 35.7265ZM39.1636 35.304C38.6306 35.304 38.1294 35.4459 37.669 35.724L38.1861 36.58C38.4937 36.3941 38.8166 36.304 39.1636 36.304V35.304ZM37.665 35.7265C37.2203 36.0009 36.86 36.3665 36.5876 36.8174L37.4435 37.3346C37.6351 37.0175 37.8828 36.7671 38.1901 36.5775L37.665 35.7265ZM36.5837 36.8241C36.3156 37.2837 36.1796 37.7825 36.1796 38.312H37.1796C37.1796 37.9615 37.2676 37.6363 37.4475 37.3279L36.5837 36.8241ZM36.1796 38.312C36.1796 38.8415 36.3156 39.3403 36.5837 39.7999L37.4475 39.2961C37.2676 38.9877 37.1796 38.6625 37.1796 38.312H36.1796ZM36.59 39.8106C36.8644 40.2552 37.2301 40.6155 37.681 40.888L38.1981 40.032C37.881 39.8405 37.6307 39.5928 37.4411 39.2854L36.59 39.8106ZM37.6876 40.8919C38.1473 41.16 38.6461 41.296 39.1756 41.296V40.296C38.8251 40.296 38.4999 40.208 38.1915 40.0281L37.6876 40.8919ZM43.4982 35.6V35.1H42.9982V35.6H43.4982ZM43.8822 35.6H44.3822V35.1H43.8822V35.6ZM43.8822 36.8H43.3822L44.3398 37.0014L43.8822 36.8ZM44.7822 35.84L45.0285 36.2752L45.0346 36.2716L44.7822 35.84ZM47.7582 36.104L47.3875 36.4397L47.3943 36.4469L47.7582 36.104ZM48.3462 41V41.5H48.8462V41H48.3462ZM47.9622 41H47.4622V41.5H47.9622V41ZM47.4822 36.344L47.1043 36.6715L47.1085 36.6762L47.4822 36.344ZM45.0102 36.092L45.246 36.5329L45.2496 36.5309L45.0102 36.092ZM44.1822 36.86L43.7599 36.5922L43.7553 36.5997L44.1822 36.86ZM43.8822 41V41.5H44.3822V41H43.8822ZM43.4982 41H42.9982V41.5H43.4982V41ZM43.4982 36.1H43.8822V35.1H43.4982V36.1ZM43.3822 35.6V36.8H44.3822V35.6H43.3822ZM44.3398 37.0014C44.4675 36.7113 44.687 36.4684 45.0285 36.2751L44.5359 35.4049C44.0294 35.6916 43.6489 36.0887 43.4245 36.5986L44.3398 37.0014ZM45.0346 36.2716C45.3787 36.0703 45.759 35.968 46.1862 35.968V34.968C45.5894 34.968 45.0336 35.1137 44.5297 35.4084L45.0346 36.2716ZM46.1862 35.968C46.7339 35.968 47.1139 36.1375 47.3876 36.4396L48.1288 35.7684C47.6345 35.2225 46.9664 34.968 46.1862 34.968V35.968ZM47.3943 36.4469C47.6741 36.7438 47.8462 37.1901 47.8462 37.856H48.8462C48.8462 37.0179 48.6263 36.2962 48.1221 35.7611L47.3943 36.4469ZM47.8462 37.856V41H48.8462V37.856H47.8462ZM48.3462 40.5H47.9622V41.5H48.3462V40.5ZM48.4622 41V37.856H47.4622V41H48.4622ZM48.4622 37.856C48.4622 37.1283 48.2818 36.4909 47.8559 36.0118L47.1085 36.6762C47.3226 36.9171 47.4622 37.2877 47.4622 37.856H48.4622ZM47.86 36.0165C47.4347 35.5258 46.8446 35.304 46.1622 35.304V36.304C46.6158 36.304 46.9057 36.4422 47.1043 36.6715L47.86 36.0165ZM46.1622 35.304C45.6658 35.304 45.199 35.4195 44.7708 35.6531L45.2496 36.5309C45.5254 36.3805 45.8266 36.304 46.1622 36.304V35.304ZM44.7744 35.6511C44.3547 35.8756 44.0143 36.1911 43.7599 36.5922L44.6044 37.1278C44.7661 36.8729 44.9777 36.6764 45.246 36.5329L44.7744 35.6511ZM43.7553 36.5997C43.5035 37.0126 43.3822 37.4761 43.3822 37.976H44.3822C44.3822 37.6439 44.4608 37.3634 44.6091 37.1203L43.7553 36.5997ZM43.3822 37.976V41H44.3822V37.976H43.3822ZM43.8822 40.5H43.4982V41.5H43.8822V40.5ZM43.9982 41V35.6H42.9982V41H43.9982ZM51.7935 41.072V41.572H52.2935V41.072H51.7935ZM50.3175 40.532L49.9755 40.8968L49.9793 40.9003L50.3175 40.532ZM49.7415 33.428V32.928H49.2415V33.428H49.7415ZM50.1255 33.428H50.6255V32.928H50.1255V33.428ZM50.1255 35.6H49.6255V36.1H50.1255V35.6ZM51.7815 35.6H52.2815V35.1H51.7815V35.6ZM51.7815 35.936V36.436H52.2815V35.936H51.7815ZM50.1255 35.936V35.436H49.6255V35.936H50.1255ZM50.5935 40.292L50.2444 40.6502L50.2539 40.659L50.5935 40.292ZM51.7935 40.736H52.2935V40.236H51.7935V40.736ZM51.7935 40.572C51.3115 40.572 50.9448 40.4293 50.6557 40.1637L49.9793 40.9003C50.4741 41.3547 51.0914 41.572 51.7935 41.572V40.572ZM50.6594 40.1672C50.3962 39.9205 50.2415 39.5678 50.2415 39.044H49.2415C49.2415 39.7842 49.4707 40.4235 49.9755 40.8968L50.6594 40.1672ZM50.2415 39.044V33.428H49.2415V39.044H50.2415ZM49.7415 33.928H50.1255V32.928H49.7415V33.928ZM49.6255 33.428V35.6H50.6255V33.428H49.6255ZM50.1255 36.1H51.7815V35.1H50.1255V36.1ZM51.2815 35.6V35.936H52.2815V35.6H51.2815ZM51.7815 35.436H50.1255V36.436H51.7815V35.436ZM49.6255 35.936V39.044H50.6255V35.936H49.6255ZM49.6255 39.044C49.6255 39.6762 49.816 40.2326 50.2445 40.6501L50.9424 39.9339C50.7469 39.7434 50.6255 39.4678 50.6255 39.044H49.6255ZM50.2539 40.659C50.676 41.0495 51.2014 41.236 51.7935 41.236V40.236C51.4255 40.236 51.1509 40.1265 50.933 39.925L50.2539 40.659ZM51.2935 40.736V41.072H52.2935V40.736H51.2935ZM56.6189 40.484L56.3698 40.0504L56.6189 40.484ZM57.5549 39.596H58.0549V37.9298L57.1375 39.3207L57.5549 39.596ZM57.5549 40.208L57.9261 40.543L58.0549 40.4003V40.208H57.5549ZM56.5829 40.928L56.7722 41.3909L56.7811 41.387L56.5829 40.928ZM53.9789 40.748L53.7181 41.1747L53.7216 41.1767L53.9789 40.748ZM52.9349 39.692L52.5027 39.9435L52.5061 39.9492L52.9349 39.692ZM52.9349 36.848L53.3629 37.1064L53.365 37.1029L52.9349 36.848ZM53.9789 35.84L53.7428 35.3992L53.7394 35.4011L53.9789 35.84ZM57.5909 36.464L57.9422 36.8198L58.2801 36.4862L57.9643 36.1315L57.5909 36.464ZM53.8229 40.184L53.4716 39.8282L53.0759 40.2189L53.5063 40.571L53.8229 40.184ZM54.5909 40.664L54.3974 41.1253L54.4104 41.1303L54.5909 40.664ZM53.5949 39.956L53.2291 40.2969L53.581 40.6744L53.9472 40.3108L53.5949 39.956ZM57.1109 36.464L57.4632 36.8188L57.8429 36.4417L57.4409 36.0884L57.1109 36.464ZM56.3429 35.972L56.1494 36.4333L56.1624 36.4383L56.3429 35.972ZM54.1469 36.14L54.3889 36.5775L54.392 36.5758L54.1469 36.14ZM55.4309 41.308C55.9381 41.308 56.4195 41.1752 56.8679 40.9176L56.3698 40.0504C56.0663 40.2248 55.7557 40.308 55.4309 40.308V41.308ZM56.8679 40.9176C57.3143 40.6611 57.683 40.3099 57.9723 39.8713L57.1375 39.3207C56.9308 39.6341 56.6755 39.8749 56.3698 40.0504L56.8679 40.9176ZM57.0549 39.596V40.208H58.0549V39.596H57.0549ZM57.1837 39.873C56.9285 40.1558 56.6614 40.3494 56.3847 40.469L56.7811 41.387C57.2083 41.2026 57.5893 40.9162 57.9261 40.543L57.1837 39.873ZM56.3936 40.4652C56.1113 40.5807 55.7773 40.644 55.3829 40.644V41.644C55.8844 41.644 56.3504 41.5633 56.7722 41.3908L56.3936 40.4652ZM55.3829 40.644C54.9807 40.644 54.6012 40.5383 54.2361 40.3193L53.7216 41.1767C54.2365 41.4857 54.793 41.644 55.3829 41.644V40.644ZM54.2396 40.3214C53.8774 40.1 53.5867 39.8065 53.3636 39.4348L52.5061 39.9492C52.8111 40.4575 53.2163 40.868 53.7182 41.1746L54.2396 40.3214ZM53.3671 39.4406C53.1542 39.0748 53.0509 38.6933 53.0509 38.288H52.0509C52.0509 38.8747 52.2035 39.4292 52.5027 39.9434L53.3671 39.4406ZM53.0509 38.288C53.0509 37.8353 53.1578 37.4461 53.3629 37.1064L52.5068 36.5896C52.1999 37.0979 52.0509 37.6687 52.0509 38.288H53.0509ZM53.365 37.1029C53.5753 36.7481 53.8574 36.4758 54.2183 36.2789L53.7394 35.4011C53.2203 35.6842 52.8065 36.0839 52.5047 36.5931L53.365 37.1029ZM54.215 36.2807C54.5853 36.0824 54.9993 35.98 55.4669 35.98V34.98C54.8465 34.98 54.2685 35.1176 53.7428 35.3993L54.215 36.2807ZM55.4669 35.98C56.1474 35.98 56.7223 36.2403 57.2174 36.7965L57.9643 36.1315C57.2914 35.3757 56.4503 34.98 55.4669 34.98V35.98ZM57.2396 36.1082L53.4716 39.8282L54.1742 40.5398L57.9422 36.8198L57.2396 36.1082ZM53.5063 40.571C53.7981 40.8097 54.095 40.9982 54.3975 41.1251L54.7842 40.2029C54.5907 40.1218 54.3757 39.9903 54.1395 39.797L53.5063 40.571ZM54.4104 41.1303C54.725 41.2521 55.0676 41.308 55.4309 41.308V40.308C55.1701 40.308 54.9528 40.2679 54.7714 40.1977L54.4104 41.1303ZM52.4349 38.252C52.4349 39.0385 52.7001 39.7294 53.2291 40.2969L53.9606 39.6151C53.6096 39.2386 53.4349 38.7935 53.4349 38.252H52.4349ZM53.9472 40.3108L57.4632 36.8188L56.7585 36.1092L53.2425 39.6012L53.9472 40.3108ZM57.4409 36.0884C57.1462 35.8294 56.8406 35.6285 56.5234 35.5057L56.1624 36.4383C56.3411 36.5075 56.5476 36.6346 56.7808 36.8396L57.4409 36.0884ZM56.5362 35.5109C56.2125 35.3751 55.8475 35.316 55.4549 35.316V36.316C55.7503 36.316 55.9772 36.3609 56.1495 36.4331L56.5362 35.5109ZM55.4549 35.316C54.8905 35.316 54.3684 35.4417 53.9017 35.7042L54.392 36.5758C54.6933 36.4063 55.0433 36.316 55.4549 36.316V35.316ZM53.9048 35.7025C53.451 35.9536 53.0894 36.305 52.8277 36.7509L53.6901 37.2571C53.8604 36.967 54.0908 36.7424 54.3889 36.5775L53.9048 35.7025ZM52.8277 36.7509C52.5627 37.2023 52.4349 37.707 52.4349 38.252H53.4349C53.4349 37.869 53.523 37.5417 53.6901 37.2571L52.8277 36.7509ZM59.0792 40.94L58.8704 41.3945L58.8807 41.3989L59.0792 40.94ZM58.4432 40.424H57.9432V40.5655L58.0173 40.686L58.4432 40.424ZM58.4432 39.788L58.9005 39.5859L57.9432 39.788H58.4432ZM59.0672 40.556L58.7987 40.9779L58.808 40.9836L59.0672 40.556ZM61.0232 40.436L61.3768 40.7896L61.3825 40.7837L61.0232 40.436ZM61.1792 38.732L60.777 39.0293L60.7835 39.0377L61.1792 38.732ZM60.5192 38.18L60.7781 37.7522L60.7697 37.7473L60.5192 38.18ZM60.0632 37.916L59.8028 38.343L59.8126 38.3487L60.0632 37.916ZM59.3192 37.448L59.0192 37.848L59.0303 37.8563L59.0418 37.864L59.3192 37.448ZM58.9352 37.052L58.5123 37.3191L58.5191 37.3293L58.9352 37.052ZM59.1272 35.756L59.4526 36.1356L59.1272 35.756ZM61.1072 35.768H61.6072V35.5024L61.3871 35.3537L61.1072 35.768ZM61.1072 36.296L60.7083 36.5976L61.6072 37.7863V36.296H61.1072ZM59.4152 35.996L59.1028 35.6056V35.6056L59.4152 35.996ZM59.3192 36.956L58.9107 37.2443L58.9148 37.2502L58.9192 37.256L59.3192 36.956ZM59.7152 37.316L59.4377 37.7321L59.4467 37.7378L59.7152 37.316ZM60.5792 37.82L60.8263 37.3853L60.8235 37.3837L60.5792 37.82ZM61.4792 38.54L61.0837 38.8461L61.0887 38.8523L61.4792 38.54ZM61.2752 40.688L61.6147 41.055L61.615 41.0547L61.2752 40.688ZM60.0992 40.632C59.7706 40.632 59.5002 40.5773 59.2776 40.4811L58.8807 41.3989C59.2501 41.5587 59.6597 41.632 60.0992 41.632V40.632ZM59.2879 40.4857C59.0523 40.3774 58.9305 40.262 58.869 40.162L58.0173 40.686C58.2118 41.002 58.514 41.2306 58.8704 41.3943L59.2879 40.4857ZM58.9432 40.424V39.788H57.9432V40.424H58.9432ZM57.9858 39.9901C58.1695 40.4059 58.4359 40.7469 58.7987 40.9778L59.3356 40.1342C59.1704 40.0291 59.0208 39.8581 58.9005 39.5859L57.9858 39.9901ZM58.808 40.9836C59.1715 41.2039 59.6044 41.296 60.0752 41.296V40.296C59.7299 40.296 59.4909 40.2281 59.3263 40.1284L58.808 40.9836ZM60.0752 41.296C60.5775 41.296 61.0283 41.138 61.3767 40.7896L60.6696 40.0824C60.538 40.214 60.3568 40.296 60.0752 40.296V41.296ZM61.3825 40.7837C61.7232 40.4316 61.8832 39.9858 61.8832 39.488H60.8832C60.8832 39.7582 60.8031 39.9444 60.6639 40.0883L61.3825 40.7837ZM61.8832 39.488C61.8832 39.0998 61.8039 38.7228 61.5748 38.4263L60.7835 39.0377C60.8264 39.0932 60.8832 39.2202 60.8832 39.488H61.8832ZM61.5812 38.4348C61.3911 38.1775 61.1103 37.9533 60.7781 37.7522L60.2603 38.6077C60.536 38.7747 60.6952 38.9185 60.7771 39.0292L61.5812 38.4348ZM60.7697 37.7473L60.3137 37.4833L59.8126 38.3487L60.2686 38.6127L60.7697 37.7473ZM60.3235 37.4891C59.9971 37.2901 59.756 37.1383 59.5965 37.032L59.0418 37.864C59.2184 37.9817 59.4732 38.1419 59.8029 38.3429L60.3235 37.4891ZM59.6192 37.048C59.4976 36.9568 59.4113 36.8648 59.3512 36.7746L58.5191 37.3293C58.651 37.5272 58.8207 37.6992 59.0192 37.848L59.6192 37.048ZM59.3579 36.785C59.3179 36.7217 59.2912 36.6405 59.2912 36.524H58.2912C58.2912 36.8075 58.3604 37.0783 58.5124 37.319L59.3579 36.785ZM59.2912 36.524C59.2912 36.336 59.3496 36.2239 59.4526 36.1356L58.8018 35.3764C58.4567 35.6721 58.2912 36.072 58.2912 36.524H59.2912ZM59.4526 36.1356C59.5671 36.0374 59.7352 35.968 60.0032 35.968V34.968C59.5512 34.968 59.1352 35.0906 58.8018 35.3764L59.4526 36.1356ZM60.0032 35.968C60.3667 35.968 60.6313 36.0499 60.8272 36.1823L61.3871 35.3537C60.991 35.0861 60.5196 34.968 60.0032 34.968V35.968ZM60.6072 35.768V36.296H61.6072V35.768H60.6072ZM61.506 35.9944C61.1504 35.5242 60.6368 35.304 60.0392 35.304V36.304C60.3695 36.304 60.5679 36.4118 60.7083 36.5976L61.506 35.9944ZM60.0392 35.304C59.6986 35.304 59.3717 35.3904 59.1028 35.6056L59.7275 36.3864C59.7786 36.3456 59.8677 36.304 60.0392 36.304V35.304ZM59.1028 35.6056C58.8276 35.8257 58.6752 36.1318 58.6752 36.488H59.6752C59.6752 36.4442 59.6827 36.4223 59.7275 36.3864L59.1028 35.6056ZM58.6752 36.488C58.6752 36.761 58.7516 37.019 58.9107 37.2443L59.7276 36.6677C59.6947 36.621 59.6752 36.567 59.6752 36.488H58.6752ZM58.9192 37.256C59.0568 37.4395 59.2344 37.5965 59.4378 37.732L59.9925 36.9C59.8599 36.8115 59.7736 36.7285 59.7192 36.656L58.9192 37.256ZM59.4467 37.7378C59.6354 37.8579 59.934 38.0317 60.3349 38.2563L60.8235 37.3837C60.4244 37.1603 60.1469 36.9981 59.9836 36.8942L59.4467 37.7378ZM60.332 38.2546C60.7084 38.4687 60.9471 38.6696 61.0838 38.8461L61.8745 38.2339C61.6272 37.9144 61.2659 37.6353 60.8263 37.3854L60.332 38.2546ZM61.0887 38.8523C61.1922 38.9817 61.2672 39.1778 61.2672 39.488H62.2672C62.2672 39.0142 62.1501 38.5783 61.8696 38.2277L61.0887 38.8523ZM61.2672 39.488C61.2672 39.8617 61.1494 40.1228 60.9353 40.3213L61.615 41.0547C62.0569 40.6452 62.2672 40.1063 62.2672 39.488H61.2672ZM60.9356 40.321C60.7144 40.5256 60.4462 40.632 60.0992 40.632V41.632C60.6801 41.632 61.1959 41.4424 61.6147 41.055L60.9356 40.321ZM67.9157 32.72L68.1784 33.1455L68.1798 33.1446L67.9157 32.72ZM66.3678 34.34L65.9324 34.0941L65.9314 34.0959L66.3678 34.34ZM66.3798 38.696L65.9456 38.9441L66.3798 38.696ZM67.9037 40.304L67.6363 40.7265L67.6426 40.7304L67.9037 40.304ZM71.1198 40.772L71.0065 40.285L71.0039 40.2856L71.1198 40.772ZM72.1038 40.388L72.3494 40.8235L72.6038 40.68V40.388H72.1038ZM72.1038 37.568H72.6038V37.068H72.1038V37.568ZM69.1277 37.568H68.6277V38.068H69.1277V37.568ZM69.1277 37.22V36.72H68.6277V37.22H69.1277ZM72.4997 37.22H72.9997V36.72H72.4997V37.22ZM72.4997 40.136H71.9997V40.945L72.7234 40.5832L72.4997 40.136ZM72.5238 40.124H73.0238V39.315L72.3001 39.6768L72.5238 40.124ZM72.5238 40.568L72.7823 40.996L73.0238 40.8501V40.568H72.5238ZM71.3357 41.072L71.2122 40.5874L71.2009 40.5905L71.3357 41.072ZM67.6998 40.628L67.4454 41.0585L67.449 41.0606L67.6998 40.628ZM66.0198 38.924L65.5835 39.1685L65.5868 39.1741L66.0198 38.924ZM66.0437 34.088L65.615 33.8307L65.6129 33.8343L66.0437 34.088ZM67.7598 32.384L67.5096 31.9511L67.5075 31.9523L67.7598 32.384ZM71.3838 31.916L71.2326 32.3927L71.2433 32.3959L71.3838 31.916ZM72.5238 32.432H73.0238V32.1425L72.7727 31.9984L72.5238 32.432ZM72.5238 32.876L72.2408 33.2883L73.0238 33.8256V32.876H72.5238ZM71.3838 32.288L71.219 32.7603L71.2321 32.7645L71.3838 32.288ZM70.0878 31.608C69.2049 31.608 68.389 31.8368 67.6517 32.2954L68.1798 33.1446C68.7545 32.7872 69.3866 32.608 70.0878 32.608V31.608ZM67.6531 32.2945C66.9314 32.74 66.3568 33.3426 65.9324 34.0941L66.8031 34.5859C67.1467 33.9774 67.6041 33.5 68.1784 33.1455L67.6531 32.2945ZM65.9314 34.0959C65.5133 34.8431 65.3037 35.6512 65.3037 36.512H66.3037C66.3037 35.8208 66.4702 35.1809 66.8041 34.5841L65.9314 34.0959ZM65.3037 36.512C65.3037 37.3818 65.5179 38.1955 65.9456 38.9441L66.8139 38.4479C66.4736 37.8525 66.3037 37.2102 66.3037 36.512H65.3037ZM65.9456 38.9441C66.3687 39.6844 66.9329 40.2813 67.6364 40.7265L68.1712 39.8815C67.6106 39.5267 67.1588 39.0516 66.8139 38.4479L65.9456 38.9441ZM67.6426 40.7304C68.3596 41.1695 69.1377 41.392 69.9678 41.392V40.392C69.3258 40.392 68.7279 40.2225 68.1649 39.8776L67.6426 40.7304ZM69.9678 41.392C70.4295 41.392 70.8536 41.3494 71.2356 41.2584L71.0039 40.2856C70.7139 40.3546 70.37 40.392 69.9678 40.392V41.392ZM71.233 41.259C71.624 41.1681 71.9966 41.0225 72.3494 40.8235L71.8581 39.9525C71.587 40.1055 71.3035 40.2159 71.0065 40.285L71.233 41.259ZM72.6038 40.388V37.568H71.6038V40.388H72.6038ZM72.1038 37.068H69.1277V38.068H72.1038V37.068ZM69.6277 37.568V37.22H68.6277V37.568H69.6277ZM69.1277 37.72H72.4997V36.72H69.1277V37.72ZM71.9997 37.22V40.136H72.9997V37.22H71.9997ZM72.7234 40.5832L72.7474 40.5712L72.3001 39.6768L72.2761 39.6888L72.7234 40.5832ZM72.0238 40.124V40.568H73.0238V40.124H72.0238ZM72.2652 40.14C71.9204 40.3483 71.5697 40.4964 71.2122 40.5875L71.4593 41.5565C71.9178 41.4396 72.3591 41.2517 72.7823 40.996L72.2652 40.14ZM71.2009 40.5905C70.851 40.6885 70.4571 40.74 70.0157 40.74V41.74C70.5344 41.74 71.0205 41.6795 71.4706 41.5535L71.2009 40.5905ZM70.0157 40.74C69.2608 40.74 68.5757 40.5578 67.9505 40.1954L67.449 41.0606C68.2318 41.5142 69.0907 41.74 70.0157 41.74V40.74ZM67.9541 40.1975C67.3255 39.8261 66.8264 39.3207 66.4527 38.6739L65.5868 39.1741C66.0451 39.9673 66.666 40.5979 67.4454 41.0585L67.9541 40.1975ZM66.4559 38.6796C66.0932 38.0324 65.9078 37.3017 65.9078 36.476H64.9077C64.9077 37.4583 65.1303 38.3596 65.5836 39.1684L66.4559 38.6796ZM65.9078 36.476C65.9078 35.6892 66.0979 34.9814 66.4746 34.3417L65.6129 33.8343C65.1416 34.6346 64.9077 35.5188 64.9077 36.476H65.9078ZM66.4725 34.3452C66.8621 33.6959 67.3739 33.1885 68.012 32.8157L67.5075 31.9523C66.7216 32.4115 66.0894 33.0401 65.615 33.8308L66.4725 34.3452ZM68.0099 32.8169C68.6562 32.4435 69.3342 32.26 70.0518 32.26V31.26C69.1533 31.26 68.3033 31.4925 67.5096 31.9511L68.0099 32.8169ZM70.0518 32.26C70.5884 32.26 70.9744 32.3107 71.2326 32.3926L71.5349 31.4394C71.1371 31.3133 70.6351 31.26 70.0518 31.26V32.26ZM71.2433 32.3959C71.5205 32.477 71.863 32.6292 72.2748 32.8656L72.7727 31.9984C72.3205 31.7388 71.903 31.547 71.5242 31.4361L71.2433 32.3959ZM72.0238 32.432V32.876H73.0238V32.432H72.0238ZM72.8067 32.4637C72.3711 32.1648 71.9468 31.9425 71.5354 31.8115L71.2321 32.7645C71.5247 32.8575 71.8604 33.0272 72.2408 33.2883L72.8067 32.4637ZM71.5484 31.8159C71.1341 31.6714 70.6419 31.608 70.0878 31.608V32.608C70.5736 32.608 70.9454 32.6646 71.2191 32.7601L71.5484 31.8159ZM75.0472 40.796L74.7843 41.2213L74.79 41.2247L75.0472 40.796ZM74.0152 39.728L73.5778 39.9702L73.5796 39.9735L74.0152 39.728ZM74.0152 36.848L73.583 36.5965L73.5796 36.6025L74.0152 36.848ZM75.0472 35.804L75.3021 36.2342L75.3045 36.2327L75.0472 35.804ZM77.9512 35.804L77.6904 36.2307L77.6998 36.2362L77.9512 35.804ZM78.9952 39.752L79.4342 39.9914L79.436 39.9881L78.9952 39.752ZM77.9872 40.808L78.2457 41.236L78.2479 41.2346L77.9872 40.808ZM77.7712 40.508L77.5087 40.0825L77.7712 40.508ZM78.6472 39.584L78.2093 39.3427L78.2076 39.3459L78.6472 39.584ZM78.6472 37.028L79.0851 36.7867L78.6472 37.028ZM77.7592 36.092L77.4967 36.5175L77.7592 36.092ZM75.2512 36.104L75.5138 36.5295L75.5162 36.528L75.2512 36.104ZM74.3512 37.04L73.917 36.7919L73.9133 36.7987L74.3512 37.04ZM74.3512 39.584L73.9132 39.8254L73.9193 39.8359L74.3512 39.584ZM75.2512 40.508L74.9887 40.9335L74.9927 40.936L75.2512 40.508ZM76.5232 40.692C76.0642 40.692 75.662 40.5818 75.3045 40.3673L74.79 41.2247C75.3124 41.5382 75.8943 41.692 76.5232 41.692V40.692ZM75.3101 40.3707C74.9401 40.142 74.6563 39.8471 74.4508 39.4825L73.5796 39.9735C73.8701 40.4889 74.2743 40.906 74.7843 41.2213L75.3101 40.3707ZM74.4527 39.4858C74.2464 39.1132 74.1432 38.7127 74.1432 38.276H73.1432C73.1432 38.8793 73.2881 39.4468 73.5778 39.9702L74.4527 39.4858ZM74.1432 38.276C74.1432 37.8488 74.2456 37.4575 74.4508 37.0935L73.5796 36.6025C73.2888 37.1185 73.1432 37.6792 73.1432 38.276H74.1432ZM74.4474 37.0994C74.6611 36.7321 74.9445 36.4461 75.3021 36.2341L74.7923 35.3739C74.2859 35.6739 73.8813 36.0839 73.583 36.5966L74.4474 37.0994ZM75.3045 36.2327C75.6632 36.0175 76.0616 35.908 76.5112 35.908V34.908C75.8888 34.908 75.3112 35.0625 74.79 35.3753L75.3045 36.2327ZM76.5112 35.908C76.9514 35.908 77.3405 36.0167 77.6905 36.2306L78.2119 35.3774C77.698 35.0633 77.1271 34.908 76.5112 34.908V35.908ZM77.6998 36.2362C78.0635 36.4478 78.3437 36.7316 78.5476 37.0935L79.4188 36.6025C79.1268 36.0844 78.7189 35.6722 78.2027 35.3718L77.6998 36.2362ZM78.5476 37.0935C78.7528 37.4575 78.8552 37.8488 78.8552 38.276H79.8552C79.8552 37.6792 79.7096 37.1185 79.4188 36.6025L78.5476 37.0935ZM78.8552 38.276C78.8552 38.7343 78.7534 39.1445 78.5545 39.5159L79.436 39.9881C79.717 39.4635 79.8552 38.8897 79.8552 38.276H78.8552ZM78.5563 39.5126C78.3587 39.8748 78.0845 40.1626 77.7265 40.3814L78.2479 41.2346C78.7539 40.9254 79.1517 40.5092 79.4342 39.9914L78.5563 39.5126ZM77.7288 40.38C77.3915 40.5836 76.9948 40.692 76.5232 40.692V41.692C77.1556 41.692 77.735 41.5444 78.2457 41.236L77.7288 40.38ZM76.5232 41.356C77.0688 41.356 77.5762 41.2158 78.0338 40.9335L77.5087 40.0825C77.2142 40.2642 76.8896 40.356 76.5232 40.356V41.356ZM78.0338 40.9335C78.4833 40.6562 78.8367 40.2839 79.0869 39.8221L78.2076 39.3459C78.0417 39.6521 77.8112 39.8958 77.5087 40.0825L78.0338 40.9335ZM79.0851 39.8253C79.3434 39.3566 79.4712 38.8452 79.4712 38.3H78.4712C78.4712 38.6828 78.383 39.0274 78.2093 39.3427L79.0851 39.8253ZM79.4712 38.3C79.4712 37.7613 79.3427 37.254 79.0851 36.7867L78.2093 37.2693C78.3838 37.586 78.4712 37.9267 78.4712 38.3H79.4712ZM79.0851 36.7867C78.8281 36.3202 78.4721 35.9444 78.0218 35.6665L77.4967 36.5175C77.7983 36.7036 78.0343 36.9518 78.2093 37.2693L79.0851 36.7867ZM78.0218 35.6665C77.5642 35.3842 77.0568 35.244 76.5112 35.244V36.244C76.8776 36.244 77.2022 36.3358 77.4967 36.5175L78.0218 35.6665ZM76.5112 35.244C75.9622 35.244 75.4503 35.39 74.9862 35.68L75.5162 36.528C75.8202 36.338 76.1482 36.244 76.5112 36.244V35.244ZM74.9887 35.6785C74.5399 35.9554 74.1816 36.329 73.9171 36.7919L74.7853 37.2881C74.9688 36.967 75.2105 36.7166 75.5138 36.5295L74.9887 35.6785ZM73.9133 36.7987C73.6558 37.266 73.5272 37.7733 73.5272 38.312H74.5272C74.5272 37.9387 74.6147 37.598 74.7891 37.2813L73.9133 36.7987ZM73.5272 38.312C73.5272 38.8507 73.6558 39.358 73.9133 39.8253L74.7891 39.3427C74.6147 39.026 74.5272 38.6853 74.5272 38.312H73.5272ZM73.9193 39.8359C74.1844 40.2904 74.5424 40.6582 74.9887 40.9335L75.5138 40.0825C75.2081 39.8938 74.966 39.6456 74.7831 39.3321L73.9193 39.8359ZM74.9927 40.936C75.4574 41.2168 75.9714 41.356 76.5232 41.356V40.356C76.1471 40.356 75.813 40.2632 75.5098 40.08L74.9927 40.936Z" fill="white"/>
<path d="M25.75 4.28571H22C22 12.5692 27.877 19.2857 35.125 19.2857V28.9286C35.125 29.5179 35.5469 30 36.0625 30H37.9375C38.4531 30 38.875 29.5179 38.875 28.9286V19.2857C38.875 11.0022 32.998 4.28571 25.75 4.28571ZM48.25 0C43.3164 0 39.0273 3.11384 36.7832 7.71429C38.4062 9.73661 39.6074 12.1942 40.2402 14.9196C46.8438 14.1362 52 7.76116 52 0H48.25Z" fill="white"/>
</svg>
