<svg width="74" height="22" viewBox="0 0 74 22" fill="none" xmlns="http://www.w3.org/2000/svg">
<g opacity="0.6">
<path d="M59.6948 2.76154L51.1234 0.0192177C51.0432 -0.0064059 50.9577 -0.0064059 50.8774 0.0192177L42.306 2.76154C42.1245 2.81935 42 2.99738 42 3.19942V13.2546C42 17.2959 47.7788 20.8911 50.8732 21.9185C50.9568 21.9466 51.0466 21.9466 51.1303 21.9185C54.2212 20.8911 60 17.2959 60 13.2546V3.19937C60 2.9976 59.876 2.81965 59.6948 2.76154Z" fill="white"/>
<path d="M50.1428 14.6257C50.0291 14.6259 49.9199 14.5779 49.8394 14.4922L46.4109 10.8358C46.2464 10.6543 46.2511 10.3649 46.4214 10.1895C46.5875 10.0185 46.8508 10.0185 47.0168 10.1895L50.1428 13.5224L55.8394 7.44721C56.0038 7.26566 56.2751 7.2606 56.4454 7.43598C56.6156 7.61136 56.6203 7.90068 56.4559 8.08227C56.4525 8.08609 56.449 8.08981 56.4454 8.0935L50.4454 14.4922C50.3651 14.5777 50.2563 14.6257 50.1428 14.6257Z" fill="#0CB8FD"/>
</g>
<path d="M12.9269 8.90821C12.9269 9.92629 12.7013 10.8609 12.2503 11.7121C11.7993 12.5466 11.1066 13.2225 10.1723 13.7399C9.23807 14.2573 8.07828 14.516 6.69297 14.516H4.13176V20.8248H0V3.25035H6.69297C8.04606 3.25035 9.18974 3.49235 10.124 3.97636C11.0583 4.46036 11.759 5.12795 12.2261 5.97914C12.6933 6.83032 12.9269 7.80668 12.9269 8.90821ZM6.37886 11.1113C7.16816 11.1113 7.75611 10.9193 8.14271 10.5355C8.52931 10.1516 8.7226 9.60918 8.7226 8.90821C8.7226 8.20723 8.52931 7.66481 8.14271 7.28095C7.75611 6.89708 7.16816 6.70515 6.37886 6.70515H4.13176V11.1113H6.37886Z" fill="white"/>
<path d="M29.6236 3.25035L23.7521 15.0167V20.8248H19.6204V15.0167L13.7489 3.25035H18.4364L21.7225 10.6106L24.9844 3.25035H29.6236Z" fill="white"/>
<path d="M35.4201 17.5202H40.8325V20.8248H31.2883V3.25035H35.4201V17.5202Z" fill="white"/>
<path d="M74 3.25035V6.68011H69.5058V20.8248H65.374V6.68011H60.8798V3.25035H74Z" fill="white"/>
</svg>
